<svg xmlns="http://www.w3.org/2000/svg" width="756.594" height="466.047" viewBox="0 0 756.594 466.047">
  <g id="Grupo_63057" data-name="Grupo 63057" transform="translate(-131.364 -9308.555)">
    <g id="Grupo_63051" data-name="Grupo 63051">
      <circle id="Elipse_4235" data-name="Elipse 4235" cx="7.153" cy="7.153" r="7.153" transform="translate(154.39 9414.729)" fill="#161616"/>
      <circle id="Elipse_4236" data-name="Elipse 4236" cx="7.153" cy="7.153" r="7.153" transform="translate(445.52 9369.075)" fill="#161616"/>
      <path id="Trazado_112600" data-name="Trazado 112600" d="M452.265,9726.971a9.758,9.758,0,1,1,9.759-9.758A9.769,9.769,0,0,1,452.265,9726.971Zm0-17.032a7.274,7.274,0,1,0,7.275,7.274A7.282,7.282,0,0,0,452.265,9709.938Z" fill="#161616"/>
      <path id="Trazado_112601" data-name="Trazado 112601" d="M501.337,9726.971a9.758,9.758,0,1,1,9.759-9.758A9.77,9.77,0,0,1,501.337,9726.971Zm0-17.032a7.274,7.274,0,1,0,7.276,7.274A7.283,7.283,0,0,0,501.337,9709.938Z" fill="#161616"/>
      <path id="Trazado_112602" data-name="Trazado 112602" d="M549.683,9726.971a9.758,9.758,0,1,1,9.758-9.758A9.769,9.769,0,0,1,549.683,9726.971Zm0-17.032a7.274,7.274,0,1,0,7.275,7.274A7.284,7.284,0,0,0,549.683,9709.938Z" fill="#161616"/>
      <circle id="Elipse_4237" data-name="Elipse 4237" cx="7.153" cy="7.153" r="7.153" transform="translate(493.432 9415.479)" fill="#161616"/>
      <circle id="Elipse_4238" data-name="Elipse 4238" cx="7.153" cy="7.153" r="7.153" transform="translate(542.529 9460.957)" fill="#161616"/>
      <circle id="Elipse_4239" data-name="Elipse 4239" cx="7.153" cy="7.153" r="7.153" transform="translate(154.39 9459.904)" fill="#161616"/>
      <rect id="Rectángulo_7274" data-name="Rectángulo 7274" width="18.465" height="3.725" transform="translate(159.357 9374.137)" fill="#161616"/>
      <rect id="Rectángulo_7275" data-name="Rectángulo 7275" width="577.482" height="3.725" transform="translate(269.067 9374.137)" fill="#161616"/>
      <rect id="Rectángulo_7276" data-name="Rectángulo 7276" width="3.725" height="129.061" transform="translate(159.682 9375.999)" fill="#161616"/>
      <path id="Trazado_112603" data-name="Trazado 112603" d="M201.161,9377.849h-3.725c0-5.774-4.288-10.473-9.559-10.473s-9.558,4.7-9.558,10.473h-3.726c0-7.829,5.959-14.2,13.284-14.2S201.161,9370.02,201.161,9377.849Z" fill="#161616"/>
      <path id="Trazado_112604" data-name="Trazado 112604" d="M222.272,9377.849h-3.725c0-5.677-4.011-10.473-8.758-10.473s-8.759,4.8-8.759,10.473H197.3c0-7.829,5.6-14.2,12.484-14.2S222.272,9370.02,222.272,9377.849Z" fill="#161616"/>
      <path id="Trazado_112605" data-name="Trazado 112605" d="M243.514,9377.849h-3.726c0-5.677-4.011-10.473-8.759-10.473s-8.757,4.8-8.757,10.473h-3.725c0-7.829,5.6-14.2,12.482-14.2S243.514,9370.02,243.514,9377.849Z" fill="#161616"/>
      <path id="Trazado_112606" data-name="Trazado 112606" d="M264.754,9377.849h-3.725c0-5.677-4.01-10.473-8.758-10.473s-8.757,4.8-8.757,10.473h-3.726c0-7.829,5.6-14.2,12.483-14.2S264.754,9370.02,264.754,9377.849Z" fill="#161616"/>
      <g id="Grupo_63040" data-name="Grupo 63040">
        <rect id="Rectángulo_7277" data-name="Rectángulo 7277" width="19.566" height="3.725" transform="translate(159.357 9420.37)" fill="#161616"/>
        <rect id="Rectángulo_7278" data-name="Rectángulo 7278" width="577.482" height="3.725" transform="translate(269.067 9420.37)" fill="#161616"/>
        <path id="Trazado_112607" data-name="Trazado 112607" d="M203.654,9424.082h-3.947a10.134,10.134,0,1,0-20.257,0H175.5a14.077,14.077,0,1,1,28.152,0Z" fill="#161616"/>
        <path id="Trazado_112608" data-name="Trazado 112608" d="M226.024,9424.082h-3.947c0-5.676-4.25-10.472-9.28-10.472s-9.281,4.8-9.281,10.472h-3.948c0-7.829,5.934-14.2,13.229-14.2S226.024,9416.253,226.024,9424.082Z" fill="#161616"/>
        <path id="Trazado_112609" data-name="Trazado 112609" d="M248.533,9424.082h-3.948c0-5.676-4.25-10.472-9.281-10.472s-9.28,4.8-9.28,10.472h-3.947c0-7.829,5.934-14.2,13.227-14.2S248.533,9416.253,248.533,9424.082Z" fill="#161616"/>
        <path id="Trazado_112610" data-name="Trazado 112610" d="M271.04,9424.082h-3.947c0-5.676-4.25-10.472-9.28-10.472s-9.28,4.8-9.28,10.472h-3.948c0-7.829,5.934-14.2,13.228-14.2S271.04,9416.253,271.04,9424.082Z" fill="#161616"/>
      </g>
      <g id="Grupo_63041" data-name="Grupo 63041">
        <rect id="Rectángulo_7279" data-name="Rectángulo 7279" width="19.566" height="3.725" transform="translate(159.357 9466.248)" fill="#161616"/>
        <rect id="Rectángulo_7280" data-name="Rectángulo 7280" width="577.482" height="3.725" transform="translate(269.067 9466.248)" fill="#161616"/>
        <path id="Trazado_112611" data-name="Trazado 112611" d="M203.654,9469.959h-3.947a10.134,10.134,0,1,0-20.257,0H175.5a14.077,14.077,0,1,1,28.152,0Z" fill="#161616"/>
        <path id="Trazado_112612" data-name="Trazado 112612" d="M226.024,9469.959h-3.947c0-5.676-4.25-10.472-9.28-10.472s-9.281,4.8-9.281,10.472h-3.948c0-7.829,5.934-14.2,13.229-14.2S226.024,9462.13,226.024,9469.959Z" fill="#161616"/>
        <path id="Trazado_112613" data-name="Trazado 112613" d="M248.533,9469.959h-3.948c0-5.676-4.25-10.472-9.281-10.472s-9.28,4.8-9.28,10.472h-3.947c0-7.829,5.934-14.2,13.227-14.2S248.533,9462.13,248.533,9469.959Z" fill="#161616"/>
        <path id="Trazado_112614" data-name="Trazado 112614" d="M271.04,9469.959h-3.947c0-5.676-4.25-10.472-9.28-10.472s-9.28,4.8-9.28,10.472h-3.948c0-7.829,5.934-14.2,13.228-14.2S271.04,9462.13,271.04,9469.959Z" fill="#161616"/>
      </g>
      <rect id="Rectángulo_7281" data-name="Rectángulo 7281" width="2.483" height="332.996" transform="translate(451.431 9375.999)" fill="#161616"/>
      <rect id="Rectángulo_7282" data-name="Rectángulo 7282" width="2.483" height="286.362" transform="translate(499.343 9422.634)" fill="#161616"/>
      <rect id="Rectángulo_7283" data-name="Rectángulo 7283" width="2.483" height="234.815" transform="translate(548.441 9474.18)" fill="#161616"/>
      <rect id="Rectángulo_7284" data-name="Rectángulo 7284" width="3.725" height="193.918" transform="translate(596.146 9515.077)" fill="#0d9bda"/>
      <g id="Grupo_63042" data-name="Grupo 63042">
        <rect id="Rectángulo_7285" data-name="Rectángulo 7285" width="681.699" height="3.725" transform="translate(164.85 9511.352)" fill="#0d9bda"/>
      </g>
      <circle id="Elipse_4240" data-name="Elipse 4240" cx="6.096" cy="6.096" r="6.096" transform="translate(603.666 9609.792)" fill="#161616"/>
      <rect id="Rectángulo_7286" data-name="Rectángulo 7286" width="38.694" height="2.484" transform="matrix(0.605, -0.796, 0.796, 0.605, 585.306, 9645.934)" fill="#161616"/>
      <rect id="Rectángulo_7287" data-name="Rectángulo 7287" width="47.391" height="2.967" transform="translate(428.57 9687.539)" fill="#161616"/>
      <rect id="Rectángulo_7288" data-name="Rectángulo 7288" width="7.941" height="2.967" transform="translate(484.585 9687.539)" fill="#161616"/>
      <rect id="Rectángulo_7289" data-name="Rectángulo 7289" width="14.026" height="2.967" transform="translate(429.569 9731.69) rotate(90)" fill="#161616"/>
      <rect id="Rectángulo_7290" data-name="Rectángulo 7290" width="8.935" height="2.967" transform="translate(429.569 9715.778) rotate(90)" fill="#161616"/>
      <rect id="Rectángulo_7291" data-name="Rectángulo 7291" width="47.391" height="2.967" transform="translate(620.49 9690.506) rotate(180)" fill="#161616"/>
      <rect id="Rectángulo_7292" data-name="Rectángulo 7292" width="25.919" height="2.967" transform="translate(656.076 9690.506) rotate(180)" fill="#161616"/>
      <rect id="Rectángulo_7293" data-name="Rectángulo 7293" width="7.941" height="2.967" transform="translate(564.475 9690.506) rotate(180)" fill="#161616"/>
      <rect id="Rectángulo_7294" data-name="Rectángulo 7294" width="21.898" height="2.967" transform="translate(653.924 9747.539) rotate(180)" fill="#161616"/>
      <rect id="Rectángulo_7295" data-name="Rectángulo 7295" width="7.896" height="2.967" transform="translate(624.448 9747.539) rotate(180)" fill="#161616"/>
      <rect id="Rectángulo_7296" data-name="Rectángulo 7296" width="7.896" height="2.967" transform="translate(656.076 9719.934) rotate(90)" fill="#161616"/>
      <rect id="Rectángulo_7297" data-name="Rectángulo 7297" width="8.824" height="2.967" transform="translate(552.315 9747.539) rotate(180)" fill="#161616"/>
      <rect id="Rectángulo_7298" data-name="Rectángulo 7298" width="8.824" height="2.967" transform="translate(479.21 9747.539) rotate(180)" fill="#161616"/>
      <rect id="Rectángulo_7299" data-name="Rectángulo 7299" width="36.603" height="2.967" transform="translate(463.266 9747.539) rotate(180)" fill="#161616"/>
      <rect id="Rectángulo_7300" data-name="Rectángulo 7300" width="48.63" height="2.967" transform="translate(535.766 9747.539) rotate(180)" fill="#161616"/>
      <rect id="Rectángulo_7301" data-name="Rectángulo 7301" width="48.348" height="2.967" transform="translate(608.548 9747.539) rotate(180)" fill="#161616"/>
      <rect id="Rectángulo_7302" data-name="Rectángulo 7302" width="23.21" height="2.967" transform="translate(653.109 9711.8) rotate(-90)" fill="#161616"/>
      <rect id="Rectángulo_7303" data-name="Rectángulo 7303" width="11.739" height="2.967" transform="translate(653.109 9747.539) rotate(-90)" fill="#161616"/>
      <rect id="Rectángulo_7304" data-name="Rectángulo 7304" width="48.216" height="2.967" transform="translate(500.729 9687.539)" fill="#161616"/>
      <g id="Grupo_63043" data-name="Grupo 63043">
        <rect id="Rectángulo_7305" data-name="Rectángulo 7305" width="13.949" height="5.689" transform="translate(164.227 9617.768) rotate(90)" fill="#f7da06"/>
        <rect id="Rectángulo_7306" data-name="Rectángulo 7306" width="13.949" height="5.689" transform="translate(164.227 9631.717) rotate(90)" fill="#027931"/>
        <rect id="Rectángulo_7307" data-name="Rectángulo 7307" width="13.949" height="5.689" transform="translate(164.227 9645.666) rotate(90)" fill="#f7da06"/>
        <rect id="Rectángulo_7308" data-name="Rectángulo 7308" width="13.949" height="5.689" transform="translate(164.227 9659.615) rotate(90)" fill="#027931"/>
        <rect id="Rectángulo_7309" data-name="Rectángulo 7309" width="13.949" height="5.689" transform="translate(164.227 9673.564) rotate(90)" fill="#f7da06"/>
        <rect id="Rectángulo_7310" data-name="Rectángulo 7310" width="13.949" height="5.689" transform="translate(164.227 9687.514) rotate(90)" fill="#027931"/>
        <rect id="Rectángulo_7311" data-name="Rectángulo 7311" width="13.488" height="5.689" transform="translate(164.226 9701.463) rotate(90)" fill="#f7da06"/>
        <rect id="Rectángulo_7312" data-name="Rectángulo 7312" width="14.024" height="5.689" transform="translate(164.227 9728.438) rotate(90)" fill="#f7da06"/>
        <rect id="Rectángulo_7313" data-name="Rectángulo 7313" width="13.488" height="5.689" transform="translate(164.227 9714.95) rotate(90)" fill="#027931"/>
        <rect id="Rectángulo_7314" data-name="Rectángulo 7314" width="26.616" height="5.689" transform="translate(164.226 9508.38) rotate(90)" fill="#027931"/>
        <rect id="Rectángulo_7315" data-name="Rectángulo 7315" width="13.949" height="5.689" transform="translate(164.227 9534.996) rotate(90)" fill="#f7da06"/>
        <rect id="Rectángulo_7316" data-name="Rectángulo 7316" width="13.949" height="5.689" transform="translate(164.227 9548.945) rotate(90)" fill="#027931"/>
        <rect id="Rectángulo_7317" data-name="Rectángulo 7317" width="13.949" height="5.689" transform="translate(164.227 9562.895) rotate(90)" fill="#f7da06"/>
        <rect id="Rectángulo_7318" data-name="Rectángulo 7318" width="13.949" height="5.689" transform="translate(164.227 9576.844) rotate(90)" fill="#027931"/>
        <rect id="Rectángulo_7319" data-name="Rectángulo 7319" width="13.488" height="5.689" transform="translate(164.227 9590.793) rotate(90)" fill="#f7da06"/>
        <rect id="Rectángulo_7320" data-name="Rectángulo 7320" width="13.488" height="5.689" transform="translate(164.226 9604.28) rotate(90)" fill="#027931"/>
        <rect id="Rectángulo_7321" data-name="Rectángulo 7321" width="53.557" height="6.371" transform="translate(134.766 9742.462)" fill="#027931"/>
        <rect id="Rectángulo_7322" data-name="Rectángulo 7322" width="29.694" height="6.803" transform="translate(146.535 9753.691)" fill="#f7da06"/>
        <rect id="Rectángulo_7323" data-name="Rectángulo 7323" width="7.622" height="7.622" transform="translate(157.684 9764.813)" fill="#027931"/>
      </g>
      <rect id="Rectángulo_7324" data-name="Rectángulo 7324" width="2.483" height="26.731" transform="translate(175.105 9611.023)" fill="#161616"/>
      <rect id="Rectángulo_7325" data-name="Rectángulo 7325" width="48.55" height="2.483" transform="translate(145.03 9659.974) rotate(-51.305)" fill="#161616"/>
      <g id="Grupo_63044" data-name="Grupo 63044">
        <rect id="Rectángulo_7326" data-name="Rectángulo 7326" width="13.949" height="5.689" transform="translate(649.491 9617.768) rotate(90)" fill="#f7da06"/>
        <rect id="Rectángulo_7327" data-name="Rectángulo 7327" width="13.949" height="5.689" transform="translate(649.49 9631.717) rotate(90)" fill="#027931"/>
        <rect id="Rectángulo_7328" data-name="Rectángulo 7328" width="13.949" height="5.689" transform="translate(649.49 9645.666) rotate(90)" fill="#f7da06"/>
        <rect id="Rectángulo_7329" data-name="Rectángulo 7329" width="13.949" height="5.689" transform="translate(649.49 9659.615) rotate(90)" fill="#027931"/>
        <rect id="Rectángulo_7330" data-name="Rectángulo 7330" width="12.67" height="5.689" transform="translate(649.49 9673.564) rotate(90)" fill="#f7da06"/>
        <rect id="Rectángulo_7331" data-name="Rectángulo 7331" width="16.631" height="5.689" transform="translate(649.49 9518.365) rotate(90)" fill="#027931"/>
        <rect id="Rectángulo_7332" data-name="Rectángulo 7332" width="13.949" height="5.689" transform="translate(649.49 9534.996) rotate(90)" fill="#f7da06"/>
        <rect id="Rectángulo_7333" data-name="Rectángulo 7333" width="13.949" height="5.689" transform="translate(649.49 9548.945) rotate(90)" fill="#027931"/>
        <rect id="Rectángulo_7334" data-name="Rectángulo 7334" width="13.949" height="5.689" transform="translate(649.49 9562.895) rotate(90)" fill="#f7da06"/>
        <rect id="Rectángulo_7335" data-name="Rectángulo 7335" width="13.949" height="5.689" transform="translate(649.49 9576.844) rotate(90)" fill="#027931"/>
        <rect id="Rectángulo_7336" data-name="Rectángulo 7336" width="13.488" height="5.689" transform="translate(649.491 9590.793) rotate(90)" fill="#f7da06"/>
        <rect id="Rectángulo_7337" data-name="Rectángulo 7337" width="13.488" height="5.689" transform="translate(649.49 9604.28) rotate(90)" fill="#027931"/>
        <rect id="Rectángulo_7338" data-name="Rectángulo 7338" width="2.088" height="24.584" transform="translate(655.397 9604.28)" fill="#161616"/>
        <path id="Trazado_112615" data-name="Trazado 112615" d="M631.747,9650.729l-1.629-1.428,25.508-34.854,1.629,1.428Z" fill="#161616"/>
      </g>
      <rect id="Rectángulo_7339" data-name="Rectángulo 7339" width="1.242" height="30.848" transform="translate(131.364 9370.169)" fill="#161616"/>
      <rect id="Rectángulo_7340" data-name="Rectángulo 7340" width="1.242" height="7.935" transform="translate(131.364 9354.297)" fill="#161616"/>
      <rect id="Rectángulo_7341" data-name="Rectángulo 7341" width="1.242" height="7.937" transform="translate(131.364 9408.784)" fill="#161616"/>
      <rect id="Rectángulo_7342" data-name="Rectángulo 7342" width="1.242" height="48.696" transform="translate(131.364 9425.104)" fill="#161616"/>
      <rect id="Rectángulo_7343" data-name="Rectángulo 7343" width="1.242" height="7.829" transform="translate(131.364 9481.77)" fill="#161616"/>
      <rect id="Rectángulo_7344" data-name="Rectángulo 7344" width="1.242" height="33.637" transform="translate(131.364 9497.593)" fill="#161616"/>
      <rect id="Rectángulo_7345" data-name="Rectángulo 7345" width="1.242" height="14.415" transform="translate(131.364 9332.756)" fill="#161616"/>
      <rect id="Rectángulo_7346" data-name="Rectángulo 7346" width="19.652" height="1.242" transform="translate(131.364 9332.135)" fill="#161616"/>
      <rect id="Rectángulo_7347" data-name="Rectángulo 7347" width="7.45" height="1.242" transform="translate(162.921 9332.135)" fill="#161616"/>
      <rect id="Rectángulo_7348" data-name="Rectángulo 7348" width="45.918" height="1.242" transform="translate(177.821 9332.135)" fill="#161616"/>
      <rect id="Rectángulo_7349" data-name="Rectángulo 7349" width="8.258" height="1.242" transform="translate(231.029 9332.135)" fill="#161616"/>
      <rect id="Rectángulo_7350" data-name="Rectángulo 7350" width="46.484" height="1.242" transform="translate(246.09 9332.135)" fill="#161616"/>
      <rect id="Rectángulo_7351" data-name="Rectángulo 7351" width="1.242" height="7.504" transform="translate(301.663 9336.48)" fill="#161616"/>
      <rect id="Rectángulo_7352" data-name="Rectángulo 7352" width="1.242" height="45.674" transform="translate(301.663 9352.029)" fill="#161616"/>
      <rect id="Rectángulo_7353" data-name="Rectángulo 7353" width="1.242" height="7.289" transform="translate(301.663 9404.667)" fill="#161616"/>
      <rect id="Rectángulo_7354" data-name="Rectángulo 7354" width="1.242" height="46.944" transform="translate(301.663 9419.109)" fill="#161616"/>
      <rect id="Rectángulo_7355" data-name="Rectángulo 7355" width="1.242" height="7.774" transform="translate(301.663 9473.936)" fill="#161616"/>
      <rect id="Rectángulo_7356" data-name="Rectángulo 7356" width="1.242" height="33.472" transform="translate(301.663 9497.974)" fill="#161616"/>
      <circle id="Elipse_4241" data-name="Elipse 4241" cx="7.153" cy="7.153" r="7.153" transform="translate(154.39 9505.047)" fill="#161616"/>
      <circle id="Elipse_4242" data-name="Elipse 4242" cx="5.858" cy="5.858" r="5.858" transform="translate(209.89 9496.23)" fill="#161616"/>
      <rect id="Rectángulo_7357" data-name="Rectángulo 7357" width="36.413" height="2.485" transform="matrix(0.806, -0.592, 0.592, 0.806, 184.818, 9523.41)" fill="#161616"/>
      <g id="Grupo_63045" data-name="Grupo 63045">
        <path id="Trazado_112616" data-name="Trazado 112616" d="M191.214,9317.408h-6.347v6.295h-3.038v-15.148h10.446v2.342h-7.408v4.172h6.347Z"/>
        <path id="Trazado_112617" data-name="Trazado 112617" d="M200.493,9322.081a3.8,3.8,0,0,1-1.322,1.363,3.9,3.9,0,0,1-4.624-.661,5.262,5.262,0,0,1-1-3.544v-6.793h3.027v6.83a2.919,2.919,0,0,0,.417,1.768,1.455,1.455,0,0,0,1.227.537,3.028,3.028,0,0,0,1.249-.235,2.1,2.1,0,0,0,.853-.693v-8.206h3.037V9323.7h-2.59Z"/>
        <path id="Trazado_112618" data-name="Trazado 112618" d="M210.626,9323.921a5.069,5.069,0,0,1-3.891-1.56,5.58,5.58,0,0,1-1.456-3.964v-.416a6.156,6.156,0,0,1,1.378-4.132,5.139,5.139,0,0,1,7.235-.237,5.278,5.278,0,0,1,1.26,3.714v1.654h-6.721l-.021.062a2.928,2.928,0,0,0,.743,1.824,2.332,2.332,0,0,0,1.795.715,5.83,5.83,0,0,0,1.676-.2,7.6,7.6,0,0,0,1.456-.639l.823,1.877a5.625,5.625,0,0,1-1.8.935A7.776,7.776,0,0,1,210.626,9323.921Zm-.271-9.342a1.582,1.582,0,0,0-1.331.645,3.36,3.36,0,0,0-.6,1.7l.03.052h3.726v-.271a2.44,2.44,0,0,0-.453-1.545A1.633,1.633,0,0,0,210.355,9314.579Z"/>
        <path id="Trazado_112619" data-name="Trazado 112619" d="M219.7,9312.446l.134,1.612a4.128,4.128,0,0,1,1.384-1.342,3.6,3.6,0,0,1,1.842-.479,3.385,3.385,0,0,1,2.663,1.071,4.948,4.948,0,0,1,.957,3.36v7.033h-3.048v-7.038a2.287,2.287,0,0,0-.458-1.612,1.844,1.844,0,0,0-1.384-.474,2.34,2.34,0,0,0-1.081.245,2.227,2.227,0,0,0-.8.693v8.186h-3.038v-11.257Z"/>
        <path id="Trazado_112620" data-name="Trazado 112620" d="M232.557,9309.689v2.757h1.893v2.133h-1.893v5.731a1.324,1.324,0,0,0,.271.938.963.963,0,0,0,.729.281,2.771,2.771,0,0,0,.411-.027,3.566,3.566,0,0,0,.4-.087l.259,2.2a6.035,6.035,0,0,1-.9.233,5.311,5.311,0,0,1-.945.077,3.237,3.237,0,0,1-2.42-.863,3.785,3.785,0,0,1-.847-2.735v-5.743h-1.645v-2.133h1.645v-2.757Z"/>
        <path id="Trazado_112621" data-name="Trazado 112621" d="M241.37,9323.921a5.069,5.069,0,0,1-3.891-1.56,5.58,5.58,0,0,1-1.456-3.964v-.416a6.156,6.156,0,0,1,1.378-4.132,5.139,5.139,0,0,1,7.235-.237,5.278,5.278,0,0,1,1.26,3.714v1.654h-6.721l-.021.062a2.928,2.928,0,0,0,.743,1.824,2.332,2.332,0,0,0,1.795.715,5.83,5.83,0,0,0,1.676-.2,7.6,7.6,0,0,0,1.456-.639l.823,1.877a5.625,5.625,0,0,1-1.8.935A7.776,7.776,0,0,1,241.37,9323.921Zm-.271-9.342a1.582,1.582,0,0,0-1.331.645,3.351,3.351,0,0,0-.6,1.7l.03.052h3.726v-.271a2.44,2.44,0,0,0-.453-1.545A1.633,1.633,0,0,0,241.1,9314.579Z"/>
      </g>
      <g id="Grupo_63046" data-name="Grupo 63046">
        <path id="Trazado_112622" data-name="Trazado 112622" d="M518.417,9763.615h-6.273v4.318h7.335v2.341H509.106v-15.148h10.351v2.341h-7.313v3.809h6.273Z"/>
        <path id="Trazado_112623" data-name="Trazado 112623" d="M520.488,9764.74a7.312,7.312,0,0,1,1.15-4.3,3.73,3.73,0,0,1,3.24-1.634,3.221,3.221,0,0,1,1.644.411,3.7,3.7,0,0,1,1.218,1.182l.28-1.385h2.58V9774.6h-3.037v-5.379a3.346,3.346,0,0,1-1.171.947,3.517,3.517,0,0,1-1.535.322,3.8,3.8,0,0,1-3.219-1.519,6.479,6.479,0,0,1-1.15-4.016Zm3.027.212a4.679,4.679,0,0,0,.5,2.338,1.735,1.735,0,0,0,1.624.862,2.448,2.448,0,0,0,1.144-.25,2.026,2.026,0,0,0,.781-.727v-4.986a2.134,2.134,0,0,0-.775-.769,2.242,2.242,0,0,0-1.129-.271,1.713,1.713,0,0,0-1.629,1,5.634,5.634,0,0,0-.515,2.586Z"/>
        <path id="Trazado_112624" data-name="Trazado 112624" d="M539.86,9768.651a3.774,3.774,0,0,1-1.322,1.362,3.9,3.9,0,0,1-4.624-.66,5.262,5.262,0,0,1-1-3.544v-6.793h3.027v6.83a2.92,2.92,0,0,0,.417,1.769,1.462,1.462,0,0,0,1.227.537,3.025,3.025,0,0,0,1.249-.235,2.1,2.1,0,0,0,.853-.694v-8.206h3.038v11.258H540.13Z"/>
        <path id="Trazado_112625" data-name="Trazado 112625" d="M548.2,9756.323h-3.038v-2.279H548.2Zm0,13.951h-3.038v-11.258H548.2Z"/>
        <path id="Trazado_112626" data-name="Trazado 112626" d="M560.854,9764.958a6.461,6.461,0,0,1-1.154,4.016,3.817,3.817,0,0,1-3.225,1.519,3.614,3.614,0,0,1-1.571-.327,3.22,3.22,0,0,1-1.175-.963v5.4H550.7v-15.585h2.736l.177,1.332a3.6,3.6,0,0,1,1.2-1.139,3.257,3.257,0,0,1,1.639-.4,3.745,3.745,0,0,1,3.246,1.634,7.291,7.291,0,0,1,1.154,4.3Zm-3.037-.234a5.469,5.469,0,0,0-.53-2.584,1.732,1.732,0,0,0-1.624-.989,2.3,2.3,0,0,0-1.17.28,2,2,0,0,0-.764.8v4.938a1.857,1.857,0,0,0,.764.73,2.578,2.578,0,0,0,1.191.25,1.748,1.748,0,0,0,1.618-.865,4.567,4.567,0,0,0,.515-2.345Z"/>
        <path id="Trazado_112627" data-name="Trazado 112627" d="M562.26,9764.542a6.047,6.047,0,0,1,1.4-4.126,5.543,5.543,0,0,1,7.8,0,6.013,6.013,0,0,1,1.414,4.13v.218a6.011,6.011,0,0,1-1.409,4.135,5.563,5.563,0,0,1-7.8,0,6.011,6.011,0,0,1-1.409-4.135Zm3.026.212a4.869,4.869,0,0,0,.543,2.468,2.079,2.079,0,0,0,3.469,0,4.852,4.852,0,0,0,.546-2.463v-.217a4.811,4.811,0,0,0-.551-2.442,1.868,1.868,0,0,0-1.738-.944,1.843,1.843,0,0,0-1.722.95,4.857,4.857,0,0,0-.547,2.437Z"/>
      </g>
      <g id="Grupo_63047" data-name="Grupo 63047">
        <path id="Trazado_112628" data-name="Trazado 112628" d="M858.451,9385.383h9.224v3.2H854.294v-20.727h4.157Z"/>
        <path id="Trazado_112629" data-name="Trazado 112629" d="M878.934,9388.585h-4.156v-17.054h-4.214V9368.6l8.37-.74Z"/>
      </g>
      <g id="Grupo_63048" data-name="Grupo 63048">
        <path id="Trazado_112630" data-name="Trazado 112630" d="M858.451,9425.226h9.224v3.2H854.294V9407.7h4.157Z"/>
        <path id="Trazado_112631" data-name="Trazado 112631" d="M883.689,9428.429h-14.15v-2.719l6.706-7.19a16.207,16.207,0,0,0,2.064-2.811,4.569,4.569,0,0,0,.612-2.128,3.194,3.194,0,0,0-.706-2.142,2.469,2.469,0,0,0-2-.834,2.582,2.582,0,0,0-2.185.975,4.157,4.157,0,0,0-.747,2.6h-4.043l-.029-.086a6.264,6.264,0,0,1,1.843-4.747,6.916,6.916,0,0,1,5.161-1.942,7.192,7.192,0,0,1,5.032,1.665,5.714,5.714,0,0,1,1.83,4.441,6.23,6.23,0,0,1-1.033,3.467,34.181,34.181,0,0,1-3.409,4.163l-3.687,4.016.029.07h8.711Z"/>
      </g>
      <g id="Grupo_63049" data-name="Grupo 63049">
        <path id="Trazado_112632" data-name="Trazado 112632" d="M858.451,9470.9h9.224v3.2H854.294v-20.728h4.157Z"/>
        <path id="Trazado_112633" data-name="Trazado 112633" d="M873.738,9461.975h2.336a2.834,2.834,0,0,0,2.192-.775,3.074,3.074,0,0,0,.712-2.156,2.808,2.808,0,0,0-.712-2.008,2.708,2.708,0,0,0-2.065-.754,2.911,2.911,0,0,0-1.964.684,2.245,2.245,0,0,0-.8,1.793h-4.028l-.029-.086a4.714,4.714,0,0,1,1.865-4.014,7.432,7.432,0,0,1,4.839-1.58,7.956,7.956,0,0,1,5.133,1.538,5.3,5.3,0,0,1,1.915,4.383,4.4,4.4,0,0,1-.855,2.57,5.684,5.684,0,0,1-2.349,1.9,5.291,5.291,0,0,1,2.627,1.879,4.949,4.949,0,0,1,.9,2.946,5.385,5.385,0,0,1-2.072,4.478,8.307,8.307,0,0,1-5.3,1.631,8.124,8.124,0,0,1-4.961-1.53,4.888,4.888,0,0,1-2-4.321l.028-.086h4.029a2.527,2.527,0,0,0,.854,1.962,3.1,3.1,0,0,0,2.163.772,3.152,3.152,0,0,0,2.271-.8,2.84,2.84,0,0,0,.834-2.158,3.135,3.135,0,0,0-.819-2.395,3.436,3.436,0,0,0-2.413-.759h-2.336Z"/>
      </g>
      <g id="Grupo_63050" data-name="Grupo 63050">
        <path id="Trazado_112634" data-name="Trazado 112634" d="M869.362,9523.578H865.22l-8.371-14.165-.085.015v14.15h-4.157v-20.728h4.157l8.369,14.15.087-.014v-14.137h4.142Z"/>
      </g>
      <rect id="Rectángulo_7358" data-name="Rectángulo 7358" width="6.728" height="1.242" transform="translate(131.364 9529.988)" fill="#161616"/>
      <rect id="Rectángulo_7359" data-name="Rectángulo 7359" width="45.566" height="1.242" transform="translate(146.346 9529.988)" fill="#161616"/>
      <rect id="Rectángulo_7360" data-name="Rectángulo 7360" width="8.259" height="1.242" transform="translate(199.417 9530.232)" fill="#161616"/>
      <rect id="Rectángulo_7361" data-name="Rectángulo 7361" width="45.567" height="1.242" transform="translate(215.235 9530.232)" fill="#161616"/>
      <rect id="Rectángulo_7362" data-name="Rectángulo 7362" width="7.504" height="1.242" transform="translate(268.253 9530.232)" fill="#161616"/>
      <rect id="Rectángulo_7363" data-name="Rectángulo 7363" width="19.077" height="1.242" transform="translate(283.207 9530.232)" fill="#161616"/>
      <rect id="Rectángulo_7364" data-name="Rectángulo 7364" width="20.217" height="2.967" transform="translate(426.603 9707.756) rotate(-90)" fill="#161616"/>
      <circle id="Elipse_4243" data-name="Elipse 4243" cx="7.153" cy="7.153" r="7.153" transform="translate(590.855 9506.848)" fill="#161616"/>
      <circle id="Elipse_4244" data-name="Elipse 4244" cx="7.153" cy="7.153" r="7.153" transform="translate(639.492 9506.848)" fill="#161616"/>
      <path id="Trazado_112635" data-name="Trazado 112635" d="M598.008,9726.971a9.758,9.758,0,1,1,9.759-9.758A9.769,9.769,0,0,1,598.008,9726.971Zm0-17.032a7.274,7.274,0,1,0,7.275,7.274A7.282,7.282,0,0,0,598.008,9709.938Z" fill="#161616"/>
    </g>
    <g id="Grupo_63052" data-name="Grupo 63052">
      <path id="Trazado_112636" data-name="Trazado 112636" d="M855.817,9563.275v8.322h-4.6v-22.95h9.142a9.044,9.044,0,0,1,6.227,2.018,7.334,7.334,0,0,1,0,10.608,9.091,9.091,0,0,1-6.227,2Zm0-3.548h4.54a3.831,3.831,0,0,0,2.916-1.047,3.73,3.73,0,0,0,.993-2.672,3.906,3.906,0,0,0-.985-2.735,3.763,3.763,0,0,0-2.924-1.079h-4.54Z"/>
      <path id="Trazado_112637" data-name="Trazado 112637" d="M886.349,9561.51h-9.505v6.541h11.114v3.547H872.242v-22.95h15.683v3.547H876.844v5.769h9.505Z"/>
    </g>
    <g id="Grupo_63053" data-name="Grupo 63053">
      <rect id="Rectángulo_7365" data-name="Rectángulo 7365" width="13.119" height="5.689" transform="translate(225.934 9564.267) rotate(180)" fill="#f7da06"/>
      <rect id="Rectángulo_7366" data-name="Rectángulo 7366" width="13.119" height="5.689" transform="translate(212.816 9564.267) rotate(180)" fill="#027931"/>
      <rect id="Rectángulo_7367" data-name="Rectángulo 7367" width="13.119" height="5.689" transform="translate(199.697 9564.267) rotate(180)" fill="#f7da06"/>
      <rect id="Rectángulo_7368" data-name="Rectángulo 7368" width="13.119" height="5.689" transform="translate(186.578 9564.267) rotate(180)" fill="#027931"/>
      <rect id="Rectángulo_7369" data-name="Rectángulo 7369" width="11.916" height="5.689" transform="translate(173.46 9564.267) rotate(180)" fill="#f7da06"/>
      <rect id="Rectángulo_7370" data-name="Rectángulo 7370" width="15.641" height="5.689" transform="translate(319.42 9564.267) rotate(180)" fill="#027931"/>
      <rect id="Rectángulo_7371" data-name="Rectángulo 7371" width="13.119" height="5.689" transform="translate(303.779 9564.267) rotate(180)" fill="#f7da06"/>
      <rect id="Rectángulo_7372" data-name="Rectángulo 7372" width="13.119" height="5.689" transform="translate(290.66 9564.267) rotate(180)" fill="#027931"/>
      <rect id="Rectángulo_7373" data-name="Rectángulo 7373" width="13.119" height="5.689" transform="translate(277.541 9564.267) rotate(180)" fill="#f7da06"/>
      <rect id="Rectángulo_7374" data-name="Rectángulo 7374" width="13.119" height="5.689" transform="translate(264.422 9564.267) rotate(180)" fill="#027931"/>
      <rect id="Rectángulo_7375" data-name="Rectángulo 7375" width="12.685" height="5.689" transform="translate(251.304 9564.267) rotate(180)" fill="#f7da06"/>
      <rect id="Rectángulo_7376" data-name="Rectángulo 7376" width="12.685" height="5.689" transform="translate(238.619 9564.267) rotate(180)" fill="#027931"/>
    </g>
    <g id="Grupo_63054" data-name="Grupo 63054">
      <rect id="Rectángulo_7377" data-name="Rectángulo 7377" width="13.353" height="5.689" transform="translate(384.96 9564.267) rotate(180)" fill="#f7da06"/>
      <rect id="Rectángulo_7378" data-name="Rectángulo 7378" width="13.353" height="5.689" transform="translate(371.607 9564.267) rotate(180)" fill="#027931"/>
      <rect id="Rectángulo_7379" data-name="Rectángulo 7379" width="13.353" height="5.689" transform="translate(358.254 9564.267) rotate(180)" fill="#f7da06"/>
      <rect id="Rectángulo_7380" data-name="Rectángulo 7380" width="13.353" height="5.689" transform="translate(344.901 9564.267) rotate(180)" fill="#027931"/>
      <rect id="Rectángulo_7381" data-name="Rectángulo 7381" width="12.129" height="5.689" transform="translate(331.548 9564.267) rotate(180)" fill="#f7da06"/>
      <rect id="Rectángulo_7382" data-name="Rectángulo 7382" width="15.92" height="5.689" transform="translate(480.115 9564.267) rotate(180)" fill="#027931"/>
      <rect id="Rectángulo_7383" data-name="Rectángulo 7383" width="13.353" height="5.689" transform="translate(464.195 9564.267) rotate(180)" fill="#f7da06"/>
      <rect id="Rectángulo_7384" data-name="Rectángulo 7384" width="13.353" height="5.689" transform="translate(450.842 9564.267) rotate(180)" fill="#027931"/>
      <rect id="Rectángulo_7385" data-name="Rectángulo 7385" width="13.353" height="5.689" transform="translate(437.489 9564.267) rotate(180)" fill="#f7da06"/>
      <rect id="Rectángulo_7386" data-name="Rectángulo 7386" width="13.353" height="5.689" transform="translate(424.136 9564.267) rotate(180)" fill="#027931"/>
      <rect id="Rectángulo_7387" data-name="Rectángulo 7387" width="12.911" height="5.689" transform="translate(410.783 9564.267) rotate(180)" fill="#f7da06"/>
      <rect id="Rectángulo_7388" data-name="Rectángulo 7388" width="12.911" height="5.689" transform="translate(397.871 9564.267) rotate(180)" fill="#027931"/>
    </g>
    <g id="Grupo_63055" data-name="Grupo 63055">
      <rect id="Rectángulo_7389" data-name="Rectángulo 7389" width="13.353" height="5.689" transform="translate(545.656 9564.267) rotate(180)" fill="#f7da06"/>
      <rect id="Rectángulo_7390" data-name="Rectángulo 7390" width="13.353" height="5.689" transform="translate(532.303 9564.267) rotate(180)" fill="#027931"/>
      <rect id="Rectángulo_7391" data-name="Rectángulo 7391" width="13.353" height="5.689" transform="translate(518.95 9564.267) rotate(180)" fill="#f7da06"/>
      <rect id="Rectángulo_7392" data-name="Rectángulo 7392" width="13.353" height="5.689" transform="translate(505.597 9564.267) rotate(180)" fill="#027931"/>
      <rect id="Rectángulo_7393" data-name="Rectángulo 7393" width="12.129" height="5.689" transform="translate(492.244 9564.267) rotate(180)" fill="#f7da06"/>
      <rect id="Rectángulo_7394" data-name="Rectángulo 7394" width="15.92" height="5.689" transform="translate(640.81 9564.267) rotate(180)" fill="#027931"/>
      <rect id="Rectángulo_7395" data-name="Rectángulo 7395" width="13.353" height="5.689" transform="translate(624.89 9564.267) rotate(180)" fill="#f7da06"/>
      <rect id="Rectángulo_7396" data-name="Rectángulo 7396" width="13.353" height="5.689" transform="translate(611.537 9564.267) rotate(180)" fill="#027931"/>
      <rect id="Rectángulo_7397" data-name="Rectángulo 7397" width="13.353" height="5.689" transform="translate(598.184 9564.267) rotate(180)" fill="#f7da06"/>
      <rect id="Rectángulo_7398" data-name="Rectángulo 7398" width="13.353" height="5.689" transform="translate(584.831 9564.267) rotate(180)" fill="#027931"/>
      <rect id="Rectángulo_7399" data-name="Rectángulo 7399" width="12.911" height="5.689" transform="translate(571.478 9564.267) rotate(180)" fill="#f7da06"/>
      <rect id="Rectángulo_7400" data-name="Rectángulo 7400" width="12.911" height="5.689" transform="translate(558.567 9564.267) rotate(180)" fill="#027931"/>
    </g>
    <rect id="Rectángulo_7401" data-name="Rectángulo 7401" width="13.498" height="5.689" transform="translate(707.061 9564.267) rotate(180)" fill="#f7da06"/>
    <rect id="Rectángulo_7402" data-name="Rectángulo 7402" width="13.498" height="5.689" transform="translate(693.563 9564.267) rotate(180)" fill="#027931"/>
    <rect id="Rectángulo_7403" data-name="Rectángulo 7403" width="13.498" height="5.689" transform="translate(680.065 9564.267) rotate(180)" fill="#f7da06"/>
    <rect id="Rectángulo_7404" data-name="Rectángulo 7404" width="13.498" height="5.689" transform="translate(666.568 9564.267) rotate(180)" fill="#027931"/>
    <rect id="Rectángulo_7405" data-name="Rectángulo 7405" width="12.26" height="5.689" transform="translate(653.07 9564.267) rotate(180)" fill="#f7da06"/>
    <rect id="Rectángulo_7406" data-name="Rectángulo 7406" width="16.093" height="5.689" transform="translate(803.245 9564.267) rotate(180)" fill="#027931"/>
    <rect id="Rectángulo_7407" data-name="Rectángulo 7407" width="13.498" height="5.689" transform="translate(787.153 9564.267) rotate(180)" fill="#f7da06"/>
    <rect id="Rectángulo_7408" data-name="Rectángulo 7408" width="16.093" height="5.689" transform="translate(832.435 9564.267) rotate(180)" fill="#027931"/>
    <rect id="Rectángulo_7409" data-name="Rectángulo 7409" width="13.498" height="5.689" transform="translate(816.342 9564.267) rotate(180)" fill="#f7da06"/>
    <rect id="Rectángulo_7410" data-name="Rectángulo 7410" width="13.498" height="5.689" transform="translate(845.932 9564.267) rotate(180)" fill="#f7da06"/>
    <rect id="Rectángulo_7411" data-name="Rectángulo 7411" width="13.498" height="5.689" transform="translate(773.655 9564.267) rotate(180)" fill="#027931"/>
    <rect id="Rectángulo_7412" data-name="Rectángulo 7412" width="13.498" height="5.689" transform="translate(760.158 9564.267) rotate(180)" fill="#f7da06"/>
    <rect id="Rectángulo_7413" data-name="Rectángulo 7413" width="13.498" height="5.689" transform="translate(746.66 9564.267) rotate(180)" fill="#027931"/>
    <rect id="Rectángulo_7414" data-name="Rectángulo 7414" width="13.051" height="5.689" transform="translate(733.162 9564.267) rotate(180)" fill="#f7da06"/>
    <rect id="Rectángulo_7415" data-name="Rectángulo 7415" width="13.051" height="5.689" transform="translate(720.112 9564.267) rotate(180)" fill="#027931"/>
    <circle id="Elipse_4245" data-name="Elipse 4245" cx="7.153" cy="7.153" r="7.153" transform="translate(639.492 9554.269)" fill="#161616"/>
    <circle id="Elipse_4246" data-name="Elipse 4246" cx="7.153" cy="7.153" r="7.153" transform="translate(154.39 9553.916)" fill="#161616"/>
    <g id="Grupo_63056" data-name="Grupo 63056">
      <rect id="Rectángulo_7416" data-name="Rectángulo 7416" width="24.584" height="2.088" transform="translate(201.884 9546.59)" fill="#161616"/>
      <path id="Trazado_112638" data-name="Trazado 112638" d="M180.019,9572.327l1.427,1.63,34.855-25.509-1.427-1.629Z" fill="#161616"/>
    </g>
  </g>
</svg>
