<svg xmlns="http://www.w3.org/2000/svg" width="307.315" height="256.471" viewBox="0 0 307.315 256.471">
  <g id="Grupo_62672" data-name="Grupo 62672" transform="translate(-1027.897 -4995.918)">
    <path id="Trazado_112005" data-name="Trazado 112005" d="M1118.177,5207.568s-18.042-2.976-30.29,7.084-5.01,27.249-15.124,29.474c-14.579,3.208-48.112,7.81-44.613,39.333.354,3.189,102.347,0,102.347,0l-4.373-67.908Z" transform="translate(0 -32.487)" fill="#77a4e5"/>
    <path id="Trazado_112006" data-name="Trazado 112006" d="M1308.011,5234.516s21.546-3.937,36.506,8.311,8.141,22.309,16.155,24.934,19.344,7.76,16.8,20.72h-72.406Z" transform="translate(-42.626 -36.601)" fill="#3662c1"/>
    <rect id="Rectángulo_6994" data-name="Rectángulo 6994" width="171.592" height="236.33" transform="translate(1118.183 5005.926)" fill="#bed2fa"/>
    <rect id="Rectángulo_6995" data-name="Rectángulo 6995" width="176.119" height="7.581" transform="translate(1115.919 5113.261)" fill="#93b3f4"/>
    <g id="Grupo_62603" data-name="Grupo 62603" transform="translate(1219.805 5147.242)">
      <g id="Grupo_62566" data-name="Grupo 62566">
        <g id="Grupo_62565" data-name="Grupo 62565">
          <rect id="Rectángulo_6996" data-name="Rectángulo 6996" width="46.873" height="62.307" fill="#1cbfbf"/>
        </g>
      </g>
      <g id="Grupo_62567" data-name="Grupo 62567" transform="translate(0.142 1.123)">
        <path id="Trazado_112007" data-name="Trazado 112007" d="M1279.055,5176.07s.111,18.412-18.566,33.976c0,0,3.891,20.294,3.335,26.045h-8.973V5176.07Z" transform="translate(-1254.851 -5176.07)" fill="#fff"/>
      </g>
      <g id="Grupo_62568" data-name="Grupo 62568" transform="translate(10.634 32.489)">
        <path id="Trazado_112008" data-name="Trazado 112008" d="M1282.592,5213.136a4.435,4.435,0,0,0-3.08,2.135c-1.139,1.923-3.347,10.244-4.96,11.942s-7.3,5.094-7.3,5.094l1.443.934s8.661-2.632,9.934-4.161,3.072-9.721,3.072-9.721Z" transform="translate(-1267.25 -5213.136)" fill="#fc9290"/>
      </g>
      <g id="Grupo_62569" data-name="Grupo 62569" transform="translate(26.197 17.86)">
        <path id="Trazado_112009" data-name="Trazado 112009" d="M1287.336,5198.767s.109-2.742,4.057-2.912,6.788,3.158,6.918,4.975-.678,4.645,1.912,6.521,1.316,10.61-4.8,10.61-9.756-.355-9.779-3.512-.123-6.015,2.306-6.892S1287.336,5198.767,1287.336,5198.767Z" transform="translate(-1285.641 -5195.849)" fill="#0b0754"/>
      </g>
      <g id="Grupo_62571" data-name="Grupo 62571" transform="translate(23.454 54.376)">
        <g id="Grupo_62570" data-name="Grupo 62570">
          <path id="Trazado_112010" data-name="Trazado 112010" d="M1293.51,5240.5s-.008.026-.023.074l-.02.065c-.016.054-.039.124-.064.21l-.019.064c-.022.068-.046.148-.071.235-.016.051-.032.1-.05.163-.139.455-.328,1.086-.553,1.848-.055.2-.116.4-.179.616-.03.106-.062.214-.094.324-.012.037-.022.076-.032.113-.022.075-.045.15-.065.227l-.077.265c-.058.206-.119.418-.182.636-.144.506-.294,1.038-.445,1.589H1282.4c.023-.579.05-1.126.084-1.639.006-.12.014-.236.022-.353.04-.577.085-1.11.131-1.592.013-.128.024-.252.036-.374.025-.244.052-.474.077-.691,0-.04.009-.079.015-.117s.009-.078.014-.116c.029-.23.056-.441.083-.632.009-.064.019-.126.027-.187s.017-.119.025-.174.016-.108.024-.159.016-.1.024-.147a.6.6,0,0,1,.011-.068c.011-.066.02-.129.03-.187.008-.038.014-.074.019-.108s.013-.065.018-.094a1.217,1.217,0,0,1,.11-.332c.013-.026.027-.052.042-.076s.029-.048.045-.07a1.308,1.308,0,0,1,.11-.135c.018-.02.037-.04.056-.057a.775.775,0,0,1,.064-.057c.018-.015.034-.027.052-.04s.061-.047.092-.068.042-.027.064-.04c.047-.027.094-.054.143-.078l.08-.036c.031-.014.062-.027.094-.04l.092-.034.09-.03c.106-.033.218-.062.333-.085.027-.007.055-.012.083-.016.043-.009.086-.018.131-.024l.179-.026.122-.013.1-.009c.056-.005.113-.009.171-.013l.207-.01c.321-.011.663,0,1.018.019l.246.018c.135.011.272.024.41.039.2.021.4.044.6.073h0l.056.007.283.042c.284.044.569.093.85.146l.334.065.306.062c.285.059.567.121.838.186.1.023.2.047.3.072a.618.618,0,0,1,.076.019c.05.011.1.022.144.035l.212.053.335.086.129.034.2.054c.181.047.349.1.506.141l.207.058.164.048.024.006c.047.015.091.027.133.039s.079.024.117.035l.129.04.079.024.08.024Z" transform="translate(-1282.4 -5239.001)" fill="#0b0754"/>
        </g>
      </g>
      <g id="Grupo_62572" data-name="Grupo 62572" transform="translate(23.454 54.376)">
        <path id="Trazado_112011" data-name="Trazado 112011" d="M1293.51,5240.5s-.008.026-.023.074l-.02.065c-.016.054-.039.124-.064.21l-.019.064c-.022.068-.046.148-.071.235-.016.051-.032.1-.05.163-.139.455-.328,1.086-.553,1.848-.055.2-.116.4-.179.616-.03.106-.062.214-.094.324-.012.037-.022.076-.032.113-.022.075-.045.15-.065.227l-.077.265c-.058.206-.119.418-.182.636-.144.506-.294,1.038-.445,1.589H1282.4c.023-.579.05-1.126.084-1.639.006-.12.014-.236.022-.353.04-.577.085-1.11.131-1.592.013-.128.024-.252.036-.374.025-.244.052-.474.077-.691,0-.04.009-.079.015-.117s.009-.078.014-.116c.029-.23.056-.441.083-.632.009-.064.019-.126.027-.187s.017-.119.025-.174.016-.108.024-.159.016-.1.024-.147a.6.6,0,0,1,.011-.068c.011-.066.02-.129.03-.187.008-.038.014-.074.019-.108s.013-.065.018-.094a1.217,1.217,0,0,1,.11-.332c.013-.026.027-.052.042-.076s.029-.048.045-.07a1.308,1.308,0,0,1,.11-.135c.018-.02.037-.04.056-.057a.775.775,0,0,1,.064-.057c.018-.015.034-.027.052-.04s.061-.047.092-.068.042-.027.064-.04c.047-.027.094-.054.143-.078l.08-.036c.031-.014.062-.027.094-.04l.092-.034.09-.03c.106-.033.218-.062.333-.085.027-.007.055-.012.083-.016.043-.009.086-.018.131-.024l.179-.026.122-.013.1-.009c.056-.005.113-.009.171-.013l.207-.01c.321-.011.663,0,1.018.019l.246.018c.135.011.272.024.41.039.2.021.4.044.6.073h0l.056.007.283.042c.284.044.569.093.85.146l.334.065.306.062c.285.059.567.121.838.186.1.023.2.047.3.072a.618.618,0,0,1,.076.019c.05.011.1.022.144.035l.212.053.335.086.129.034.2.054c.181.047.349.1.506.141.072.019.141.04.207.058l.164.048.024.006.133.039c.04.013.079.024.117.035l.129.04.079.024.08.024Z" transform="translate(-1282.4 -5239.001)" fill="#060632"/>
      </g>
      <g id="Grupo_62573" data-name="Grupo 62573" transform="translate(28.596 50.97)">
        <path id="Trazado_112012" data-name="Trazado 112012" d="M1299,5246.313h-9.128c-.227-1.281-.44-2.466-.632-3.495-.325-1.761-.582-3.074-.7-3.665l-.069-.348s.085-.1.233-.27h0c.947-1.066,4.524-4.846,6.233-3.111.279.284.576.586.878.915a11.794,11.794,0,0,1,2.723,4.516A13.43,13.43,0,0,1,1299,5246.313Z" transform="translate(-1288.476 -5234.976)" fill="#0b0754"/>
      </g>
      <g id="Grupo_62574" data-name="Grupo 62574" transform="translate(27.892 27.508)">
        <path id="Trazado_112013" data-name="Trazado 112013" d="M1287.644,5213.519l1.543,2.316,3.112-.153,1.437-3.715s-.443-.083-.65-4.716l-3.883,1.185a7.567,7.567,0,0,1-.068,2.522A4.193,4.193,0,0,1,1287.644,5213.519Z" transform="translate(-1287.644 -5207.251)" fill="#fc9290"/>
      </g>
      <g id="Grupo_62575" data-name="Grupo 62575" transform="translate(24.612 31.792)">
        <path id="Trazado_112014" data-name="Trazado 112014" d="M1286.615,5212.663a14.431,14.431,0,0,1,9.081.9s-2.479,14.186-1.415,16.894a28.573,28.573,0,0,1,1.47,5.11l-11.554.144s.161-9.293-.371-12.582S1286.615,5212.663,1286.615,5212.663Z" transform="translate(-1283.768 -5212.313)" fill="#fc9290"/>
      </g>
      <g id="Grupo_62576" data-name="Grupo 62576" transform="translate(23.494 32.051)">
        <path id="Trazado_112015" data-name="Trazado 112015" d="M1297.82,5237.112a2.366,2.366,0,0,1-1.162.985,11.115,11.115,0,0,1-2.226.715,21.726,21.726,0,0,1-2.267.359c-.5.057-1.026.1-1.564.135-.076,0-.153.008-.228.011-3.481.174-7.38.088-7.887-1.567a2.973,2.973,0,0,1-.017-.9c.066-.854.265-2.131.459-3.327.184-1.143.365-2.211.416-2.766.267-2.935-.294-7.147-.375-9.875-.066-2.274,1.961-7.833,1.961-7.833a6.082,6.082,0,0,1,1.891-.437s.218,2.729,1.618,2.96c2.427.4,4.38-1.82,4.952-2.715,0,0,2.785.7,3.6,1.635.588.668.511,2.271.337,3.279a4.5,4.5,0,0,1-.177.73c-.173.455-.825,3.8-1.122,5.133-.008.034-.014.064-.02.093-.021.09-.038.168-.055.232l0,.005c-.017.071-.032.128-.044.163l-.02.064,0,.005a11.06,11.06,0,0,0-.536,4.478,4.829,4.829,0,0,0,.134.717C1295.872,5231.39,1297.485,5235.313,1297.82,5237.112Z" transform="translate(-1282.447 -5212.619)" fill="#beffff"/>
      </g>
      <g id="Grupo_62577" data-name="Grupo 62577" transform="translate(29.382 27.508)">
        <path id="Trazado_112016" data-name="Trazado 112016" d="M1289.405,5210.958c1.605-.13,3.952-3.707,3.952-3.707l-3.883,1.185A7.567,7.567,0,0,1,1289.405,5210.958Z" transform="translate(-1289.405 -5207.251)" fill="#ea8888"/>
      </g>
      <g id="Grupo_62578" data-name="Grupo 62578" transform="translate(20.858 32.051)">
        <path id="Trazado_112017" data-name="Trazado 112017" d="M1286.342,5212.619s-3.726.4-4.972,2.15a17.846,17.846,0,0,0-2.038,4.377s.889,2.668,3.488,2.334S1286.342,5212.619,1286.342,5212.619Z" transform="translate(-1279.332 -5212.619)" fill="#beffff"/>
      </g>
      <g id="Grupo_62579" data-name="Grupo 62579" transform="translate(26.965 21.66)">
        <path id="Trazado_112018" data-name="Trazado 112018" d="M1288.384,5208.424s4.74-.144,4.605-3.095.386-4.956-2.647-4.989-3.568,1.121-3.762,2.116S1287.146,5208.386,1288.384,5208.424Z" transform="translate(-1286.549 -5200.34)" fill="#fc9290"/>
      </g>
      <g id="Grupo_62580" data-name="Grupo 62580" transform="translate(29.165 20.778)">
        <path id="Trazado_112019" data-name="Trazado 112019" d="M1289.149,5199.806s.144.979,2.011,2.26,2.188,4.267,2.188,4.267,1.413-5.3-.277-6.5S1289.149,5199.806,1289.149,5199.806Z" transform="translate(-1289.149 -5199.297)" fill="#0b0754"/>
      </g>
      <g id="Grupo_62581" data-name="Grupo 62581" transform="translate(26.203 19.61)">
        <path id="Trazado_112020" data-name="Trazado 112020" d="M1290.141,5197.922a4.721,4.721,0,0,0-4.149,2.492c-.742,1.172-.163,3,.6,3.964,0,0,.252-2.5,1.576-3.343A6.344,6.344,0,0,0,1290.141,5197.922Z" transform="translate(-1285.649 -5197.917)" fill="#0b0754"/>
      </g>
      <g id="Grupo_62582" data-name="Grupo 62582" transform="translate(28.189 27.903)">
        <path id="Trazado_112021" data-name="Trazado 112021" d="M1289.693,5207.839s-.042.364-.931.41c0,0-.745.039-.767-.353A2.4,2.4,0,0,1,1289.693,5207.839Z" transform="translate(-1287.995 -5207.718)" fill="#fff"/>
      </g>
      <g id="Grupo_62583" data-name="Grupo 62583" transform="translate(13.909 44.654)">
        <path id="Trazado_112022" data-name="Trazado 112022" d="M1271.7,5230.537s-1.251-1.459-.077-2.385a3.325,3.325,0,0,1,1.555-.477s-.99,1.66-.67,1.825.97-1.929.97-1.929a7.886,7.886,0,0,1,2.578.113s-1.667,1.364-1.316,1.445,2.151-1.257,2.151-1.257,1.815.309,1.718,1.416-.722,1.449-1,1.419-1.882-.644-1.917-.418.932.961,1.61,1c0,0-1.279,1.411-2.129,1s-.923-1.052-1.453-1.294-.982-.241-.764.006,1.178.486,1.482,1.022.575.9-.305.766-2.309-.776-2.372-1.513Z" transform="translate(-1271.12 -5227.512)" fill="#3662c1"/>
      </g>
      <g id="Grupo_62586" data-name="Grupo 62586" transform="translate(12.376 46.449)">
        <g id="Grupo_62584" data-name="Grupo 62584" transform="translate(1.016)">
          <path id="Trazado_112023" data-name="Trazado 112023" d="M1277.622,5229.643s-4.928-.19-6.017,1.22a3.566,3.566,0,0,1-.982,1.376l-.115.315s.854-.9,1.159-.955C1271.668,5231.6,1271.19,5229.853,1277.622,5229.643Z" transform="translate(-1270.509 -5229.634)" fill="#3a49cd"/>
        </g>
        <g id="Grupo_62585" data-name="Grupo 62585" transform="translate(0 2.482)">
          <path id="Trazado_112024" data-name="Trazado 112024" d="M1270.439,5232.69a3.1,3.1,0,0,0-1.131,2.181l.192.017a5,5,0,0,1,.949-2.011C1271.059,5232.313,1270.439,5232.69,1270.439,5232.69Z" transform="translate(-1269.308 -5232.567)" fill="#3a49cd"/>
        </g>
      </g>
      <g id="Grupo_62587" data-name="Grupo 62587" transform="translate(2.824 40.694)">
        <path id="Trazado_112025" data-name="Trazado 112025" d="M1265.314,5227.982s1.989-1.113,1.06-2.624a3.953,3.953,0,0,0-1.538-1.167s.424,2.254,0,2.307-.292-2.546-.292-2.546a9.324,9.324,0,0,0-2.916-.928s1.3,2.2.875,2.147-1.883-2.281-1.883-2.281-2.148-.4-2.492.876.212,1.908.53,1.988,2.36.054,2.307.318-1.431.689-2.2.451c0,0,.849,2.095,1.961,1.989s1.459-.8,2.148-.849,1.193.133.849.318-1.511.062-2.068.535-1.008.766.026.977,2.89.079,3.261-.716Z" transform="translate(-1258.021 -5222.833)" fill="#77a4e5"/>
      </g>
      <g id="Grupo_62590" data-name="Grupo 62590" transform="translate(3.914 42.025)">
        <g id="Grupo_62588" data-name="Grupo 62588">
          <path id="Trazado_112026" data-name="Trazado 112026" d="M1259.308,5224.406s5.568,1.8,6.2,3.818a4.24,4.24,0,0,0,.53,1.937v.4a5.787,5.787,0,0,0-.9-1.538S1266.387,5227.27,1259.308,5224.406Z" transform="translate(-1259.308 -5224.406)" fill="#3662c1"/>
        </g>
        <g id="Grupo_62589" data-name="Grupo 62589" transform="translate(6.468 5.507)">
          <path id="Trazado_112027" data-name="Trazado 112027" d="M1267.218,5231.161a3.671,3.671,0,0,1,.37,2.891l-.221-.06a5.938,5.938,0,0,0-.235-2.627C1266.682,5230.486,1267.218,5231.161,1267.218,5231.161Z" transform="translate(-1266.952 -5230.913)" fill="#3662c1"/>
        </g>
      </g>
      <g id="Grupo_62591" data-name="Grupo 62591" transform="translate(11.558 37.52)">
        <path id="Trazado_112028" data-name="Trazado 112028" d="M1270.065,5225.869s-2.621-1.467-1.4-3.459a5.216,5.216,0,0,1,2.028-1.539s-.559,2.972,0,3.041.384-3.354.384-3.354,2.761-1.328,3.844-1.224c0,0-1.713,2.9-1.153,2.831s2.482-3.006,2.482-3.006,2.831-.523,3.285,1.154-.279,2.516-.7,2.62-3.111.07-3.04.42,1.887.908,2.9.594c0,0-1.119,2.762-2.586,2.622s-1.923-1.05-2.831-1.119-1.572.175-1.119.419,1.993.081,2.727.705,1.328,1.008-.035,1.287-3.81.105-4.3-.942Z" transform="translate(-1268.342 -5219.082)" fill="#77a4e5"/>
      </g>
      <g id="Grupo_62594" data-name="Grupo 62594" transform="translate(11.897 39.275)">
        <g id="Grupo_62592" data-name="Grupo 62592" transform="translate(0.685)">
          <path id="Trazado_112029" data-name="Trazado 112029" d="M1278.429,5221.156s-7.339,2.377-8.178,5.033a5.565,5.565,0,0,1-.7,2.551v.524a7.644,7.644,0,0,1,1.188-2.026S1269.1,5224.931,1278.429,5221.156Z" transform="translate(-1269.552 -5221.156)" fill="#3662c1"/>
        </g>
        <g id="Grupo_62593" data-name="Grupo 62593" transform="translate(0 7.258)">
          <path id="Trazado_112030" data-name="Trazado 112030" d="M1269.427,5230.059a4.844,4.844,0,0,0-.487,3.812l.291-.078a7.823,7.823,0,0,1,.31-3.463C1270.134,5229.169,1269.427,5230.059,1269.427,5230.059Z" transform="translate(-1268.742 -5229.733)" fill="#3662c1"/>
        </g>
      </g>
      <g id="Grupo_62595" data-name="Grupo 62595" transform="translate(8.059 50.073)">
        <path id="Trazado_112031" data-name="Trazado 112031" d="M1274.476,5233.916a5.135,5.135,0,1,1-10.27,0Z" transform="translate(-1264.206 -5233.916)" fill="#0b0754"/>
      </g>
      <g id="Grupo_62596" data-name="Grupo 62596" transform="translate(8.685 50.073)">
        <path id="Trazado_112032" data-name="Trazado 112032" d="M1269.455,5239.051a5.04,5.04,0,0,0,.625,0,5.134,5.134,0,0,1-5.134-5.135h1.275C1266.221,5236.536,1266.919,5238.736,1269.455,5239.051Z" transform="translate(-1264.946 -5233.916)" fill="#3662c1"/>
      </g>
      <g id="Grupo_62597" data-name="Grupo 62597" transform="translate(7.987 54.835)">
        <path id="Trazado_112033" data-name="Trazado 112033" d="M1274.533,5240.177h-10.411a.635.635,0,0,1,.634-.633h9.144A.633.633,0,0,1,1274.533,5240.177Z" transform="translate(-1264.122 -5239.544)" fill="#060632"/>
      </g>
      <g id="Grupo_62598" data-name="Grupo 62598" transform="translate(7.89 50.073)">
        <rect id="Rectángulo_6997" data-name="Rectángulo 6997" width="10.555" height="0.158" fill="#060632"/>
      </g>
      <g id="Grupo_62599" data-name="Grupo 62599" transform="translate(14.073 51.252)">
        <path id="Trazado_112034" data-name="Trazado 112034" d="M1275.89,5236.045c-.116-.273-1.23-.543-1.674-.735,0,0-.283.2.095.537.1.09.292.229.471.356l-.162-.042c-.4-.107-2.967.769-3.272,1.339s1.474,1.994,2.8,1.546c.683-.229,2.913-.634,2.913-.634l-.373-1.8S1276.007,5236.319,1275.89,5236.045Z" transform="translate(-1271.314 -5235.31)" fill="#fc9290"/>
      </g>
      <g id="Grupo_62600" data-name="Grupo 62600" transform="translate(19.451 35.09)">
        <path id="Trazado_112035" data-name="Trazado 112035" d="M1296.682,5216.21s.529,3.664-3.292,9.1-3.6,5.774-5.79,7.217-9.558,2.95-9.558,2.95l-.373-1.8s7.146-4.6,7.825-5.5,5.271-11.109,5.271-11.109Z" transform="translate(-1277.669 -5216.21)" fill="#fc9290"/>
      </g>
      <g id="Grupo_62601" data-name="Grupo 62601" transform="translate(29.382 33.477)">
        <path id="Trazado_112036" data-name="Trazado 112036" d="M1294.819,5214.556a28.592,28.592,0,0,0-3.859,3.558,17.1,17.1,0,0,0-1.555,3.78s3.191,2,8.694.556c0,0,1.465-6.805-.036-7.691a3.208,3.208,0,0,0-2.891-.2Z" transform="translate(-1289.405 -5214.304)" fill="#beffff"/>
      </g>
      <g id="Grupo_62602" data-name="Grupo 62602" transform="translate(25.569 1.123)">
        <path id="Trazado_112037" data-name="Trazado 112037" d="M1284.9,5176.07s3.412,15.076,19.16,20.412c0,0-.15,23.235-1.929,29.35a65.888,65.888,0,0,0-2.223,10.259h4.151V5176.07Z" transform="translate(-1284.899 -5176.07)" fill="#fff"/>
      </g>
    </g>
    <path id="Trazado_112038" data-name="Trazado 112038" d="M1301.305,5235.675h-1v-62.308h-49.16v62.308h-1a4.541,4.541,0,0,0-4.542,4.541v.158h60.251v-.158A4.54,4.54,0,0,0,1301.305,5235.675Zm-47.878-60.021h44.587v11.019h-44.587Zm0,13.591h44.587v46.43h-44.587Z" transform="translate(-33.48 -27.29)" fill="#6d89cf"/>
    <rect id="Rectángulo_6998" data-name="Rectángulo 6998" width="176.119" height="24.105" transform="translate(1115.919 5227.629)" fill="#77a4e5"/>
    <path id="Trazado_112039" data-name="Trazado 112039" d="M1160.211,5293.265a24.657,24.657,0,0,0-16.822-15.663c-13.558-3.937-12.683-1.968-24.929-8.967s-31.49-2.624-35.426,3.062-13.121,8.747-25.805,8.528-13.324,12.133-13.324,12.133Z" transform="translate(-2.462 -41.387)" fill="#6d89cf"/>
    <g id="Grupo_62607" data-name="Grupo 62607" transform="translate(1137.49 5146.077)">
      <rect id="Rectángulo_6999" data-name="Rectángulo 6999" width="46.873" height="62.307" transform="translate(6.661 1.164)" fill="#fff" opacity="0.5"/>
      <rect id="Rectángulo_7000" data-name="Rectángulo 7000" width="44.587" height="60.021" transform="translate(7.805 2.307)" fill="#1cbfbf"/>
      <path id="Trazado_112040" data-name="Trazado 112040" d="M1187.64,5238.432s-2.571,3.507-2.571,7.168h17.451s-.935-5.688-4.908-7.168S1187.64,5238.432,1187.64,5238.432Z" transform="translate(-1161.662 -5183.272)" fill="#0b0754"/>
      <path id="Trazado_112041" data-name="Trazado 112041" d="M1207.6,5214.794s-2.745,6.981-3.051,7.228c-.825.665-5.9-7.079-6.675-8.43s-5.594-.2-6-2.708a19.606,19.606,0,0,1-.384-2.158c0-.064,0-.131,0-.2a13.873,13.873,0,0,1,.108-1.585l-.24.019-4.039.312a4.768,4.768,0,0,1,.27,2.149c-.045.383-.061,1.1-.107,1.809a1.876,1.876,0,0,1-1.342,1.676c-1.731.507-3.873,1.27-4.247,2.232a99.879,99.879,0,0,0-2.675,13.2c-.311,2.867-3.22,11.274-3.22,11.274h1.454s5.454-9.173,5.921-10.6c.144-.44.663-2.195,1.314-4.414.609,2.413,1.476,4.823,1.663,5.8.328,1.714-2.821,7.245-2.509,8.779s16.983,2.362,16.757,0-2.578-6.364-3.046-8.234c-.352-1.409.465-6.115.719-8.909,2.546,2.908,6.009,5.623,7.072,5.066,2.727-1.428,3.584-11.971,3.584-11.971Z" transform="translate(-1160.267 -5178.531)" fill="#fc9290"/>
      <path id="Trazado_112042" data-name="Trazado 112042" d="M1189.89,5203.28a2.962,2.962,0,0,0-.338,4.228s-2.127-.087-2.662-.644a1.623,1.623,0,0,0,.183.37,5.745,5.745,0,0,1-2.7-.871c-.736-.708.98-10.67,6.284-8.9,0,0,4.651.2,3.584,5.483s.674,5.49.674,5.49a2.484,2.484,0,0,1-.746.153s-.326-.17-.371-.368a1.232,1.232,0,0,0,.108.41,4.989,4.989,0,0,1-2.753-.868C1190.3,5206.943,1189.491,5204.348,1189.89,5203.28Z" transform="translate(-1161.53 -5177.04)" fill="#0b0754"/>
      <path id="Trazado_112043" data-name="Trazado 112043" d="M1188.469,5205.519a11.692,11.692,0,0,1-1.031-3.563c-.065-1.14,1-5.21,5.084-4.118a5.689,5.689,0,0,1,2.237,1.165c.83.718,1.976,2.189.088,5.626l-.524,1.174Z" transform="translate(-1162.026 -5177.102)" fill="#0b0754"/>
      <path id="Trazado_112044" data-name="Trazado 112044" d="M1193.929,5210.961c-2.916-.425-4.56-3.492-4.56-3.492a8.628,8.628,0,0,1,4.177,1.137c0,.066,0,.132,0,.2A10.506,10.506,0,0,0,1193.929,5210.961Z" transform="translate(-1162.323 -5178.608)" fill="#ea8888"/>
      <path id="Trazado_112045" data-name="Trazado 112045" d="M1193.917,5208.566s-5.235-.538-4.849-3.792-.032-5.517,3.326-5.311,3.86,1.524,4,2.642S1195.289,5208.623,1193.917,5208.566Z" transform="translate(-1162.274 -5177.378)" fill="#fc9290"/>
      <path id="Trazado_112046" data-name="Trazado 112046" d="M1194.5,5199.556s-1.886,3.646-4.149,3.95-3.145-.4-3.145-.4a6.255,6.255,0,0,0,2.472-3.43S1193.638,5197.609,1194.5,5199.556Z" transform="translate(-1161.991 -5177.266)" fill="#0b0754"/>
      <path id="Trazado_112047" data-name="Trazado 112047" d="M1195.363,5199.929a4.651,4.651,0,0,1,1.128,1.841c.162.859.075,2.579.58,2.581,0,0,1.387-2.467.351-4.08C1196.323,5198.561,1195.363,5199.929,1195.363,5199.929Z" transform="translate(-1163.245 -5177.373)" fill="#0b0754"/>
      <path id="Trazado_112048" data-name="Trazado 112048" d="M1194.776,5200s-1.5,3.876-4.419,4.827c0,0,3.063-2.127,3.613-4.738S1194.776,5200,1194.776,5200Z" transform="translate(-1162.475 -5177.295)" fill="#0b0754"/>
      <path id="Trazado_112049" data-name="Trazado 112049" d="M1193.534,5207.97s.131.47.452.539a4.43,4.43,0,0,0,1.233.1,4.006,4.006,0,0,0,.326-.477A6.379,6.379,0,0,0,1193.534,5207.97Z" transform="translate(-1162.964 -5178.683)" fill="#fff"/>
      <path id="Trazado_112050" data-name="Trazado 112050" d="M1213.277,5215.686a16.292,16.292,0,0,1,.169-3.338,7,7,0,0,1,.969-2.17,6.63,6.63,0,0,1,.277,2.337c-.108.418.11,1.408.276,1.211s.426-1.52.643-1.441.015.881.119,1.082a1.694,1.694,0,0,1-.327,1.428c-.422.686-.83,1.47-.83,1.47Z" transform="translate(-1165.997 -5179.028)" fill="#fc9290"/>
      <path id="Trazado_112051" data-name="Trazado 112051" d="M1175.554,5245.489a8.462,8.462,0,0,0-2.8-.265c-.692.239-1.955,1.472-1.629,1.492s1.771-.37,1.975-.318.794.128.794.128-.855.054-.814.21a6.091,6.091,0,0,0,2.472,0,14.148,14.148,0,0,0,1.14-1.248Z" transform="translate(-1159.51 -5184.408)" fill="#fc9290"/>
      <path id="Trazado_112052" data-name="Trazado 112052" d="M1184.621,5214.751a9.484,9.484,0,0,0,6,2.084,10.271,10.271,0,0,0,6.012-2.941,3.684,3.684,0,0,1,2.335.869c.8.856,3.869,4.7,3.869,4.7s.269,2.884-3.173,4.9l-.35-.623s-.58,7.179-.217,7.854,3.221,7.741,2.753,8.824-16.107,3.749-17.285-.174,1.764-7.326,1.643-8.728-.8-5.852-.8-5.852-4.518-.691-4.674-3.393C1180.741,5222.269,1181.54,5214.713,1184.621,5214.751Z" transform="translate(-1160.996 -5179.6)" fill="#fff"/>
      <path id="Trazado_112053" data-name="Trazado 112053" d="M1213.118,5235.675h-1v-62.308h-49.16v62.308h-1a4.541,4.541,0,0,0-4.542,4.541v.158h60.252v-.158A4.541,4.541,0,0,0,1213.118,5235.675Zm-47.878-60.021h44.587v11.019H1165.24Zm0,13.591h44.587v46.43H1165.24Z" transform="translate(-1157.408 -5173.367)" fill="#6d89cf"/>
      <g id="Grupo_62605" data-name="Grupo 62605" transform="translate(8.64 2.251)">
        <g id="Grupo_62604" data-name="Grupo 62604" transform="translate(0 1.021)">
          <rect id="Rectángulo_7001" data-name="Rectángulo 7001" width="43.107" height="2.168" fill="#fff"/>
          <rect id="Rectángulo_7002" data-name="Rectángulo 7002" width="43.107" height="2.168" transform="translate(0 3.405)" fill="#fff"/>
          <rect id="Rectángulo_7003" data-name="Rectángulo 7003" width="43.107" height="2.168" transform="translate(0 6.81)" fill="#fff"/>
          <rect id="Rectángulo_7004" data-name="Rectángulo 7004" width="43.107" height="2.168" transform="translate(0 9.998)" fill="#fff"/>
          <rect id="Rectángulo_7005" data-name="Rectángulo 7005" width="43.107" height="2.168" transform="translate(0 13.584)" fill="#fff"/>
        </g>
        <rect id="Rectángulo_7006" data-name="Rectángulo 7006" width="0.417" height="18.531" transform="translate(2.001)" fill="#fff"/>
        <rect id="Rectángulo_7007" data-name="Rectángulo 7007" width="0.417" height="18.531" transform="translate(40.939)" fill="#fff"/>
      </g>
      <path id="Rectángulo_7008" data-name="Rectángulo 7008" d="M0,0H6.154A1.108,1.108,0,0,1,7.262,1.108v0A1.133,1.133,0,0,1,6.129,2.241H0a0,0,0,0,1,0,0V0A0,0,0,0,1,0,0Z" transform="translate(34.086 58.33)" fill="#dde8fd"/>
      <path id="Trazado_112054" data-name="Trazado 112054" d="M1210.307,5243.221v.337a.968.968,0,0,1-.134.494.982.982,0,0,1-.849.488h-11.891a.142.142,0,0,1-.142-.142v-.05a.142.142,0,0,1,.142-.143h7.249a.92.92,0,0,0,.208-.582v-.429a.879.879,0,0,0-.03-.228.9.9,0,0,0-.168-.333h-7.26a.142.142,0,0,1-.142-.143v-.05a.143.143,0,0,1,.142-.143h11.951a.923.923,0,0,1,.887.668A.935.935,0,0,1,1210.307,5243.221Z" transform="translate(-1163.542 -5183.968)" fill="#6d89cf"/>
      <path id="Trazado_112055" data-name="Trazado 112055" d="M1210.271,5242.966h-5.411a.9.9,0,0,0-.168-.333h-7.26a.142.142,0,0,1-.142-.143v-.05a.143.143,0,0,1,.142-.143h11.951A.923.923,0,0,1,1210.271,5242.966Z" transform="translate(-1163.542 -5183.968)" fill="#3662c1"/>
      <path id="Trazado_112056" data-name="Trazado 112056" d="M1197.689,5243.623l.88.038-.88.022Z" transform="translate(-1163.603 -5184.172)" fill="#bed2fa"/>
      <path id="Trazado_112057" data-name="Trazado 112057" d="M1197.689,5244.038l2.095.038-2.095.023Z" transform="translate(-1163.603 -5184.236)" fill="#bed2fa"/>
      <path id="Trazado_112058" data-name="Trazado 112058" d="M1199.13,5246.682h6.755v-1.744h-6.81a.844.844,0,0,0-.844.844h0A.9.9,0,0,0,1199.13,5246.682Z" transform="translate(-1163.686 -5184.374)" fill="#138080"/>
      <path id="Rectángulo_7009" data-name="Rectángulo 7009" d="M0,0H7.685a.881.881,0,0,1,.881.881v0a.862.862,0,0,1-.862.862H0a0,0,0,0,1,0,0V0A0,0,0,0,1,0,0Z" transform="translate(49.499 62.308) rotate(-180)" fill="#dde8fd"/>
      <path id="Trazado_112059" data-name="Trazado 112059" d="M1205.15,5246.952h9.346a.131.131,0,0,0,.13-.13h0a.13.13,0,0,0-.13-.13h-9.346a.13.13,0,0,0-.13.13h0A.13.13,0,0,0,1205.15,5246.952Z" transform="translate(-1164.73 -5184.644)" fill="#138080"/>
      <path id="Trazado_112060" data-name="Trazado 112060" d="M1205.15,5245.2h9.346a.13.13,0,0,0,.13-.131h0a.13.13,0,0,0-.13-.13h-9.346a.13.13,0,0,0-.13.13h0A.13.13,0,0,0,1205.15,5245.2Z" transform="translate(-1164.73 -5184.374)" fill="#138080"/>
      <path id="Trazado_112061" data-name="Trazado 112061" d="M1215.715,5245.969l-1.038.029,1.038.019Z" transform="translate(-1166.215 -5184.533)" fill="#bed2fa"/>
      <path id="Trazado_112062" data-name="Trazado 112062" d="M1215.454,5245.494l-2.471.029,2.471.018Z" transform="translate(-1165.955 -5184.459)" fill="#bed2fa"/>
      <g id="Grupo_62606" data-name="Grupo 62606" transform="translate(47.054 61.058)">
        <path id="Trazado_112063" data-name="Trazado 112063" d="M1213.014,5245.522a.406.406,0,0,1,.141.2.271.271,0,0,1,.011.069c.006.164,0,.533,0,.533l.313-.185.311.185v-.5a.393.393,0,0,0-.076-.248.118.118,0,0,0-.086-.052Z" transform="translate(-1213.014 -5245.522)" fill="#6d89cf"/>
        <path id="Trazado_112064" data-name="Trazado 112064" d="M1213.014,5245.522a.406.406,0,0,1,.141.2l.627.008s-.026-.176-.154-.206Z" transform="translate(-1213.014 -5245.522)" fill="#3662c1"/>
      </g>
    </g>
    <g id="Grupo_62608" data-name="Grupo 62608" transform="translate(1143.179 5038.901)">
      <rect id="Rectángulo_7010" data-name="Rectángulo 7010" width="46.873" height="62.307" transform="translate(0)" fill="#dfebfd"/>
    </g>
    <g id="Grupo_62661" data-name="Grupo 62661" transform="translate(1137.49 5037.738)">
      <g id="Grupo_62609" data-name="Grupo 62609" transform="translate(28.215 2.287)">
        <path id="Trazado_112065" data-name="Trazado 112065" d="M1190.751,5048.04s-.111,18.411,18.566,33.976c0,0-3.891,20.295-3.335,26.045h8.973V5048.04Z" transform="translate(-1190.751 -5048.04)" fill="#fff"/>
      </g>
      <g id="Grupo_62612" data-name="Grupo 62612" transform="translate(5.689 36.474)">
        <g id="Grupo_62610" data-name="Grupo 62610" transform="translate(0 0.75)">
          <path id="Trazado_112066" data-name="Trazado 112066" d="M1169.938,5089.327s-3.905.553-4.913,1.435c-1.7,1.488-.454,24.146-.454,24.146s5.876.484,5.876,0S1169.938,5089.327,1169.938,5089.327Z" transform="translate(-1164.13 -5089.327)" fill="#1cbfbf"/>
        </g>
        <g id="Grupo_62611" data-name="Grupo 62611" transform="translate(2.339)">
          <path id="Trazado_112067" data-name="Trazado 112067" d="M1185.685,5114.813l-8.4.625-5.854.434-1.236.092-.077-.526-.067-.466-.014-.1-.3-2.05,0-.005-.116-.809-.36-2.493-1.841-12.743-.512-3.551s-.389-3.35,2.726-3.9l.717-.127.011,0c1.055-.188,2.262-.405,3.449-.557a19.741,19.741,0,0,1,2.8-.191,8.152,8.152,0,0,1,1.036.078,3.868,3.868,0,0,1,1.087.3,1.019,1.019,0,0,1,.1.052,1.678,1.678,0,0,1,.328.214,1.464,1.464,0,0,1,.117.106,2.365,2.365,0,0,1,.366.661c.151.355.318.83.5,1.4.254.8.535,1.779.832,2.889.828,3.107,1.779,7.2,2.609,10.928.025.113.052.225.075.337.107.48.212.954.313,1.417,0,.023.011.045.016.068l.055.258c.052.23.1.458.151.682q.144.671.281,1.3c.609,2.828,1.055,4.975,1.17,5.535C1185.676,5114.764,1185.685,5114.813,1185.685,5114.813Z" transform="translate(-1166.895 -5088.44)" fill="#1cbfbf"/>
        </g>
      </g>
      <g id="Grupo_62613" data-name="Grupo 62613" transform="translate(19.005 39.208)">
        <path id="Trazado_112068" data-name="Trazado 112068" d="M1182.368,5091.672a17.282,17.282,0,0,1,2.085,6.1c.663,3.617,1.245,4.954,2.2,5.695a59.022,59.022,0,0,0,6.295,2.933l-.4.935s-7.823-1.065-8.7-2.373-4.229-9.032-3.969-10.811S1182.368,5091.672,1182.368,5091.672Z" transform="translate(-1179.867 -5091.672)" fill="#ea8888"/>
      </g>
      <g id="Grupo_62614" data-name="Grupo 62614" transform="translate(14.86 53.479)">
        <path id="Trazado_112069" data-name="Trazado 112069" d="M1199.534,5118.528h-6.458c-.162-.644-.4-1.051-.855-1.075-.411-.022-2.634.214-5.324.306-4.27.149-9.714-.06-10.941-2.22a7.436,7.436,0,0,1-.659-1.536h0c-.024-.075-.044-.146-.065-.22a7.887,7.887,0,0,1-.245-2.586,8.592,8.592,0,0,1,.171-1.214,7.161,7.161,0,0,1,.452-1.446l2.109,1.543h0l.236.173s1.812-.137,4.3-.242c.553-.022,1.138-.044,1.746-.062.3-.01.608-.017.92-.024.1,0,.2-.005.3-.007.753-.015,1.526-.023,2.295-.023h.228c.182,0,.362,0,.542,0a25.818,25.818,0,0,1,7.237.768,2.827,2.827,0,0,1,.519.249l.014.01C1197.094,5111.6,1198.35,5114.761,1199.534,5118.528Z" transform="translate(-1174.968 -5108.536)" fill="#138080"/>
      </g>
      <g id="Grupo_62615" data-name="Grupo 62615" transform="translate(10.562 56.139)">
        <path id="Trazado_112070" data-name="Trazado 112070" d="M1192.827,5119.012h-15.084l-5.854.434a4.955,4.955,0,0,1-.768-.434,3.154,3.154,0,0,1-.541-.47c-.029-.034-.058-.067-.085-.1a2.109,2.109,0,0,1-.24-.364,3.031,3.031,0,0,1-.359-1.643h0a3.1,3.1,0,0,1,.185-.855,5.147,5.147,0,0,1,1.165-1.768,11.736,11.736,0,0,1,2.946-2.129h.013c.168.008,1.927.1,4.251.291h0c.224.017.452.038.685.057h0c1.818.164,3.9.385,5.8.68,2.457.382,4.622.883,5.566,1.531C1191.246,5114.743,1192.045,5116.579,1192.827,5119.012Z" transform="translate(-1169.89 -5111.68)" fill="#1cbfbf"/>
      </g>
      <g id="Grupo_62616" data-name="Grupo 62616" transform="translate(6.738 25.544)">
        <path id="Trazado_112071" data-name="Trazado 112071" d="M1179.837,5082.039a.2.2,0,0,0,0-.03h0c0-.259-.017-.516-.035-.771a16.256,16.256,0,0,0-.29-2.179c-.079-.382-.169-.737-.27-1.062l-.047-.146v0a2.965,2.965,0,0,0-.875-1.489,3.508,3.508,0,0,0-1.869-.489.9.9,0,0,1,.412-.162,2.941,2.941,0,0,0-1.066.2c-4.394-2.038-5.545,4.555-5.553,6.1s-.117,3.327-2.46,4.561a4.626,4.626,0,0,0-1.866,1.657c-1.542,2.529.675,5.771.675,5.771s.252.323.6.777c.895,1.175,2.476,3.271,2.476,3.271v0a3.975,3.975,0,0,1,.652-1.537c.307-.52.706-1.123,1.169-1.763.218-.3.452-.614.7-.931.324-.418.668-.844,1.023-1.264q.2-.242.412-.48c.629-.719,1.284-1.41,1.928-2.013q.225-.211.445-.407h0c.184-.161.366-.316.544-.458a9.34,9.34,0,0,1,1-.713l.045-.027h0c.045-.027.088-.053.133-.078a3.917,3.917,0,0,0,.37-.578c.042-.079.084-.158.12-.239.115-.24.216-.487.3-.727a11.845,11.845,0,0,0,.425-1.5,13,13,0,0,1-.322,1.555,7.388,7.388,0,0,1-.236.707c-.057.144-.113.267-.169.375-.024.049-.05.1-.074.139.036-.029.069-.058.1-.088a2.808,2.808,0,0,0,.356-.383,3.79,3.79,0,0,0,.348-.535A10.712,10.712,0,0,0,1179.837,5082.039Z" transform="translate(-1165.37 -5075.524)" fill="#9e332e"/>
      </g>
      <g id="Grupo_62617" data-name="Grupo 62617" transform="translate(14.278 33.795)">
        <path id="Trazado_112072" data-name="Trazado 112072" d="M1179.005,5088.974c-.077-.033-.167-.067-.261-.1.005-.2.017-.414.031-.63.068-.989.214-2.033.214-2.033l-3.29-.882-.2-.052a10.223,10.223,0,0,1-.646,3.114c-.34.016-.557.035-.557.035a1,1,0,0,1,.129,1.014c-.2.921,2.114,2.221,3.189,2.269a1.121,1.121,0,0,0,1.14-.54A1.141,1.141,0,0,0,1179.005,5088.974Z" transform="translate(-1174.281 -5085.275)" fill="#fc9290"/>
      </g>
      <g id="Grupo_62618" data-name="Grupo 62618" transform="translate(15.696 33.847)">
        <path id="Trazado_112073" data-name="Trazado 112073" d="M1179.247,5086.218s-.146,1.044-.214,2.033c-1.863-.177-2.735-1.945-3.076-2.915Z" transform="translate(-1175.957 -5085.336)" fill="#ea8888"/>
      </g>
      <g id="Grupo_62619" data-name="Grupo 62619" transform="translate(14.345 26.731)">
        <path id="Trazado_112074" data-name="Trazado 112074" d="M1175.392,5083.657a9.82,9.82,0,0,1-1.021-2.946c-.1-.955.609-4.418,4.088-3.681a4.793,4.793,0,0,1,1.929.881c.729.565,1.755,1.751.321,4.72l-.389,1.009Z" transform="translate(-1174.36 -5076.927)" fill="#9e332e"/>
      </g>
      <g id="Grupo_62620" data-name="Grupo 62620" transform="translate(15.303 28.129)">
        <path id="Trazado_112075" data-name="Trazado 112075" d="M1179.737,5086.158s-4.42-.222-4.24-2.972-.268-4.63,2.561-4.606,3.309,1.111,3.471,2.044S1180.891,5086.144,1179.737,5086.158Z" transform="translate(-1175.492 -5078.58)" fill="#fc9290"/>
      </g>
      <g id="Grupo_62621" data-name="Grupo 62621" transform="translate(13.915 27.56)">
        <path id="Trazado_112076" data-name="Trazado 112076" d="M1179.821,5078.543s-1.424,3.146-3.311,3.5a3.665,3.665,0,0,1-2.658-.2,5.271,5.271,0,0,0,1.925-2.989S1179.011,5076.948,1179.821,5078.543Z" transform="translate(-1173.852 -5077.907)" fill="#9e332e"/>
      </g>
      <g id="Grupo_62622" data-name="Grupo 62622" transform="translate(19.567 27.963)">
        <path id="Trazado_112077" data-name="Trazado 112077" d="M1180.531,5078.858a3.907,3.907,0,0,1,1.028,1.5c.174.715.176,2.163.6,2.142,0,0,1.057-2.132.117-3.441C1181.277,5077.668,1180.531,5078.858,1180.531,5078.858Z" transform="translate(-1180.531 -5078.383)" fill="#9e332e"/>
      </g>
      <g id="Grupo_62623" data-name="Grupo 62623" transform="translate(9.933 36.946)">
        <path id="Trazado_112078" data-name="Trazado 112078" d="M1183.182,5107.478c-.357.428-1.474.56-2.667.756a8.016,8.016,0,0,0-2.628.761c-1.593.935-6.8,4.1-8.323,3.953-.591-.056-.481-1.185-.123-2.683.564-2.366,1.744-5.651,1.744-7.08a41.565,41.565,0,0,1,.606-4.734q.042-.256.085-.515c.685-4.1,1.635-8.937,1.635-8.937s1.058,2.31,3.121,2.31,1.583-1.761,1.583-1.761,1.882.221,2.326.7a18.426,18.426,0,0,1,1.8,3.114s.046.718-1.733,1.06a23.279,23.279,0,0,1,.484,3.25c.038.959-.655,3.965-.855,5.834a3.458,3.458,0,0,0,.028,1.417,2.758,2.758,0,0,0,1.089.9C1182.357,5106.406,1183.607,5106.969,1183.182,5107.478Z" transform="translate(-1169.147 -5088.998)" fill="#93b3f4"/>
      </g>
      <g id="Grupo_62624" data-name="Grupo 62624" transform="translate(9.933 44.634)">
        <path id="Trazado_112079" data-name="Trazado 112079" d="M1181.352,5107.218c1.141,1.946-3.1,2.532-3.8,2.944-1.594.935-6.465,4.326-7.99,4.183-.591-.056-.481-1.185-.123-2.684.564-2.366,1.744-5.65,1.744-7.08a41.561,41.561,0,0,1,.606-4.733l1.836-1.764s1.967,5.086,3.843,5.919a15.642,15.642,0,0,0,2.764.9,3.46,3.46,0,0,0,.028,1.418A2.753,2.753,0,0,0,1181.352,5107.218Z" transform="translate(-1169.147 -5098.084)" fill="#6d89cf"/>
      </g>
      <g id="Grupo_62625" data-name="Grupo 62625" transform="translate(22.534 55.187)">
        <rect id="Rectángulo_7011" data-name="Rectángulo 7011" width="5.777" height="0.683" fill="#3a49cd"/>
      </g>
      <g id="Grupo_62626" data-name="Grupo 62626" transform="translate(27.084 47.3)">
        <path id="Trazado_112080" data-name="Trazado 112080" d="M1189.414,5109.71c.057-.226,5.311-8.476,5.311-8.476h11.69l-5.863,8.254Z" transform="translate(-1189.414 -5101.234)" fill="#3a49cd"/>
      </g>
      <g id="Grupo_62627" data-name="Grupo 62627" transform="translate(27.576 47.3)">
        <path id="Trazado_112081" data-name="Trazado 112081" d="M1190,5109.8c.056-.226,5.327-8.57,5.327-8.57H1206.5l-5.579,8.57Z" transform="translate(-1189.996 -5101.234)" fill="#3662c1"/>
      </g>
      <g id="Grupo_62628" data-name="Grupo 62628" transform="translate(35.584 51.265)">
        <path id="Trazado_112082" data-name="Trazado 112082" d="M1200.706,5106.525a.934.934,0,0,1-.814.605.417.417,0,0,1-.4-.605.934.934,0,0,1,.814-.6A.417.417,0,0,1,1200.706,5106.525Z" transform="translate(-1199.46 -5105.92)" fill="#bed2fa"/>
      </g>
      <g id="Grupo_62629" data-name="Grupo 62629" transform="translate(10.193 38.217)">
        <path id="Trazado_112083" data-name="Trazado 112083" d="M1184.969,5105.332a14.308,14.308,0,0,0-2.642.336c-1.691-.331-7.248-1.441-7.519-1.79-.319-.41-1.016-12.919-1.814-13.127a2.391,2.391,0,0,0-3.088.854c-1.518,1.809,1.078,14.739,3.328,15.4,2.5.738,9.715-.118,9.715-.118h0c.593.2,1.63.317,2.18.5a1.38,1.38,0,0,0,1.533-.242C1186.825,5106.866,1185.251,5105.453,1184.969,5105.332Z" transform="translate(-1169.453 -5090.5)" fill="#fc9290"/>
      </g>
      <g id="Grupo_62630" data-name="Grupo 62630" transform="translate(8.928 36.945)">
        <path id="Trazado_112084" data-name="Trazado 112084" d="M1173.329,5089s-3.225.291-4.161,1.353-1.21,3.934-1.21,3.934a7.732,7.732,0,0,0,6.26,1.4Z" transform="translate(-1167.958 -5088.997)" fill="#93b3f4"/>
      </g>
      <g id="Grupo_62631" data-name="Grupo 62631" transform="translate(7.832 2.287)">
        <path id="Trazado_112085" data-name="Trazado 112085" d="M1185.824,5048.04s-3.412,15.077-19.16,20.413c0,0,.15,23.235,1.929,29.35a65.878,65.878,0,0,1,2.223,10.258h-4.151V5048.04Z" transform="translate(-1166.664 -5048.04)" fill="#fff"/>
      </g>
      <g id="Grupo_62632" data-name="Grupo 62632" transform="translate(0)">
        <path id="Trazado_112086" data-name="Trazado 112086" d="M1157.408,5112.187v.157h60.252v-.157a4.542,4.542,0,0,0-4.542-4.542h-1v-62.308h-49.16v62.308h-1A4.542,4.542,0,0,0,1157.408,5112.187Zm52.419-53.543H1165.24v-11.02h44.587Zm0,49H1165.24v-46.43h44.587Z" transform="translate(-1157.408 -5045.337)" fill="#6d89cf"/>
      </g>
      <g id="Grupo_62633" data-name="Grupo 62633" transform="translate(44.84 56.777)">
        <path id="Trazado_112087" data-name="Trazado 112087" d="M1210.4,5113.438a2.291,2.291,0,0,0,2.708-.971A2.917,2.917,0,0,0,1210.4,5113.438Z" transform="translate(-1210.397 -5112.433)" fill="#3a49cd"/>
      </g>
      <g id="Grupo_62634" data-name="Grupo 62634" transform="translate(43.954 56.534)">
        <path id="Trazado_112088" data-name="Trazado 112088" d="M1210.124,5112.731a.773.773,0,0,0-.774-.586A.985.985,0,0,0,1210.124,5112.731Z" transform="translate(-1209.35 -5112.146)" fill="#3a49cd"/>
      </g>
      <g id="Grupo_62635" data-name="Grupo 62635" transform="translate(45.062 53.049)">
        <path id="Trazado_112089" data-name="Trazado 112089" d="M1210.66,5108.787a1.036,1.036,0,0,0,1.055-.76A1.32,1.32,0,0,0,1210.66,5108.787Z" transform="translate(-1210.66 -5108.027)" fill="#3a49cd"/>
      </g>
      <g id="Grupo_62636" data-name="Grupo 62636" transform="translate(45.309 41.09)">
        <path id="Trazado_112090" data-name="Trazado 112090" d="M1212.526,5095.494a1.784,1.784,0,0,1-1.575-1.6C1212.775,5094.473,1212.526,5095.494,1212.526,5095.494Z" transform="translate(-1210.951 -5093.896)" fill="#3a49cd"/>
      </g>
      <g id="Grupo_62637" data-name="Grupo 62637" transform="translate(46.99 41.787)">
        <path id="Trazado_112091" data-name="Trazado 112091" d="M1212.938,5095.333a1.4,1.4,0,0,0,1.653-.593A1.781,1.781,0,0,0,1212.938,5095.333Z" transform="translate(-1212.938 -5094.72)" fill="#3a49cd"/>
      </g>
      <g id="Grupo_62639" data-name="Grupo 62639" transform="translate(44.582 40.005)">
        <g id="Grupo_62638" data-name="Grupo 62638">
          <path id="Trazado_112092" data-name="Trazado 112092" d="M1210.38,5114.105l-.2.23a.05.05,0,0,1-.088-.033,83.263,83.263,0,0,1,1.535-15.731,50.086,50.086,0,0,1,1.536-5.958h0c-.008.022-.7,2.263-1.458,5.982a62.316,62.316,0,0,0-1.291,15.421A.132.132,0,0,1,1210.38,5114.105Z" transform="translate(-1210.092 -5092.614)" fill="#3a49cd"/>
        </g>
      </g>
      <g id="Grupo_62640" data-name="Grupo 62640" transform="translate(46.972 39.059)">
        <path id="Trazado_112093" data-name="Trazado 112093" d="M1213.585,5091.553c-.247.2-1.193,1.044-.276,1.7,0,0,.7.223.937-.319a3.457,3.457,0,0,0,.238-1.069.092.092,0,0,0-.085-.1.748.748,0,0,1-.2-.046c-.087-.034-.132-.165-.249-.194a.708.708,0,0,0-.235-.026A.239.239,0,0,0,1213.585,5091.553Z" transform="translate(-1212.917 -5091.496)" fill="#ed6966"/>
      </g>
      <g id="Grupo_62641" data-name="Grupo 62641" transform="translate(47.114 40.578)">
        <path id="Trazado_112094" data-name="Trazado 112094" d="M1213.085,5093.29a.568.568,0,0,1,.176.583l0,.133a.627.627,0,0,1,.418-.435A.743.743,0,0,1,1213.085,5093.29Z" transform="translate(-1213.085 -5093.29)" fill="#3a49cd"/>
      </g>
      <g id="Grupo_62642" data-name="Grupo 62642" transform="translate(45.309 41.09)">
        <path id="Trazado_112095" data-name="Trazado 112095" d="M1212.526,5095.494a1.784,1.784,0,0,1-1.575-1.6A3.892,3.892,0,0,1,1212.526,5095.494Z" transform="translate(-1210.951 -5093.896)" fill="#6d89cf"/>
      </g>
      <g id="Grupo_62643" data-name="Grupo 62643" transform="translate(43.755 41.181)">
        <path id="Trazado_112096" data-name="Trazado 112096" d="M1210.756,5094.643a1.4,1.4,0,0,1-1.641-.626A1.782,1.782,0,0,1,1210.756,5094.643Z" transform="translate(-1209.115 -5094.002)" fill="#3a49cd"/>
      </g>
      <g id="Grupo_62645" data-name="Grupo 62645" transform="translate(44.781 39.414)">
        <g id="Grupo_62644" data-name="Grupo 62644">
          <path id="Trazado_112097" data-name="Trazado 112097" d="M1212.679,5113.458l.2.233a.051.051,0,0,0,.089-.031,83.279,83.279,0,0,0-1.219-15.758,50.318,50.318,0,0,0-1.417-5.987h0c.007.021.656,2.276,1.338,6.01a62.344,62.344,0,0,1,.982,15.444A.133.133,0,0,0,1212.679,5113.458Z" transform="translate(-1210.328 -5091.915)" fill="#3a49cd"/>
        </g>
      </g>
      <g id="Grupo_62646" data-name="Grupo 62646" transform="translate(43.906 38.464)">
        <path id="Trazado_112098" data-name="Trazado 112098" d="M1210.2,5090.854c.243.2,1.172,1.068.241,1.7,0,0-.708.208-.929-.338a3.441,3.441,0,0,1-.218-1.074.093.093,0,0,1,.088-.1.739.739,0,0,0,.2-.042c.088-.032.134-.162.253-.188a.687.687,0,0,1,.235-.022A.256.256,0,0,1,1210.2,5090.854Z" transform="translate(-1209.294 -5090.792)" fill="#ed6966"/>
      </g>
      <g id="Grupo_62647" data-name="Grupo 62647" transform="translate(44.71 39.997)">
        <path id="Trazado_112099" data-name="Trazado 112099" d="M1210.841,5092.6a.569.569,0,0,0-.188.579v.133a.627.627,0,0,0-.41-.442A.742.742,0,0,0,1210.841,5092.6Z" transform="translate(-1210.244 -5092.604)" fill="#3a49cd"/>
      </g>
      <g id="Grupo_62648" data-name="Grupo 62648" transform="translate(45.809 39.74)">
        <path id="Trazado_112100" data-name="Trazado 112100" d="M1211.542,5093.24a1.4,1.4,0,0,0,1.483-.94A1.782,1.782,0,0,0,1211.542,5093.24Z" transform="translate(-1211.542 -5092.3)" fill="#3a49cd"/>
      </g>
      <g id="Grupo_62650" data-name="Grupo 62650" transform="translate(45.721 38.198)">
        <g id="Grupo_62649" data-name="Grupo 62649">
          <path id="Trazado_112101" data-name="Trazado 112101" d="M1213.621,5112.059l-.145.269a.05.05,0,0,1-.093-.013,83.207,83.207,0,0,1-1.933-15.687,50.02,50.02,0,0,1,.2-6.148h0c0,.023-.191,2.361-.119,6.156a62.353,62.353,0,0,0,2.1,15.332A.123.123,0,0,1,1213.621,5112.059Z" transform="translate(-1211.438 -5090.478)" fill="#3a49cd"/>
        </g>
      </g>
      <g id="Grupo_62651" data-name="Grupo 62651" transform="translate(45.287 37.225)">
        <path id="Trazado_112102" data-name="Trazado 112102" d="M1211.365,5089.438c-.2.247-.937,1.278.1,1.715,0,0,.734.064.844-.515a3.476,3.476,0,0,0,0-1.1.1.1,0,0,0-.106-.078.72.72,0,0,1-.2,0c-.092-.014-.164-.133-.285-.135a.69.69,0,0,0-.234.025A.245.245,0,0,0,1211.365,5089.438Z" transform="translate(-1210.925 -5089.328)" fill="#ed6966"/>
      </g>
      <g id="Grupo_62652" data-name="Grupo 62652" transform="translate(45.533 38.873)">
        <path id="Trazado_112103" data-name="Trazado 112103" d="M1211.216,5091.276a.571.571,0,0,1,.3.53l.026.131a.625.625,0,0,1,.313-.515A.744.744,0,0,1,1211.216,5091.276Z" transform="translate(-1211.216 -5091.276)" fill="#3a49cd"/>
      </g>
      <g id="Grupo_62653" data-name="Grupo 62653" transform="translate(46.658 38.465)">
        <path id="Trazado_112104" data-name="Trazado 112104" d="M1212.545,5091.863a1.177,1.177,0,0,1,.7-1.07A.991.991,0,0,1,1212.545,5091.863Z" transform="translate(-1212.545 -5090.793)" fill="#3a49cd"/>
      </g>
      <g id="Grupo_62654" data-name="Grupo 62654" transform="translate(44.444 37.425)">
        <path id="Trazado_112105" data-name="Trazado 112105" d="M1210.494,5090.366a.828.828,0,0,0-.554-.8A.691.691,0,0,0,1210.494,5090.366Z" transform="translate(-1209.929 -5089.565)" fill="#ea8888"/>
      </g>
      <g id="Grupo_62655" data-name="Grupo 62655" transform="translate(46.572 40.859)">
        <path id="Trazado_112106" data-name="Trazado 112106" d="M1212.767,5094.728a.9.9,0,0,0-.268-1.1A1.06,1.06,0,0,0,1212.767,5094.728Z" transform="translate(-1212.443 -5093.623)" fill="#ea8888"/>
      </g>
      <g id="Grupo_62656" data-name="Grupo 62656" transform="translate(47.288 41.561)">
        <path id="Trazado_112107" data-name="Trazado 112107" d="M1213.294,5094.807a.337.337,0,0,1,.29-.354S1213.635,5094.714,1213.294,5094.807Z" transform="translate(-1213.29 -5094.452)" fill="#3a49cd"/>
      </g>
      <g id="Grupo_62657" data-name="Grupo 62657" transform="translate(43.308 40.423)">
        <path id="Trazado_112108" data-name="Trazado 112108" d="M1209.632,5093.543a.973.973,0,0,0-1.045-.425S1208.706,5093.67,1209.632,5093.543Z" transform="translate(-1208.587 -5093.107)" fill="#3a49cd"/>
      </g>
      <g id="Grupo_62658" data-name="Grupo 62658" transform="translate(43.087 44.972)">
        <path id="Trazado_112109" data-name="Trazado 112109" d="M1213.993,5115.771h-5.1a.563.563,0,0,1-.558-.644l2.376-16.377a.312.312,0,0,1,.308-.267h.758a.333.333,0,0,1,.329.283l2.432,16.377A.547.547,0,0,1,1213.993,5115.771Z" transform="translate(-1208.325 -5098.483)" fill="#1cbfbf"/>
      </g>
      <g id="Grupo_62660" data-name="Grupo 62660" transform="translate(43.394 44.976)">
        <g id="Grupo_62659" data-name="Grupo 62659">
          <path id="Trazado_112110" data-name="Trazado 112110" d="M1210.075,5115.276l1.262-16.789a.31.31,0,0,0-.267.263l-2.376,16.377a.563.563,0,0,0,.557.644h1.021A.6.6,0,0,1,1210.075,5115.276Z" transform="translate(-1208.688 -5098.488)" fill="#beffff"/>
        </g>
      </g>
    </g>
    <g id="Grupo_62662" data-name="Grupo 62662" transform="translate(1315.275 5134.142)">
      <path id="Trazado_112111" data-name="Trazado 112111" d="M1375.06,5162.37h-1.072l.009-.085.323-2.86a.183.183,0,0,1,.182-.162l.034,0a.284.284,0,0,1,.251.256Z" transform="translate(-1368.5 -5159.263)" fill="#a2c5f9"/>
      <path id="Trazado_112112" data-name="Trazado 112112" d="M1374.1,5161.721h-.038l.267-2.3a.183.183,0,0,1,.182-.162l.034,0a.239.239,0,0,1,.028.026.283.283,0,0,1,.077.192l.015,1.651A.581.581,0,0,1,1374.1,5161.721Z" transform="translate(-1368.512 -5159.263)" fill="#93b3f4"/>
      <rect id="Rectángulo_7012" data-name="Rectángulo 7012" width="2.068" height="91.295" transform="translate(5.176 15.832)" fill="#a2c5f9"/>
      <rect id="Rectángulo_7013" data-name="Rectángulo 7013" width="0.955" height="91.295" transform="translate(5.176 15.832)" fill="#93b3f4"/>
      <rect id="Rectángulo_7014" data-name="Rectángulo 7014" width="6.585" height="24.155" transform="translate(2.916 92.557)" fill="#a2c5f9"/>
      <rect id="Rectángulo_7015" data-name="Rectángulo 7015" width="3.925" height="24.155" transform="translate(2.916 92.557)" fill="#93b3f4"/>
      <path id="Trazado_112113" data-name="Trazado 112113" d="M1377.718,5164.19c0,1.128-1.693,2.042-3.783,2.042-.16,0-.316,0-.471-.016-1.867-.125-3.313-.984-3.313-2.026s1.445-1.9,3.313-2.025c.155-.011.312-.016.471-.016C1376.024,5162.149,1377.718,5163.063,1377.718,5164.19Z" transform="translate(-1367.91 -5159.707)" fill="#a2c5f9"/>
      <path id="Trazado_112114" data-name="Trazado 112114" d="M1375.76,5164.193c0,.91-.946,1.69-2.3,2.026-1.867-.125-3.313-.984-3.313-2.026s1.445-1.9,3.313-2.025C1374.813,5162.5,1375.76,5163.284,1375.76,5164.193Z" transform="translate(-1367.91 -5159.71)" fill="#93b3f4"/>
      <path id="Trazado_112115" data-name="Trazado 112115" d="M1377.1,5178.068h-6.585l-2.322-11.179h10.873Z" transform="translate(-1367.61 -5160.436)" fill="#93b3f4"/>
      <rect id="Rectángulo_7016" data-name="Rectángulo 7016" width="12.048" height="1.072" transform="translate(0 5.611)" fill="#a2c5f9"/>
      <rect id="Rectángulo_7017" data-name="Rectángulo 7017" width="7.573" height="1.072" transform="translate(0 5.611)" fill="#93b3f4"/>
      <path id="Trazado_112116" data-name="Trazado 112116" d="M1372.224,5268.252h4.208l-.616-1.868a.4.4,0,0,0-.383-.278h-1.972a.529.529,0,0,0-.488.327Z" transform="translate(-1368.229 -5175.695)" fill="#a2c5f9"/>
      <path id="Trazado_112117" data-name="Trazado 112117" d="M1369.116,5167.533h9.286l-1.814,10.048h-5.332Z" transform="translate(-1367.751 -5160.535)" fill="#c7dcf9"/>
      <path id="Trazado_112118" data-name="Trazado 112118" d="M1370.445,5164.432s.708-1.545,2.1-1.5c0,0-.888.791-.806,1.5S1370.445,5164.432,1370.445,5164.432Z" transform="translate(-1367.955 -5159.828)" fill="#c7dcf9"/>
      <path id="Trazado_112119" data-name="Trazado 112119" d="M1378.921,5165.671h-10.508l.86-1.226h8.831Z" transform="translate(-1367.643 -5160.06)" fill="#a2c5f9"/>
      <path id="Trazado_112120" data-name="Trazado 112120" d="M1376.333,5165.671h-7.92l.86-1.226h6.243Z" transform="translate(-1367.643 -5160.06)" fill="#93b3f4"/>
      <path id="Trazado_112121" data-name="Trazado 112121" d="M1369.845,5167.948h2.128l.62,9.383h-.62Z" transform="translate(-1367.863 -5160.599)" fill="#d2e4f9"/>
    </g>
    <path id="Trazado_112122" data-name="Trazado 112122" d="M1109.973,5096.3a3.306,3.306,0,1,1,3.306,3.307A3.306,3.306,0,0,1,1109.973,5096.3Z" transform="translate(-12.623 -14.929)" fill="#fff"/>
    <rect id="Rectángulo_7018" data-name="Rectángulo 7018" width="191.7" height="13.121" transform="matrix(0.999, -0.036, 0.036, 0.999, 1107.954, 5002.821)" fill="#93b3f4"/>
    <rect id="Rectángulo_7019" data-name="Rectángulo 7019" width="56.486" height="12.078" transform="translate(1139.441 5023.174)" fill="#93b3f4"/>
    <g id="Grupo_62671" data-name="Grupo 62671" transform="translate(1212.115 5023.174)">
      <rect id="Rectángulo_7020" data-name="Rectángulo 7020" width="46.874" height="62.307" transform="translate(6.661 15.727)" fill="#fff" opacity="0.5"/>
      <rect id="Rectángulo_7021" data-name="Rectángulo 7021" width="44.586" height="60.02" transform="translate(7.805 16.871)" fill="#dfebfd"/>
      <g id="Grupo_62663" data-name="Grupo 62663" transform="translate(12.429 16.183)">
        <path id="Trazado_112123" data-name="Trazado 112123" d="M1267.2,5047.332v17.093c0,.15,0,.3-.005.439-.029,1.334-.186,2.358-.375,2.358h-.053c-.175,0-.323-.882-.366-2.073,0-.1-.007-.2-.008-.3v-.021c0-.131,0-.266,0-.4v-17.173Q1266.8,5047.282,1267.2,5047.332Z" transform="translate(-1261.222 -5047.252)" fill="#93b3f4"/>
        <path id="Trazado_112124" data-name="Trazado 112124" d="M1265.643,5068.3a5.52,5.52,0,0,0-5.36,5.667H1271A5.519,5.519,0,0,0,1265.643,5068.3Z" transform="translate(-1260.283 -5050.489)" fill="#93b3f4"/>
        <path id="Trazado_112125" data-name="Trazado 112125" d="M1266.4,5068.371a2.218,2.218,0,0,0-.47-.051c-1.928,0-3.491,2.529-3.491,5.649h.941C1263.38,5071.107,1264.7,5068.743,1266.4,5068.371Z" transform="translate(-1260.615 -5050.492)" fill="#bed2fa"/>
      </g>
      <g id="Grupo_62665" data-name="Grupo 62665" transform="translate(12.425 52.089)">
        <path id="Trazado_112126" data-name="Trazado 112126" d="M1265.329,5096.069s-2.639-3.08-.163-5.035a7.021,7.021,0,0,1,3.284-1.006s-2.09,3.505-1.413,3.854,2.047-4.074,2.047-4.074,4.117-.4,5.442.237c0,0-3.519,2.881-2.779,3.051s4.543-2.655,4.543-2.655,3.832.653,3.627,2.99-1.524,3.059-2.1,3-3.975-1.358-4.049-.882,1.97,2.029,3.4,2.1c0,0-2.7,2.979-4.5,2.12s-1.948-2.223-3.068-2.734-2.075-.51-1.612.012,2.487,1.027,3.127,2.16,1.214,1.9-.642,1.616-4.878-1.638-5.01-3.2Z" transform="translate(-1260.867 -5089.684)" fill="#3662c1"/>
        <g id="Grupo_62664" data-name="Grupo 62664" transform="translate(0 3.792)">
          <path id="Trazado_112127" data-name="Trazado 112127" d="M1277.835,5094.183s-10.407-.4-12.7,2.575a7.531,7.531,0,0,1-2.072,2.908l-.244.666s1.8-1.9,2.448-2.018C1265.262,5098.313,1264.253,5094.627,1277.835,5094.183Z" transform="translate(-1260.668 -5094.165)" fill="#3662c1"/>
          <path id="Trazado_112128" data-name="Trazado 112128" d="M1262.668,5100.618a6.539,6.539,0,0,0-2.39,4.6l.406.037s.713-3.052,2-4.247S1262.668,5100.618,1262.668,5100.618Z" transform="translate(-1260.278 -5095.117)" fill="#3662c1"/>
        </g>
      </g>
      <path id="Trazado_112129" data-name="Trazado 112129" d="M1257.124,5096.292l-.574,1.23-.082.176,0,0a2.482,2.482,0,0,1-1.647,1.122v-10.094c.564.245.943.426.943.426s-.235,4.6.517,4.507,0-4.084,0-4.084a6.992,6.992,0,0,1,2.722,2.064C1260.644,5094.32,1257.124,5096.292,1257.124,5096.292Z" transform="translate(-1247.014 -5037.447)" fill="#6d89cf"/>
      <g id="Grupo_62666" data-name="Grupo 62666" transform="translate(7.805 56.201)">
        <path id="Trazado_112130" data-name="Trazado 112130" d="M1258.064,5100.613v.7l-.036-.079,0-.007c-.029-.071-.06-.138-.092-.205-.007-.016-.014-.033-.023-.051a.323.323,0,0,1-.017-.038c-.063-.135-.141-.3-.227-.479l0-.006a5.91,5.91,0,0,0-1.2-1.858l0,0a.772.772,0,0,0,.082-.176c.14-.415.244-1.548-1.731-3.262v-.612a5.916,5.916,0,0,1,2.305,2.644,7.5,7.5,0,0,0,.937,3.424Z" transform="translate(-1254.819 -5094.542)" fill="#3662c1"/>
        <path id="Trazado_112131" data-name="Trazado 112131" d="M1258.567,5101.637a6.506,6.506,0,0,1,.653,5.12l-.391-.106s.379-3.1-.415-4.652S1258.567,5101.637,1258.567,5101.637Z" transform="translate(-1255.323 -5095.566)" fill="#3662c1"/>
      </g>
      <path id="Trazado_112132" data-name="Trazado 112132" d="M1261.969,5089.546s-4.642-2.6-2.475-6.126a9.217,9.217,0,0,1,3.59-2.724s-.99,5.261,0,5.385.68-5.941.68-5.941,4.889-2.352,6.808-2.166c0,0-3.032,5.136-2.042,5.013s4.394-5.323,4.394-5.323,5.013-.928,5.818,2.043-.5,4.456-1.238,4.641-5.508.124-5.384.743,3.342,1.609,5.136,1.052c0,0-1.98,4.889-4.58,4.642s-3.4-1.856-5.013-1.98-2.785.31-1.98.742,3.527.142,4.827,1.248,2.352,1.786-.062,2.28-6.746.187-7.612-1.67Z" transform="translate(-1247.644 -5035.725)" fill="#6d89cf"/>
      <g id="Grupo_62667" data-name="Grupo 62667" transform="translate(11.875 44.911)">
        <path id="Trazado_112133" data-name="Trazado 112133" d="M1276.781,5081.2s-13,4.208-14.482,8.911a9.866,9.866,0,0,1-1.237,4.518v.928s1.362-3.155,2.1-3.589C1263.166,5091.969,1260.257,5087.884,1276.781,5081.2Z" transform="translate(-1259.848 -5081.2)" fill="#3662c1"/>
        <path id="Trazado_112134" data-name="Trazado 112134" d="M1260.841,5096.965a8.57,8.57,0,0,0-.862,6.749l.515-.138s-.5-4.081.548-6.133S1260.841,5096.965,1260.841,5096.965Z" transform="translate(-1259.628 -5083.536)" fill="#3662c1"/>
      </g>
      <path id="Trazado_112135" data-name="Trazado 112135" d="M1293.923,5101.915s6.87-27.989,7.366-30.341a1.774,1.774,0,0,1,1.588-1.524c-1.208-.125-2.086-.133-2.086-.133a5.637,5.637,0,0,0-5.252,4.229c-1.664,5.516-8.111,14.748-11.215,25.107C1284.481,5099.249,1293.923,5101.915,1293.923,5101.915Z" transform="translate(-1251.551 -5034.554)" fill="#138080"/>
      <path id="Trazado_112136" data-name="Trazado 112136" d="M1254.819,5116.06v-5.247c1.246-2.407,2.506-4.586,3.594-6.293q.253-.393.489-.75h0c.051-.079.1-.154.153-.228v0c.207-.311.407-.6.595-.864h0c.291-.405.556-.755.789-1.039a3.756,3.756,0,0,1,1.241-.963h0c.042-.02.082-.042.124-.061a5.739,5.739,0,0,1,.583-.231l.064-.022h0a8.837,8.837,0,0,1,1.884-.373h0a21.006,21.006,0,0,1,4.845.211h0c.214.03.428.063.641.1.927.151,1.841.335,2.7.533l.009,0c.315.072.621.146.918.219l.067.017h0l.31.079c.461.118.9.236,1.3.35,1.679.472,2.793.868,2.793.868l.007.227.02.846.011.415.03,1.219,0,.052,0,.169.027,1.061,0,.087.243,9.625Z" transform="translate(-1247.014 -5039.168)" fill="#1cbfbf"/>
      <path id="Trazado_112137" data-name="Trazado 112137" d="M1287.949,5106.183c-.144-.07-.356-.176-.63-.308h0c-.053-.025-.108-.052-.163-.077v0c-.149-.07-.313-.148-.492-.231-.218-.1-.458-.214-.716-.331-.356-.163-.747-.339-1.169-.521-.123-.055-.247-.109-.377-.165h0q-.181-.079-.371-.157l0,0c-.49-.208-1.012-.425-1.558-.643h0c-.509-.2-1.041-.412-1.59-.615l-.086-.033c-1.524-.567-3.167-1.115-4.8-1.554-.514-.137-1.026-.265-1.536-.376h0l-.207-.046h0a.027.027,0,0,0-.011,0h0q-.481-.105-.956-.188l-.009,0a21.085,21.085,0,0,0-2.482-.308q-.284-.017-.56-.022a8,8,0,0,0-3.773.677,3.845,3.845,0,0,0-1.641,1.537,35.467,35.467,0,0,0-1.549,3.247,103.461,103.461,0,0,0-3.676,10.1h27.686l.07-.782,0,0,.139-1.545.68-7.521,0-.023Z" transform="translate(-1247.746 -5039.272)" fill="#138080"/>
      <path id="Trazado_112138" data-name="Trazado 112138" d="M1304.655,5070.039v41.425h-1.608c-1.142-.161-2.281-.337-3.388-.526h0c-1.889-.325-3.682-.688-5.243-1.088-.459-.118-.9-.237-1.315-.362-.251-.076-.493-.15-.725-.227-.129-.042-.256-.085-.38-.128-1.741-.607-2.871-1.275-3.01-1.986a13.184,13.184,0,0,1,.782-4.3l0,0c.106-.38.223-.781.349-1.2.057-.19.118-.385.179-.584l.071-.229.029-.1c.023-.068.045-.138.066-.206.006-.017.011-.035.016-.051h0q.212-.667.443-1.373c.222-.668.454-1.363.7-2.075.317-.931.656-1.891,1.007-2.873.1-.286.2-.572.308-.861.369-1.021.749-2.057,1.133-3.1.99-2.671,2.016-5.353,2.969-7.806.287-.738.566-1.455.838-2.145l0,0q.281-.721.549-1.4c.52-1.322.888-2.589,1.234-3.733h0a10.448,10.448,0,0,1,1.816-4.045,3.143,3.143,0,0,1,1.939-.993c.049-.007.1-.012.15-.018h.007a4.516,4.516,0,0,1,.5-.027Z" transform="translate(-1252.264 -5034.573)" fill="#1cbfbf"/>
      <path id="Trazado_112139" data-name="Trazado 112139" d="M1294.927,5116.49h0l-2.79-9.194-.047-.15s-.313-.032-.877-.083c-.317-.029-.713-.064-1.178-.1-.739-.062-1.652-.137-2.693-.216h0c-.031,0-.059,0-.09-.005h0l-.144-.01h0c-.195-.016-.394-.03-.6-.044h0l-.279-.02-.659-.045c-1.573-.107-3.337-.212-5.181-.3-.454-.021-.913-.04-1.376-.059-.162-.007-.324-.011-.487-.018-1.1-.04-2.222-.072-3.334-.089h0c-1.509-.024-3.006-.024-4.439.008h0l-.339.009c-.712.02-1.406.046-2.077.084-1.273.07-2.459.177-3.513.328-.645.092-1.24.2-1.775.327a5.291,5.291,0,0,0-2.582,1.168c-1.008,1.084-1.739,4.554-2.269,8.937h36.9Z" transform="translate(-1247.532 -5040.125)" fill="#1cbfbf"/>
      <path id="Trazado_112140" data-name="Trazado 112140" d="M1287.509,5086.123a5.925,5.925,0,0,0-2.827,3.091c-1.246,2.528-1.761,9.333-2.378,9.4s-5.3-.846-5.3-.846l.109,1.167s4.873,3.243,5.891,2.66,3.829-8.443,4.012-9.632S1287.509,5086.123,1287.509,5086.123Z" transform="translate(-1250.425 -5037.047)" fill="#fc9290"/>
      <path id="Trazado_112141" data-name="Trazado 112141" d="M1299.789,5085.012s-6.338-1.345-10.884.878c0,0-2.915,6.275-2.825,7.339s1.1,5.5.184,7.173,8.432,4.649,10.116,3.613S1300.066,5086.165,1299.789,5085.012Z" transform="translate(-1251.821 -5036.814)" fill="#fff"/>
      <path id="Trazado_112142" data-name="Trazado 112142" d="M1273.542,5113.323c-.428.99-1,2.116-1.635,3.321h-8.617c.988-5.157,1.87-8.744,2.311-10.432.188-.723.3-1.1.3-1.1a2.568,2.568,0,0,1,1.473-1.313l.008,0c1.158-.334,2.519.441,3.73,1.575.142.134.284.272.422.415h0a15.168,15.168,0,0,1,1.266,1.5,8.375,8.375,0,0,1,1.549,2.9A6.841,6.841,0,0,1,1273.542,5113.323Z" transform="translate(-1248.316 -5039.753)" fill="#060632"/>
      <path id="Trazado_112143" data-name="Trazado 112143" d="M1268.045,5103.753s1.94-1.111,6.345-.155a27.794,27.794,0,0,1,8.011,3.245l-11.236.467Z" transform="translate(-1249.048 -5039.674)" fill="#060632"/>
      <path id="Trazado_112144" data-name="Trazado 112144" d="M1298.409,5085.057s2.811-.515,3.2,1.774.046,16.108-2.107,16.8-10.986-3.191-10.986-3.191l.267-1.475s8.45,1.151,8.755,1.023S1298.409,5085.057,1298.409,5085.057Z" transform="translate(-1252.196 -5036.875)" fill="#fc9290"/>
      <path id="Trazado_112145" data-name="Trazado 112145" d="M1274.451,5096.706l-.4-3.686,5.212,6.867s-2.182,1.088-2.31.879Z" transform="translate(-1249.971 -5038.107)" fill="#b5453c"/>
      <path id="Trazado_112146" data-name="Trazado 112146" d="M1282.323,5097.375l4.814,7.352h-8.086l-4.528-7.352Z" transform="translate(-1250.044 -5038.777)" fill="#9e332e"/>
      <path id="Trazado_112147" data-name="Trazado 112147" d="M1274.455,5096.711l-.378-3.65,2.724,3.408Z" transform="translate(-1249.975 -5038.114)" fill="#fff"/>
      <path id="Trazado_112148" data-name="Trazado 112148" d="M1288.308,5104.276l.37-.264-4.785-7.11-.152.4Z" transform="translate(-1251.461 -5038.704)" fill="#93b3f4"/>
      <path id="Trazado_112149" data-name="Trazado 112149" d="M1282.475,5096.9l-7.617.214-.335.186h7.8Z" transform="translate(-1250.044 -5038.704)" fill="#bed2fa"/>
      <path id="Trazado_112150" data-name="Trazado 112150" d="M1284.723,5116.49h-8.62c-.418-1.187-.8-2.3-1.141-3.322-.869-2.595-1.5-4.638-1.9-5.983-.213-.718-.364-1.238-.447-1.539-.058-.2-.084-.3-.084-.3,0-.041,0-.083,0-.124a2.342,2.342,0,0,1,.873-1.986l.085-.06h0a4.922,4.922,0,0,1,3.65-.234h0a15,15,0,0,1,3.552,1.336,5.94,5.94,0,0,1,1.691,1.2c.019.023.038.048.057.075a2.742,2.742,0,0,1,.151.247,5.949,5.949,0,0,1,.378.9.535.535,0,0,1,.018.053c0,.009.006.02.009.026a41.019,41.019,0,0,1,1.3,6.386h0C1284.445,5114.226,1284.588,5115.35,1284.723,5116.49Z" transform="translate(-1249.737 -5039.599)" fill="#0b0754"/>
      <path id="Trazado_112151" data-name="Trazado 112151" d="M1273.661,5103.135s3.336-2.994,16.95,3.455l-11.181.168Z" transform="translate(-1249.911 -5039.557)" fill="#0b0754"/>
      <path id="Trazado_112152" data-name="Trazado 112152" d="M1288,5101.256a7.63,7.63,0,0,0-1.7-.894c-.535-.075-1.112-.749-1.054-.365s.65.88.814,1.041-.928.134-1.366-.08c-.206-.1-1.3-.384-1.3.011a2.132,2.132,0,0,0,1.517,1.619c.5.113,2.9.18,2.9.18Z" transform="translate(-1251.409 -5039.162)" fill="#fc9290"/>
      <path id="Trazado_112153" data-name="Trazado 112153" d="M1294.6,5076.366s2.362,1.292.542,3.875c0,0,2.052.3,2.587-.281a1.676,1.676,0,0,1-.18.38,5.856,5.856,0,0,0,2.738-.941c.736-.735-1.209-10.855-6.581-8.947,0,0-4.736.3-3.546,5.66s-.579,5.608-.579,5.608a2.541,2.541,0,0,0,.764.141s.328-.18.371-.383a1.26,1.26,0,0,1-.1.42,5.079,5.079,0,0,0,2.788-.938C1294.255,5080.107,1295.027,5077.446,1294.6,5076.366Z" transform="translate(-1252.36 -5034.6)" fill="#0b0754"/>
      <path id="Trazado_112154" data-name="Trazado 112154" d="M1295.266,5079.066a11.935,11.935,0,0,0,1.655-3.4c.263-1.133,1.692-5.795-2.6-5.408a16.239,16.239,0,0,0-4.239,1.169c-.958.577-2.365,1.856-1.066,5.637l.322,1.271Z" transform="translate(-1252.192 -5034.603)" fill="#0b0754"/>
      <path id="Trazado_112155" data-name="Trazado 112155" d="M1293.116,5086.093a3.458,3.458,0,0,0,2.842-.034,2.267,2.267,0,0,0,1.381-2.115,8.3,8.3,0,0,1-1.182-3.41l-.2.083-3.451,1.412s.3,1.114.512,2.177C1293.191,5085.1,1292.93,5085.957,1293.116,5086.093Z" transform="translate(-1252.809 -5036.187)" fill="#fc9290"/>
      <path id="Trazado_112156" data-name="Trazado 112156" d="M1292.5,5082.044s.3,1.114.512,2.177c2-.448,2.7-2.488,2.939-3.589Z" transform="translate(-1252.809 -5036.202)" fill="#ea8888"/>
      <path id="Trazado_112157" data-name="Trazado 112157" d="M1291.449,5082.1s4.768-.849,4.194-3.81-.346-5.064-3.414-4.648-3.439,1.661-3.487,2.7S1290.194,5082.244,1291.449,5082.1Z" transform="translate(-1252.23 -5035.119)" fill="#fc9290"/>
      <path id="Trazado_112158" data-name="Trazado 112158" d="M1290.422,5072.663s2.346,3.956,4.658,4.219,2.846-.745,2.846-.745a6.381,6.381,0,0,1-2.587-3.447S1291.262,5070.662,1290.422,5072.663Z" transform="translate(-1252.489 -5034.841)" fill="#0b0754"/>
      <path id="Trazado_112159" data-name="Trazado 112159" d="M1290.454,5073.043a4.731,4.731,0,0,0-1.114,1.9c-.148.88-.025,2.631-.54,2.643,0,0-1.462-2.487-.438-4.151C1289.448,5071.667,1290.454,5073.043,1290.454,5073.043Z" transform="translate(-1252.116 -5034.957)" fill="#0b0754"/>
      <path id="Trazado_112160" data-name="Trazado 112160" d="M1290.683,5073.12s1.6,3.922,4.6,4.833c0,0-3.164-2.107-3.776-4.757S1290.683,5073.12,1290.683,5073.12Z" transform="translate(-1252.529 -5034.874)" fill="#0b0754"/>
      <path id="Trazado_112161" data-name="Trazado 112161" d="M1301.011,5079.4a5.86,5.86,0,0,1-2.738.941,1.6,1.6,0,0,0,.179-.381c-1.048.8-3.549.127-3.549.127,2.021-.387,1.452-3.3.773-3.446a62.93,62.93,0,0,0-1.384-6.173c.089-.013.14-.015.14-.015C1299.8,5068.543,1301.747,5078.664,1301.011,5079.4Z" transform="translate(-1253.084 -5034.6)" fill="#0b0754"/>
      <path id="Trazado_112162" data-name="Trazado 112162" d="M1298.989,5084.779s3.1.047,3.913.716,1.191,10.235,1.191,10.235a6.646,6.646,0,0,0-2.786-.092,9.251,9.251,0,0,1-3.054,0Z" transform="translate(-1253.693 -5036.84)" fill="#fff"/>
      <path id="Trazado_112163" data-name="Trazado 112163" d="M1291.577,5084.983s-3.906.783-4.8,1.82-2.687,6.254-2.687,6.254a1.787,1.787,0,0,1,1.051.587c.356.483,1.522.256,1.522.256Z" transform="translate(-1251.516 -5036.871)" fill="#fff"/>
      <g id="Grupo_62668" data-name="Grupo 62668" transform="translate(32.94 64.816)">
        <path id="Trazado_112164" data-name="Trazado 112164" d="M1284.521,5116.8c.534-1.162,1.079-2.281,1.614-3.333h0c1.067-2.1,2.1-3.924,2.949-5.281l0,0c.286-.459.552-.862.792-1.2.108-.155.212-.3.31-.424.027-.038.056-.072.086-.108.015-.019.028-.036.046-.056.034-.039.067-.077.106-.114a.933.933,0,0,1,.071-.075.4.4,0,0,1,.055-.052,4.468,4.468,0,0,1,1.639-.959,9.09,9.09,0,0,1,2.381-.438,18.224,18.224,0,0,1,2.611.045h0c.9.075,1.816.2,2.7.36q.453.081.891.171l.011,0h.007c1.193.242,2.293.521,3.183.769v10.7Z" transform="translate(-1284.521 -5104.723)" fill="#1cbfbf"/>
        <path id="Trazado_112165" data-name="Trazado 112165" d="M1292.052,5116.9c.093-.262.185-.525.278-.782l0,0c.173-.483.347-.958.519-1.417.489-1.3.969-2.5,1.413-3.55a37.556,37.556,0,0,1,1.663-3.522c.04-.068.08-.137.124-.2a3.39,3.39,0,0,1,.369-.476,3.7,3.7,0,0,1,.551-.495,4.54,4.54,0,0,1,1.069-.578,8.344,8.344,0,0,1,2.953-.474c.3,0,.619.01.938.029l.011,0h.007c.53.032,1.072.09,1.631.173.095.013.187.027.281.043l.07.011c.4.064.8.139,1.2.222V5116.9Z" transform="translate(-1285.679 -5104.827)" fill="#138080"/>
      </g>
      <path id="Trazado_112166" data-name="Trazado 112166" d="M1301.305,5107.645h-1v-62.308h-49.16v62.308h-1a4.542,4.542,0,0,0-4.542,4.542v.157h60.251v-.157A4.541,4.541,0,0,0,1301.305,5107.645Zm-47.878-60.021h44.587v11.02h-44.587Zm0,13.591h44.587v46.43h-44.587Z" transform="translate(-1245.595 -5030.774)" fill="#6d89cf"/>
      <g id="Grupo_62670" data-name="Grupo 62670" transform="translate(8.64 16.815)">
        <g id="Grupo_62669" data-name="Grupo 62669" transform="translate(0 1.021)">
          <rect id="Rectángulo_7022" data-name="Rectángulo 7022" width="43.107" height="2.168" fill="#fff"/>
          <rect id="Rectángulo_7023" data-name="Rectángulo 7023" width="43.107" height="2.168" transform="translate(0 3.405)" fill="#fff"/>
          <rect id="Rectángulo_7024" data-name="Rectángulo 7024" width="43.107" height="2.168" transform="translate(0 6.809)" fill="#fff"/>
          <rect id="Rectángulo_7025" data-name="Rectángulo 7025" width="43.107" height="2.168" transform="translate(0 9.998)" fill="#fff"/>
          <rect id="Rectángulo_7026" data-name="Rectángulo 7026" width="43.107" height="2.168" transform="translate(0 13.583)" fill="#fff"/>
        </g>
        <rect id="Rectángulo_7027" data-name="Rectángulo 7027" width="0.417" height="18.53" transform="translate(2.001)" fill="#fff"/>
        <rect id="Rectángulo_7028" data-name="Rectángulo 7028" width="0.417" height="18.53" transform="translate(40.939)" fill="#fff"/>
      </g>
      <rect id="Rectángulo_7029" data-name="Rectángulo 7029" width="56.486" height="12.078" transform="translate(1.855)" fill="#93b3f4"/>
    </g>
    <rect id="Rectángulo_7030" data-name="Rectángulo 7030" width="56.486" height="12.079" transform="translate(1139.441 5129.354)" fill="#93b3f4"/>
    <rect id="Rectángulo_7031" data-name="Rectángulo 7031" width="56.486" height="12.079" transform="translate(1213.97 5129.354)" fill="#93b3f4"/>
  </g>
</svg>
