<svg xmlns="http://www.w3.org/2000/svg" width="451.826" height="448.293" viewBox="0 0 451.826 448.293">
  <g id="Grupo_63073" data-name="Grupo 63073" transform="translate(-863.174 -5356)">
    <rect id="BG" width="451.826" height="448.293" transform="translate(863.174 5356)" fill="#e8e8e8" opacity="0.949"/>
    <g id="Grupo_62026" data-name="Grupo 62026" transform="translate(772.947 1145.238)">
      <path id="Trazado_111580" data-name="Trazado 111580" d="M185.55,4549.939s-45.927-61.81-23.481-125.443c14.629-41.479,69.51-64.207,100.483-41.479,13.192,9.681,50.107-3.208,78.111-39.75,46.44-60.6,191.754,6.731,146.933,127.917-20.479,55.37,14.545,48.281,5.764,79.7Z" transform="translate(0 0)" fill="#e8f2fa"/>
      <g id="Grupo_61887" data-name="Grupo 61887" transform="translate(359.055 4372.575)">
        <g id="Grupo_61886" data-name="Grupo 61886" transform="translate(0)">
          <rect id="Rectángulo_6817" data-name="Rectángulo 6817" width="6.298" height="169.092" transform="translate(38.491 8.63)" fill="#c8dcff"/>
          <rect id="Rectángulo_6818" data-name="Rectángulo 6818" width="82.411" height="4.157" transform="translate(0 13.232)" fill="#c8dcff"/>
          <g id="Grupo_61878" data-name="Grupo 61878" transform="translate(0.112)">
            <rect id="Rectángulo_6819" data-name="Rectángulo 6819" width="1.358" height="9.205" transform="translate(2.995 4.027)" fill="#c8dcff"/>
            <g id="Grupo_61877" data-name="Grupo 61877">
              <g id="Grupo_61876" data-name="Grupo 61876">
                <path id="Trazado_111581" data-name="Trazado 111581" d="M276.684,4355.35c0-.466,1.666-.843,3.723-.843s3.724.377,3.724.843-1.666.844-3.724.844S276.684,4355.815,276.684,4355.35Z" transform="translate(-276.683 -4349.444)" fill="#c8dcff"/>
                <path id="Trazado_111582" data-name="Trazado 111582" d="M276.684,4354.349c0-.465,1.666-.844,3.723-.844s3.724.379,3.724.844-1.666.843-3.724.843S276.684,4354.815,276.684,4354.349Z" transform="translate(-276.683 -4350.13)" fill="#c8dcff"/>
                <ellipse id="Elipse_4204" data-name="Elipse 4204" cx="3.724" cy="0.844" rx="3.724" ry="0.844" transform="translate(0 1.688)" fill="#c8dcff"/>
                <path id="Trazado_111583" data-name="Trazado 111583" d="M276.684,4352.343c0-.465,1.666-.844,3.723-.844s3.724.379,3.724.844-1.666.844-3.724.844S276.684,4352.81,276.684,4352.343Z" transform="translate(-276.683 -4351.499)" fill="#c8dcff"/>
              </g>
              <rect id="Rectángulo_6820" data-name="Rectángulo 6820" width="4.518" height="5.741" transform="translate(1.415 0.464)" fill="#c8dcff"/>
            </g>
          </g>
          <g id="Grupo_61881" data-name="Grupo 61881" transform="translate(37.481)">
            <rect id="Rectángulo_6821" data-name="Rectángulo 6821" width="1.358" height="9.205" transform="translate(2.996 4.027)" fill="#c8dcff"/>
            <g id="Grupo_61880" data-name="Grupo 61880">
              <g id="Grupo_61879" data-name="Grupo 61879">
                <path id="Trazado_111584" data-name="Trazado 111584" d="M298.889,4355.35c0-.466,1.668-.843,3.724-.843s3.724.377,3.724.843-1.668.844-3.724.844S298.889,4355.815,298.889,4355.35Z" transform="translate(-298.889 -4349.444)" fill="#c8dcff"/>
                <path id="Trazado_111585" data-name="Trazado 111585" d="M298.889,4354.349c0-.465,1.668-.844,3.724-.844s3.724.379,3.724.844-1.668.843-3.724.843S298.889,4354.815,298.889,4354.349Z" transform="translate(-298.889 -4350.13)" fill="#c8dcff"/>
                <ellipse id="Elipse_4205" data-name="Elipse 4205" cx="3.724" cy="0.844" rx="3.724" ry="0.844" transform="translate(0.001 1.688)" fill="#c8dcff"/>
                <path id="Trazado_111586" data-name="Trazado 111586" d="M298.889,4352.343c0-.465,1.668-.844,3.724-.844s3.724.379,3.724.844-1.668.844-3.724.844S298.889,4352.81,298.889,4352.343Z" transform="translate(-298.889 -4351.499)" fill="#c8dcff"/>
              </g>
              <rect id="Rectángulo_6822" data-name="Rectángulo 6822" width="4.518" height="5.741" transform="translate(1.416 0.464)" fill="#c8dcff"/>
            </g>
          </g>
          <g id="Grupo_61884" data-name="Grupo 61884" transform="translate(74.963)">
            <rect id="Rectángulo_6823" data-name="Rectángulo 6823" width="1.358" height="9.205" transform="translate(2.995 4.027)" fill="#c8dcff"/>
            <g id="Grupo_61883" data-name="Grupo 61883">
              <g id="Grupo_61882" data-name="Grupo 61882">
                <path id="Trazado_111587" data-name="Trazado 111587" d="M321.162,4355.35c0-.466,1.668-.843,3.724-.843s3.724.377,3.724.843-1.668.844-3.724.844S321.162,4355.815,321.162,4355.35Z" transform="translate(-321.162 -4349.444)" fill="#c8dcff"/>
                <path id="Trazado_111588" data-name="Trazado 111588" d="M321.162,4354.349c0-.465,1.668-.844,3.724-.844s3.724.379,3.724.844-1.668.843-3.724.843S321.162,4354.815,321.162,4354.349Z" transform="translate(-321.162 -4350.13)" fill="#c8dcff"/>
                <path id="Trazado_111589" data-name="Trazado 111589" d="M321.162,4353.345c0-.466,1.668-.843,3.724-.843s3.724.377,3.724.843-1.668.844-3.724.844S321.162,4353.811,321.162,4353.345Z" transform="translate(-321.162 -4350.814)" fill="#c8dcff"/>
                <path id="Trazado_111590" data-name="Trazado 111590" d="M321.162,4352.343c0-.465,1.668-.844,3.724-.844s3.724.379,3.724.844-1.668.844-3.724.844S321.162,4352.81,321.162,4352.343Z" transform="translate(-321.162 -4351.499)" fill="#c8dcff"/>
              </g>
              <rect id="Rectángulo_6824" data-name="Rectángulo 6824" width="4.518" height="5.741" transform="translate(1.415 0.464)" fill="#c8dcff"/>
            </g>
          </g>
          <g id="Grupo_61885" data-name="Grupo 61885" transform="translate(18.296 14.802)">
            <path id="Trazado_111591" data-name="Trazado 111591" d="M310.836,4381.439l-23.347-19.5.861-1.023,22.479,18.768,22.842-19.394.869,1.017Z" transform="translate(-287.489 -4360.295)" fill="#c8dcff"/>
          </g>
        </g>
      </g>
      <g id="Grupo_61913" data-name="Grupo 61913" transform="translate(174.435 4460.438)">
        <g id="Grupo_61888" data-name="Grupo 61888" transform="translate(17.074 13.877)">
          <path id="Trazado_111592" data-name="Trazado 111592" d="M184.748,4451.376H177.13a.074.074,0,0,1-.074-.072V4412.03a.075.075,0,0,1,.074-.075h7.618a.075.075,0,0,1,.074.075V4451.3A.074.074,0,0,1,184.748,4451.376Zm-7.544-.147h7.47V4412.1H177.2Z" transform="translate(-177.056 -4411.956)" fill="#bad7fd"/>
        </g>
        <g id="Grupo_61889" data-name="Grupo 61889" transform="translate(13.604 53.151)">
          <path id="Trazado_111593" data-name="Trazado 111593" d="M189.578,4461.624h-14.51a.074.074,0,0,1-.056-.026.081.081,0,0,1-.019-.059l3.472-26.182a.073.073,0,0,1,.072-.064h7.618a.073.073,0,0,1,.072.064l3.423,26.182a.081.081,0,0,1-.019.059A.074.074,0,0,1,189.578,4461.624Zm-14.427-.148H189.5l-3.4-26.036H178.6Z" transform="translate(-174.994 -4435.293)" fill="#bad7fd"/>
        </g>
        <g id="Grupo_61890" data-name="Grupo 61890" transform="translate(12.223 79.333)">
          <path id="Trazado_111594" data-name="Trazado 111594" d="M177.027,4461.394h-2.78a.074.074,0,0,1-.056-.026.073.073,0,0,1-.017-.058l1.38-10.394a.076.076,0,0,1,.074-.063h5.752a.071.071,0,0,1,.061.034.07.07,0,0,1,.007.068l-4.352,10.393A.076.076,0,0,1,177.027,4461.394Zm-2.7-.148h2.647L181.269,4451h-5.577Z" transform="translate(-174.174 -4450.853)" fill="#bad7fd"/>
        </g>
        <g id="Grupo_61891" data-name="Grupo 61891" transform="translate(22.339 79.333)">
          <path id="Trazado_111595" data-name="Trazado 111595" d="M187.391,4461.394h-2.78a.073.073,0,0,1-.067-.046l-4.354-10.393a.075.075,0,0,1,.007-.068.073.073,0,0,1,.061-.034h5.754a.075.075,0,0,1,.072.063l1.382,10.394a.081.081,0,0,1-.019.058A.074.074,0,0,1,187.391,4461.394Zm-2.731-.148h2.649L185.945,4451h-5.577Z" transform="translate(-180.185 -4450.853)" fill="#bad7fd"/>
        </g>
        <g id="Grupo_61892" data-name="Grupo 61892" transform="translate(0 46.605)">
          <path id="Trazado_111596" data-name="Trazado 111596" d="M209.791,4438.1H166.984a.073.073,0,0,1-.072-.059.075.075,0,0,1,.045-.083l17.074-6.545.027-.006h7.618l.025.006,18.114,6.545a.072.072,0,0,1,.047.081A.073.073,0,0,1,209.791,4438.1Zm-42.411-.146h41.992l-17.709-6.4h-7.591Z" transform="translate(-166.91 -4431.404)" fill="#bad7fd"/>
        </g>
        <g id="Grupo_61893" data-name="Grupo 61893" transform="translate(2.539 26.969)">
          <path id="Trazado_111597" data-name="Trazado 111597" d="M206.221,4426.427H168.493a.072.072,0,0,1-.072-.057.075.075,0,0,1,.042-.083L183,4419.74a.13.13,0,0,1,.03,0h7.618a.116.116,0,0,1,.029,0l15.575,6.547a.073.073,0,0,1,.044.08A.072.072,0,0,1,206.221,4426.427Zm-37.386-.146h37.023l-15.226-6.4h-7.588Z" transform="translate(-168.419 -4419.736)" fill="#bad7fd"/>
        </g>
        <g id="Grupo_61894" data-name="Grupo 61894" transform="translate(6.529 9.113)">
          <path id="Trazado_111598" data-name="Trazado 111598" d="M200.612,4414.037H170.864a.074.074,0,0,1-.072-.061.07.07,0,0,1,.045-.081l11.866-4.766.027-.005h5.294l.025.005,12.588,4.764a.074.074,0,0,1-.025.143Zm-29.369-.147h28.969l-12.2-4.619h-5.267Z" transform="translate(-170.79 -4409.125)" fill="#bad7fd"/>
        </g>
        <g id="Grupo_61895" data-name="Grupo 61895" transform="translate(18.395)">
          <path id="Trazado_111599" data-name="Trazado 111599" d="M183.209,4412.968h-5.294a.069.069,0,0,1-.059-.029.071.071,0,0,1-.012-.063l2.487-9.112a.076.076,0,0,1,.071-.054.07.07,0,0,1,.071.052l2.805,9.112a.075.075,0,0,1-.01.065A.071.071,0,0,1,183.209,4412.968Zm-5.2-.146h5.1l-2.7-8.776Z" transform="translate(-177.841 -4403.71)" fill="#bad7fd"/>
        </g>
        <g id="Grupo_61896" data-name="Grupo 61896" transform="translate(17.075 13.877)">
          <path id="Trazado_111600" data-name="Trazado 111600" d="M184.748,4418.649H177.13a.076.076,0,0,1-.069-.048.073.073,0,0,1,.022-.081l3.744-3.218-3.744-3.217a.075.075,0,0,1-.022-.082.076.076,0,0,1,.069-.048h7.618a.076.076,0,0,1,.069.048.075.075,0,0,1-.022.082l-3.744,3.217,3.744,3.218a.073.073,0,0,1,.022.081A.076.076,0,0,1,184.748,4418.649Zm-7.42-.146h7.221l-3.61-3.1Zm0-6.4,3.611,3.1,3.61-3.1Z" transform="translate(-177.057 -4411.956)" fill="#bad7fd"/>
        </g>
        <g id="Grupo_61897" data-name="Grupo 61897" transform="translate(17.075 20.423)">
          <path id="Trazado_111601" data-name="Trazado 111601" d="M184.748,4422.539H177.13a.076.076,0,0,1-.069-.049.074.074,0,0,1,.022-.081l3.744-3.217-3.744-3.216a.076.076,0,0,1-.022-.083.074.074,0,0,1,.069-.046h7.618a.074.074,0,0,1,.069.046.076.076,0,0,1-.022.083l-3.744,3.216,3.744,3.217a.074.074,0,0,1,.022.081A.077.077,0,0,1,184.748,4422.539Zm-7.42-.147h7.221l-3.61-3.1Zm0-6.4,3.611,3.1,3.61-3.1Z" transform="translate(-177.057 -4415.847)" fill="#bad7fd"/>
        </g>
        <g id="Grupo_61898" data-name="Grupo 61898" transform="translate(17.075 26.969)">
          <path id="Trazado_111602" data-name="Trazado 111602" d="M184.748,4426.427H177.13a.072.072,0,0,1-.047-.127l3.744-3.218-3.744-3.218a.074.074,0,0,1-.022-.081.075.075,0,0,1,.069-.047h7.618a.075.075,0,0,1,.069.047.074.074,0,0,1-.022.081l-3.744,3.218,3.744,3.218a.072.072,0,0,1-.047.127Zm-7.42-.146h7.221l-3.61-3.1Zm0-6.4,3.611,3.1,3.61-3.1Z" transform="translate(-177.057 -4419.736)" fill="#bad7fd"/>
        </g>
        <g id="Grupo_61899" data-name="Grupo 61899" transform="translate(17.075 33.514)">
          <path id="Trazado_111603" data-name="Trazado 111603" d="M184.748,4430.317H177.13a.073.073,0,0,1-.047-.129l3.744-3.216-3.744-3.217a.074.074,0,0,1,.047-.13h7.618a.074.074,0,0,1,.047.13l-3.744,3.217,3.744,3.216a.073.073,0,0,1-.047.129Zm-7.42-.146h7.221l-3.61-3.1Zm0-6.4,3.611,3.1,3.61-3.1Z" transform="translate(-177.057 -4423.625)" fill="#bad7fd"/>
        </g>
        <g id="Grupo_61900" data-name="Grupo 61900" transform="translate(17.075 40.061)">
          <path id="Trazado_111604" data-name="Trazado 111604" d="M184.748,4434.208H177.13a.076.076,0,0,1-.069-.049.073.073,0,0,1,.022-.081l3.744-3.217-3.744-3.219a.071.071,0,0,1-.022-.08.073.073,0,0,1,.069-.048h7.618a.073.073,0,0,1,.069.048.071.071,0,0,1-.022.08l-3.744,3.219,3.744,3.217a.073.073,0,0,1,.022.081A.076.076,0,0,1,184.748,4434.208Zm-7.42-.149h7.221l-3.61-3.1Zm0-6.4,3.611,3.1,3.61-3.1Z" transform="translate(-177.057 -4427.515)" fill="#bad7fd"/>
        </g>
        <g id="Grupo_61901" data-name="Grupo 61901" transform="translate(16.188 53.151)">
          <path id="Trazado_111605" data-name="Trazado 111605" d="M185.983,4441.987H176.6a.073.073,0,0,1-.069-.05.071.071,0,0,1,.024-.081l4.618-3.554-3.731-2.876a.074.074,0,0,1,.045-.131h7.618a.074.074,0,0,1,.045.131l-3.738,2.876,4.611,3.554a.072.072,0,0,1,.025.081A.074.074,0,0,1,185.983,4441.987Zm-9.165-.146h8.949l-4.471-3.446Zm.887-6.4,3.591,2.768,3.6-2.768Z" transform="translate(-176.53 -4435.293)" fill="#bad7fd"/>
        </g>
        <g id="Grupo_61902" data-name="Grupo 61902" transform="translate(15.3 59.698)">
          <path id="Trazado_111606" data-name="Trazado 111606" d="M187.2,4445.875h-11.12a.073.073,0,0,1-.04-.135l5.473-3.489-4.586-2.933a.077.077,0,0,1-.03-.083.07.07,0,0,1,.071-.052h9.38a.073.073,0,0,1,.071.052.075.075,0,0,1-.032.083l-4.6,2.933,5.456,3.489a.073.073,0,0,1,.03.082A.071.071,0,0,1,187.2,4445.875Zm-10.87-.146h10.619l-5.3-3.391Zm.887-6.4,4.431,2.834,4.446-2.834Z" transform="translate(-176.002 -4439.184)" fill="#bad7fd"/>
        </g>
        <g id="Grupo_61903" data-name="Grupo 61903" transform="translate(14.413 66.243)">
          <path id="Trazado_111607" data-name="Trazado 111607" d="M188.452,4449.766h-12.9a.075.075,0,0,1-.071-.056.074.074,0,0,1,.037-.083l6.331-3.452-5.444-2.965a.073.073,0,0,1-.037-.082.075.075,0,0,1,.072-.055h11.12a.071.071,0,0,1,.071.055.07.07,0,0,1-.035.082l-5.441,2.965,6.336,3.452a.074.074,0,0,1,.037.083A.075.075,0,0,1,188.452,4449.766Zm-12.616-.147h12.329L182,4446.26Zm.889-6.4,5.274,2.874,5.271-2.874Z" transform="translate(-175.475 -4443.074)" fill="#bad7fd"/>
        </g>
        <g id="Grupo_61904" data-name="Grupo 61904" transform="translate(13.604 72.788)">
          <path id="Trazado_111608" data-name="Trazado 111608" d="M189.615,4453.655H175.068a.075.075,0,0,1-.072-.058.076.076,0,0,1,.04-.083l7.129-3.4-6.319-3.011a.071.071,0,0,1-.04-.082.072.072,0,0,1,.071-.058h12.9a.074.074,0,0,1,.072.058.073.073,0,0,1-.04.082l-6.307,3.011,7.142,3.4a.074.074,0,0,1-.032.14Zm-14.223-.147h13.9l-6.955-3.315Zm.809-6.4,6.134,2.922,6.122-2.922Z" transform="translate(-174.994 -4446.962)" fill="#bad7fd"/>
        </g>
        <g id="Grupo_61905" data-name="Grupo 61905" transform="translate(8.974 26.998)">
          <path id="Trazado_111609" data-name="Trazado 111609" d="M175.467,4426.415a.075.075,0,0,1-.049-.018l-3.176-2.887.1-.11,3.117,2.833,4.9-6.481.118.088-4.949,6.545a.071.071,0,0,1-.052.028Z" transform="translate(-172.243 -4419.753)" fill="#bad7fd"/>
        </g>
        <g id="Grupo_61906" data-name="Grupo 61906" transform="translate(24.712 26.993)">
          <path id="Trazado_111610" data-name="Trazado 111610" d="M187.689,4426.417a.068.068,0,0,1-.054-.022l-6.04-6.545.108-.1,5.993,6.494,3.182-2.6.093.113-3.236,2.647A.071.071,0,0,1,187.689,4426.417Z" transform="translate(-181.595 -4419.75)" fill="#bad7fd"/>
        </g>
        <g id="Grupo_61907" data-name="Grupo 61907" transform="translate(17.099 46.625)">
          <rect id="Rectángulo_6825" data-name="Rectángulo 6825" width="10.044" height="0.147" transform="matrix(0.759, -0.651, 0.651, 0.759, 0, 6.543)" fill="#bad7fd"/>
        </g>
        <g id="Grupo_61908" data-name="Grupo 61908" transform="translate(17.101 46.624)">
          <path id="Trazado_111611" data-name="Trazado 111611" d="M197.212,4438.132l-5.547-4.069-6.891,4.016a.072.072,0,0,1-.084-.007l-7.618-6.546.094-.111,7.58,6.51,6.888-4.014a.073.073,0,0,1,.079,0l5.587,4.1Z" transform="translate(-177.072 -4431.415)" fill="#bad7fd"/>
        </g>
        <g id="Grupo_61909" data-name="Grupo 61909" transform="translate(7.574 48.883)">
          <path id="Trazado_111612" data-name="Trazado 111612" d="M171.525,4437.2l-.114-.093,3.576-4.325a.073.073,0,0,1,.056-.028.07.07,0,0,1,.056.025l3.714,4.269-.111.1-3.657-4.2Z" transform="translate(-171.411 -4432.758)" fill="#bad7fd"/>
        </g>
        <g id="Grupo_61910" data-name="Grupo 61910" transform="translate(12.502 9.113)">
          <path id="Trazado_111613" data-name="Trazado 111613" d="M178.985,4414.037a.072.072,0,0,1-.034-.008l-4.613-2.383.067-.13,4.532,2.341,1.3-4.678a.073.073,0,0,1,.114-.04l6.264,4.739,5.483-2.278.056.133-5.52,2.3a.075.075,0,0,1-.072-.008l-6.211-4.7-1.292,4.662a.075.075,0,0,1-.04.046A.085.085,0,0,1,178.985,4414.037Z" transform="translate(-174.339 -4409.125)" fill="#bad7fd"/>
        </g>
        <g id="Grupo_61911" data-name="Grupo 61911" transform="translate(17.106 9.114)">
          <path id="Trazado_111614" data-name="Trazado 111614" d="M177.159,4414.022l-.084-.119,6.614-4.765a.077.077,0,0,1,.069-.008.07.07,0,0,1,.045.054l1,4.764-.145.03-.979-4.655Z" transform="translate(-177.075 -4409.125)" fill="#bad7fd"/>
        </g>
        <g id="Grupo_61912" data-name="Grupo 61912" transform="translate(18.413 4.557)">
          <path id="Trazado_111615" data-name="Trazado 111615" d="M183.146,4411.1l-2.644-2.975-2.539,2.973-.111-.095,2.553-2.99-1.308-1.469a.074.074,0,0,1-.013-.08.076.076,0,0,1,.067-.042H181.8a.072.072,0,0,1,.067.042.077.077,0,0,1-.012.08l-1.255,1.468,2.657,2.992Zm-3.832-4.533,1.186,1.333,1.139-1.333Z" transform="translate(-177.852 -4406.418)" fill="#bad7fd"/>
        </g>
      </g>
      <g id="Grupo_61939" data-name="Grupo 61939" transform="translate(205.951 4388.831)">
        <g id="Grupo_61914" data-name="Grupo 61914" transform="translate(30.644 24.906)">
          <path id="Trazado_111616" data-name="Trazado 111616" d="M217.651,4446.708H203.978a.131.131,0,0,1-.131-.132V4376.09a.132.132,0,0,1,.131-.131h13.673a.132.132,0,0,1,.131.131v70.485A.131.131,0,0,1,217.651,4446.708Zm-13.542-.264H217.52v-70.222H204.11Z" transform="translate(-203.847 -4375.959)" fill="#bad7fd"/>
        </g>
        <g id="Grupo_61915" data-name="Grupo 61915" transform="translate(24.414 95.39)">
          <path id="Trazado_111617" data-name="Trazado 111617" d="M226.32,4465.1H200.278a.132.132,0,0,1-.131-.149l6.23-46.99a.131.131,0,0,1,.13-.115h13.673a.132.132,0,0,1,.13.115l6.142,46.992a.132.132,0,0,1-.131.148Zm-25.892-.262H226.17l-6.107-46.729H206.622Z" transform="translate(-200.145 -4417.843)" fill="#bad7fd"/>
        </g>
        <g id="Grupo_61916" data-name="Grupo 61916" transform="translate(21.935 142.382)">
          <path id="Trazado_111618" data-name="Trazado 111618" d="M203.8,4464.682H198.8a.131.131,0,0,1-.1-.043.133.133,0,0,1-.032-.1l2.479-18.654a.132.132,0,0,1,.131-.112h10.324a.133.133,0,0,1,.109.057.136.136,0,0,1,.012.125l-7.812,18.653A.134.134,0,0,1,203.8,4464.682Zm-4.842-.262h4.754l7.7-18.391H201.4Z" transform="translate(-198.672 -4445.768)" fill="#bad7fd"/>
        </g>
        <g id="Grupo_61917" data-name="Grupo 61917" transform="translate(40.091 142.382)">
          <path id="Trazado_111619" data-name="Trazado 111619" d="M222.4,4464.682h-4.991a.131.131,0,0,1-.121-.081l-7.813-18.653a.136.136,0,0,1,.012-.125.134.134,0,0,1,.111-.057h10.324a.13.13,0,0,1,.13.112l2.479,18.654a.133.133,0,0,1-.032.1A.127.127,0,0,1,222.4,4464.682Zm-4.9-.262h4.752l-2.444-18.391H209.791Z" transform="translate(-209.461 -4445.768)" fill="#bad7fd"/>
        </g>
        <g id="Grupo_61918" data-name="Grupo 61918" transform="translate(0 83.644)">
          <path id="Trazado_111620" data-name="Trazado 111620" d="M262.6,4422.874H185.768a.129.129,0,0,1-.128-.108.128.128,0,0,1,.081-.146l30.645-11.748a.109.109,0,0,1,.047-.01h13.673a.13.13,0,0,1,.044.007l32.511,11.749a.129.129,0,0,1,.084.146A.13.13,0,0,1,262.6,4422.874Zm-76.115-.265h75.365l-31.782-11.483H216.438Z" transform="translate(-185.638 -4410.862)" fill="#bad7fd"/>
        </g>
        <g id="Grupo_61919" data-name="Grupo 61919" transform="translate(4.556 48.4)">
          <path id="Trazado_111621" data-name="Trazado 111621" d="M256.189,4401.931H188.478a.131.131,0,0,1-.13-.1.129.129,0,0,1,.076-.147l26.086-11.75a.136.136,0,0,1,.054-.012h13.673a.142.142,0,0,1,.05.01l27.952,11.749a.132.132,0,0,1,.079.148A.135.135,0,0,1,256.189,4401.931Zm-67.1-.263h66.446l-27.326-11.483H214.592Z" transform="translate(-188.345 -4389.92)" fill="#bad7fd"/>
        </g>
        <g id="Grupo_61920" data-name="Grupo 61920" transform="translate(11.719 16.354)">
          <path id="Trazado_111622" data-name="Trazado 111622" d="M246.12,4379.692H192.732a.131.131,0,0,1-.128-.107.134.134,0,0,1,.079-.148l21.295-8.55a.153.153,0,0,1,.05-.009h9.5a.126.126,0,0,1,.045.009l22.592,8.55a.132.132,0,0,1-.047.255Zm-52.707-.264H245.4l-21.9-8.287h-9.451Z" transform="translate(-192.602 -4370.877)" fill="#bad7fd"/>
        </g>
        <g id="Grupo_61921" data-name="Grupo 61921" transform="translate(33.014)">
          <path id="Trazado_111623" data-name="Trazado 111623" d="M214.889,4377.778h-9.5a.134.134,0,0,1-.128-.167l4.466-16.355a.131.131,0,0,1,.125-.1.128.128,0,0,1,.128.092l5.035,16.356a.129.129,0,0,1-.019.115A.137.137,0,0,1,214.889,4377.778Zm-9.33-.265h9.151l-4.85-15.749Z" transform="translate(-205.256 -4361.16)" fill="#bad7fd"/>
        </g>
        <g id="Grupo_61922" data-name="Grupo 61922" transform="translate(30.644 24.906)">
          <path id="Trazado_111624" data-name="Trazado 111624" d="M217.651,4387.97H203.978a.129.129,0,0,1-.123-.086.133.133,0,0,1,.037-.146l6.721-5.774-6.721-5.773a.132.132,0,0,1-.037-.146.128.128,0,0,1,.123-.085h13.673a.13.13,0,0,1,.123.085.132.132,0,0,1-.037.146l-6.721,5.773,6.721,5.774a.133.133,0,0,1,.037.146A.131.131,0,0,1,217.651,4387.97Zm-13.318-.263H217.3l-6.481-5.57Zm0-11.485,6.482,5.568,6.481-5.568Z" transform="translate(-203.847 -4375.959)" fill="#bad7fd"/>
        </g>
        <g id="Grupo_61923" data-name="Grupo 61923" transform="translate(30.644 36.654)">
          <path id="Trazado_111625" data-name="Trazado 111625" d="M217.651,4394.951H203.978a.131.131,0,0,1-.123-.086.133.133,0,0,1,.037-.146l6.721-5.774-6.721-5.773a.132.132,0,0,1-.037-.145.13.13,0,0,1,.123-.086h13.673a.132.132,0,0,1,.086.231l-6.721,5.773,6.721,5.774a.133.133,0,0,1-.086.233Zm-13.318-.266H217.3l-6.481-5.568Zm0-11.483,6.482,5.569,6.481-5.569Z" transform="translate(-203.847 -4382.94)" fill="#bad7fd"/>
        </g>
        <g id="Grupo_61924" data-name="Grupo 61924" transform="translate(30.644 48.4)">
          <path id="Trazado_111626" data-name="Trazado 111626" d="M217.651,4401.931H203.978a.129.129,0,0,1-.123-.087.131.131,0,0,1,.037-.145l6.721-5.773-6.721-5.774a.133.133,0,0,1,.086-.232h13.673a.132.132,0,0,1,.086.232l-6.721,5.774,6.721,5.773a.132.132,0,0,1-.086.231Zm-13.318-.263H217.3l-6.481-5.569Zm0-11.483,6.482,5.568,6.481-5.568Z" transform="translate(-203.847 -4389.92)" fill="#bad7fd"/>
        </g>
        <g id="Grupo_61925" data-name="Grupo 61925" transform="translate(30.644 60.148)">
          <path id="Trazado_111627" data-name="Trazado 111627" d="M217.651,4408.911H203.978a.129.129,0,0,1-.123-.085.133.133,0,0,1,.037-.146l6.721-5.772-6.721-5.775a.132.132,0,0,1-.037-.146.13.13,0,0,1,.123-.087h13.673a.133.133,0,0,1,.086.233l-6.721,5.775,6.721,5.772a.133.133,0,0,1,.037.146A.13.13,0,0,1,217.651,4408.911Zm-13.318-.262H217.3l-6.481-5.569Zm0-11.486,6.482,5.571,6.481-5.571Z" transform="translate(-203.847 -4396.9)" fill="#bad7fd"/>
        </g>
        <g id="Grupo_61926" data-name="Grupo 61926" transform="translate(30.644 71.896)">
          <path id="Trazado_111628" data-name="Trazado 111628" d="M217.651,4415.892H203.978a.129.129,0,0,1-.123-.086.133.133,0,0,1,.037-.146l6.721-5.773-6.721-5.774a.13.13,0,0,1-.037-.145.129.129,0,0,1,.123-.086h13.673a.132.132,0,0,1,.086.231l-6.721,5.774,6.721,5.773a.133.133,0,0,1,.037.146A.13.13,0,0,1,217.651,4415.892Zm-13.318-.263H217.3l-6.481-5.568Zm0-11.485,6.482,5.568,6.481-5.568Z" transform="translate(-203.847 -4403.881)" fill="#bad7fd"/>
        </g>
        <g id="Grupo_61927" data-name="Grupo 61927" transform="translate(29.051 95.39)">
          <path id="Trazado_111629" data-name="Trazado 111629" d="M219.868,4429.855H203.032a.134.134,0,0,1-.125-.089.136.136,0,0,1,.044-.149l8.288-6.377-6.7-5.16a.133.133,0,0,1,.081-.237H218.3a.133.133,0,0,1,.081.237l-6.706,5.16,8.275,6.377a.132.132,0,0,1-.079.238Zm-16.448-.264h16.061l-8.026-6.186Zm1.592-11.484,6.445,4.968,6.454-4.968Z" transform="translate(-202.901 -4417.843)" fill="#bad7fd"/>
        </g>
        <g id="Grupo_61928" data-name="Grupo 61928" transform="translate(27.459 107.139)">
          <path id="Trazado_111630" data-name="Trazado 111630" d="M222.045,4436.835H202.086a.13.13,0,0,1-.126-.1.132.132,0,0,1,.056-.147l9.821-6.262-8.229-5.264a.131.131,0,0,1,.071-.242h16.835a.131.131,0,0,1,.071.242l-8.258,5.264,9.791,6.262a.133.133,0,0,1-.072.243Zm-19.508-.264H221.6l-9.513-6.085Zm1.59-11.484,7.955,5.088,7.98-5.088Z" transform="translate(-201.955 -4424.824)" fill="#bad7fd"/>
        </g>
        <g id="Grupo_61929" data-name="Grupo 61929" transform="translate(25.867 118.887)">
          <path id="Trazado_111631" data-name="Trazado 111631" d="M224.3,4443.815H201.141a.131.131,0,0,1-.128-.1.132.132,0,0,1,.064-.148l11.364-6.195-9.772-5.32a.132.132,0,0,1,.064-.248h19.959a.132.132,0,0,1,.064.248l-9.764,5.32,11.371,6.195a.132.132,0,0,1,.064.148A.129.129,0,0,1,224.3,4443.815Zm-22.644-.262h22.126l-11.066-6.029Zm1.594-11.486,9.466,5.158,9.461-5.158Z" transform="translate(-201.008 -4431.805)" fill="#bad7fd"/>
        </g>
        <g id="Grupo_61930" data-name="Grupo 61930" transform="translate(24.415 130.635)">
          <path id="Trazado_111632" data-name="Trazado 111632" d="M226.385,4450.8H200.277a.132.132,0,0,1-.057-.251l12.793-6.107-11.341-5.4a.13.13,0,0,1-.072-.146.132.132,0,0,1,.13-.1h23.159a.131.131,0,0,1,.128.1.13.13,0,0,1-.072.146l-11.319,5.4,12.817,6.107a.131.131,0,0,1,.071.148A.13.13,0,0,1,226.385,4450.8Zm-25.527-.262H225.8l-12.483-5.95Zm1.454-11.487,11.008,5.246,10.987-5.246Z" transform="translate(-200.146 -4438.786)" fill="#bad7fd"/>
        </g>
        <g id="Grupo_61931" data-name="Grupo 61931" transform="translate(16.106 48.453)">
          <path id="Trazado_111633" data-name="Trazado 111633" d="M201,4401.91a.13.13,0,0,1-.088-.035l-5.7-5.181.177-.194,5.594,5.083,8.795-11.632.21.159-8.882,11.746a.135.135,0,0,1-.093.053Z" transform="translate(-195.208 -4389.952)" fill="#bad7fd"/>
        </g>
        <g id="Grupo_61932" data-name="Grupo 61932" transform="translate(44.35 48.442)">
          <path id="Trazado_111634" data-name="Trazado 111634" d="M222.929,4401.914a.136.136,0,0,1-.1-.042l-10.839-11.748.194-.18,10.755,11.658,5.712-4.673.167.2-5.808,4.753A.127.127,0,0,1,222.929,4401.914Z" transform="translate(-211.992 -4389.944)" fill="#bad7fd"/>
        </g>
        <g id="Grupo_61933" data-name="Grupo 61933" transform="translate(30.684 83.682)">
          <rect id="Rectángulo_6826" data-name="Rectángulo 6826" width="18.026" height="0.263" transform="translate(0 11.734) rotate(-40.613)" fill="#bad7fd"/>
        </g>
        <g id="Grupo_61934" data-name="Grupo 61934" transform="translate(30.689 83.674)">
          <path id="Trazado_111635" data-name="Trazado 111635" d="M240.023,4422.941l-9.956-7.306-12.369,7.208a.128.128,0,0,1-.152-.013l-13.673-11.748.172-.2,13.6,11.688,12.361-7.2a.132.132,0,0,1,.145.006l10.026,7.357Z" transform="translate(-203.874 -4410.881)" fill="#bad7fd"/>
        </g>
        <g id="Grupo_61935" data-name="Grupo 61935" transform="translate(13.595 87.732)">
          <path id="Trazado_111636" data-name="Trazado 111636" d="M193.918,4421.273l-.2-.168,6.415-7.765a.13.13,0,0,1,.1-.047.124.124,0,0,1,.1.045L207,4421l-.2.174-6.561-7.543Z" transform="translate(-193.716 -4413.292)" fill="#bad7fd"/>
        </g>
        <g id="Grupo_61936" data-name="Grupo 61936" transform="translate(22.438 16.354)">
          <path id="Trazado_111637" data-name="Trazado 111637" d="M207.308,4379.691a.139.139,0,0,1-.061-.016l-8.276-4.275.121-.234,8.133,4.2,2.326-8.394a.133.133,0,0,1,.086-.09.131.131,0,0,1,.121.02L221,4379.411l9.838-4.092.1.243-9.907,4.119a.126.126,0,0,1-.13-.017l-11.149-8.434-2.317,8.365a.138.138,0,0,1-.074.085A.144.144,0,0,1,207.308,4379.691Z" transform="translate(-198.971 -4370.877)" fill="#bad7fd"/>
        </g>
        <g id="Grupo_61937" data-name="Grupo 61937" transform="translate(30.699 16.354)">
          <path id="Trazado_111638" data-name="Trazado 111638" d="M204.033,4379.666l-.153-.212,11.871-8.553a.131.131,0,0,1,.124-.015.128.128,0,0,1,.081.1l1.8,8.551-.257.054-1.759-8.354Z" transform="translate(-203.88 -4370.877)" fill="#bad7fd"/>
        </g>
        <g id="Grupo_61938" data-name="Grupo 61938" transform="translate(33.045 8.177)">
          <path id="Trazado_111639" data-name="Trazado 111639" d="M214.777,4374.415l-4.746-5.339-4.557,5.336-.2-.169,4.582-5.365-2.348-2.641a.133.133,0,0,1-.022-.141.135.135,0,0,1,.121-.078h4.751a.134.134,0,0,1,.12.078.133.133,0,0,1-.02.14l-2.253,2.638,4.769,5.367Zm-6.876-8.133,2.127,2.393,2.045-2.393Z" transform="translate(-205.274 -4366.018)" fill="#bad7fd"/>
        </g>
      </g>
      <g id="Grupo_61955" data-name="Grupo 61955" transform="translate(273.036 4334.49)">
        <path id="Trazado_111640" data-name="Trazado 111640" d="M266.773,4362.337c-.252-.992-.4-1.085-.4-1.085s-9.858.549-10.785.562-13.577-3.407-13.577-3.407l-6.5,6.947s17.8,1.767,20.145,1.691c3.881-.123,11.1-3.271,11.1-3.271A2.837,2.837,0,0,0,266.773,4362.337Z" transform="translate(-218.667 -4308.699)" fill="#6ca3ea"/>
        <path id="Trazado_111641" data-name="Trazado 111641" d="M252.365,4395.68s-.18,3.98.618,4.323,10.077-.3,10.077-.3-.064-1.162-1.678-1.331a7.574,7.574,0,0,1-5.064-3.042C254.617,4392.833,252.365,4395.68,252.365,4395.68Z" transform="translate(-207.17 -4284.185)" fill="#2a3967"/>
        <path id="Trazado_111642" data-name="Trazado 111642" d="M249.4,4374.45s12.965,11.161,14.634,14.762,6.816,19.834,6.816,19.834a10.047,10.047,0,0,1-4.313,1.014,4.337,4.337,0,0,1-2.2-.455s-7.509-14.728-8.165-16.148-17.35-6.959-21.936-15.35Z" transform="translate(-219.536 -4297.743)" fill="#133f7b"/>
        <g id="Grupo_61950" data-name="Grupo 61950">
          <rect id="Rectángulo_6827" data-name="Rectángulo 6827" width="7.643" height="205.106" transform="translate(46.712 10.467)" fill="#a7c7ff"/>
          <rect id="Rectángulo_6828" data-name="Rectángulo 6828" width="100.012" height="5.042" transform="translate(0 16.05)" fill="#a7c7ff"/>
          <g id="Grupo_61942" data-name="Grupo 61942" transform="translate(0.136 0.001)">
            <rect id="Rectángulo_6829" data-name="Rectángulo 6829" width="1.649" height="11.165" transform="translate(3.635 4.884)" fill="#a7c7ff"/>
            <g id="Grupo_61941" data-name="Grupo 61941">
              <g id="Grupo_61940" data-name="Grupo 61940">
                <ellipse id="Elipse_4206" data-name="Elipse 4206" cx="4.519" cy="1.023" rx="4.519" ry="1.023" transform="translate(0 6.139)" fill="#a7c7ff"/>
                <path id="Trazado_111643" data-name="Trazado 111643" d="M225.583,4332.325c0-.565,2.023-1.026,4.518-1.026s4.52.461,4.52,1.026-2.024,1.023-4.52,1.023S225.583,4332.888,225.583,4332.325Z" transform="translate(-225.583 -4327.208)" fill="#a7c7ff"/>
                <path id="Trazado_111644" data-name="Trazado 111644" d="M225.583,4331.106c0-.563,2.023-1.022,4.518-1.022s4.52.459,4.52,1.022-2.024,1.023-4.52,1.023S225.583,4331.672,225.583,4331.106Z" transform="translate(-225.583 -4328.039)" fill="#a7c7ff"/>
                <ellipse id="Elipse_4207" data-name="Elipse 4207" cx="4.519" cy="1.023" rx="4.519" ry="1.023" fill="#a7c7ff"/>
              </g>
              <rect id="Rectángulo_6830" data-name="Rectángulo 6830" width="5.483" height="6.963" transform="translate(1.717 0.562)" fill="#a7c7ff"/>
            </g>
          </g>
          <g id="Grupo_61945" data-name="Grupo 61945" transform="translate(45.487 0.001)">
            <rect id="Rectángulo_6831" data-name="Rectángulo 6831" width="1.649" height="11.165" transform="translate(3.635 4.884)" fill="#a7c7ff"/>
            <g id="Grupo_61944" data-name="Grupo 61944">
              <g id="Grupo_61943" data-name="Grupo 61943">
                <ellipse id="Elipse_4208" data-name="Elipse 4208" cx="4.519" cy="1.023" rx="4.519" ry="1.023" transform="translate(0 6.139)" fill="#a7c7ff"/>
                <path id="Trazado_111645" data-name="Trazado 111645" d="M252.532,4332.325c0-.565,2.023-1.026,4.518-1.026s4.518.461,4.518,1.026-2.023,1.023-4.518,1.023S252.532,4332.888,252.532,4332.325Z" transform="translate(-252.531 -4327.208)" fill="#a7c7ff"/>
                <path id="Trazado_111646" data-name="Trazado 111646" d="M252.532,4331.106c0-.563,2.023-1.022,4.518-1.022s4.518.459,4.518,1.022-2.023,1.023-4.518,1.023S252.532,4331.672,252.532,4331.106Z" transform="translate(-252.531 -4328.039)" fill="#a7c7ff"/>
                <ellipse id="Elipse_4209" data-name="Elipse 4209" cx="4.519" cy="1.023" rx="4.519" ry="1.023" fill="#a7c7ff"/>
              </g>
              <rect id="Rectángulo_6832" data-name="Rectángulo 6832" width="5.483" height="6.963" transform="translate(1.717 0.562)" fill="#a7c7ff"/>
            </g>
          </g>
          <g id="Grupo_61948" data-name="Grupo 61948" transform="translate(90.974)">
            <rect id="Rectángulo_6833" data-name="Rectángulo 6833" width="1.649" height="11.165" transform="translate(3.635 4.885)" fill="#a7c7ff"/>
            <g id="Grupo_61947" data-name="Grupo 61947">
              <g id="Grupo_61946" data-name="Grupo 61946">
                <path id="Trazado_111647" data-name="Trazado 111647" d="M279.561,4333.54c0-.565,2.024-1.022,4.52-1.022s4.518.457,4.518,1.022-2.023,1.023-4.518,1.023S279.561,4334.1,279.561,4333.54Z" transform="translate(-279.561 -4326.377)" fill="#a7c7ff"/>
                <path id="Trazado_111648" data-name="Trazado 111648" d="M279.561,4332.325c0-.565,2.024-1.026,4.52-1.026s4.518.461,4.518,1.026-2.023,1.023-4.518,1.023S279.561,4332.888,279.561,4332.325Z" transform="translate(-279.561 -4327.207)" fill="#a7c7ff"/>
                <path id="Trazado_111649" data-name="Trazado 111649" d="M279.561,4331.106c0-.563,2.024-1.022,4.52-1.022s4.518.459,4.518,1.022-2.023,1.023-4.518,1.023S279.561,4331.672,279.561,4331.106Z" transform="translate(-279.561 -4328.038)" fill="#a7c7ff"/>
                <path id="Trazado_111650" data-name="Trazado 111650" d="M279.561,4329.891c0-.563,2.024-1.023,4.52-1.023s4.518.46,4.518,1.023-2.023,1.023-4.518,1.023S279.561,4330.457,279.561,4329.891Z" transform="translate(-279.561 -4328.868)" fill="#a7c7ff"/>
              </g>
              <rect id="Rectángulo_6834" data-name="Rectángulo 6834" width="5.483" height="6.963" transform="translate(1.718 0.563)" fill="#a7c7ff"/>
            </g>
          </g>
          <g id="Grupo_61949" data-name="Grupo 61949" transform="translate(22.204 17.954)">
            <path id="Trazado_111651" data-name="Trazado 111651" d="M267.03,4365.185,238.7,4341.538l1.045-1.242,27.28,22.767,27.721-23.526,1.055,1.234Z" transform="translate(-238.696 -4339.536)" fill="#a7c7ff"/>
          </g>
        </g>
        <rect id="Rectángulo_6835" data-name="Rectángulo 6835" width="20.441" height="25.04" transform="translate(40.37 31.816)" fill="#214d9a"/>
        <g id="Grupo_61951" data-name="Grupo 61951" transform="translate(28.716 74.171)">
          <path id="Trazado_111652" data-name="Trazado 111652" d="M244.838,4373.066a.821.821,0,0,0-.229-.061l-.528-.058a.826.826,0,0,0-.722.289l-.793.94,1.1,1.537,1.274-.807a.766.766,0,0,0,.348-.561.523.523,0,0,0,.007-.088v-.486A.766.766,0,0,0,244.838,4373.066Zm-.084,1.547-.991.631-.754-1.05.618-.733a.476.476,0,0,1,.416-.166l.532.058a.422.422,0,0,1,.377.419v.486a.434.434,0,0,1-.2.355Z" transform="translate(-242.566 -4372.943)" fill="#133f7b"/>
        </g>
        <path id="Trazado_111653" data-name="Trazado 111653" d="M267.605,4368.548v1.854s-19.471,6.089-22.912,6.945c-.165.041-.291.069-.379.084h0a.4.4,0,0,0,.039-.172v-.486a.421.421,0,0,0-.377-.419l-.532-.058.8-.228C247.921,4375.007,263.306,4370.534,267.605,4368.548Z" transform="translate(-213.251 -4301.773)" fill="#ff912b"/>
        <path id="Trazado_111654" data-name="Trazado 111654" d="M249.059,4397.391s-.838,3.894-.108,4.365,9.988,1.365,9.988,1.365.13-1.156-1.434-1.589a7.569,7.569,0,0,1-4.49-3.835C251.753,4394.953,249.059,4397.391,249.059,4397.391Z" transform="translate(-209.693 -4282.759)" fill="#2a3967"/>
        <path id="Trazado_111655" data-name="Trazado 111655" d="M235.793,4359.039s4.406,4.952,7.724,4.329c0,0-.907-1.058-1.918-2-.3-.282-.212-.949-.1-1.346.062-.224.118-.435.168-.634a19.664,19.664,0,0,0,.422-2.051l-2.235-2.279-1.518-1.549a6.762,6.762,0,0,1-.39,2.03A12.708,12.708,0,0,1,235.793,4359.039Z" transform="translate(-218.474 -4312.045)" fill="#ffae73"/>
        <path id="Trazado_111656" data-name="Trazado 111656" d="M237.071,4354.907a6.223,6.223,0,0,0,3.721,3.849,19.677,19.677,0,0,0,.422-2.05l-2.235-2.28A6.381,6.381,0,0,0,237.071,4354.907Z" transform="translate(-217.602 -4311.417)" fill="#f9924f"/>
        <path id="Trazado_111657" data-name="Trazado 111657" d="M242.405,4359.46s-5.388.246-5.489-3.1-.867-5.565,2.57-5.864,4.143.959,4.449,2.066S243.8,4359.31,242.405,4359.46Z" transform="translate(-217.805 -4314.131)" fill="#ffae73"/>
        <path id="Trazado_111658" data-name="Trazado 111658" d="M249.733,4374c-.02-.33-.035-.667-.049-1.008a30.18,30.18,0,0,0-.609-5.112,23.119,23.119,0,0,0-1.006-3.53,11.229,11.229,0,0,0-2.189-3.66c-.007-.008-1.449-1.479-1.456-1.484a7.841,7.841,0,0,1-6-2.413s-8.295,7.167-6.132,22.585c0,0,.209,1.114.576,2.719.081.348.167.72.263,1.108C233.771,4385.845,250,4378.419,249.733,4374Z" transform="translate(-221.109 -4309.799)" fill="#a8ccff"/>
        <path id="Trazado_111659" data-name="Trazado 111659" d="M235.254,4352.256c-.061-.049-.183-.076-.443-.044a1.036,1.036,0,0,1,.454-.222,1.324,1.324,0,0,1,.651-1.306.788.788,0,0,0-.273.627c.579-.864,2.008-1.672,6.287-2.082,5.639-.541,4.449,3.387,3.8,3.941s-2.664-.3-3.987.048-1.227,2.351-1.634,2.7-.313-.157-.979-.331-.54.87-.242,1.51-.39,1.675-.39,1.675l-1.022-.781c-1.02-.779-2.529-4.581-2.29-5.491C235.212,4352.42,235.232,4352.339,235.254,4352.256Z" transform="translate(-219.145 -4314.999)" fill="#25468f"/>
        <path id="Trazado_111660" data-name="Trazado 111660" d="M233.987,4364.785s2.327,7.831,4.966,9.1,2.484-5.437,2.484-5.437Z" transform="translate(-219.708 -4304.342)" fill="#6ca3ea"/>
        <path id="Trazado_111661" data-name="Trazado 111661" d="M252.418,4386.11c-4.184-1.855-2.8-10.756-3.064-15.176-.02-.33-.035-.666-.049-1.008a30.191,30.191,0,0,0-.609-5.113,23.148,23.148,0,0,0-1.006-3.529l-5.784.94a2.225,2.225,0,0,0-1.87,2.273c.106,2.876-.156,8.213-3.2,10.935a54.5,54.5,0,0,1-4.347,3.6c.081.349.167.72.262,1.108.638,2.642,1.35,6,2.868,7.922C236.791,4389.543,252.864,4386.306,252.418,4386.11Z" transform="translate(-220.729 -4306.733)" fill="#214d9a"/>
        <path id="Trazado_111662" data-name="Trazado 111662" d="M235.691,4357.128s1.6.6,3.682,3.352a15.823,15.823,0,0,1,2.427,4.577l-.959.214a14.311,14.311,0,0,0-5.728-7.484S235.124,4357.689,235.691,4357.128Z" transform="translate(-218.939 -4309.571)" fill="#214d9a"/>
        <path id="Trazado_111663" data-name="Trazado 111663" d="M250.391,4361.106a26.533,26.533,0,0,1,1.262-2.579,8.419,8.419,0,0,1,1.774-1.326c.1.054.145.467-.109.706-.178.17-.387.325-.278.343s.608-.768,1-.511,1.323,1.405.727,2.306-2.873,1.858-2.994,1.994C250.744,4363.2,250.391,4361.106,250.391,4361.106Z" transform="translate(-208.506 -4309.521)" fill="#ffae73"/>
        <path id="Trazado_111664" data-name="Trazado 111664" d="M262.114,4359.521s-10.4,9.194-11.388,9.3c-1.57.173-10.341-7.806-10.341-7.806a2.938,2.938,0,0,0-3.734-1.013,6.467,6.467,0,0,0-3.209,3.53s-.757,2.645.555,4.225c2.911,3.5,14.02,7.024,17.333,6.6,4.273-.545,12.189-12.175,12.189-12.175a1.956,1.956,0,0,0-.024-1.735A3.289,3.289,0,0,0,262.114,4359.521Z" transform="translate(-220.229 -4307.937)" fill="#a8ccff"/>
        <path id="Trazado_111665" data-name="Trazado 111665" d="M264.459,4413.339a10.086,10.086,0,0,1-4.423.289,4.328,4.328,0,0,1-2.1-.812s-.449-1.426-1.089-3.461c-.1-.315-.2-.642-.308-.982-.14-.446-.286-.911-.436-1.39-.1-.323-.2-.653-.306-.984-1.4-4.465-3.007-9.62-3.234-10.452-.412-1.51-15.955-9.721-19.084-18.75l15.5-3.116s10.994,15.147,12.041,18.974c.559,2.044,1.5,7.8,2.252,12.72.052.325.1.644.148.96q.109.725.212,1.4.073.5.143.96C264.186,4411.405,264.459,4413.339,264.459,4413.339Z" transform="translate(-220.051 -4298.267)" fill="#214d9a"/>
        <path id="Trazado_111666" data-name="Trazado 111666" d="M248.645,4373.68a30.364,30.364,0,0,1-14.658,5.509,6.424,6.424,0,0,0,2.314,2.894s9.326-1.407,13.274-7.108Z" transform="translate(-219.708 -4298.267)" fill="#ff912b"/>
        <g id="Grupo_61952" data-name="Grupo 61952" transform="translate(36.289 118.288)">
          <path id="Trazado_111667" data-name="Trazado 111667" d="M260.023,4401.668a.4.4,0,0,1-.057-.005l-12.52-1.637a.435.435,0,1,1,.114-.863l12.423,1.625L265,4399.18a.435.435,0,1,1,.268.827l-5.107,1.64A.469.469,0,0,1,260.023,4401.668Z" transform="translate(-247.066 -4399.158)" fill="#172441"/>
        </g>
        <g id="Grupo_61953" data-name="Grupo 61953" transform="translate(35.751 107.107)">
          <path id="Trazado_111668" data-name="Trazado 111668" d="M254.373,4393.475a20.662,20.662,0,0,1-5.558.705c-.734,0-1.343-.032-1.762-.057-.1-.324-.2-.653-.306-.984l.126.008a21.805,21.805,0,0,0,7.352-.633C254.277,4392.839,254.326,4393.158,254.373,4393.475Z" transform="translate(-246.746 -4392.514)" fill="#fff"/>
        </g>
        <g id="Grupo_61954" data-name="Grupo 61954" transform="translate(36.493 109.471)">
          <path id="Trazado_111669" data-name="Trazado 111669" d="M254.427,4394.879a20.64,20.64,0,0,1-5.508.691c-.555,0-1.037-.017-1.424-.035-.1-.316-.2-.643-.308-.983a21.538,21.538,0,0,0,7.1-.634Q254.357,4394.416,254.427,4394.879Z" transform="translate(-247.187 -4393.919)" fill="#fff"/>
        </g>
        <rect id="Rectángulo_6836" data-name="Rectángulo 6836" width="15.747" height="25.04" transform="translate(45.065 31.816)" fill="#1e3865"/>
      </g>
      <g id="Grupo_61967" data-name="Grupo 61967" transform="translate(425.281 4426.397)">
        <g id="Grupo_61966" data-name="Grupo 61966" transform="translate(0)">
          <rect id="Rectángulo_6837" data-name="Rectángulo 6837" width="4.397" height="118.446" transform="translate(26.873 6.044)" fill="#d4e5fc"/>
          <rect id="Rectángulo_6838" data-name="Rectángulo 6838" width="57.536" height="2.912" transform="translate(0 9.268)" fill="#d4e5fc"/>
          <g id="Grupo_61958" data-name="Grupo 61958" transform="translate(0.078)">
            <rect id="Rectángulo_6839" data-name="Rectángulo 6839" width="0.948" height="6.448" transform="translate(2.091 2.821)" fill="#d4e5fc"/>
            <g id="Grupo_61957" data-name="Grupo 61957">
              <g id="Grupo_61956" data-name="Grupo 61956">
                <ellipse id="Elipse_4210" data-name="Elipse 4210" cx="2.6" cy="0.591" rx="2.6" ry="0.591" transform="translate(0 3.546)" fill="#d4e5fc"/>
                <path id="Trazado_111670" data-name="Trazado 111670" d="M316.017,4385.479c0-.326,1.165-.592,2.6-.592s2.6.266,2.6.592-1.165.591-2.6.591S316.017,4385.806,316.017,4385.479Z" transform="translate(-316.017 -4382.524)" fill="#d4e5fc"/>
                <path id="Trazado_111671" data-name="Trazado 111671" d="M316.017,4384.774c0-.327,1.165-.59,2.6-.59s2.6.264,2.6.59-1.165.591-2.6.591S316.017,4385.1,316.017,4384.774Z" transform="translate(-316.017 -4383.003)" fill="#d4e5fc"/>
                <path id="Trazado_111672" data-name="Trazado 111672" d="M316.017,4384.073c0-.326,1.165-.591,2.6-.591s2.6.265,2.6.591-1.165.591-2.6.591S316.017,4384.4,316.017,4384.073Z" transform="translate(-316.017 -4383.482)" fill="#d4e5fc"/>
              </g>
              <rect id="Rectángulo_6840" data-name="Rectángulo 6840" width="3.154" height="4.021" transform="translate(0.988 0.325)" fill="#d4e5fc"/>
            </g>
          </g>
          <g id="Grupo_61961" data-name="Grupo 61961" transform="translate(26.168)">
            <rect id="Rectángulo_6841" data-name="Rectángulo 6841" width="0.949" height="6.448" transform="translate(2.091 2.821)" fill="#d4e5fc"/>
            <g id="Grupo_61960" data-name="Grupo 61960">
              <g id="Grupo_61959" data-name="Grupo 61959">
                <path id="Trazado_111673" data-name="Trazado 111673" d="M331.52,4386.179c0-.326,1.165-.59,2.6-.59s2.6.264,2.6.59-1.165.592-2.6.592S331.52,4386.505,331.52,4386.179Z" transform="translate(-331.52 -4382.043)" fill="#d4e5fc"/>
                <path id="Trazado_111674" data-name="Trazado 111674" d="M331.52,4385.479c0-.326,1.165-.592,2.6-.592s2.6.266,2.6.592-1.165.591-2.6.591S331.52,4385.806,331.52,4385.479Z" transform="translate(-331.52 -4382.524)" fill="#d4e5fc"/>
                <path id="Trazado_111675" data-name="Trazado 111675" d="M331.52,4384.774c0-.327,1.165-.59,2.6-.59s2.6.264,2.6.59-1.165.591-2.6.591S331.52,4385.1,331.52,4384.774Z" transform="translate(-331.52 -4383.003)" fill="#d4e5fc"/>
                <path id="Trazado_111676" data-name="Trazado 111676" d="M331.52,4384.073c0-.326,1.165-.591,2.6-.591s2.6.265,2.6.591-1.165.591-2.6.591S331.52,4384.4,331.52,4384.073Z" transform="translate(-331.52 -4383.482)" fill="#d4e5fc"/>
              </g>
              <rect id="Rectángulo_6842" data-name="Rectángulo 6842" width="3.155" height="4.021" transform="translate(0.988 0.325)" fill="#d4e5fc"/>
            </g>
          </g>
          <g id="Grupo_61964" data-name="Grupo 61964" transform="translate(52.336)">
            <rect id="Rectángulo_6843" data-name="Rectángulo 6843" width="0.948" height="6.448" transform="translate(2.091 2.821)" fill="#d4e5fc"/>
            <g id="Grupo_61963" data-name="Grupo 61963">
              <g id="Grupo_61962" data-name="Grupo 61962">
                <path id="Trazado_111677" data-name="Trazado 111677" d="M347.07,4386.179c0-.326,1.164-.59,2.6-.59s2.6.264,2.6.59-1.164.592-2.6.592S347.07,4386.505,347.07,4386.179Z" transform="translate(-347.07 -4382.043)" fill="#d4e5fc"/>
                <path id="Trazado_111678" data-name="Trazado 111678" d="M347.07,4385.479c0-.326,1.164-.592,2.6-.592s2.6.266,2.6.592-1.164.591-2.6.591S347.07,4385.806,347.07,4385.479Z" transform="translate(-347.07 -4382.524)" fill="#d4e5fc"/>
                <path id="Trazado_111679" data-name="Trazado 111679" d="M347.07,4384.774c0-.327,1.164-.59,2.6-.59s2.6.264,2.6.59-1.164.591-2.6.591S347.07,4385.1,347.07,4384.774Z" transform="translate(-347.07 -4383.003)" fill="#d4e5fc"/>
                <path id="Trazado_111680" data-name="Trazado 111680" d="M347.07,4384.073c0-.326,1.164-.591,2.6-.591s2.6.265,2.6.591-1.164.591-2.6.591S347.07,4384.4,347.07,4384.073Z" transform="translate(-347.07 -4383.482)" fill="#d4e5fc"/>
              </g>
              <rect id="Rectángulo_6844" data-name="Rectángulo 6844" width="3.154" height="4.021" transform="translate(0.988 0.325)" fill="#d4e5fc"/>
            </g>
          </g>
          <g id="Grupo_61965" data-name="Grupo 61965" transform="translate(12.774 10.368)">
            <path id="Trazado_111681" data-name="Trazado 111681" d="M339.861,4404.455l-16.3-13.654.6-.718,15.694,13.148,15.948-13.587.607.713Z" transform="translate(-323.561 -4389.643)" fill="#d4e5fc"/>
          </g>
        </g>
      </g>
      <g id="Grupo_61984" data-name="Grupo 61984" transform="translate(272.831 4462.03)">
        <rect id="Rectángulo_6845" data-name="Rectángulo 6845" width="34.35" height="83.027" transform="translate(27.496 4.781)" fill="#a7c7ff"/>
        <rect id="Rectángulo_6846" data-name="Rectángulo 6846" width="13.064" height="83.027" transform="translate(48.783 4.781)" fill="#82b3f9"/>
        <rect id="Rectángulo_6847" data-name="Rectángulo 6847" width="6.955" height="12.345" transform="translate(38.598 7.648)" fill="#3285d6"/>
        <rect id="Rectángulo_6848" data-name="Rectángulo 6848" width="6.955" height="12.345" transform="translate(36.838 7.648)" fill="#5d99e7"/>
        <g id="Grupo_61968" data-name="Grupo 61968" transform="translate(29.77 23.714)">
          <path id="Trazado_111682" data-name="Trazado 111682" d="M243.114,4430.715l-.044-.168c.022-.008,2.189-.6,2.528-4.16.281-2.954.761-4.5,1.6-5.159a1.731,1.731,0,0,1,1.377-.334,4.047,4.047,0,0,1,1.961,1.411c1.24,1.266,2.783,2.842,5.513,2.1,4.185-1.131,5.932-5.618,5.951-5.664l.163.062c-.019.045-1.8,4.614-6.068,5.77-2.827.765-4.411-.853-5.683-2.152a3.975,3.975,0,0,0-1.86-1.361,1.565,1.565,0,0,0-1.245.3c-.791.625-1.264,2.178-1.536,5.04a5.561,5.561,0,0,1-1.454,3.547A2.887,2.887,0,0,1,243.114,4430.715Z" transform="translate(-243.07 -4418.747)" fill="#e8f2fa"/>
        </g>
        <g id="Grupo_61969" data-name="Grupo 61969" transform="translate(38.51 19.992)">
          <path id="Trazado_111683" data-name="Trazado 111683" d="M258.536,4434.849H248.264v-18.314h.175v18.14h10.1Z" transform="translate(-248.264 -4416.535)" fill="#e8f2fa"/>
        </g>
        <g id="Grupo_61970" data-name="Grupo 61970" transform="translate(40.227 19.992)">
          <path id="Trazado_111684" data-name="Trazado 111684" d="M257.839,4432.86h-8.555v-16.325h.175v16.15h8.38Z" transform="translate(-249.284 -4416.535)" fill="#e8f2fa"/>
        </g>
        <g id="Grupo_61971" data-name="Grupo 61971" transform="translate(42.599 19.992)">
          <path id="Trazado_111685" data-name="Trazado 111685" d="M256.877,4430.569h-6.184v-14.034h.175v13.859h6.009Z" transform="translate(-250.694 -4416.535)" fill="#e8f2fa"/>
        </g>
        <g id="Grupo_61972" data-name="Grupo 61972" transform="translate(33.52 48.525)">
          <path id="Trazado_111686" data-name="Trazado 111686" d="M260.561,4452.27H245.3v-18.779h15.263v.175H245.473v18.43h15.088Z" transform="translate(-245.298 -4433.491)" fill="#e8f2fa"/>
        </g>
        <g id="Grupo_61973" data-name="Grupo 61973" transform="translate(35.929 50.097)">
          <path id="Trazado_111687" data-name="Trazado 111687" d="M259.584,4449.535H246.73v-15.11h12.854v.175H246.9v14.761h12.679Z" transform="translate(-246.73 -4434.425)" fill="#e8f2fa"/>
        </g>
        <g id="Grupo_61974" data-name="Grupo 61974" transform="translate(38.51 52.455)">
          <path id="Trazado_111688" data-name="Trazado 111688" d="M258.536,4445.814H248.264v-9.988h10.272V4436h-10.1v9.639h10.1Z" transform="translate(-248.264 -4435.826)" fill="#e8f2fa"/>
        </g>
        <rect id="Rectángulo_6849" data-name="Rectángulo 6849" width="16.658" height="10.32" transform="translate(32.125 72.865)" fill="#5d99e7"/>
        <g id="Grupo_61975" data-name="Grupo 61975" transform="translate(34.48 69.575)">
          <path id="Trazado_111689" data-name="Trazado 111689" d="M246.044,4449.29h-.175V4446h14.3v.175H246.044Z" transform="translate(-245.869 -4445.999)" fill="#5d99e7"/>
        </g>
        <g id="Grupo_61976" data-name="Grupo 61976" transform="translate(38.234 71.176)">
          <path id="Trazado_111690" data-name="Trazado 111690" d="M248.274,4448.639H248.1v-1.688h10.549v.175H248.274Z" transform="translate(-248.1 -4446.951)" fill="#5d99e7"/>
        </g>
        <g id="Grupo_61977" data-name="Grupo 61977" transform="translate(40.59 8.477)">
          <path id="Trazado_111691" data-name="Trazado 111691" d="M250.047,4409.967a.273.273,0,1,1-.273-.274A.274.274,0,0,1,250.047,4409.967Z" transform="translate(-249.5 -4409.693)" fill="#a7c7ff"/>
          <path id="Trazado_111692" data-name="Trazado 111692" d="M250.65,4409.967a.273.273,0,1,1-.273-.274A.274.274,0,0,1,250.65,4409.967Z" transform="translate(-249.088 -4409.693)" fill="#ff912b"/>
          <path id="Trazado_111693" data-name="Trazado 111693" d="M251.193,4409.967a.273.273,0,1,1-.273-.274A.273.273,0,0,1,251.193,4409.967Z" transform="translate(-248.716 -4409.693)" fill="#fff"/>
        </g>
        <rect id="Rectángulo_6850" data-name="Rectángulo 6850" width="5.369" height="2.94" transform="translate(37.972 9.395)" fill="#3285d6"/>
        <g id="Grupo_61980" data-name="Grupo 61980">
          <path id="Trazado_111694" data-name="Trazado 111694" d="M246.069,4413.357a10.026,10.026,0,0,1,1.693-2.544,4.027,4.027,0,0,1,2.861-.3c.241.477-1.624,1.223-1.839,1.66s.678.394-.008,1.156a7.373,7.373,0,0,1-1.967,1.258Z" transform="translate(-211.253 -4400.75)" fill="#ffae73"/>
          <path id="Trazado_111695" data-name="Trazado 111695" d="M256.862,4412.343c-.491-.766-.638-.806-.638-.806s-8.128,3.245-8.9,3.515-12.374.953-12.374.953l-3.5,7.7s15.455-3.527,17.407-4.253c3.226-1.2,8.4-5.888,8.4-5.888A2.547,2.547,0,0,0,256.862,4412.343Z" transform="translate(-221.238 -4399.956)" fill="#1cbfbf"/>
          <path id="Trazado_111696" data-name="Trazado 111696" d="M234.55,4455.249s.177,2.855.707,3.526h8.153a1.453,1.453,0,0,0-1.3-1.166c-1.287-.225-3.445-1.131-4.224-2.833C237.063,4452.984,234.55,4455.249,234.55,4455.249Z" transform="translate(-219.118 -4370.9)" fill="#0b3563"/>
          <path id="Trazado_111697" data-name="Trazado 111697" d="M226.011,4454.3s-.513,4.33.185,4.395c.093.008,3.359,0,4.248.136a22.272,22.272,0,0,0,3.867.027.384.384,0,0,0,.348-.576,1.543,1.543,0,0,0-1.107-.712c-1.284-.247-3.425-1.192-4.175-2.908C228.587,4452.858,226.011,4454.3,226.011,4454.3Z" transform="translate(-225.073 -4371.128)" fill="#0b3563"/>
          <path id="Trazado_111698" data-name="Trazado 111698" d="M244.644,4435.056s-2.05,7.178-7.925,19.641a89.927,89.927,0,0,0-4.071,9.984c-.113.336-.217.66-.313.969-.158.5-.3.971-.421,1.412q-.141.505-.259.957a19.313,19.313,0,0,0-.754,4.364,7.17,7.17,0,0,1-2.928.343,13.59,13.59,0,0,1-2.593-.843s.192-2.01.581-4.85q.066-.469.136-.966c.062-.442.13-.9.2-1.372.049-.316.1-.638.151-.96.683-4.232,1.7-9.146,3.048-12.21,2.777-6.29,3.342-23.5,3.342-23.5Z" transform="translate(-225.38 -4388.7)" fill="#1e3865"/>
          <path id="Trazado_111699" data-name="Trazado 111699" d="M244.192,4431.047a185.98,185.98,0,0,1-1.747,22.244c-.663,4.711-1.02,8.49-1.2,11.413q-.033.518-.057,1-.04.772-.066,1.454c-.012.345-.024.671-.03.981a38.539,38.539,0,0,0,.086,4.594,2.309,2.309,0,0,1-.36.162h0a6.718,6.718,0,0,1-2.359.365,5.672,5.672,0,0,1-1.341-.157,4.042,4.042,0,0,1-.995-.366s-.308-1.818-.66-4.455c-.044-.314-.086-.641-.13-.981-.057-.445-.113-.91-.17-1.391-.037-.323-.076-.647-.113-.978a63.675,63.675,0,0,1-.436-12.526,16.326,16.326,0,0,0,.093-1.776h0a62.338,62.338,0,0,0-1.356-10.9l-.007-.031c-.766-3.91-1.659-7.521-2.142-9.39-.219-.847-.353-1.336-.353-1.336l.407-.014h0l3.213-.1,8.763-.285.54-.016.436-.014S244.219,4429.437,244.192,4431.047Z" transform="translate(-221.649 -4388.351)" fill="#214d9a"/>
          <path id="Trazado_111700" data-name="Trazado 111700" d="M233.386,4415.308l2.171,1.608,3.139-.662c-.044-.285-.251-1.473-.439-2.545-.012-.064-.024-.129-.034-.189-.162-.916-.3-1.7-.3-1.7l-2.93-1.46-1.094-.545c0,.02.086,1.014.1,1.161A9.4,9.4,0,0,1,233.386,4415.308Z" transform="translate(-219.913 -4401.135)" fill="#ffae73"/>
          <path id="Trazado_111701" data-name="Trazado 111701" d="M238.622,4413.055c-.067-.029-4.268-1.27-4.724-1.119s-.727,1.035-.727,1.035l6.484,1.848S239.5,4413.423,238.622,4413.055Z" transform="translate(-220.06 -4399.692)" fill="#138080"/>
          <path id="Trazado_111702" data-name="Trazado 111702" d="M229.762,4440.837c.71,3.247,15.551-6.945,15.354-8.928l-.066-.654c-.274-2.761-.537-5.462-.555-7.227a24.757,24.757,0,0,0-.5-4.511c-.257-1.312-.576-2.5-.852-3.429a3.794,3.794,0,0,0-2.22-2.435,3.372,3.372,0,0,0-.369-.127c-1.787-.519-4.261-1.161-4.931-.967-1.817.535-3.165,3.735-4.121,7.811C229.712,4428,229.3,4438.719,229.762,4440.837Z" transform="translate(-222.508 -4399.283)" fill="#1cbfbf"/>
          <path id="Trazado_111703" data-name="Trazado 111703" d="M233.912,4410.8c.645,1.232,3.043,2.3,4.042,2.689-.012-.064-.024-.129-.034-.188-.162-.916-.3-1.7-.3-1.7l-2.93-1.461C234.042,4410.126,233.646,4410.29,233.912,4410.8Z" transform="translate(-219.611 -4400.913)" fill="#ffa05e"/>
          <path id="Trazado_111704" data-name="Trazado 111704" d="M239.919,4414.435s-5.286,1.651-6.264-1.659-2.316-5.326,1.018-6.519,4.367-.124,4.961.9S241.27,4413.922,239.919,4414.435Z" transform="translate(-220.487 -4403.922)" fill="#ffae73"/>
          <path id="Trazado_111705" data-name="Trazado 111705" d="M240.363,4407.573s-.338,3.85-1.134,3.684-1.518-.292-1.4.87.155,2.555-2.3,2.761-4.916-6.18-4.241-7.379C233.233,4404.05,243.174,4403.352,240.363,4407.573Z" transform="translate(-221.423 -4404.656)" fill="#0b3563"/>
          <path id="Trazado_111706" data-name="Trazado 111706" d="M242.1,4434.042c-1.469.532.027-1.461,0-1.877-.113-1.826.6-4.134.384-6.333l-8.976-5.368S231.381,4433.957,242.1,4434.042Z" transform="translate(-219.945 -4393.861)" fill="#138080"/>
          <path id="Trazado_111707" data-name="Trazado 111707" d="M229.861,4437.653c3.832,7.1,4.443,9.818,4.443,9.818,3.334-.381,9.049-6.94,10.863-8.691,0,0,.246-8.072.049-10.055l-2.772-.081s-5.006,1.27-6.3-.453-.737-10.182-.737-10.182l-3.8-.824C229.81,4424.819,228.832,4435.745,229.861,4437.653Z" transform="translate(-222.606 -4396.099)" fill="#214d9a"/>
          <path id="Trazado_111708" data-name="Trazado 111708" d="M243.283,4421.87a23.715,23.715,0,0,1,2.171-1.344,4.582,4.582,0,0,1,1.533-.134c.052.089.207.364.008.456s-.444.062-.37.125.82-.289.991.091.323,1.683-.55,2.079-3.036.039-3.191.084C242.555,4423.609,243.283,4421.87,243.283,4421.87Z" transform="translate(-213.292 -4393.932)" fill="#ffae73"/>
          <path id="Trazado_111709" data-name="Trazado 111709" d="M250.2,4425.571s-8.9,1.515-9.692,1.131c-1.259-.614.488-9.651.488-9.651a2.6,2.6,0,0,0-2.316-2.53,5.756,5.756,0,0,0-4.083,1.137s-1.822,1.633-1.59,3.443c.517,4.014,1.319,12.176,4,13.426,3.462,1.613,13.475-4.475,13.475-4.475a1.756,1.756,0,0,0,.286-1.167A2.725,2.725,0,0,0,250.2,4425.571Z" transform="translate(-220.188 -4397.968)" fill="#1cbfbf"/>
          <path id="Trazado_111710" data-name="Trazado 111710" d="M232.546,4420.576l.737.159s1.56-6.752,6.8-6.785a3.762,3.762,0,0,0-1.183-.756C236.979,4413.709,233.645,4415.352,232.546,4420.576Z" transform="translate(-220.487 -4398.824)" fill="#214d9a"/>
          <path id="Trazado_111711" data-name="Trazado 111711" d="M248.094,4412.5l.892-1.149s-.222-.283-.676.056c-.264.2-.974.654-.974.654Z" transform="translate(-210.388 -4400.163)" fill="#ffae73"/>
          <g id="Grupo_61978" data-name="Grupo 61978" transform="translate(0.919 75.036)" opacity="0.5">
            <path id="Trazado_111712" data-name="Trazado 111712" d="M232.275,4450.189q-.169.5-.313.969a21.119,21.119,0,0,1-5.217-.725c-.3-.078-.574-.157-.82-.23.049-.316.1-.637.152-.96A20.584,20.584,0,0,0,232.275,4450.189Z" transform="translate(-225.926 -4449.243)" fill="#fff"/>
          </g>
          <g id="Grupo_61979" data-name="Grupo 61979" transform="translate(0.581 77.368)" opacity="0.5">
            <path id="Trazado_111713" data-name="Trazado 111713" d="M231.679,4451.624q-.141.505-.259.958a21.553,21.553,0,0,1-4.741-.718c-.352-.091-.671-.185-.954-.268.044-.313.089-.635.136-.966A21.415,21.415,0,0,0,231.679,4451.624Z" transform="translate(-225.725 -4450.63)" fill="#fff"/>
          </g>
        </g>
        <g id="Grupo_61983" data-name="Grupo 61983" transform="translate(13.397 76.353)">
          <g id="Grupo_61981" data-name="Grupo 61981">
            <path id="Trazado_111714" data-name="Trazado 111714" d="M239.537,4450.027c-.022.346-.04.677-.057,1a21.38,21.38,0,0,1-4.931.284c-.407-.022-.776-.049-1.1-.079-.037-.323-.076-.647-.113-.979A21.362,21.362,0,0,0,239.537,4450.027Z" transform="translate(-233.341 -4450.027)" fill="#fff"/>
          </g>
          <g id="Grupo_61982" data-name="Grupo 61982" transform="translate(0.283 2.45)">
            <path id="Trazado_111715" data-name="Trazado 111715" d="M239.3,4451.483c-.012.344-.024.67-.03.98a21.68,21.68,0,0,1-4.547.219c-.4-.022-.767-.047-1.084-.076-.044-.314-.086-.641-.13-.982A22,22,0,0,0,239.3,4451.483Z" transform="translate(-233.509 -4451.483)" fill="#fff"/>
          </g>
        </g>
      </g>
      <g id="Grupo_62003" data-name="Grupo 62003" transform="translate(345.694 4456.615)">
        <g id="Grupo_61996" data-name="Grupo 61996" transform="translate(0 10.548)">
          <g id="Grupo_61985" data-name="Grupo 61985" transform="translate(32.485 23.269)">
            <path id="Trazado_111716" data-name="Trazado 111716" d="M293.845,4479.741l5.974-.074,13.951-58.133-5.974.075Z" transform="translate(-283.977 -4421.533)" fill="#82b3f9"/>
            <path id="Trazado_111717" data-name="Trazado 111717" d="M287.981,4458.042h26.788a2.837,2.837,0,0,0-2.837-2.837H290.818a2.837,2.837,0,0,0-2.837,2.837Z" transform="translate(-287.981 -4398.541)" fill="#82b3f9"/>
          </g>
          <path id="Trazado_111718" data-name="Trazado 111718" d="M363.044,4463.561l-2.573-12.9h0l-.005-.028-8.562-42.928-83.226.011,11.141,55.855,15.808,0h.149l17.692,0h.054l17.614,0h.121l17.576,0h.159Z" transform="translate(-268.678 -4407.707)" fill="#133f7b"/>
          <g id="Grupo_61995" data-name="Grupo 61995" transform="translate(1.425)">
            <path id="Trazado_111719" data-name="Trazado 111719" d="M363.891,4462.457l-83.226.012-11.141-54.751,83.226-.011Z" transform="translate(-269.525 -4407.707)" fill="#214d9a"/>
            <g id="Grupo_61993" data-name="Grupo 61993" transform="translate(2.614 0.149)">
              <g id="Grupo_61986" data-name="Grupo 61986" transform="translate(13.225 0.008)">
                <path id="Trazado_111720" data-name="Trazado 111720" d="M290.206,4462.4h-.159l-11.111-54.6h.159Z" transform="translate(-278.936 -4407.8)" fill="#bad7fd"/>
              </g>
              <g id="Grupo_61987" data-name="Grupo 61987" transform="translate(30.96 0.005)">
                <path id="Trazado_111721" data-name="Trazado 111721" d="M300.745,4462.4h-.159l-11.111-54.6h.159Z" transform="translate(-289.475 -4407.797)" fill="#bad7fd"/>
              </g>
              <g id="Grupo_61988" data-name="Grupo 61988" transform="translate(48.695 0.002)">
                <path id="Trazado_111722" data-name="Trazado 111722" d="M311.284,4462.4h-.159l-11.111-54.6h.159Z" transform="translate(-300.014 -4407.795)" fill="#bad7fd"/>
              </g>
              <g id="Grupo_61989" data-name="Grupo 61989" transform="translate(66.43)">
                <path id="Trazado_111723" data-name="Trazado 111723" d="M321.823,4462.4h-.159l-11.111-54.6h.159Z" transform="translate(-310.552 -4407.795)" fill="#bad7fd"/>
              </g>
              <g id="Grupo_61990" data-name="Grupo 61990" transform="translate(0 12.695)">
                <path id="Trazado_111724" data-name="Trazado 111724" d="M354.334,4415.488l-83.226.012-.03-.149,83.225-.012Z" transform="translate(-271.078 -4415.339)" fill="#bad7fd"/>
              </g>
              <g id="Grupo_61991" data-name="Grupo 61991" transform="translate(2.962 27.252)">
                <path id="Trazado_111725" data-name="Trazado 111725" d="M356.094,4424.138l-83.225.012-.03-.15,83.225-.011Z" transform="translate(-272.838 -4423.989)" fill="#bad7fd"/>
              </g>
              <g id="Grupo_61992" data-name="Grupo 61992" transform="translate(5.924 41.807)">
                <path id="Trazado_111726" data-name="Trazado 111726" d="M357.854,4432.788l-83.226.013-.03-.15,83.225-.012Z" transform="translate(-274.598 -4432.638)" fill="#bad7fd"/>
              </g>
            </g>
            <g id="Grupo_61994" data-name="Grupo 61994" transform="translate(16.803 11.312)">
              <path id="Trazado_111727" data-name="Trazado 111727" d="M281.55,4417.651l-2.041-1.609,1.386-1.609,2.041,1.609Z" transform="translate(-279.51 -4414.425)" fill="#bad7fd"/>
              <path id="Trazado_111728" data-name="Trazado 111728" d="M283.32,4426.345l-2.041-1.609,1.386-1.608,2.041,1.608Z" transform="translate(-278.302 -4408.488)" fill="#bad7fd"/>
              <path id="Trazado_111729" data-name="Trazado 111729" d="M292.137,4417.65l-2.041-1.609,1.386-1.61,2.041,1.609Z" transform="translate(-272.281 -4414.426)" fill="#bad7fd"/>
              <path id="Trazado_111730" data-name="Trazado 111730" d="M293.906,4426.344l-2.041-1.61,1.386-1.609,2.041,1.609Z" transform="translate(-271.073 -4408.489)" fill="#bad7fd"/>
              <path id="Trazado_111731" data-name="Trazado 111731" d="M302.675,4417.648l-2.041-1.608,1.386-1.61,2.041,1.608Z" transform="translate(-265.085 -4414.428)" fill="#bad7fd"/>
              <path id="Trazado_111732" data-name="Trazado 111732" d="M313.119,4417.646l-2.041-1.61,1.386-1.608,2.041,1.608Z" transform="translate(-257.953 -4414.428)" fill="#bad7fd"/>
              <path id="Trazado_111733" data-name="Trazado 111733" d="M285.071,4434.95l-2.041-1.608,1.386-1.61,2.041,1.608Z" transform="translate(-277.106 -4402.612)" fill="#bad7fd"/>
              <path id="Trazado_111734" data-name="Trazado 111734" d="M295.657,4434.949l-2.041-1.609,1.386-1.609,2.041,1.608Z" transform="translate(-269.877 -4402.614)" fill="#bad7fd"/>
              <path id="Trazado_111735" data-name="Trazado 111735" d="M306.2,4434.947l-2.041-1.609,1.386-1.61,2.041,1.609Z" transform="translate(-262.681 -4402.614)" fill="#bad7fd"/>
              <path id="Trazado_111736" data-name="Trazado 111736" d="M316.639,4434.946l-2.041-1.609,1.386-1.609,2.041,1.609Z" transform="translate(-255.549 -4402.615)" fill="#bad7fd"/>
              <path id="Trazado_111737" data-name="Trazado 111737" d="M314.888,4426.342l-2.041-1.61,1.386-1.609,2.041,1.609Z" transform="translate(-256.745 -4408.492)" fill="#bad7fd"/>
              <path id="Trazado_111738" data-name="Trazado 111738" d="M304.444,4426.343l-2.041-1.61,1.386-1.61,2.041,1.61Z" transform="translate(-263.876 -4408.49)" fill="#bad7fd"/>
            </g>
          </g>
        </g>
        <g id="Grupo_61999" data-name="Grupo 61999" transform="translate(61.145)">
          <g id="Grupo_61997" data-name="Grupo 61997" transform="translate(4.66 24.588)">
            <rect id="Rectángulo_6851" data-name="Rectángulo 6851" width="1.014" height="5.375" transform="translate(1.223 2.173) rotate(-14.094)" fill="#a7c7ff"/>
            <path id="Trazado_111739" data-name="Trazado 111739" d="M309.839,4416.283v0a.863.863,0,0,1-.446.976c-.51.19-.853-.139-.981-.651l-.034-.132c-.044-.178-.458-.032-.518.142a1.463,1.463,0,1,0,2.8.118,1.477,1.477,0,0,0-.32-.609C310.2,4415.967,309.809,4416.065,309.839,4416.283Z" transform="translate(-307.781 -4416.049)" fill="#a7c7ff"/>
            <path id="Trazado_111740" data-name="Trazado 111740" d="M309.651,4422.431v0a.867.867,0,0,1,.448-.978c.508-.19.851.142.981.651l.032.133c.044.181.458.034.518-.141a1.462,1.462,0,1,0-2.8-.12,1.441,1.441,0,0,0,.318.609C309.293,4422.746,309.682,4422.646,309.651,4422.431Z" transform="translate(-307.095 -4413.247)" fill="#a7c7ff"/>
          </g>
          <g id="Grupo_61998" data-name="Grupo 61998">
            <path id="Trazado_111741" data-name="Trazado 111741" d="M309.888,4410.708a10.647,10.647,0,0,0-1.8-2.711,4.281,4.281,0,0,0-3.049-.321c-.256.507,1.732,1.3,1.962,1.769s-.724.418.007,1.231a7.869,7.869,0,0,0,2.1,1.338Z" transform="translate(-305.012 -4397.279)" fill="#ffae73"/>
            <path id="Trazado_111742" data-name="Trazado 111742" d="M307.567,4409.626c.523-.816.68-.857.68-.857s8.663,3.455,9.49,3.744,13.185,1.014,13.185,1.014l3.731,8.2s-16.47-3.756-18.55-4.528c-3.438-1.275-8.953-6.274-8.953-6.274A2.686,2.686,0,0,1,307.567,4409.626Z" transform="translate(-303.551 -4396.434)" fill="#6ca3ea"/>
            <path id="Trazado_111743" data-name="Trazado 111743" d="M307.488,4409.488a.786.786,0,0,0-.1-.944c-.31-.368-.379.332-.909.156-.441-.146-1.622-.321-.858.294.7.566,1.4,1.331,1.659,1.508S307.488,4409.488,307.488,4409.488Z" transform="translate(-304.769 -4396.661)" fill="#ffae73"/>
            <path id="Trazado_111744" data-name="Trazado 111744" d="M324.017,4455.332s-.188,3.039-.754,3.754h-8.688a1.543,1.543,0,0,1,1.387-1.241c1.373-.238,3.672-1.2,4.5-3.019C321.338,4452.918,324.017,4455.332,324.017,4455.332Z" transform="translate(-298.481 -4365.485)" fill="#0b3563"/>
            <path id="Trazado_111745" data-name="Trazado 111745" d="M333.1,4455.062s.572,3.785-.172,3.854c-.1.008-3.579,0-4.525.143a23.618,23.618,0,0,1-4.123.031.408.408,0,0,1-.37-.614,1.649,1.649,0,0,1,1.18-.759c1.37-.263,3.65-1.268,4.449-3.1C330.382,4452.7,333.1,4455.062,333.1,4455.062Z" transform="translate(-292.145 -4365.638)" fill="#0b3563"/>
            <path id="Trazado_111746" data-name="Trazado 111746" d="M337.262,4473.862a8.281,8.281,0,0,1-2.08.415,6.278,6.278,0,0,1-1.908-.12,3.288,3.288,0,0,1-.323-.091,30.988,30.988,0,0,0-1.338-5.743c-.089-.293-.185-.6-.289-.921q-.2-.627-.436-1.312c-.1-.3-.209-.606-.321-.922-.99-2.784-2.39-6.248-4.362-10.428q-.977-2.076-1.828-3.964a140.689,140.689,0,0,1-6.619-16.958l.212-.126,8.633-5.142,1.451-.86h0l2.284-1.362s.032.976.119,2.559c0,.022,0,.044,0,.068.289,5.314,1.175,17.272,3.438,22.407,1.38,3.12,2.2,8.22,2.691,12.775.034.32.067.64.1.955.047.474.091.94.13,1.4.029.323.057.644.081.953C337.192,4471.123,337.262,4473.862,337.262,4473.862Z" transform="translate(-296.308 -4384.441)" fill="#138080"/>
            <path id="Trazado_111747" data-name="Trazado 111747" d="M329.916,4427.333s-.145.521-.377,1.423c-.517,2-1.474,5.859-2.292,10.035a66.406,66.406,0,0,0-1.446,11.615,17.07,17.07,0,0,0,.1,1.889c.4,3.437-.047,8.5-.626,12.879q-.066.485-.131.961c-.067.481-.135.952-.205,1.408-.049.326-.1.646-.145.954-.512,3.274-.983,5.614-.983,5.614s-.2.047-.564.1a19.748,19.748,0,0,1-2.342.241,4.225,4.225,0,0,1-1.612-.336c-.237-.1-.387-.172-.387-.172a43.836,43.836,0,0,0,.069-5.676c-.005-.154-.012-.309-.018-.467l-.02-.486c-.018-.429-.04-.88-.069-1.353-.017-.31-.037-.626-.057-.956-.2-3.059-.579-6.954-1.259-11.766a197.958,197.958,0,0,1-1.86-23.7c-.027-1.714-.013-2.677-.013-2.677l.464.015.577.018,9.338.3,3.423.113h0Z" transform="translate(-297.732 -4384.071)" fill="#1cbfbf"/>
            <path id="Trazado_111748" data-name="Trazado 111748" d="M323.722,4412.785l-2.314,1.713-3.344-.705c.045-.3.266-1.568.468-2.712.012-.068.023-.135.035-.2.172-.973.321-1.81.321-1.81l3.123-1.557,1.164-.58c0,.021-.091,1.081-.1,1.235A10,10,0,0,0,323.722,4412.785Z" transform="translate(-296.099 -4397.688)" fill="#ffae73"/>
            <path id="Trazado_111749" data-name="Trazado 111749" d="M318.65,4410.384c.072-.032,4.549-1.352,5.035-1.191s.774,1.1.774,1.1l-6.91,1.97S317.714,4410.778,318.65,4410.384Z" transform="translate(-296.45 -4396.151)" fill="#6ca3ea"/>
            <path id="Trazado_111750" data-name="Trazado 111750" d="M332,4439.978c-.757,3.459-16.574-7.4-16.362-9.511.022-.231.045-.465.069-.7.291-2.94.572-5.818.591-7.7a26.446,26.446,0,0,1,.54-4.807c.274-1.4.611-2.664.905-3.651a4.044,4.044,0,0,1,2.366-2.593,3.5,3.5,0,0,1,.392-.136c1.907-.554,4.542-1.238,5.256-1.029,1.937.571,3.374,3.977,4.392,8.321C332.058,4426.308,332.5,4437.722,332,4439.978Z" transform="translate(-297.754 -4395.716)" fill="#a7c7ff"/>
            <path id="Trazado_111751" data-name="Trazado 111751" d="M322.648,4407.981c-.685,1.313-3.241,2.446-4.306,2.864.012-.067.024-.135.035-.2.172-.974.321-1.811.321-1.811l3.123-1.558C322.512,4407.266,322.931,4407.441,322.648,4407.981Z" transform="translate(-295.909 -4397.452)" fill="#ffa05e"/>
            <path id="Trazado_111752" data-name="Trazado 111752" d="M317.938,4411.855s5.634,1.757,6.674-1.769,2.469-5.673-1.084-6.944-4.653-.134-5.288.959S316.5,4411.308,317.938,4411.855Z" transform="translate(-296.666 -4400.657)" fill="#ffae73"/>
            <path id="Trazado_111753" data-name="Trazado 111753" d="M318.179,4404.544s.358,4.1,1.208,3.925,1.617-.31,1.493.926-1.3,2.665,1.314,2.883,6.375-6.524,5.656-7.8C325.777,4400.793,315.183,4400.049,318.179,4404.544Z" transform="translate(-296.382 -4401.438)" fill="#db6000"/>
            <path id="Trazado_111754" data-name="Trazado 111754" d="M316.107,4432.74c1.567.567-.027-1.558,0-2,.123-1.945-.641-4.4-.407-6.747l9.565-5.718S327.536,4432.648,316.107,4432.74Z" transform="translate(-297.743 -4389.942)" fill="#6ca3ea"/>
            <path id="Trazado_111755" data-name="Trazado 111755" d="M332.037,4436.585c-4.084,7.567-4.734,10.459-4.734,10.459-3.554-.405-9.646-7.394-11.576-9.259,0,0-.264-8.6-.052-10.709l2.952-.086s5.336,1.352,6.72-.483.784-10.844.784-10.844l4.056-.876C332.091,4422.916,333.132,4434.553,332.037,4436.585Z" transform="translate(-297.787 -4392.324)" fill="#1cbfbf"/>
            <path id="Trazado_111756" data-name="Trazado 111756" d="M312.9,4419.774a25.242,25.242,0,0,0-2.312-1.43,4.895,4.895,0,0,0-1.634-.145c-.057.1-.222.388-.012.487s.474.064.4.133-.873-.31-1.057.1-.343,1.794.589,2.215,3.233.041,3.4.089C313.672,4421.628,312.9,4419.774,312.9,4419.774Z" transform="translate(-302.878 -4390.017)" fill="#ffae73"/>
            <path id="Trazado_111757" data-name="Trazado 111757" d="M311.2,4423.717s9.488,1.613,10.329,1.2c1.341-.652-.522-10.278-.522-10.278a2.77,2.77,0,0,1,2.469-2.7,6.126,6.126,0,0,1,4.35,1.211s1.944,1.738,1.695,3.667c-.549,4.275-1.405,12.969-4.264,14.3-3.689,1.72-14.36-4.766-14.36-4.766a1.869,1.869,0,0,1-.3-1.244A2.91,2.91,0,0,1,311.2,4423.717Z" transform="translate(-301.202 -4394.315)" fill="#a7c7ff"/>
            <path id="Trazado_111758" data-name="Trazado 111758" d="M325.58,4418.4l-.786.17s-1.661-7.192-7.245-7.228a4.025,4.025,0,0,1,1.26-.8C320.856,4411.082,324.41,4412.83,325.58,4418.4Z" transform="translate(-296.45 -4395.228)" fill="#1cbfbf"/>
          </g>
        </g>
        <g id="Grupo_62000" data-name="Grupo 62000" transform="translate(82.22 80.94)">
          <path id="Trazado_111759" data-name="Trazado 111759" d="M324,4449.7c-.044.324-.088.646-.131.961a20.131,20.131,0,0,1-5.173-.01c-.416-.051-.786-.108-1.1-.16-.017-.31-.037-.626-.057-.955A20.263,20.263,0,0,0,324,4449.7Z" transform="translate(-317.535 -4449.535)" fill="#fff"/>
        </g>
        <path id="Trazado_111760" data-name="Trazado 111760" d="M317.61,4450.907l.02.485.018.466c.32.053.692.107,1.111.16a20.448,20.448,0,0,0,4.709.067c.049-.308.1-.627.145-.953A20.852,20.852,0,0,1,317.61,4450.907Z" transform="translate(-235.264 -4367.659)" fill="#fff"/>
        <g id="Grupo_62001" data-name="Grupo 62001" transform="translate(95.403 79.697)" opacity="0.5">
          <path id="Trazado_111761" data-name="Trazado 111761" d="M331.49,4449.75a20.465,20.465,0,0,1-4.953.951c-.3.023-.589.037-.846.048-.1-.3-.209-.607-.321-.921a20.344,20.344,0,0,0,6.023-1.031C331.426,4449.117,331.459,4449.436,331.49,4449.75Z" transform="translate(-325.369 -4448.797)" fill="#fff"/>
        </g>
        <g id="Grupo_62002" data-name="Grupo 62002" transform="translate(96.161 82.048)" opacity="0.5">
          <path id="Trazado_111762" data-name="Trazado 111762" d="M331.393,4451.146a20.706,20.706,0,0,1-4.6.838c-.241.019-.469.032-.68.043q-.134-.441-.289-.921a20.394,20.394,0,0,0,5.493-.913C331.34,4450.517,331.369,4450.837,331.393,4451.146Z" transform="translate(-325.819 -4450.193)" fill="#fff"/>
        </g>
      </g>
      <g id="Grupo_62022" data-name="Grupo 62022" transform="translate(193.5 4495.134)">
        <g id="Grupo_62004" data-name="Grupo 62004" transform="translate(5.654 7.477)">
          <path id="Trazado_111763" data-name="Trazado 111763" d="M191.237,4430.359a6.26,6.26,0,0,1,1.264-1.44,2.535,2.535,0,0,1,1.8.049c.109.318-1.112.624-1.282.88s.39.3-.1.716a4.633,4.633,0,0,1-1.328.618Z" transform="translate(-175.018 -4428.77)" fill="#ffae73"/>
          <path id="Trazado_111764" data-name="Trazado 111764" d="M198.34,4429.9c-.242-.514-.331-.551-.331-.551s-5.321,1.341-5.826,1.445-7.77-.433-7.77-.433l-2.814,4.494s9.9-.913,11.174-1.2c2.1-.478,5.708-2.962,5.708-2.962A1.59,1.59,0,0,0,198.34,4429.9Z" transform="translate(-181.599 -4428.378)" fill="#6ca3ea"/>
          <path id="Trazado_111765" data-name="Trazado 111765" d="M192.03,4430.051c.007,0,.3-.272.582-.531.209-.189.358-.455.448-.526.214-.173.313.292-.037.812a2.914,2.914,0,0,1-.949.854C191.909,4430.742,192.03,4430.051,192.03,4430.051Z" transform="translate(-174.505 -4428.644)" fill="#ffae73"/>
        </g>
        <g id="Grupo_62016" data-name="Grupo 62016" transform="translate(12.113 6.206)">
          <g id="Grupo_62005" data-name="Grupo 62005" transform="translate(19.117 13.695)">
            <path id="Trazado_111766" data-name="Trazado 111766" d="M200.248,4470.408l3.515-.044,8.21-34.21-3.515.043Z" transform="translate(-194.441 -4436.153)" fill="#82b3f9"/>
            <path id="Trazado_111767" data-name="Trazado 111767" d="M196.8,4457.639h15.765a1.672,1.672,0,0,0-1.671-1.672H198.466a1.67,1.67,0,0,0-1.669,1.672Z" transform="translate(-196.797 -4422.622)" fill="#82b3f9"/>
          </g>
          <path id="Trazado_111768" data-name="Trazado 111768" d="M240.97,4460.885l-1.514-7.591h0l0-.016-5.039-25.263-48.977.007,6.556,32.87h19.834l10.366,0H240.97Z" transform="translate(-185.437 -4428.015)" fill="#133f7b"/>
          <g id="Grupo_62015" data-name="Grupo 62015" transform="translate(0.839)">
            <path id="Trazado_111769" data-name="Trazado 111769" d="M241.469,4460.236l-48.977.006-6.556-32.22,48.977-.007Z" transform="translate(-185.935 -4428.015)" fill="#214d9a"/>
            <g id="Grupo_62013" data-name="Grupo 62013" transform="translate(1.538 0.088)">
              <g id="Grupo_62006" data-name="Grupo 62006" transform="translate(7.783 0.005)">
                <path id="Trazado_111770" data-name="Trazado 111770" d="M198.106,4460.2h-.094l-6.539-32.134h.094Z" transform="translate(-191.474 -4428.07)" fill="#bad7fd"/>
              </g>
              <g id="Grupo_62007" data-name="Grupo 62007" transform="translate(18.219 0.003)">
                <path id="Trazado_111771" data-name="Trazado 111771" d="M204.308,4460.2h-.094l-6.539-32.134h.094Z" transform="translate(-197.676 -4428.069)" fill="#bad7fd"/>
              </g>
              <g id="Grupo_62008" data-name="Grupo 62008" transform="translate(28.656 0.002)">
                <path id="Trazado_111772" data-name="Trazado 111772" d="M210.51,4460.2h-.094l-6.539-32.134h.094Z" transform="translate(-203.878 -4428.069)" fill="#bad7fd"/>
              </g>
              <g id="Grupo_62009" data-name="Grupo 62009" transform="translate(39.093)">
                <path id="Trazado_111773" data-name="Trazado 111773" d="M216.712,4460.2h-.094l-6.539-32.133h.094Z" transform="translate(-210.08 -4428.068)" fill="#bad7fd"/>
              </g>
              <g id="Grupo_62010" data-name="Grupo 62010" transform="translate(0 7.471)">
                <path id="Trazado_111774" data-name="Trazado 111774" d="M235.844,4432.6l-48.977.007-.018-.088,48.977-.007Z" transform="translate(-186.849 -4432.507)" fill="#bad7fd"/>
              </g>
              <g id="Grupo_62011" data-name="Grupo 62011" transform="translate(1.743 16.037)">
                <path id="Trazado_111775" data-name="Trazado 111775" d="M236.88,4437.685l-48.977.008-.018-.089,48.977-.007Z" transform="translate(-187.885 -4437.597)" fill="#bad7fd"/>
              </g>
              <g id="Grupo_62012" data-name="Grupo 62012" transform="translate(3.486 24.603)">
                <path id="Trazado_111776" data-name="Trazado 111776" d="M237.916,4442.775l-48.977.007-.018-.088,48.977-.006Z" transform="translate(-188.921 -4442.688)" fill="#bad7fd"/>
              </g>
            </g>
            <g id="Grupo_62014" data-name="Grupo 62014" transform="translate(9.889 6.657)">
              <path id="Trazado_111777" data-name="Trazado 111777" d="M193.012,4433.868l-1.2-.946.816-.947,1.2.946Z" transform="translate(-191.811 -4431.97)" fill="#bad7fd"/>
              <path id="Trazado_111778" data-name="Trazado 111778" d="M194.054,4438.985l-1.2-.947.815-.948,1.2.948Z" transform="translate(-191.101 -4428.475)" fill="#bad7fd"/>
              <path id="Trazado_111779" data-name="Trazado 111779" d="M199.242,4433.867l-1.2-.946.816-.948,1.2.947Z" transform="translate(-187.558 -4431.969)" fill="#bad7fd"/>
              <path id="Trazado_111780" data-name="Trazado 111780" d="M200.283,4438.984l-1.2-.947.816-.947,1.2.947Z" transform="translate(-186.847 -4428.477)" fill="#bad7fd"/>
              <path id="Trazado_111781" data-name="Trazado 111781" d="M205.444,4433.866l-1.2-.947.815-.947,1.2.947Z" transform="translate(-183.322 -4431.971)" fill="#bad7fd"/>
              <path id="Trazado_111782" data-name="Trazado 111782" d="M211.59,4433.866l-1.2-.948.815-.947,1.2.947Z" transform="translate(-179.126 -4431.971)" fill="#bad7fd"/>
              <path id="Trazado_111783" data-name="Trazado 111783" d="M195.084,4444.049l-1.2-.947.815-.947,1.2.947Z" transform="translate(-190.397 -4425.017)" fill="#bad7fd"/>
              <path id="Trazado_111784" data-name="Trazado 111784" d="M201.314,4444.048l-1.2-.948.815-.946,1.2.946Z" transform="translate(-186.143 -4425.018)" fill="#bad7fd"/>
              <path id="Trazado_111785" data-name="Trazado 111785" d="M207.516,4444.047l-1.2-.947.815-.947,1.2.947Z" transform="translate(-181.908 -4425.018)" fill="#bad7fd"/>
              <path id="Trazado_111786" data-name="Trazado 111786" d="M213.662,4444.046l-1.2-.946.815-.948,1.2.948Z" transform="translate(-177.711 -4425.02)" fill="#bad7fd"/>
              <path id="Trazado_111787" data-name="Trazado 111787" d="M212.631,4438.981l-1.2-.947.815-.948,1.2.947Z" transform="translate(-178.415 -4428.476)" fill="#bad7fd"/>
              <path id="Trazado_111788" data-name="Trazado 111788" d="M206.485,4438.983l-1.2-.949.815-.945,1.2.945Z" transform="translate(-182.612 -4428.477)" fill="#bad7fd"/>
            </g>
          </g>
        </g>
        <g id="Grupo_62017" data-name="Grupo 62017" transform="translate(18.767 14.469)">
          <rect id="Rectángulo_6852" data-name="Rectángulo 6852" width="0.597" height="3.163" transform="matrix(-0.97, -0.244, 0.244, -0.97, 1.227, 4.347)" fill="#a7c7ff"/>
          <path id="Trazado_111789" data-name="Trazado 111789" d="M190.492,4433.063v0a.51.51,0,0,0,.262.575c.3.112.5-.083.577-.382l.02-.079c.025-.1.269-.019.3.084a.86.86,0,1,1-1.648.069.845.845,0,0,1,.187-.358C190.281,4432.878,190.51,4432.935,190.492,4433.063Z" transform="translate(-188.987 -4432.926)" fill="#a7c7ff"/>
          <path id="Trazado_111790" data-name="Trazado 111790" d="M190.6,4436.681v0a.51.51,0,0,0-.262-.576c-.3-.112-.5.082-.577.383l-.02.077c-.025.106-.269.019-.3-.082a.86.86,0,1,1,1.647-.071.836.836,0,0,1-.187.358C190.813,4436.865,190.584,4436.808,190.6,4436.681Z" transform="translate(-189.391 -4431.275)" fill="#a7c7ff"/>
        </g>
        <path id="Trazado_111791" data-name="Trazado 111791" d="M183.7,4456.042a6.861,6.861,0,0,0,.443,2.21h5.114a.91.91,0,0,0-.816-.731,3.746,3.746,0,0,1-2.651-1.775C185.28,4454.621,183.7,4456.042,183.7,4456.042Z" transform="translate(-174.507 -4403.169)" fill="#0b3563"/>
        <path id="Trazado_111792" data-name="Trazado 111792" d="M178.363,4455.884s-.338,2.226.1,2.266c.057.008,2.105,0,2.662.086a13.863,13.863,0,0,0,2.427.016.239.239,0,0,0,.217-.361.966.966,0,0,0-.7-.444,3.749,3.749,0,0,1-2.617-1.825C179.964,4454.492,178.363,4455.884,178.363,4455.884Z" transform="translate(-178.239 -4403.26)" fill="#0b3563"/>
        <path id="Trazado_111793" data-name="Trazado 111793" d="M189.792,4443.383a91.444,91.444,0,0,1-4.971,12.312,67.545,67.545,0,0,0-2.615,6.275c-.071.193-.135.38-.2.562-.1.288-.187.563-.269.823-.061.192-.118.377-.172.557a17.681,17.681,0,0,0-.719,3.157,3.465,3.465,0,0,1-1.336.183,4.464,4.464,0,0,1-1.2-.3s.037-1.451.19-3.452c.015-.183.029-.366.044-.557q.033-.388.071-.8c.017-.184.037-.371.054-.557a29.786,29.786,0,0,1,1.622-7.882c1.74-3.942,2.1-14.733,2.1-14.733Z" transform="translate(-178.189 -4414.326)" fill="#138080"/>
        <path id="Trazado_111794" data-name="Trazado 111794" d="M188.658,4454.816c-.444,3.154-.67,5.639-.776,7.518-.012.2-.02.385-.03.569-.013.292-.024.568-.034.826-.005.2-.012.384-.015.559a23.37,23.37,0,0,0,.059,2.71,4.308,4.308,0,0,1-1.37.234,7.443,7.443,0,0,1-1.52-.138s-.222-1.111-.486-2.731h0c-.03-.182-.059-.368-.089-.56-.04-.259-.081-.525-.119-.8-.029-.183-.056-.37-.082-.56a37.241,37.241,0,0,1-.451-8.184c.495-4.281-2.363-14.691-2.363-14.691l8.379-.273A112.231,112.231,0,0,1,188.658,4454.816Z" transform="translate(-176.094 -4414.108)" fill="#1cbfbf"/>
        <path id="Trazado_111795" data-name="Trazado 111795" d="M182.975,4431l1.361,1.008,1.969-.415c-.027-.18-.158-.923-.276-1.6l-.02-.12c-.1-.572-.19-1.064-.19-1.064l-1.838-.916-.685-.341c0,.011.054.636.061.727A5.894,5.894,0,0,1,182.975,4431Z" transform="translate(-175.005 -4422.121)" fill="#ffae73"/>
        <path id="Trazado_111796" data-name="Trazado 111796" d="M186.259,4429.591a18.6,18.6,0,0,0-2.963-.7c-.286.093-.454.647-.454.647l4.066,1.158S186.809,4429.822,186.259,4429.591Z" transform="translate(-175.097 -4421.217)" fill="#6ca3ea"/>
        <path id="Trazado_111797" data-name="Trazado 111797" d="M180.7,4447.005c.446,2.037,9.752-4.354,9.629-5.6l-.042-.411c-.172-1.731-.337-3.423-.347-4.528a15.628,15.628,0,0,0-.318-2.829c-.162-.822-.36-1.568-.533-2.148a2.366,2.366,0,0,0-1.392-1.526,2.382,2.382,0,0,0-.232-.082,10.559,10.559,0,0,0-3.091-.6c-1.139.335-1.986,2.339-2.585,4.9C180.671,4438.962,180.412,4445.68,180.7,4447.005Z" transform="translate(-176.632 -4420.959)" fill="#a7c7ff"/>
        <path id="Trazado_111798" data-name="Trazado 111798" d="M183.305,4428.176a5.594,5.594,0,0,0,2.534,1.687l-.02-.12c-.1-.571-.19-1.064-.19-1.064l-1.838-.916C183.386,4427.756,183.139,4427.858,183.305,4428.176Z" transform="translate(-174.816 -4421.981)" fill="#ffa05e"/>
        <path id="Trazado_111799" data-name="Trazado 111799" d="M187.072,4430.457s-3.315,1.035-3.928-1.04-1.452-3.339.638-4.087,2.738-.079,3.112.564S187.919,4430.136,187.072,4430.457Z" transform="translate(-175.365 -4423.868)" fill="#ffae73"/>
        <path id="Trazado_111800" data-name="Trazado 111800" d="M187.35,4426.154s-.21,2.416-.71,2.311-.848-.188-.878.544c-.032.758.135,1.63-1.4,1.759s-3.122-3.9-2.7-4.652C182.878,4423.948,189.113,4423.51,187.35,4426.154Z" transform="translate(-175.952 -4424.327)" fill="#0b3563"/>
        <path id="Trazado_111801" data-name="Trazado 111801" d="M188.444,4442.748c-.922.333.015-.916,0-1.177-.072-1.145.377-2.591.239-3.97l-5.629-3.365S181.718,4442.694,188.444,4442.748Z" transform="translate(-175.025 -4417.562)" fill="#6ca3ea"/>
        <path id="Trazado_111802" data-name="Trazado 111802" d="M180.765,4445.011a29.71,29.71,0,0,1,2.785,6.154c2.092-.238,5.676-4.351,6.814-5.447,0,0,.153-5.061.03-6.3l-1.738-.05s-3.14.8-3.955-.285-.461-6.381-.461-6.381l-2.386-.516C180.733,4436.966,180.118,4443.816,180.765,4445.011Z" transform="translate(-176.694 -4418.964)" fill="#1cbfbf"/>
        <path id="Trazado_111803" data-name="Trazado 111803" d="M189.182,4435.117a14.861,14.861,0,0,1,1.361-.842,2.848,2.848,0,0,1,.961-.083c.034.055.131.227.007.285s-.279.038-.232.078.513-.182.621.057.2,1.056-.345,1.3a6.255,6.255,0,0,1-2,.053C188.726,4436.208,189.182,4435.117,189.182,4435.117Z" transform="translate(-170.852 -4417.605)" fill="#ffae73"/>
        <path id="Trazado_111804" data-name="Trazado 111804" d="M193.518,4437.438s-5.584.949-6.078.708c-.789-.385.306-6.049.306-6.049a1.629,1.629,0,0,0-1.452-1.586,3.611,3.611,0,0,0-2.561.713,2.939,2.939,0,0,0-1,2.157c.323,2.515.826,7.633,2.509,8.417,2.171,1.011,8.45-2.8,8.45-2.8a1.094,1.094,0,0,0,.18-.732A1.72,1.72,0,0,0,193.518,4437.438Z" transform="translate(-175.177 -4420.138)" fill="#a7c7ff"/>
        <path id="Trazado_111805" data-name="Trazado 111805" d="M182.448,4434.306l.463.1s.978-4.233,4.264-4.254a2.364,2.364,0,0,0-.742-.472A5.551,5.551,0,0,0,182.448,4434.306Z" transform="translate(-175.365 -4420.672)" fill="#1cbfbf"/>
        <g id="Grupo_62018" data-name="Grupo 62018" transform="translate(8.101 48.226)">
          <path id="Trazado_111806" data-name="Trazado 111806" d="M186.74,4452.984c-.012.2-.02.385-.03.57a12.729,12.729,0,0,1-3.07.142c-.183-.013-.352-.029-.5-.044-.029-.183-.056-.369-.082-.559A12.407,12.407,0,0,0,186.74,4452.984Z" transform="translate(-183.053 -4452.984)" fill="#fff"/>
        </g>
        <g id="Grupo_62019" data-name="Grupo 62019" transform="translate(8.303 49.621)">
          <path id="Trazado_111807" data-name="Trazado 111807" d="M186.594,4453.814c-.005.2-.012.383-.015.558a12.581,12.581,0,0,1-2.874.111c-.16-.01-.306-.023-.443-.036v0c-.03-.181-.059-.368-.089-.56A12.772,12.772,0,0,0,186.594,4453.814Z" transform="translate(-183.173 -4453.814)" fill="#fff"/>
        </g>
        <g id="Grupo_62020" data-name="Grupo 62020" transform="translate(0.427 47.262)" opacity="0.5">
          <path id="Trazado_111808" data-name="Trazado 111808" d="M182.083,4452.794c-.071.193-.135.38-.2.562a12.494,12.494,0,0,1-2.886-.274c-.185-.039-.355-.076-.508-.112.017-.184.037-.371.054-.557A12.515,12.515,0,0,0,182.083,4452.794Z" transform="translate(-178.493 -4452.413)" fill="#fff"/>
        </g>
        <g id="Grupo_62021" data-name="Grupo 62021" transform="translate(0.313 48.614)" opacity="0.5">
          <path id="Trazado_111809" data-name="Trazado 111809" d="M181.665,4453.63q-.091.289-.172.556a13.294,13.294,0,0,1-2.484-.279c-.217-.046-.412-.092-.584-.133.015-.182.029-.366.044-.558A13.029,13.029,0,0,0,181.665,4453.63Z" transform="translate(-178.425 -4453.215)" fill="#fff"/>
        </g>
      </g>
      <g id="Grupo_62023" data-name="Grupo 62023" transform="translate(368.473 4340.588)">
        <path id="Trazado_111810" data-name="Trazado 111810" d="M393.911,4420.723c-4.584-.683-9.671-3.8-15.122-9.262a110.79,110.79,0,0,1-13.663-17.433,223.585,223.585,0,0,1-13.7-24.381c-5.584.139-12.694-1.71-21.122-5.506a168.413,168.413,0,0,1-22.656-12.757,298.57,298.57,0,0,1-25.436-18.76l.113-.132a298.982,298.982,0,0,0,25.421,18.748,168.684,168.684,0,0,0,22.631,12.743c8.433,3.794,15.534,5.643,21.1,5.487h.059l.024.053a222.635,222.635,0,0,0,13.712,24.413,110.62,110.62,0,0,0,13.638,17.4c5.424,5.436,10.479,8.535,15.024,9.211Z" transform="translate(-282.213 -4332.491)" fill="#a7c7ff"/>
      </g>
      <g id="Grupo_62024" data-name="Grupo 62024" transform="translate(322.914 4338.494)">
        <path id="Trazado_111811" data-name="Trazado 111811" d="M384.65,4419.562c-5.984-.919-12.458-4.167-19.242-9.652a113.965,113.965,0,0,1-16.739-17.289,195.216,195.216,0,0,1-16.285-23.864,123.43,123.43,0,0,1-33.081-7.825,125.178,125.178,0,0,1-24.226-12.635,105.221,105.221,0,0,1-19.935-16.937l.135-.112a104.894,104.894,0,0,0,19.9,16.907,124.907,124.907,0,0,0,24.191,12.615,123.2,123.2,0,0,0,33.076,7.816l.045.006.022.04a194.9,194.9,0,0,0,16.293,23.882,113.815,113.815,0,0,0,16.712,17.261c6.758,5.465,13.205,8.7,19.158,9.615Z" transform="translate(-255.141 -4331.247)" fill="#a7c7ff"/>
      </g>
      <g id="Grupo_62025" data-name="Grupo 62025" transform="translate(277.582 4338.479)">
        <path id="Trazado_111812" data-name="Trazado 111812" d="M378.544,4421.58c-8.017-.259-16.43-3.2-25.01-8.744a107.8,107.8,0,0,1-20.745-18.117,173.131,173.131,0,0,1-19.376-25.954c-7.686-.21-16.941-2.3-27.51-6.216a220.574,220.574,0,0,1-27.722-12.811,327.791,327.791,0,0,1-29.978-18.357l.1-.144a326.871,326.871,0,0,0,29.961,18.349,219.974,219.974,0,0,0,27.7,12.8c10.572,3.918,19.824,6.006,27.5,6.208h.049l.025.042a172.312,172.312,0,0,0,19.381,25.97,107.6,107.6,0,0,0,20.711,18.084c8.551,5.524,16.935,8.458,24.918,8.715Z" transform="translate(-228.203 -4331.238)" fill="#a7c7ff"/>
      </g>
      <rect id="Rectángulo_6853" data-name="Rectángulo 6853" width="365.239" height="0.903" rx="0.268" transform="translate(158.328 4549.612)" fill="#2d3554"/>
    </g>
  </g>
</svg>
