<svg xmlns="http://www.w3.org/2000/svg" xmlns:xlink="http://www.w3.org/1999/xlink" width="610.208" height="404.258" viewBox="0 0 610.208 404.258">
  <defs>
    <clipPath id="clip-path">
      <rect id="Rectángulo_7542" data-name="Rectángulo 7542" width="209.098" height="393.012" fill="none"/>
    </clipPath>
  </defs>
  <g id="Grupo_64498" data-name="Grupo 64498" transform="translate(-42.024 -6548.334)">
    <g id="Grupo_64496" data-name="Grupo 64496" transform="translate(42.232 6548.334)">
      <g id="Grupo_64485" data-name="Grupo 64485">
        <g id="Grupo_64438" data-name="Grupo 64438">
          <rect id="Rectángulo_7520" data-name="Rectángulo 7520" width="610" height="376.036" fill="#beffff"/>
        </g>
        <g id="Grupo_64439" data-name="Grupo 64439" transform="translate(0.782 33.746)">
          <path id="Trazado_115027" data-name="Trazado 115027" d="M240.47,6626.656c4.652,0,8.422-3,8.422-6.689s-3.77-6.689-8.422-6.689a10.22,10.22,0,0,0-3.526.62c-2.122-2.4-5.924-4.007-10.277-4.007a16.822,16.822,0,0,0-4.076.5c-2.524-3.98-8.113-6.75-14.607-6.75-.138,0-.275,0-.412.008-2.808-7.28-11.339-12.574-21.429-12.574-8.384,0-15.687,3.656-19.531,9.068a17,17,0,0,0-2.879-.246c-7.028,0-12.936,4.251-14.623,10.008-.162,0-.32-.016-.484-.016-6.94,0-12.566,3.753-12.566,8.382s5.626,8.383,12.566,8.383Z" transform="translate(-46.368 -6583.608)" fill="#1cbfbf" opacity="0.4"/>
          <path id="Trazado_115028" data-name="Trazado 115028" d="M322.223,6714.293c4.652,0,8.422-2.995,8.422-6.689s-3.77-6.69-8.422-6.69a10.235,10.235,0,0,0-3.526.621c-2.122-2.4-5.924-4.007-10.277-4.007a16.821,16.821,0,0,0-4.076.5c-2.524-3.98-8.113-6.75-14.607-6.75-.138,0-.275,0-.412.007-2.808-7.279-11.339-12.574-21.429-12.574-8.384,0-15.687,3.658-19.531,9.069a17.094,17.094,0,0,0-2.879-.245c-7.028,0-12.936,4.251-14.623,10.008-.162,0-.32-.017-.484-.017-6.94,0-12.566,3.753-12.566,8.383s5.626,8.382,12.566,8.382Z" transform="translate(-49.29 -6586.74)" fill="#1cbfbf" opacity="0.4"/>
          <path id="Trazado_115029" data-name="Trazado 115029" d="M501.092,6622.418A7.447,7.447,0,1,0,499.5,6607.7c-2.139-4.139-7.678-7.1-14.219-7.17-3.374-3.672-9.039-6.089-15.471-6.127a21.912,21.912,0,0,0-38.139.1c-.669-.062-1.347-.1-2.036-.1-9.69,0-17.544,6.272-17.544,14.011s7.854,14.011,17.544,14.011Z" transform="translate(-56.234 -6583.331)" fill="#1cbfbf" opacity="0.4"/>
          <path id="Trazado_115030" data-name="Trazado 115030" d="M629.67,6778.652a6.164,6.164,0,1,0-1.317-12.183c-1.769-3.426-6.354-5.88-11.768-5.935-2.792-3.039-7.482-5.04-12.805-5.071a18.136,18.136,0,0,0-31.567.079c-.553-.051-1.115-.083-1.685-.083-8.02,0-14.521,5.192-14.521,11.6s6.5,11.6,14.521,11.6Z" transform="translate(-61.378 -6589.156)" fill="#1cbfbf" opacity="0.4"/>
          <path id="Trazado_115031" data-name="Trazado 115031" d="M102.411,6725.024a6.161,6.161,0,0,1-6.163,6.164H43.043v-28.315a18.212,18.212,0,0,1,11.553-4.036A17.655,17.655,0,0,1,70.357,6708c5.324.038,10.017,2.032,12.8,5.075,5.419.058,10,2.51,11.773,5.934a5.945,5.945,0,0,1,1.317-.143A6.16,6.16,0,0,1,102.411,6725.024Z" transform="translate(-43.043 -6587.459)" fill="#1cbfbf" opacity="0.4"/>
        </g>
        <rect id="Rectángulo_7521" data-name="Rectángulo 7521" width="610" height="133.927" transform="translate(0 270.331)" fill="#1cbfbf"/>
        <g id="Grupo_64468" data-name="Grupo 64468" transform="translate(400.902 11.245)">
          <g id="Grupo_64467" data-name="Grupo 64467" clip-path="url(#clip-path)">
            <g id="Grupo_64466" data-name="Grupo 64466" transform="translate(16.682 21.515)">
              <path id="Trazado_115032" data-name="Trazado 115032" d="M746.129,6627.647H521.742l-46.448,61.833H792.576Z" transform="translate(-475.295 -6583.929)" fill="#5d7ac4"/>
              <path id="Trazado_115033" data-name="Trazado 115033" d="M634.8,6708.615H499.348v85.816H770.242v-85.816Z" transform="translate(-476.154 -6586.824)" fill="#fdfdfd"/>
              <rect id="Rectángulo_7522" data-name="Rectángulo 7522" width="270.894" height="7.522" transform="translate(23.194 200.086)" fill="#c6cdd0"/>
              <path id="Trazado_115034" data-name="Trazado 115034" d="M610.478,6799.45v-55.584a28.29,28.29,0,1,1,56.58,0v55.584Z" transform="translate(-480.126 -6587.072)" fill="#284388"/>
              <path id="Rectángulo_7523" data-name="Rectángulo 7523" d="M23.52,0h0A23.52,23.52,0,0,1,47.04,23.52V74.334a0,0,0,0,1,0,0H0a0,0,0,0,1,0,0V23.52A23.52,23.52,0,0,1,23.52,0Z" transform="translate(135.121 133.274)" fill="#5d7ac4"/>
              <path id="Trazado_115035" data-name="Trazado 115035" d="M634.417,6691.772H488.765v7.641h291.3v-7.641Z" transform="translate(-475.776 -6586.221)" fill="#555"/>
              <path id="Trazado_115036" data-name="Trazado 115036" d="M634.227,6699.7H483.443l3.816,8.6H781.194l3.816-8.6Z" transform="translate(-475.586 -6586.504)" fill="#c6cdd0"/>
              <path id="Trazado_115037" data-name="Trazado 115037" d="M634.053,6797.612H478.57v30.454H789.535v-30.454Z" transform="translate(-475.412 -6590.004)" fill="#e2e2e2"/>
              <rect id="Rectángulo_7524" data-name="Rectángulo 7524" width="310.966" height="11.42" transform="translate(3.158 226.641)" fill="#c6cdd0"/>
              <path id="Trazado_115038" data-name="Trazado 115038" d="M717.279,6651.528v36.51H556.393v-36.51l33.648-26.884,10.189-8.138,36.606-29.25,36.6,29.241,10.189,8.147Z" transform="translate(-478.193 -6582.485)" fill="#fdfdfd"/>
              <rect id="Rectángulo_7525" data-name="Rectángulo 7525" width="39.273" height="18.479" transform="translate(139.004 87.073)" opacity="0.05"/>
              <path id="Trazado_115039" data-name="Trazado 115039" d="M717.279,6651.528v10.98l-80.443-64.262-80.443,64.262v-10.98l80.443-64.272Z" transform="translate(-478.193 -6582.485)" fill="#e2e2e2"/>
              <path id="Trazado_115040" data-name="Trazado 115040" d="M638.483,6821.3H602.526v7.613H674.44V6821.3Z" transform="translate(-479.842 -6590.851)" fill="#555"/>
              <path id="Trazado_115041" data-name="Trazado 115041" d="M671.034,6813.4h-65.1l-3.406,7.614H674.44Z" transform="translate(-479.842 -6590.568)" fill="#7d7d7d"/>
              <path id="Trazado_115042" data-name="Trazado 115042" d="M638.6,6805.508H605.891v7.613h65.425v-7.613Z" transform="translate(-479.962 -6590.287)" fill="#555"/>
              <path id="Trazado_115043" data-name="Trazado 115043" d="M667.91,6797.612H609.3l-3.406,7.614h65.425Z" transform="translate(-479.962 -6590.004)" fill="#7d7d7d"/>
              <path id="Trazado_115044" data-name="Trazado 115044" d="M695.619,6962.449H579.006c-39.2-44.418,61.546-88.836,22.35-133.254H673.27C727.365,6873.612,641.523,6918.03,695.619,6962.449Z" transform="translate(-478.671 -6591.133)" fill="#138080"/>
              <g id="Grupo_64440" data-name="Grupo 64440" transform="translate(65.387)">
                <path id="Trazado_115045" data-name="Trazado 115045" d="M723.662,6662.929l-87.3-69.745-87.3,69.745-5.955-7.453,90.279-72.124a4.769,4.769,0,0,1,5.955,0l90.279,72.124Z" transform="translate(-543.105 -6582.309)" fill="#284388"/>
              </g>
              <g id="Grupo_64443" data-name="Grupo 64443" transform="translate(221.11 133.553)">
                <rect id="Rectángulo_7526" data-name="Rectángulo 7526" width="50.85" height="6.409" transform="translate(50.85 51.623) rotate(-180)" fill="#5d7ac4"/>
                <rect id="Rectángulo_7527" data-name="Rectángulo 7527" width="48.998" height="45.211" transform="translate(0.928)" fill="#66d6f2"/>
                <path id="Trazado_115046" data-name="Trazado 115046" d="M752.911,6720.813l-45.22,45.211h-2.128v-20.33l24.871-24.881Z" transform="translate(-704.635 -6720.813)" fill="#fff" opacity="0.2"/>
                <path id="Trazado_115047" data-name="Trazado 115047" d="M754.973,6728.4v11.687l-26.207,26.207h-11.7Z" transform="translate(-705.046 -6721.083)" fill="#fff" opacity="0.2"/>
                <g id="Grupo_64442" data-name="Grupo 64442" transform="translate(0.927 0.004)">
                  <g id="Grupo_64441" data-name="Grupo 64441">
                    <rect id="Rectángulo_7528" data-name="Rectángulo 7528" width="48.995" height="45.21" transform="translate(48.995 45.21) rotate(-180)" fill="none" stroke="#555" stroke-linecap="round" stroke-linejoin="round" stroke-width="2"/>
                    <line id="Línea_180" data-name="Línea 180" y2="45.21" transform="translate(24.497)" fill="none" stroke="#555" stroke-linecap="round" stroke-linejoin="round" stroke-width="2"/>
                    <line id="Línea_181" data-name="Línea 181" x2="48.995" transform="translate(0 22.605)" fill="none" stroke="#555" stroke-linecap="round" stroke-linejoin="round" stroke-width="2"/>
                  </g>
                </g>
              </g>
              <g id="Grupo_64451" data-name="Grupo 64451" transform="translate(144.304 40.706)">
                <g id="Grupo_64450" data-name="Grupo 64450">
                  <path id="Trazado_115048" data-name="Trazado 115048" d="M653.615,6638.855v24.6H624.948v-24.6a14.334,14.334,0,0,1,28.667,0Z" transform="translate(-624.948 -6624.523)" fill="#66d6f2"/>
                  <g id="Grupo_64446" data-name="Grupo 64446" transform="translate(0 1.233)" opacity="0.2">
                    <g id="Grupo_64445" data-name="Grupo 64445">
                      <g id="Grupo_64444" data-name="Grupo 64444">
                        <path id="Trazado_115049" data-name="Trazado 115049" d="M651.87,6632.032l-26.922,26.913V6645.95l20.158-20.148A14.387,14.387,0,0,1,651.87,6632.032Z" transform="translate(-624.948 -6625.802)" fill="#fff"/>
                      </g>
                    </g>
                  </g>
                  <g id="Grupo_64449" data-name="Grupo 64449" transform="translate(1.755 12.185)" opacity="0.2">
                    <g id="Grupo_64448" data-name="Grupo 64448">
                      <g id="Grupo_64447" data-name="Grupo 64447">
                        <path id="Trazado_115050" data-name="Trazado 115050" d="M653.68,6639.307v4.188l-20.406,20.416h-6.507l26.75-26.75A14.354,14.354,0,0,1,653.68,6639.307Z" transform="translate(-626.768 -6637.16)" fill="#fff"/>
                      </g>
                    </g>
                  </g>
                  <line id="Línea_182" data-name="Línea 182" y2="38.932" transform="translate(14.336)" fill="none" stroke="#555" stroke-linecap="round" stroke-linejoin="round" stroke-width="2"/>
                  <line id="Línea_183" data-name="Línea 183" x2="28.671" transform="translate(0.001 21.402)" fill="none" stroke="#555" stroke-linecap="round" stroke-linejoin="round" stroke-width="2"/>
                </g>
                <path id="Rectángulo_7529" data-name="Rectángulo 7529" d="M14.336,0h0A14.336,14.336,0,0,1,28.671,14.336v24.6a0,0,0,0,1,0,0H0a0,0,0,0,1,0,0v-24.6A14.336,14.336,0,0,1,14.336,0Z" transform="translate(0.001)" fill="none" stroke="#555" stroke-linecap="round" stroke-linejoin="round" stroke-width="2"/>
              </g>
              <rect id="Rectángulo_7530" data-name="Rectángulo 7530" width="39.273" height="8.388" transform="translate(139.004 78.684)" fill="#5d7ac4"/>
              <rect id="Rectángulo_7531" data-name="Rectángulo 7531" width="39.273" height="4.194" transform="translate(139.004 78.684)" fill="#284388"/>
              <circle id="Elipse_4261" data-name="Elipse 4261" cx="4.658" cy="4.658" r="4.658" transform="translate(168.483 171.628)" fill="#869bd3"/>
              <rect id="Rectángulo_7532" data-name="Rectángulo 7532" width="22.992" height="20.12" transform="translate(70.606 23.602)" fill="#fdfdfd"/>
              <path id="Trazado_115051" data-name="Trazado 115051" d="M571.51,6606.786v6.45l-22.992-6.45Z" transform="translate(-477.912 -6583.184)" fill="#e2e2e2"/>
              <rect id="Rectángulo_7533" data-name="Rectángulo 7533" width="32.322" height="7.354" rx="3.677" transform="translate(65.941 16.251)" fill="#284388"/>
              <g id="Grupo_64452" data-name="Grupo 64452" transform="translate(103.939 121.79)">
                <rect id="Rectángulo_7534" data-name="Rectángulo 7534" width="7.813" height="85.814" fill="#284388"/>
                <rect id="Rectángulo_7535" data-name="Rectángulo 7535" width="7.813" height="6.373" fill="#284388" opacity="0.1"/>
              </g>
              <g id="Grupo_64453" data-name="Grupo 64453" transform="translate(205.533 121.79)">
                <rect id="Rectángulo_7536" data-name="Rectángulo 7536" width="7.813" height="85.814" fill="#284388"/>
                <rect id="Rectángulo_7537" data-name="Rectángulo 7537" width="7.813" height="6.373" fill="#284388" opacity="0.1"/>
              </g>
              <g id="Grupo_64454" data-name="Grupo 64454" transform="translate(279.86 121.79)">
                <rect id="Rectángulo_7538" data-name="Rectángulo 7538" width="7.813" height="85.814" fill="#284388"/>
                <rect id="Rectángulo_7539" data-name="Rectángulo 7539" width="7.813" height="6.373" fill="#284388" opacity="0.1"/>
              </g>
              <g id="Grupo_64459" data-name="Grupo 64459" transform="translate(272.581 177.66)">
                <g id="Grupo_64458" data-name="Grupo 64458">
                  <g id="Grupo_64455" data-name="Grupo 64455">
                    <path id="Trazado_115052" data-name="Trazado 115052" d="M789.558,6777.6a13.327,13.327,0,0,1-1.288,1.813H759.354a4.116,4.116,0,0,1-1.2-1.622,2.436,2.436,0,0,1,.362-2.452,1.665,1.665,0,0,1,2.319-.143,6.585,6.585,0,0,1,2.843-3.32,2.964,2.964,0,0,1,3.883,1.05c.334-1.718.706-3.53,1.907-4.8a5.342,5.342,0,0,1,4.542-1.526,7.26,7.26,0,0,1,4.293,2.309,3.751,3.751,0,0,1,1.193,2.442,4.246,4.246,0,0,1,7.642,3.492,1.786,1.786,0,0,1,2.146.5A2.312,2.312,0,0,1,789.558,6777.6Z" transform="translate(-757.979 -6766.554)" fill="#8ebd00"/>
                  </g>
                  <g id="Grupo_64456" data-name="Grupo 64456" transform="translate(0.86 12.056)">
                    <path id="Trazado_115053" data-name="Trazado 115053" d="M788.588,6779.057v12.24a5.656,5.656,0,0,1-5.657,5.647h-18.4a5.649,5.649,0,0,1-5.657-5.647v-12.24Z" transform="translate(-758.871 -6779.057)" fill="#ffad5d"/>
                  </g>
                  <g id="Grupo_64457" data-name="Grupo 64457" transform="translate(0.86 12.056)" opacity="0.1">
                    <rect id="Rectángulo_7540" data-name="Rectángulo 7540" width="29.718" height="5.171"/>
                  </g>
                </g>
              </g>
              <g id="Grupo_64465" data-name="Grupo 64465" transform="translate(228.318 165.501)">
                <g id="Grupo_64464" data-name="Grupo 64464">
                  <path id="Trazado_115054" data-name="Trazado 115054" d="M741.335,6779.057v12.24a5.656,5.656,0,0,1-5.657,5.647h-8.863a5.649,5.649,0,0,1-5.657-5.647v-12.24Z" transform="translate(-712.401 -6754.842)" fill="#5d7ac4"/>
                  <g id="Grupo_64460" data-name="Grupo 64460" transform="translate(8.757 24.215)" opacity="0.1">
                    <rect id="Rectángulo_7541" data-name="Rectángulo 7541" width="20.177" height="5.171"/>
                  </g>
                  <g id="Grupo_64461" data-name="Grupo 64461" transform="translate(0 8.744)">
                    <path id="Trazado_115055" data-name="Trazado 115055" d="M721.083,6778.488s-8.487-5.337-9.007-15.471c0,0,12.273-.674,18.246,15.471Z" transform="translate(-712.076 -6763.013)" fill="#6b9600"/>
                  </g>
                  <g id="Grupo_64462" data-name="Grupo 64462" transform="translate(12.652)">
                    <path id="Trazado_115056" data-name="Trazado 115056" d="M726.423,6778.164s-4.677-15.384,4.244-24.219c0,0,7.8,5.219,3.2,24.219Z" transform="translate(-725.197 -6753.945)" fill="#8ebd00"/>
                  </g>
                  <g id="Grupo_64463" data-name="Grupo 64463" transform="translate(19.208 6.843)">
                    <path id="Trazado_115057" data-name="Trazado 115057" d="M732.036,6778.417s-1.3-11.227,11-17.376c0,0,4.469,7.471-1.316,17.376Z" transform="translate(-731.996 -6761.041)" fill="#6b9600"/>
                  </g>
                </g>
              </g>
            </g>
          </g>
        </g>
        <g id="Grupo_64479" data-name="Grupo 64479" transform="translate(0.782 66.539)">
          <g id="Grupo_64469" data-name="Grupo 64469" transform="translate(99.363)">
            <path id="Trazado_115058" data-name="Trazado 115058" d="M156.116,6805.82a4.826,4.826,0,1,1-9.642.019l-.386-183.434a4.826,4.826,0,1,1,9.641-.018Z" transform="translate(-146.089 -6617.34)" fill="#575757"/>
          </g>
          <g id="Grupo_64474" data-name="Grupo 64474" transform="translate(88.463 186.898)">
            <g id="Grupo_64470" data-name="Grupo 64470" transform="translate(2.082 2.274)">
              <path id="Trazado_115059" data-name="Trazado 115059" d="M136.944,6821.893s7.177-4.514,7.169-8.354l6.857-.016.02,10.1Z" transform="translate(-136.944 -6813.524)" fill="#575757"/>
            </g>
            <g id="Grupo_64471" data-name="Grupo 64471" transform="translate(16.108 2.26)">
              <path id="Trazado_115060" data-name="Trazado 115060" d="M165.549,6821.833s-7.193-4.483-7.2-8.323l-6.858.014.02,10.1Z" transform="translate(-151.49 -6813.51)" fill="#575757"/>
            </g>
            <g id="Grupo_64472" data-name="Grupo 64472" transform="translate(0 10.582)">
              <path id="Trazado_115061" data-name="Trazado 115061" d="M157.332,6828.411l-21.22.044a1.323,1.323,0,0,1-1.321-1.314l-.006-3.621a1.32,1.32,0,0,1,1.315-1.318l29.623-.062a1.322,1.322,0,0,1,1.32,1.313l.006,3.62a1.319,1.319,0,0,1-1.312,1.32l-8.4.018Z" transform="translate(-134.785 -6822.14)" fill="#94949b"/>
            </g>
            <g id="Grupo_64473" data-name="Grupo 64473" transform="translate(7.874)">
              <path id="Rectángulo_7543" data-name="Rectángulo 7543" d="M1.364,0H15.091a1.367,1.367,0,0,1,1.367,1.367V2.81a1.366,1.366,0,0,1-1.366,1.366H1.366A1.366,1.366,0,0,1,0,2.81V1.364A1.364,1.364,0,0,1,1.364,0Z" transform="matrix(1, -0.002, 0.002, 1, 0, 0.035)" fill="#94949b"/>
            </g>
          </g>
          <g id="Grupo_64475" data-name="Grupo 64475" transform="translate(95.344 8.695)">
            <path id="Trazado_115062" data-name="Trazado 115062" d="M159.622,6629.43a1.42,1.42,0,0,1-1.413,1.419l-14.866.031a1.419,1.419,0,0,1-1.418-1.412l0-1.662a1.42,1.42,0,0,1,1.413-1.418l14.865-.032a1.419,1.419,0,0,1,1.419,1.413Z" transform="translate(-141.921 -6626.357)" fill="#94949b"/>
          </g>
          <g id="Grupo_64476" data-name="Grupo 64476" transform="translate(106.98 32.974)">
            <path id="Trazado_115063" data-name="Trazado 115063" d="M153.988,6653.538c0-1.076.578-1.954,1.292-1.956l14.725-.046c.715,0,1.3.873,1.3,1.953v0c0,1.077-.578,1.953-1.292,1.957l-14.725.046c-.715,0-1.3-.873-1.3-1.954Z" transform="translate(-153.988 -6651.537)" fill="#575757"/>
          </g>
          <g id="Grupo_64477" data-name="Grupo 64477" transform="translate(117.578 18.227)">
            <path id="Trazado_115064" data-name="Trazado 115064" d="M185.025,6670.6l-19.3.059-.049-33.361,19.3-.058Z" transform="translate(-165.004 -6636.278)" fill="#575757"/>
            <path id="Trazado_115065" data-name="Trazado 115065" d="M165.03,6671.595l-.051-35.29,20.643-.063.052,35.291Zm1.3-33.364.046,31.431,17.952-.054-.047-31.432Z" transform="translate(-164.979 -6636.242)" fill="#575757"/>
          </g>
          <path id="Trazado_115066" data-name="Trazado 115066" d="M126.624,6617.34h4.385l-2.193,3.329,5.3-1.187-5.3,9.958,5.3-2.832-10.872,18.546L127.9,6632l-3.472,1.919,4.248-9.593-2.969,1.1Z" transform="translate(-45.91 -6617.34)" fill="#575757"/>
          <path id="Trazado_115067" data-name="Trazado 115067" d="M43.043,6645.535s82.633,1.943,100.814-8.621l6.165,1.86s9.366-1.042,10.1-10.8l6.3,11.53,10.69-2.68,37.642,14.07s108.154,45.8,269.7,52.138" transform="translate(-43.043 -6617.72)" fill="none" stroke="#575757" stroke-miterlimit="10" stroke-width="4"/>
          <circle id="Elipse_4262" data-name="Elipse 4262" cx="4.028" cy="4.028" r="4.028" transform="translate(438.264 81.719)" fill="#575757"/>
          <line id="Línea_184" data-name="Línea 184" y2="48.514" transform="translate(441.203 87.292)" fill="none" stroke="#575757" stroke-miterlimit="10" stroke-width="4"/>
          <g id="Grupo_64478" data-name="Grupo 64478" transform="translate(429.082 127.102)">
            <rect id="Rectángulo_7544" data-name="Rectángulo 7544" width="18.821" height="18.505" fill="#fff" stroke="#575757" stroke-miterlimit="10" stroke-width="1"/>
            <rect id="Rectángulo_7545" data-name="Rectángulo 7545" width="5.847" height="18.505" transform="translate(18.821)" fill="#fff" stroke="#575757" stroke-miterlimit="10" stroke-width="1"/>
            <path id="Trazado_115068" data-name="Trazado 115068" d="M498.882,6759.583a4.582,4.582,0,0,1-4.774,4.362c-1.53,0-2.809-1.954-2.809-4.362s.913-4.363,2.809-4.363A4.582,4.582,0,0,1,498.882,6759.583Z" transform="translate(-488.147 -6749.37)" fill="#fff" stroke="#575757" stroke-miterlimit="10" stroke-width="1"/>
            <ellipse id="Elipse_4263" data-name="Elipse 4263" cx="2.604" cy="4.363" rx="2.604" ry="4.363" transform="translate(3.152 5.851)" fill="#fff" stroke="#575757" stroke-miterlimit="10" stroke-width="1"/>
          </g>
        </g>
        <rect id="Rectángulo_7546" data-name="Rectángulo 7546" width="2.101" height="33.961" transform="translate(85.059 257.645)" fill="#575757"/>
        <path id="Trazado_115069" data-name="Trazado 115069" d="M132.118,6813.523h2.572s1.863,0,2.082-3.35,0-168.535,0-168.535" transform="translate(-45.445 -6551.669)" fill="none" stroke="#575757" stroke-miterlimit="10" stroke-width="2"/>
        <path id="Trazado_115070" data-name="Trazado 115070" d="M126.895,6827.979s-17.785,58.412-84.663,72.665" transform="translate(-42.232 -6558.33)" fill="none" stroke="#575757" stroke-miterlimit="10" stroke-width="2"/>
        <path id="Trazado_115071" data-name="Trazado 115071" d="M446.325,6955.669s-219.18,10.627-314.791-126.98" transform="translate(-45.424 -6558.355)" fill="none" stroke="#575757" stroke-miterlimit="10" stroke-width="2"/>
        <path id="Trazado_115072" data-name="Trazado 115072" d="M503.868,6767.7a9.857,9.857,0,0,0,7.948,10.69" transform="translate(-58.731 -6556.175)" fill="none" stroke="#575757" stroke-miterlimit="10" stroke-width="2"/>
        <path id="Trazado_115073" data-name="Trazado 115073" d="M506.428,6790.474s4.706-4.964,9.777.11,4.339,12.521,4.339,12.521l-.229,37.946" transform="translate(-58.824 -6556.912)" fill="none" stroke="#575757" stroke-miterlimit="10" stroke-width="2"/>
        <line id="Línea_185" data-name="Línea 185" y1="64.502" transform="translate(392.314 273.974)" fill="none" stroke="#575757" stroke-miterlimit="10" stroke-width="2"/>
        <line id="Línea_186" data-name="Línea 186" y2="40.078" transform="translate(392.314 356.505)" fill="none" stroke="#575757" stroke-miterlimit="10" stroke-width="2"/>
        <line id="Línea_187" data-name="Línea 187" x1="27.697" y2="16.522" transform="translate(456.711 211.527)" fill="none" stroke="#575757" stroke-miterlimit="10" stroke-width="2"/>
        <g id="Grupo_64480" data-name="Grupo 64480" transform="translate(28.149 36.036)">
          <path id="Trazado_115074" data-name="Trazado 115074" d="M80.712,6597.139h-5.89v7.214h-3.4v-17.361H81.749v2.707H74.822v4.734h5.89Z" transform="translate(-71.424 -6585.752)" fill="#575757"/>
          <path id="Trazado_115075" data-name="Trazado 115075" d="M87.311,6604.307H83.925v-18.6h3.386Z" transform="translate(-71.871 -6585.707)" fill="#575757"/>
          <path id="Trazado_115076" data-name="Trazado 115076" d="M96.153,6604.509a5.943,5.943,0,0,1-.256-.7,5.624,5.624,0,0,1-.173-.774,4.042,4.042,0,0,1-1.163,1.257,2.745,2.745,0,0,1-1.592.472,3.3,3.3,0,0,1-2.557-1.049,3.989,3.989,0,0,1-.959-2.8,3.67,3.67,0,0,1,1.222-2.945,5.442,5.442,0,0,1,3.63-1.05H95.58v-1.049a2.591,2.591,0,0,0-.339-1.448,1.147,1.147,0,0,0-1.019-.507.982.982,0,0,0-.859.406,2.037,2.037,0,0,0-.285,1.181l-3.279-.011-.036-.073a3.538,3.538,0,0,1,1.246-2.861,4.927,4.927,0,0,1,3.44-1.181,4.6,4.6,0,0,1,3.274,1.175,4.352,4.352,0,0,1,1.258,3.344v5.223a11.37,11.37,0,0,0,.13,1.776,9.776,9.776,0,0,0,.4,1.622Zm-2.206-2.3a1.74,1.74,0,0,0,.948-.273,2.031,2.031,0,0,0,.686-.7v-2.373H94.3a1.232,1.232,0,0,0-1.12.536,2.466,2.466,0,0,0-.345,1.359,1.727,1.727,0,0,0,.3,1.05A.95.95,0,0,0,93.946,6602.207Z" transform="translate(-72.068 -6585.909)" fill="#575757"/>
          <path id="Trazado_115077" data-name="Trazado 115077" d="M104.729,6591.608l.131,1.645a3.845,3.845,0,0,1,1.288-1.395,3.257,3.257,0,0,1,1.776-.49,2.86,2.86,0,0,1,1.7.519,3.2,3.2,0,0,1,1.11,1.58,4.028,4.028,0,0,1,1.287-1.551,3.131,3.131,0,0,1,1.836-.548,2.92,2.92,0,0,1,2.522,1.318,7.055,7.055,0,0,1,.924,4.024v7.8h-3.4V6596.7a4.56,4.56,0,0,0-.322-2.059,1.073,1.073,0,0,0-1-.567,1.4,1.4,0,0,0-.871.287,2.174,2.174,0,0,0-.632.788c.008.15.016.3.024.447s.012.3.012.459v8.452h-3.374V6596.7a4.5,4.5,0,0,0-.329-2.054,1.093,1.093,0,0,0-1.018-.572,1.5,1.5,0,0,0-.829.232,2.055,2.055,0,0,0-.626.65v9.55H101.57v-12.9Z" transform="translate(-72.502 -6585.909)" fill="#575757"/>
          <path id="Trazado_115078" data-name="Trazado 115078" d="M125.2,6604.76a4.931,4.931,0,0,1-3.864-1.6,5.819,5.819,0,0,1-1.43-4.031v-1.812a6.663,6.663,0,0,1,1.329-4.281,4.443,4.443,0,0,1,3.679-1.669,4.275,4.275,0,0,1,3.505,1.515,6.325,6.325,0,0,1,1.24,4.126v2.074h-6.379v.047a3.568,3.568,0,0,0,.579,2.1,1.992,1.992,0,0,0,1.746.823,4.646,4.646,0,0,0,1.55-.215,8.023,8.023,0,0,0,1.419-.715l.859,2.159a5.134,5.134,0,0,1-1.783,1.061A6.96,6.96,0,0,1,125.2,6604.76Zm-.286-10.683a1.258,1.258,0,0,0-1.192.741,4.79,4.79,0,0,0-.429,2h3.04v-.479a3.434,3.434,0,0,0-.335-1.67A1.149,1.149,0,0,0,124.915,6594.077Z" transform="translate(-73.157 -6585.909)" fill="#575757"/>
          <path id="Trazado_115079" data-name="Trazado 115079" d="M131.37,6597.271a6.409,6.409,0,0,1,1.378-4.25,5.336,5.336,0,0,1,7.72,0,6.4,6.4,0,0,1,1.383,4.25v1.6a6.361,6.361,0,0,1-1.383,4.256,5.375,5.375,0,0,1-7.72,0,6.374,6.374,0,0,1-1.378-4.256Zm3.375,1.593a5.374,5.374,0,0,0,.417,2.34,1.486,1.486,0,0,0,1.455.849,1.468,1.468,0,0,0,1.425-.854,5.334,5.334,0,0,0,.422-2.334v-1.6a5.349,5.349,0,0,0-.422-2.323,1.624,1.624,0,0,0-2.874.005,5.363,5.363,0,0,0-.422,2.317Z" transform="translate(-73.567 -6585.909)" fill="#575757"/>
        </g>
        <g id="Grupo_64482" data-name="Grupo 64482" transform="translate(9.285 211.26)">
          <g id="Grupo_64481" data-name="Grupo 64481">
            <path id="Trazado_115080" data-name="Trazado 115080" d="M55.546,6776.463v5.066h-2.76v-14.1h4.9a4.523,4.523,0,1,1,0,9.037Zm0-2.2h2.141a1.553,1.553,0,0,0,1.346-.648,2.772,2.772,0,0,0,.466-1.651,2.871,2.871,0,0,0-.461-1.675,1.536,1.536,0,0,0-1.351-.664H55.546Z" transform="translate(-51.894 -6767.426)" fill="#575757"/>
            <path id="Trazado_115081" data-name="Trazado 115081" d="M69.553,6780.453a3.105,3.105,0,0,1-1.033,1.051,2.611,2.611,0,0,1-1.37.363,2.582,2.582,0,0,1-2.194-1.061,5.523,5.523,0,0,1-.79-3.289v-6.335h2.751v6.362a3.611,3.611,0,0,0,.271,1.619.865.865,0,0,0,.8.5,1.791,1.791,0,0,0,.8-.168,1.612,1.612,0,0,0,.585-.5v-7.816h2.761v10.481H69.717Z" transform="translate(-52.301 -6767.561)" fill="#575757"/>
            <path id="Trazado_115082" data-name="Trazado 115082" d="M78.3,6781.86a4,4,0,0,1-3.139-1.3A4.723,4.723,0,0,1,74,6777.288v-1.473a5.408,5.408,0,0,1,1.08-3.477,3.606,3.606,0,0,1,2.987-1.357,3.475,3.475,0,0,1,2.848,1.231,5.136,5.136,0,0,1,1.007,3.351v1.686H76.742v.039a2.894,2.894,0,0,0,.471,1.7,1.617,1.617,0,0,0,1.418.668,3.8,3.8,0,0,0,1.259-.173,6.7,6.7,0,0,0,1.152-.581l.7,1.753a4.168,4.168,0,0,1-1.448.862A5.648,5.648,0,0,1,78.3,6781.86Zm-.233-8.679a1.024,1.024,0,0,0-.969.6,3.935,3.935,0,0,0-.348,1.624h2.47v-.388a2.783,2.783,0,0,0-.272-1.356A.934.934,0,0,0,78.069,6773.181Z" transform="translate(-52.652 -6767.553)" fill="#575757"/>
            <path id="Trazado_115083" data-name="Trazado 115083" d="M88.2,6778.915a1.019,1.019,0,0,0-.348-.771,5.879,5.879,0,0,0-1.337-.8,7.07,7.07,0,0,1-2.368-1.337,2.542,2.542,0,0,1-.789-1.937,2.831,2.831,0,0,1,1.012-2.185,3.866,3.866,0,0,1,2.678-.906,4.014,4.014,0,0,1,2.78.931,2.934,2.934,0,0,1,1,2.373l-.029.059H88.14a1.806,1.806,0,0,0-.271-1.046.952.952,0,0,0-.834-.388,1.046,1.046,0,0,0-.755.3,1.034,1.034,0,0,0,0,1.478,6.254,6.254,0,0,0,1.346.78,6.523,6.523,0,0,1,2.441,1.332,2.864,2.864,0,0,1-.272,4.208,4.349,4.349,0,0,1-2.8.853,3.876,3.876,0,0,1-2.867-1.056,3.12,3.12,0,0,1-1.008-2.384l.019-.057H85.66a1.7,1.7,0,0,0,.388,1.2,1.37,1.37,0,0,0,1.017.369,1.191,1.191,0,0,0,.843-.272A.97.97,0,0,0,88.2,6778.915Z" transform="translate(-52.978 -6767.553)" fill="#575757"/>
            <path id="Trazado_115084" data-name="Trazado 115084" d="M95.822,6768.48v2.606h1.453v2H95.822v5.26a1.7,1.7,0,0,0,.185.915.573.573,0,0,0,.5.276,3.263,3.263,0,0,0,.427-.024,3.2,3.2,0,0,0,.388-.082l.213,2.093a5.427,5.427,0,0,1-.834.193,6.27,6.27,0,0,1-.9.059,2.532,2.532,0,0,1-2.03-.818,3.949,3.949,0,0,1-.7-2.6v-5.27h-1.24v-2h1.24v-2.606Z" transform="translate(-53.29 -6767.463)" fill="#575757"/>
            <path id="Trazado_115085" data-name="Trazado 115085" d="M104.176,6781.656a4.612,4.612,0,0,1-.208-.572,4.528,4.528,0,0,1-.141-.629,3.269,3.269,0,0,1-.944,1.022,2.225,2.225,0,0,1-1.293.383,2.682,2.682,0,0,1-2.078-.853,3.243,3.243,0,0,1-.78-2.276,2.982,2.982,0,0,1,.993-2.392,4.418,4.418,0,0,1,2.95-.853h1.037v-.853a2.1,2.1,0,0,0-.277-1.176.929.929,0,0,0-.827-.412.8.8,0,0,0-.7.33,1.658,1.658,0,0,0-.232.958l-2.663-.01-.029-.058A2.872,2.872,0,0,1,100,6771.94a4.006,4.006,0,0,1,2.793-.959,3.735,3.735,0,0,1,2.659.956,3.532,3.532,0,0,1,1.021,2.716v4.241a9.247,9.247,0,0,0,.107,1.444,7.816,7.816,0,0,0,.33,1.318Zm-1.793-1.87a1.418,1.418,0,0,0,.77-.223,1.666,1.666,0,0,0,.557-.572v-1.928h-1.037a1,1,0,0,0-.91.436,2,2,0,0,0-.281,1.1,1.4,1.4,0,0,0,.242.852A.772.772,0,0,0,102.384,6779.787Z" transform="translate(-53.536 -6767.553)" fill="#575757"/>
            <path id="Trazado_115086" data-name="Trazado 115086" d="M118.169,6781.656a4.61,4.61,0,0,1-.208-.572,4.669,4.669,0,0,1-.141-.629,3.269,3.269,0,0,1-.944,1.022,2.225,2.225,0,0,1-1.293.383,2.682,2.682,0,0,1-2.078-.853,3.243,3.243,0,0,1-.78-2.276,2.98,2.98,0,0,1,.994-2.392,4.415,4.415,0,0,1,2.949-.853H117.7v-.853a2.1,2.1,0,0,0-.277-1.176.928.928,0,0,0-.827-.412.8.8,0,0,0-.7.33,1.658,1.658,0,0,0-.232.958l-2.663-.01-.029-.058a2.872,2.872,0,0,1,1.012-2.325,4.006,4.006,0,0,1,2.793-.959,3.735,3.735,0,0,1,2.659.956,3.533,3.533,0,0,1,1.022,2.716v4.241a9.253,9.253,0,0,0,.106,1.444,7.817,7.817,0,0,0,.33,1.318Zm-1.793-1.87a1.418,1.418,0,0,0,.77-.223,1.666,1.666,0,0,0,.557-.572v-1.928h-1.037a1,1,0,0,0-.91.436,2,2,0,0,0-.281,1.1,1.4,1.4,0,0,0,.242.852A.772.772,0,0,0,116.377,6779.787Z" transform="translate(-54.036 -6767.553)" fill="#575757"/>
            <path id="Trazado_115087" data-name="Trazado 115087" d="M55.852,6793.168v2.605h1.453v2H55.852v5.26a1.712,1.712,0,0,0,.184.916.576.576,0,0,0,.5.275,3.077,3.077,0,0,0,.426-.025,3.025,3.025,0,0,0,.388-.082l.213,2.092a5.572,5.572,0,0,1-.833.194,6.3,6.3,0,0,1-.9.058,2.524,2.524,0,0,1-2.029-.819,3.939,3.939,0,0,1-.7-2.6v-5.27h-1.24v-2H53.1v-2.605Z" transform="translate(-51.861 -6768.346)" fill="#575757"/>
            <path id="Trazado_115088" data-name="Trazado 115088" d="M62,6793.17h-2.75v-2.1H62Zm0,13.009h-2.75V6795.7H62Z" transform="translate(-52.125 -6768.271)" fill="#575757"/>
            <path id="Trazado_115089" data-name="Trazado 115089" d="M68.156,6806.547a4,4,0,0,1-3.139-1.3,4.726,4.726,0,0,1-1.162-3.274V6800.5a5.411,5.411,0,0,1,1.08-3.478,3.61,3.61,0,0,1,2.988-1.356,3.475,3.475,0,0,1,2.847,1.23,5.14,5.14,0,0,1,1.008,3.352v1.686H66.6v.039a2.889,2.889,0,0,0,.47,1.7,1.62,1.62,0,0,0,1.419.669,3.791,3.791,0,0,0,1.259-.175,6.612,6.612,0,0,0,1.152-.58l.7,1.753a4.191,4.191,0,0,1-1.448.862A5.653,5.653,0,0,1,68.156,6806.547Zm-.232-8.679a1.024,1.024,0,0,0-.969.6,3.909,3.909,0,0,0-.348,1.625h2.469v-.389a2.8,2.8,0,0,0-.271-1.356A.935.935,0,0,0,67.923,6797.868Z" transform="translate(-52.29 -6768.435)" fill="#575757"/>
            <path id="Trazado_115090" data-name="Trazado 115090" d="M78.458,6798.372l-1.037-.03a1.168,1.168,0,0,0-.721.214,1.337,1.337,0,0,0-.441.6v7.188H73.508v-10.48h2.568l.106,1.405.049.019a2.863,2.863,0,0,1,.7-1.187,1.47,1.47,0,0,1,1.051-.431,2.5,2.5,0,0,1,.391.034,2.842,2.842,0,0,1,.364.083Z" transform="translate(-52.635 -6768.435)" fill="#575757"/>
            <path id="Trazado_115091" data-name="Trazado 115091" d="M85.039,6798.372l-1.037-.03a1.168,1.168,0,0,0-.721.214,1.344,1.344,0,0,0-.441.6v7.188H80.089v-10.48h2.567l.106,1.405.049.019a2.863,2.863,0,0,1,.7-1.187,1.47,1.47,0,0,1,1.051-.431,2.5,2.5,0,0,1,.391.034,2.842,2.842,0,0,1,.364.083Z" transform="translate(-52.87 -6768.435)" fill="#575757"/>
            <path id="Trazado_115092" data-name="Trazado 115092" d="M91.76,6806.343a4.641,4.641,0,0,1-.208-.572,4.5,4.5,0,0,1-.141-.629,3.272,3.272,0,0,1-.944,1.023,2.232,2.232,0,0,1-1.293.382,2.681,2.681,0,0,1-2.078-.853,3.242,3.242,0,0,1-.78-2.275,2.985,2.985,0,0,1,.993-2.394,4.426,4.426,0,0,1,2.95-.852H91.3v-.853a2.106,2.106,0,0,0-.277-1.177.93.93,0,0,0-.827-.413.8.8,0,0,0-.7.33,1.664,1.664,0,0,0-.232.959l-2.663-.009-.029-.058a2.87,2.87,0,0,1,1.012-2.324,4.006,4.006,0,0,1,2.793-.959,3.739,3.739,0,0,1,2.659.955,3.533,3.533,0,0,1,1.021,2.716v4.243a9.258,9.258,0,0,0,.107,1.444,7.783,7.783,0,0,0,.33,1.317Zm-1.793-1.869a1.41,1.41,0,0,0,.77-.224,1.65,1.65,0,0,0,.557-.572v-1.928H90.259a1,1,0,0,0-.91.437,1.993,1.993,0,0,0-.281,1.1,1.4,1.4,0,0,0,.242.853A.774.774,0,0,0,89.968,6804.475Z" transform="translate(-53.093 -6768.435)" fill="#575757"/>
          </g>
        </g>
        <g id="Grupo_64483" data-name="Grupo 64483" transform="translate(459.261 174.908)">
          <path id="Trazado_115093" data-name="Trazado 115093" d="M525.219,6737.453l.022.044a3.533,3.533,0,0,1-.805,2.555,3.176,3.176,0,0,1-2.415.863,3.4,3.4,0,0,1-2.549-.979,3.8,3.8,0,0,1-.955-2.772v-3.073a3.9,3.9,0,0,1,.922-2.771,3.219,3.219,0,0,1,2.469-.985,3.273,3.273,0,0,1,2.475.875,3.719,3.719,0,0,1,.865,2.593l-.021.042h-1.935a2.384,2.384,0,0,0-.276-1.46,1.264,1.264,0,0,0-1.108-.446,1.181,1.181,0,0,0-1.039.53,2.886,2.886,0,0,0-.36,1.6v3.089a2.758,2.758,0,0,0,.385,1.619,1.3,1.3,0,0,0,1.126.529,1.137,1.137,0,0,0,1.013-.419,2.523,2.523,0,0,0,.252-1.438Z" transform="translate(-518.517 -6729.748)" fill="#575757"/>
          <path id="Trazado_115094" data-name="Trazado 115094" d="M526.369,6736.578a3.8,3.8,0,0,1,.816-2.518,3.161,3.161,0,0,1,4.573,0,3.791,3.791,0,0,1,.819,2.518v.945a3.776,3.776,0,0,1-.819,2.523,3.185,3.185,0,0,1-4.573,0,3.78,3.78,0,0,1-.816-2.523Zm2,.942a3.193,3.193,0,0,0,.247,1.387.88.88,0,0,0,.861.5.866.866,0,0,0,.844-.5,3.15,3.15,0,0,0,.252-1.384v-.947a3.155,3.155,0,0,0-.252-1.376.961.961,0,0,0-1.7,0,3.159,3.159,0,0,0-.251,1.373Z" transform="translate(-518.798 -6729.847)" fill="#575757"/>
          <path id="Trazado_115095" data-name="Trazado 115095" d="M535.74,6733.222l.085,1.052a2.545,2.545,0,0,1,.781-.878,1.866,1.866,0,0,1,2.521.42,3.883,3.883,0,0,1,.548,2.309v4.739H537.66v-4.744a2.058,2.058,0,0,0-.222-1.114.78.78,0,0,0-.689-.321.916.916,0,0,0-.494.141,1.2,1.2,0,0,0-.382.39v5.648h-2.006v-7.642Z" transform="translate(-519.066 -6729.847)" fill="#575757"/>
          <path id="Trazado_115096" data-name="Trazado 115096" d="M540.915,6736.966a5.571,5.571,0,0,1,.663-2.9,2.077,2.077,0,0,1,1.873-1.1,1.553,1.553,0,0,1,.8.211,2.106,2.106,0,0,1,.643.608v-4.055H546.9v11.018h-1.745l-.134-.833a2.25,2.25,0,0,1-.687.731,1.621,1.621,0,0,1-.894.251,2.1,2.1,0,0,1-1.869-1.036,5.047,5.047,0,0,1-.66-2.743Zm2.006.149a4.34,4.34,0,0,0,.236,1.6.82.82,0,0,0,.8.573,1,1,0,0,0,.543-.145,1.2,1.2,0,0,0,.4-.421v-3.486a1.417,1.417,0,0,0-.4-.495.838.838,0,0,0-1.334.481,5.034,5.034,0,0,0-.248,1.743Z" transform="translate(-519.318 -6729.726)" fill="#575757"/>
          <path id="Trazado_115097" data-name="Trazado 115097" d="M552.357,6739.985a2.248,2.248,0,0,1-.753.767,1.9,1.9,0,0,1-1,.266,1.879,1.879,0,0,1-1.6-.774,4.027,4.027,0,0,1-.576-2.4v-4.619h2.006v4.639a2.63,2.63,0,0,0,.2,1.181.63.63,0,0,0,.586.366,1.313,1.313,0,0,0,.582-.123,1.166,1.166,0,0,0,.427-.364v-5.7h2.013v7.642h-1.766Z" transform="translate(-519.586 -6729.851)" fill="#575757"/>
          <path id="Trazado_115098" data-name="Trazado 115098" d="M558.547,6739.409a.7.7,0,0,0,.618-.3,1.539,1.539,0,0,0,.208-.875H561.2l.021.043a2.585,2.585,0,0,1-2.67,2.741,2.778,2.778,0,0,1-2.278-.968,3.816,3.816,0,0,1-.795-2.5v-.983a3.849,3.849,0,0,1,.792-2.5,2.743,2.743,0,0,1,2.267-.979,2.547,2.547,0,0,1,1.974.8,3,3,0,0,1,.71,2.154l-.014.037h-1.829a2.084,2.084,0,0,0-.208-1,.676.676,0,0,0-.632-.38.826.826,0,0,0-.826.508,3.413,3.413,0,0,0-.227,1.366v.983a3.364,3.364,0,0,0,.227,1.372A.838.838,0,0,0,558.547,6739.409Z" transform="translate(-519.838 -6729.847)" fill="#575757"/>
          <path id="Trazado_115099" data-name="Trazado 115099" d="M564.8,6731.258v1.9h1.059v1.455H564.8v3.835a1.235,1.235,0,0,0,.135.667.414.414,0,0,0,.366.2,2.447,2.447,0,0,0,.311-.017,2.419,2.419,0,0,0,.283-.061l.154,1.525a4.2,4.2,0,0,1-.607.142,4.645,4.645,0,0,1-.658.043,1.843,1.843,0,0,1-1.479-.6,2.88,2.88,0,0,1-.512-1.9v-3.843h-.9v-1.455h.9v-1.9Z" transform="translate(-520.067 -6729.781)" fill="#575757"/>
          <path id="Trazado_115100" data-name="Trazado 115100" d="M566.784,6736.578a3.8,3.8,0,0,1,.816-2.518,3.161,3.161,0,0,1,4.573,0,3.792,3.792,0,0,1,.819,2.518v.945a3.776,3.776,0,0,1-.819,2.523,3.185,3.185,0,0,1-4.573,0,3.78,3.78,0,0,1-.816-2.523Zm2,.942a3.194,3.194,0,0,0,.247,1.387.88.88,0,0,0,.862.5.868.868,0,0,0,.844-.5,3.166,3.166,0,0,0,.251-1.384v-.947a3.17,3.17,0,0,0-.251-1.376.962.962,0,0,0-1.7,0,3.159,3.159,0,0,0-.251,1.373Z" transform="translate(-520.242 -6729.847)" fill="#575757"/>
          <path id="Trazado_115101" data-name="Trazado 115101" d="M577.929,6735.052l-.755-.022a.853.853,0,0,0-.526.156.978.978,0,0,0-.321.438v5.24h-2.006v-7.642h1.872l.077,1.024.037.016a2.07,2.07,0,0,1,.511-.866,1.07,1.07,0,0,1,.767-.314,1.9,1.9,0,0,1,.286.024,1.99,1.99,0,0,1,.264.061Z" transform="translate(-520.512 -6729.847)" fill="#575757"/>
          <path id="Trazado_115102" data-name="Trazado 115102" d="M522.257,6753.052l-.755-.022a.853.853,0,0,0-.526.156.986.986,0,0,0-.321.438v5.24h-2.006v-7.642h1.872l.078,1.024.036.015a2.07,2.07,0,0,1,.511-.866,1.07,1.07,0,0,1,.767-.314,1.9,1.9,0,0,1,.286.024,1.986,1.986,0,0,1,.264.061Z" transform="translate(-518.522 -6730.489)" fill="#575757"/>
          <path id="Trazado_115103" data-name="Trazado 115103" d="M523.05,6754.578a3.8,3.8,0,0,1,.816-2.518,3.16,3.16,0,0,1,4.573,0,3.785,3.785,0,0,1,.82,2.518v.945a3.771,3.771,0,0,1-.82,2.522,3.184,3.184,0,0,1-4.573,0,3.785,3.785,0,0,1-.816-2.522Zm2,.942a3.2,3.2,0,0,0,.247,1.388.878.878,0,0,0,.861.5.868.868,0,0,0,.844-.505,3.146,3.146,0,0,0,.252-1.384v-.947A3.155,3.155,0,0,0,527,6753.2a.962.962,0,0,0-1.7,0,3.175,3.175,0,0,0-.25,1.373Z" transform="translate(-518.679 -6730.489)" fill="#575757"/>
          <path id="Trazado_115104" data-name="Trazado 115104" d="M532.955,6749.258v1.9h1.06v1.455h-1.06v3.835a1.234,1.234,0,0,0,.135.667.416.416,0,0,0,.367.2,1.923,1.923,0,0,0,.593-.078l.154,1.525a4.2,4.2,0,0,1-.607.142,4.637,4.637,0,0,1-.657.043,1.846,1.846,0,0,1-1.48-.6,2.88,2.88,0,0,1-.512-1.9v-3.843h-.9v-1.455h.9v-1.9Z" transform="translate(-518.929 -6730.424)" fill="#575757"/>
          <path id="Trazado_115105" data-name="Trazado 115105" d="M534.938,6754.578a3.793,3.793,0,0,1,.816-2.518,3.16,3.16,0,0,1,4.573,0,3.79,3.79,0,0,1,.82,2.518v.945a3.776,3.776,0,0,1-.82,2.522,3.184,3.184,0,0,1-4.573,0,3.779,3.779,0,0,1-.816-2.522Zm2,.942a3.2,3.2,0,0,0,.247,1.388.881.881,0,0,0,.862.5.868.868,0,0,0,.844-.505,3.146,3.146,0,0,0,.252-1.384v-.947a3.155,3.155,0,0,0-.252-1.376.962.962,0,0,0-1.7,0,3.159,3.159,0,0,0-.251,1.373Z" transform="translate(-519.104 -6730.489)" fill="#575757"/>
        </g>
        <g id="Grupo_64484" data-name="Grupo 64484" transform="translate(348.334 339.261)">
          <path id="Trazado_115106" data-name="Trazado 115106" d="M413.764,6913.233a5.421,5.421,0,0,1-1.833,1.714,5.89,5.89,0,0,1-3.1.741,4.992,4.992,0,0,1-5.355-5.459v-4.6a5.487,5.487,0,0,1,1.414-4.03,5.035,5.035,0,0,1,3.745-1.429,5.179,5.179,0,0,1,3.76,1.226,4.862,4.862,0,0,1,1.306,3.513l-.021.062h-2.765a2.824,2.824,0,0,0-.564-1.862,2.1,2.1,0,0,0-1.632-.587,2.048,2.048,0,0,0-1.688.762,3.664,3.664,0,0,0-.611,2.318v4.625a3.7,3.7,0,0,0,.617,2.348,2.175,2.175,0,0,0,1.8.762,2.723,2.723,0,0,0,1.3-.238,1.846,1.846,0,0,0,.688-.7v-2.7h-1.988v-2.072h4.93Z" transform="translate(-403.478 -6900.171)" fill="#fff"/>
          <path id="Trazado_115107" data-name="Trazado 115107" d="M419.407,6910.061v5.417h-2.952V6900.4H421.7a4.837,4.837,0,1,1,0,9.665Zm0-2.352H421.7a1.658,1.658,0,0,0,1.44-.7,2.959,2.959,0,0,0,.5-1.764,3.07,3.07,0,0,0-.493-1.792,1.644,1.644,0,0,0-1.444-.71h-2.289Z" transform="translate(-403.942 -6900.179)" fill="#fff"/>
          <path id="Trazado_115108" data-name="Trazado 115108" d="M431.847,6909.48v6H428.9v-15.071h4.92a4.934,4.934,0,0,1,3.5,1.176,4.23,4.23,0,0,1,1.27,3.267,3.8,3.8,0,0,1-.528,2.036,3.706,3.706,0,0,1-1.544,1.362,2.889,2.889,0,0,1,1.673,1.3,4.592,4.592,0,0,1,.513,2.279v1.066a6.677,6.677,0,0,0,.145,1.331,1.825,1.825,0,0,0,.508,1.031v.218h-3.045a1.7,1.7,0,0,1-.456-1.077,12.359,12.359,0,0,1-.094-1.523v-1.026a2.9,2.9,0,0,0-.46-1.75,1.549,1.549,0,0,0-1.321-.622Zm0-2.351h1.968a1.693,1.693,0,0,0,1.367-.55,2.346,2.346,0,0,0,.466-1.564,2.656,2.656,0,0,0-.466-1.647,1.6,1.6,0,0,0-1.358-.61h-1.978Z" transform="translate(-404.387 -6900.179)" fill="#fff"/>
        </g>
      </g>
      <g id="Grupo_64495" data-name="Grupo 64495" transform="translate(396.029 162.518)">
        <g id="Grupo_64491" data-name="Grupo 64491" transform="translate(5.696)">
          <g id="Grupo_64489" data-name="Grupo 64489" transform="translate(0.016 2.051)">
            <g id="Grupo_64488" data-name="Grupo 64488">
              <g id="Grupo_64487" data-name="Grupo 64487">
                <g id="Grupo_64486" data-name="Grupo 64486">
                  <path id="Trazado_115109" data-name="Trazado 115109" d="M470.828,6722.895a3.554,3.554,0,0,0-1.75-2.443c-1.167-.811-5.725-1.618-7.936.256s-1.338,5.34-.978,6.526a29.409,29.409,0,0,1,1.4,4.873,8.152,8.152,0,0,1-.934,3.207l0,0a5.889,5.889,0,0,0,3.907,1.654,5.973,5.973,0,0,0,2.02-.139,1.326,1.326,0,0,1-.209-.364,5.18,5.18,0,0,1,.33-2.959,2,2,0,0,1,2.151-.442c1.145.233.887-1.243,1.606-1.484.47-.157.166-.4.046-.64.079-.163.438-.249.513-.392.183-.349-.221-.48-.165-.66.143-.453,1.43-.472,1.311-.959-.2-.844-1.683-2.486-1.475-3.038A4.517,4.517,0,0,0,470.828,6722.895Z" transform="translate(-458.894 -6719.024)" fill="#ffb680"/>
                  <path id="Trazado_115110" data-name="Trazado 115110" d="M470.707,6722.549s-1.53-.589-3.607.988c-1.33,1.008-1.375,2.193-3.147,2.687-1.526.423-1.252,1.51-1.252,1.51l-1.312,3.7s-2.307-1.955-2.5-6.3c-.19-4.179,1.068-4.683,1.068-4.683s2.252-1.747,6.749-1.4a10.6,10.6,0,0,1,4.013,1.017A6.316,6.316,0,0,0,470.707,6722.549Z" transform="translate(-458.865 -6719.004)" fill="#3c3c3c"/>
                  <path id="Trazado_115111" data-name="Trazado 115111" d="M464.438,6726.582s-.049-1.376-1.352-1.214-1.456,2.008-.032,3.1S464.438,6726.582,464.438,6726.582Z" transform="translate(-458.978 -6719.231)" fill="#ffb680"/>
                </g>
              </g>
            </g>
          </g>
          <g id="Grupo_64490" data-name="Grupo 64490">
            <path id="Trazado_115112" data-name="Trazado 115112" d="M471.9,6722.273h0l-3.823-.4a3.617,3.617,0,0,1,2.205-2.667,5.716,5.716,0,0,0-3.975-2.24c-6.44-.9-7.461,5.2-7.461,5.2l17.552,2.048.224-1.118Z" transform="translate(-458.848 -6716.877)" fill="#1cbfbf"/>
            <path id="Trazado_115113" data-name="Trazado 115113" d="M468.421,6721.961l3.823.4h0l-.428-.075a6.409,6.409,0,0,0-1.19-2.99A3.617,3.617,0,0,0,468.421,6721.961Z" transform="translate(-459.19 -6716.964)" fill="#a9ffff"/>
          </g>
        </g>
        <path id="Trazado_115114" data-name="Trazado 115114" d="M468.229,6741.954l7.111,10.54s3.685,0,5.459-.216c1.876-.231,5.295-.64,6.69-1.651,1.222-.887,2.5-2.485,4.6-2.44,1.393.031.929,2.44-.586,3.953-2.3,2.3-2.952,1.92-6.544,3.116s-6.734,2.71-9.521,2.957c-1.944.172-8.372-6.073-8.372-6.073Z" transform="translate(-453.446 -6717.773)" fill="#ed8a40"/>
        <g id="Grupo_64492" data-name="Grupo 64492" transform="translate(1.931 103.172)">
          <path id="Trazado_115115" data-name="Trazado 115115" d="M465.421,6829.571a3.64,3.64,0,0,1,1.415-.645,5.906,5.906,0,0,0-1.536-1.753c-1.293-.93-3.986-2.678-3.986-2.678l-6.369-.623s.147,1.636.167,2.719a18.433,18.433,0,0,0,4.832,2.979C462.459,6830.405,464.145,6830.444,465.421,6829.571Z" transform="translate(-454.944 -6823.873)" fill="#ff364a"/>
          <path id="Trazado_115116" data-name="Trazado 115116" d="M486.488,6829.014a3.891,3.891,0,0,1,1.283-.622,5.907,5.907,0,0,0-1.584-1.841c-1.292-.929-3.985-2.678-3.985-2.678l-5.79.436-.579.043a14.341,14.341,0,0,1,.16,1.532,19.057,19.057,0,0,0,5.017,3.129C483.527,6829.847,485.211,6829.885,486.488,6829.014Z" transform="translate(-455.691 -6823.873)" fill="#ff364a"/>
          <path id="Trazado_115117" data-name="Trazado 115117" d="M455.113,6827.243c-.045.939,1.671,2.091,4.083,3.19s6.361,1.269,7.612.708c.71-.317.545-1.222.034-2.114a3.64,3.64,0,0,0-1.415.645c-1.276.873-2.961.834-5.478,0a18.433,18.433,0,0,1-4.832-2.979C455.121,6826.9,455.121,6827.091,455.113,6827.243Z" transform="translate(-454.95 -6823.974)" fill="#e21a37"/>
          <path id="Trazado_115118" data-name="Trazado 115118" d="M476,6826.6c-.046.938,1.671,2.09,4.083,3.189s6.361,1.269,7.611.709c.687-.308.553-1.164.082-2.027a3.891,3.891,0,0,0-1.283.622c-1.277.872-2.961.833-5.478,0a19.057,19.057,0,0,1-5.017-3.129C476.009,6826.174,476.012,6826.392,476,6826.6Z" transform="translate(-455.697 -6823.948)" fill="#e21a37"/>
        </g>
        <path id="Trazado_115119" data-name="Trazado 115119" d="M457.881,6824.425a28.518,28.518,0,0,0,4.026,3.208c1.76,1.127,3.23.772,1.759-.654s-2.892-2.527-2.892-2.527Z" transform="translate(-453.117 -6720.721)" fill="#fff"/>
        <path id="Trazado_115120" data-name="Trazado 115120" d="M479.236,6824.425a28.517,28.517,0,0,0,4.026,3.208c1.76,1.127,3.23.772,1.759-.654s-2.892-2.527-2.892-2.527Z" transform="translate(-453.881 -6720.721)" fill="#fff"/>
        <g id="Grupo_64493" data-name="Grupo 64493" transform="translate(0.889 18.341)">
          <path id="Trazado_115121" data-name="Trazado 115121" d="M458.686,6768.117c1.3.814,6.539-1.423,8.871-1,1.454.263,3.745.795,5.266,1.159-.8-8.441-.461-18.695-.88-20.25a27.421,27.421,0,0,0-5.592-10.607c-2.951.874-5.924-1.52-5.924-1.52a20.407,20.407,0,0,0-4.845,3.7c-1.749,2.168-1.848,8.483-1.639,13.993,1.317,2.644,2.954,5.952,3.563,7.271C458.589,6763.2,457.389,6767.3,458.686,6768.117Z" transform="translate(-453.863 -6735.898)" fill="#869bd3"/>
          <path id="Trazado_115122" data-name="Trazado 115122" d="M454.061,6772.448s8.64.614,11.654.446a61.874,61.874,0,0,0,7.392-1.463c-.107-.808-.2-1.645-.281-2.5-1.521-.364-3.812-.9-5.266-1.159-2.333-.422-7.575,1.815-8.871,1s-.1-4.915-1.181-7.259c-.609-1.319-2.246-4.628-3.563-7.271.068,1.808.17,3.53.257,4.988C454.5,6764.233,453.851,6768.945,454.061,6772.448Z" transform="translate(-453.866 -6736.554)" fill="#869bd3"/>
        </g>
        <g id="Grupo_64494" data-name="Grupo 64494" transform="translate(0 50.214)">
          <path id="Trazado_115123" data-name="Trazado 115123" d="M472.142,6788.911c1.277,4.231,2.322,8.035,3.715,9.559s4.468,3.846,3.628,4.775-1.654-.116-2.467,0-.553,2.081-.174,4.239c.155.881,1.2,9.82,1.867,15.527l5.507.032c-.111-6.242-.335-25.633-1.626-28.564-1.312-2.979-7.592-20.82-9.522-25.525-.778.22-3.22,1.214-3.924,1.373-4.842,1.091-11.81-.523-15.117-1.127a91.485,91.485,0,0,0-1.048,12.216c-.339,5.312,1.523,18.641,1.183,21.947-.272,2.656-.134,14.9-.335,19.623h9.2c.3-5.033,1.086-18.682,1.086-21.023,0-3.985,2.444-19.022,2.444-19.022l.862-1.389A18.561,18.561,0,0,1,472.142,6788.911Z" transform="translate(-452.941 -6768.953)" fill="#1599ea"/>
          <path id="Trazado_115124" data-name="Trazado 115124" d="M474.9,6823.451l4.314.026c-.664-5.708-1.712-14.646-1.867-15.527-.38-2.158-.639-4.122.174-4.239s1.626.929,2.467,0-2.234-3.252-3.628-4.775-2.439-5.328-3.715-9.559a18.561,18.561,0,0,0-4.723-7.36l-.862,1.389s6.373,14.466,6.8,17.6C474.2,6803.577,474.725,6818.219,474.9,6823.451Z" transform="translate(-453.446 -6769.419)" fill="#057fd3"/>
        </g>
        <path id="Trazado_115125" data-name="Trazado 115125" d="M457.881,6770.008s4.969-8.98,6.387-12.957a75.411,75.411,0,0,0,2.466-10.041,21.317,21.317,0,0,0,4.577-1.017c2.633,3.928,2.176,26.943,2.176,26.943Z" transform="translate(-453.117 -6717.917)" fill="#1599ea"/>
        <path id="Trazado_115126" data-name="Trazado 115126" d="M465.394,6750.52c-.681-1.419-2.061-4.672-2.392-5.255-4.061-7.152-9-7.446-8.784-.449.1,3.207,2.411,7.265,3.935,10.014C460.728,6753.307,462.9,6752.18,465.394,6750.52Z" transform="translate(-452.986 -6717.694)" fill="#5d7ac4"/>
        <path id="Trazado_115127" data-name="Trazado 115127" d="M456.5,6738.787s2.579-.795,6.321,2.839a22.656,22.656,0,0,1,4.545,6.513c.759,1.494,2,.644,1.539-.685a17.926,17.926,0,0,0-5.291-7.492c-3.619-2.9-5.679-2.313-5.679-2.313Z" transform="translate(-453.068 -6717.618)" fill="#3c3c3c"/>
        <path id="Trazado_115128" data-name="Trazado 115128" d="M486.981,6750.214c-.21-1.334-3.2-1.5-4.775-.837s-2,2.113-3.044,2.845c-2.145,1.5-10.151,3.719-11.38,3.862-.651.076-1.9-2.806-2.947-4.658-2.668,1.71-1.955,1.251-4.707,2.822,2.2,4.3,4.053,6.633,5.246,7.077,1.209.449,5.143-.938,7.93-2.493a54.751,54.751,0,0,1,6.554-3.325c1.849-.7,4.569-1.682,5.2-2.443C486.106,6751.793,487.191,6751.55,486.981,6750.214Z" transform="translate(-453.198 -6718.025)" fill="#ffb680"/>
        <path id="Trazado_115129" data-name="Trazado 115129" d="M493.45,6748.581c-.328-1.008-1.489-1.008-2.448.962-.5,1.021.749,3.792,1.965,1.9A2.809,2.809,0,0,0,493.45,6748.581Z" transform="translate(-454.297 -6717.987)" fill="#ed8a40"/>
        <path id="Trazado_115130" data-name="Trazado 115130" d="M453.864,6770.746l.237-2.492s8.029,1.716,12.7,1.54,6.577-2.055,6.577-2.055l.435,2.961s-3.027,1.788-9.3,1.437A80.7,80.7,0,0,1,453.864,6770.746Z" transform="translate(-452.974 -6718.695)" fill="#057fd3"/>
        <path id="Trazado_115131" data-name="Trazado 115131" d="M461.722,6770.534s-.424,6.076-2.739,8.343c-2.016,1.975-5.922,1.664-5.922,1.664l-.106,1.552s4.982.661,7.731-2.674,2.626-8.477,2.626-8.477Z" transform="translate(-452.941 -6718.795)" fill="#057fd3"/>
        <path id="Trazado_115132" data-name="Trazado 115132" d="M467.062,6783.038l1.1-.467a19.984,19.984,0,0,0,1.659-4.89,35.787,35.787,0,0,0,.426-5.961c-.155,0-1.781.175-1.781.175s-.024,2.763-.271,5.484A49.5,49.5,0,0,1,467.062,6783.038Z" transform="translate(-453.446 -6718.837)" fill="#057fd3"/>
        <path id="Trazado_115133" data-name="Trazado 115133" d="M468.886,6747.8a.468.468,0,1,1-.465-.522A.5.5,0,0,1,468.886,6747.8Z" transform="translate(-453.478 -6717.964)" fill="#fff"/>
      </g>
    </g>
    <g id="Grupo_64497" data-name="Grupo 64497" transform="translate(300.655 6641.346)">
      <path id="Trazado_115134" data-name="Trazado 115134" d="M317.345,6656.689H313.7l-.741,2.953h-2.725l3.893-13.824h2.811l3.883,13.824H318.1Zm-3.1-2.155h2.545l-1.243-4.89h-.058Z" transform="translate(-310.234 -6644.831)" fill="#575757"/>
      <path id="Trazado_115135" data-name="Trazado 115135" d="M325.885,6657.811a.938.938,0,0,0,.83-.409,2.065,2.065,0,0,0,.281-1.177h2.449l.028.058a3.473,3.473,0,0,1-3.588,3.684,3.736,3.736,0,0,1-3.061-1.3,5.123,5.123,0,0,1-1.068-3.362v-1.319a5.184,5.184,0,0,1,1.064-3.366,3.69,3.69,0,0,1,3.047-1.315,3.422,3.422,0,0,1,2.654,1.072,4.016,4.016,0,0,1,.954,2.9l-.018.047H327a2.8,2.8,0,0,0-.281-1.351.911.911,0,0,0-.849-.51,1.11,1.11,0,0,0-1.111.685,4.6,4.6,0,0,0-.3,1.834v1.321a4.54,4.54,0,0,0,.3,1.845A1.129,1.129,0,0,0,325.885,6657.811Z" transform="translate(-310.646 -6644.955)" fill="#575757"/>
      <path id="Trazado_115136" data-name="Trazado 115136" d="M330.774,6654a5.108,5.108,0,0,1,1.1-3.385,4.251,4.251,0,0,1,6.148,0,5.1,5.1,0,0,1,1.1,3.385v1.272a5.069,5.069,0,0,1-1.1,3.39,4.284,4.284,0,0,1-6.148,0,5.083,5.083,0,0,1-1.1-3.39Zm2.686,1.268a4.287,4.287,0,0,0,.333,1.864,1.184,1.184,0,0,0,1.158.675,1.171,1.171,0,0,0,1.135-.68,4.256,4.256,0,0,0,.337-1.859V6654a4.268,4.268,0,0,0-.337-1.85,1.292,1.292,0,0,0-2.288,0,4.24,4.24,0,0,0-.337,1.845Z" transform="translate(-310.968 -6644.955)" fill="#575757"/>
      <path id="Trazado_115137" data-name="Trazado 115137" d="M343.432,6649.494l.1,1.309a3.062,3.062,0,0,1,1.026-1.11,2.6,2.6,0,0,1,1.416-.389,2.27,2.27,0,0,1,1.357.413,2.542,2.542,0,0,1,.883,1.258,3.206,3.206,0,0,1,1.025-1.234,2.5,2.5,0,0,1,1.463-.437,2.328,2.328,0,0,1,2.008,1.048,5.617,5.617,0,0,1,.737,3.2v6.209h-2.707v-6.215a3.647,3.647,0,0,0-.256-1.641.854.854,0,0,0-.8-.451,1.128,1.128,0,0,0-.692.227,1.759,1.759,0,0,0-.5.628c.007.12.013.239.02.357s.009.239.009.365v6.729h-2.687v-6.215a3.592,3.592,0,0,0-.26-1.635.869.869,0,0,0-.812-.456,1.205,1.205,0,0,0-.661.185,1.627,1.627,0,0,0-.5.518v7.6h-2.686v-10.272Z" transform="translate(-311.331 -6644.955)" fill="#575757"/>
      <path id="Trazado_115138" data-name="Trazado 115138" d="M359.732,6659.966a3.921,3.921,0,0,1-3.075-1.272,4.629,4.629,0,0,1-1.14-3.209v-1.443a5.3,5.3,0,0,1,1.059-3.409,3.537,3.537,0,0,1,2.928-1.329,3.408,3.408,0,0,1,2.792,1.207,5.032,5.032,0,0,1,.986,3.284v1.652H358.2v.039a2.836,2.836,0,0,0,.461,1.67,1.586,1.586,0,0,0,1.39.656,3.724,3.724,0,0,0,1.235-.17,6.5,6.5,0,0,0,1.129-.57l.684,1.718a4.068,4.068,0,0,1-1.419.845A5.519,5.519,0,0,1,359.732,6659.966Zm-.228-8.506a1,1,0,0,0-.949.591,3.843,3.843,0,0,0-.342,1.593h2.421v-.382a2.749,2.749,0,0,0-.265-1.331A.918.918,0,0,0,359.5,6651.459Z" transform="translate(-311.853 -6644.955)" fill="#575757"/>
      <path id="Trazado_115139" data-name="Trazado 115139" d="M368.161,6646.853v2.554h1.425v1.955h-1.425v5.156a1.677,1.677,0,0,0,.181.9.565.565,0,0,0,.494.271,2.725,2.725,0,0,0,.8-.1l.208,2.051a5.26,5.26,0,0,1-.816.189,6.065,6.065,0,0,1-.883.057,2.475,2.475,0,0,1-1.989-.8,3.877,3.877,0,0,1-.688-2.548v-5.166H364.25v-1.955h1.215v-2.554Z" transform="translate(-312.165 -6644.868)" fill="#575757"/>
      <path id="Trazado_115140" data-name="Trazado 115140" d="M374.184,6646.855h-2.7v-2.061h2.7Zm0,12.75h-2.7v-10.272h2.7Z" transform="translate(-312.423 -6644.794)" fill="#575757"/>
      <path id="Trazado_115141" data-name="Trazado 115141" d="M375.859,6654.526a7.5,7.5,0,0,1,.893-3.9,2.791,2.791,0,0,1,2.516-1.481,2.085,2.085,0,0,1,1.082.285,2.833,2.833,0,0,1,.865.816v-5.45h2.7V6659.6h-2.345l-.18-1.12a3.05,3.05,0,0,1-.926.983,2.192,2.192,0,0,1-1.2.336,2.817,2.817,0,0,1-2.511-1.391,6.782,6.782,0,0,1-.888-3.688Zm2.7.2a5.8,5.8,0,0,0,.318,2.152,1.1,1.1,0,0,0,1.077.771,1.358,1.358,0,0,0,.731-.195,1.618,1.618,0,0,0,.532-.567V6652.2a1.911,1.911,0,0,0-.532-.667,1.127,1.127,0,0,0-1.793.647,6.783,6.783,0,0,0-.333,2.343Z" transform="translate(-312.58 -6644.794)" fill="#575757"/>
      <path id="Trazado_115142" data-name="Trazado 115142" d="M391.021,6659.766a4.666,4.666,0,0,1-.341-1.177,3.22,3.22,0,0,1-.926,1,2.188,2.188,0,0,1-1.268.375,2.628,2.628,0,0,1-2.036-.836,3.177,3.177,0,0,1-.764-2.23,2.922,2.922,0,0,1,.973-2.345,4.331,4.331,0,0,1,2.891-.836h1.016v-.836a2.069,2.069,0,0,0-.271-1.153.912.912,0,0,0-.811-.4.782.782,0,0,0-.684.322,1.619,1.619,0,0,0-.229.941l-2.611-.01-.028-.058a2.819,2.819,0,0,1,.991-2.279,3.932,3.932,0,0,1,2.739-.939,3.667,3.667,0,0,1,2.606.934,3.465,3.465,0,0,1,1,2.664v4.159a8.9,8.9,0,0,0,.105,1.415,7.568,7.568,0,0,0,.322,1.291Zm-1.756-1.832a1.378,1.378,0,0,0,.754-.219,1.6,1.6,0,0,0,.547-.561v-1.889H389.55a.979.979,0,0,0-.892.428,1.95,1.95,0,0,0-.276,1.082,1.376,1.376,0,0,0,.237.835A.761.761,0,0,0,389.265,6657.934Z" transform="translate(-312.931 -6644.955)" fill="#575757"/>
    </g>
  </g>
</svg>
