<svg xmlns="http://www.w3.org/2000/svg" width="752.325" height="466.047" viewBox="0 0 752.325 466.047">
  <g id="Grupo_63039" data-name="Grupo 63039" transform="translate(-133.192 -8789.538)">
    <circle id="Elipse_4225" data-name="Elipse 4225" cx="7.153" cy="7.153" r="7.153" transform="translate(156.218 8895.712)" fill="#161616"/>
    <circle id="Elipse_4226" data-name="Elipse 4226" cx="7.153" cy="7.153" r="7.153" transform="translate(447.347 8850.059)" fill="#161616"/>
    <path id="Trazado_112564" data-name="Trazado 112564" d="M454.092,9207.954a9.758,9.758,0,1,1,9.759-9.758A9.77,9.77,0,0,1,454.092,9207.954Zm0-17.033a7.274,7.274,0,1,0,7.276,7.275A7.282,7.282,0,0,0,454.092,9190.921Z" fill="#161616"/>
    <path id="Trazado_112565" data-name="Trazado 112565" d="M503.165,9207.954a9.758,9.758,0,1,1,9.759-9.758A9.77,9.77,0,0,1,503.165,9207.954Zm0-17.033a7.274,7.274,0,1,0,7.275,7.275A7.282,7.282,0,0,0,503.165,9190.921Z" fill="#161616"/>
    <path id="Trazado_112566" data-name="Trazado 112566" d="M551.511,9207.954a9.758,9.758,0,1,1,9.758-9.758A9.77,9.77,0,0,1,551.511,9207.954Zm0-17.033a7.274,7.274,0,1,0,7.274,7.275A7.283,7.283,0,0,0,551.511,9190.921Z" fill="#161616"/>
    <circle id="Elipse_4227" data-name="Elipse 4227" cx="7.153" cy="7.153" r="7.153" transform="translate(495.26 8896.462)" fill="#161616"/>
    <circle id="Elipse_4228" data-name="Elipse 4228" cx="7.153" cy="7.153" r="7.153" transform="translate(544.357 8941.94)" fill="#161616"/>
    <circle id="Elipse_4229" data-name="Elipse 4229" cx="7.153" cy="7.153" r="7.153" transform="translate(156.218 8940.887)" fill="#161616"/>
    <rect id="Rectángulo_7183" data-name="Rectángulo 7183" width="18.465" height="3.725" transform="translate(161.184 8855.12)" fill="#161616"/>
    <rect id="Rectángulo_7184" data-name="Rectángulo 7184" width="577.482" height="3.725" transform="translate(270.894 8855.12)" fill="#161616"/>
    <rect id="Rectángulo_7185" data-name="Rectángulo 7185" width="3.725" height="129.061" transform="translate(161.509 8856.982)" fill="#161616"/>
    <path id="Trazado_112567" data-name="Trazado 112567" d="M202.989,8858.832h-3.726c0-5.775-4.288-10.473-9.559-10.473s-9.558,4.7-9.558,10.473h-3.725c0-7.829,5.959-14.2,13.283-14.2S202.989,8851,202.989,8858.832Z" fill="#161616"/>
    <path id="Trazado_112568" data-name="Trazado 112568" d="M224.1,8858.832h-3.725c0-5.677-4.01-10.473-8.758-10.473s-8.758,4.8-8.758,10.473h-3.726c0-7.829,5.6-14.2,12.484-14.2S224.1,8851,224.1,8858.832Z" fill="#161616"/>
    <path id="Trazado_112569" data-name="Trazado 112569" d="M245.341,8858.832h-3.725c0-5.677-4.012-10.473-8.759-10.473s-8.758,4.8-8.758,10.473h-3.725c0-7.829,5.6-14.2,12.483-14.2S245.341,8851,245.341,8858.832Z" fill="#161616"/>
    <path id="Trazado_112570" data-name="Trazado 112570" d="M266.582,8858.832h-3.726c0-5.677-4.01-10.473-8.757-10.473s-8.758,4.8-8.758,10.473h-3.725c0-7.829,5.6-14.2,12.483-14.2S266.582,8851,266.582,8858.832Z" fill="#161616"/>
    <g id="Grupo_63029" data-name="Grupo 63029">
      <rect id="Rectángulo_7186" data-name="Rectángulo 7186" width="19.566" height="3.725" transform="translate(161.184 8901.354)" fill="#161616"/>
      <rect id="Rectángulo_7187" data-name="Rectángulo 7187" width="577.482" height="3.725" transform="translate(270.894 8901.354)" fill="#161616"/>
      <path id="Trazado_112571" data-name="Trazado 112571" d="M205.482,8905.065h-3.948a10.134,10.134,0,1,0-20.257,0H177.33a14.077,14.077,0,1,1,28.152,0Z" fill="#161616"/>
      <path id="Trazado_112572" data-name="Trazado 112572" d="M227.852,8905.065H223.9c0-5.677-4.249-10.473-9.28-10.473s-9.281,4.8-9.281,10.473H201.4c0-7.829,5.934-14.2,13.228-14.2S227.852,8897.236,227.852,8905.065Z" fill="#161616"/>
      <path id="Trazado_112573" data-name="Trazado 112573" d="M250.36,8905.065h-3.947c0-5.677-4.251-10.473-9.281-10.473s-9.28,4.8-9.28,10.473H223.9c0-7.829,5.934-14.2,13.228-14.2S250.36,8897.236,250.36,8905.065Z" fill="#161616"/>
      <path id="Trazado_112574" data-name="Trazado 112574" d="M272.868,8905.065H268.92c0-5.677-4.249-10.473-9.28-10.473s-9.28,4.8-9.28,10.473h-3.947c0-7.829,5.934-14.2,13.227-14.2S272.868,8897.236,272.868,8905.065Z" fill="#161616"/>
    </g>
    <g id="Grupo_63030" data-name="Grupo 63030">
      <rect id="Rectángulo_7188" data-name="Rectángulo 7188" width="19.566" height="3.725" transform="translate(161.184 8947.231)" fill="#161616"/>
      <rect id="Rectángulo_7189" data-name="Rectángulo 7189" width="577.482" height="3.725" transform="translate(270.894 8947.231)" fill="#161616"/>
      <path id="Trazado_112575" data-name="Trazado 112575" d="M205.482,8950.942h-3.948a10.134,10.134,0,1,0-20.257,0H177.33a14.077,14.077,0,1,1,28.152,0Z" fill="#161616"/>
      <path id="Trazado_112576" data-name="Trazado 112576" d="M227.852,8950.942H223.9c0-5.677-4.249-10.473-9.28-10.473s-9.281,4.8-9.281,10.473H201.4c0-7.829,5.934-14.2,13.228-14.2S227.852,8943.113,227.852,8950.942Z" fill="#161616"/>
      <path id="Trazado_112577" data-name="Trazado 112577" d="M250.36,8950.942h-3.947c0-5.677-4.251-10.473-9.281-10.473s-9.28,4.8-9.28,10.473H223.9c0-7.829,5.934-14.2,13.228-14.2S250.36,8943.113,250.36,8950.942Z" fill="#161616"/>
      <path id="Trazado_112578" data-name="Trazado 112578" d="M272.868,8950.942H268.92c0-5.677-4.249-10.473-9.28-10.473s-9.28,4.8-9.28,10.473h-3.947c0-7.829,5.934-14.2,13.227-14.2S272.868,8943.113,272.868,8950.942Z" fill="#161616"/>
    </g>
    <rect id="Rectángulo_7190" data-name="Rectángulo 7190" width="2.483" height="332.996" transform="translate(453.259 8856.982)" fill="#161616"/>
    <rect id="Rectángulo_7191" data-name="Rectángulo 7191" width="2.483" height="286.362" transform="translate(501.171 8903.616)" fill="#161616"/>
    <rect id="Rectángulo_7192" data-name="Rectángulo 7192" width="2.483" height="234.815" transform="translate(550.269 8955.163)" fill="#161616"/>
    <rect id="Rectángulo_7193" data-name="Rectángulo 7193" width="3.725" height="193.918" transform="translate(597.973 8996.06)" fill="#0d9bda"/>
    <g id="Grupo_63031" data-name="Grupo 63031">
      <rect id="Rectángulo_7194" data-name="Rectángulo 7194" width="681.699" height="3.725" transform="translate(166.677 8992.335)" fill="#0d9bda"/>
    </g>
    <circle id="Elipse_4230" data-name="Elipse 4230" cx="6.096" cy="6.096" r="6.096" transform="translate(605.493 9090.775)" fill="#161616"/>
    <rect id="Rectángulo_7195" data-name="Rectángulo 7195" width="38.694" height="2.484" transform="matrix(0.605, -0.796, 0.796, 0.605, 587.134, 9126.917)" fill="#161616"/>
    <rect id="Rectángulo_7196" data-name="Rectángulo 7196" width="47.391" height="2.967" transform="translate(430.397 9168.521)" fill="#161616"/>
    <rect id="Rectángulo_7197" data-name="Rectángulo 7197" width="7.941" height="2.967" transform="translate(486.413 9168.521)" fill="#161616"/>
    <rect id="Rectángulo_7198" data-name="Rectángulo 7198" width="14.026" height="2.967" transform="translate(431.397 9212.674) rotate(90)" fill="#161616"/>
    <rect id="Rectángulo_7199" data-name="Rectángulo 7199" width="8.935" height="2.967" transform="translate(431.398 9196.761) rotate(90)" fill="#161616"/>
    <rect id="Rectángulo_7200" data-name="Rectángulo 7200" width="47.391" height="2.967" transform="translate(622.318 9171.489) rotate(180)" fill="#161616"/>
    <rect id="Rectángulo_7201" data-name="Rectángulo 7201" width="25.919" height="2.967" transform="translate(657.904 9171.489) rotate(180)" fill="#161616"/>
    <rect id="Rectángulo_7202" data-name="Rectángulo 7202" width="7.941" height="2.967" transform="translate(566.303 9171.489) rotate(180)" fill="#161616"/>
    <rect id="Rectángulo_7203" data-name="Rectángulo 7203" width="21.898" height="2.967" transform="translate(655.752 9228.521) rotate(180)" fill="#161616"/>
    <rect id="Rectángulo_7204" data-name="Rectángulo 7204" width="7.896" height="2.967" transform="translate(626.276 9228.521) rotate(180)" fill="#161616"/>
    <rect id="Rectángulo_7205" data-name="Rectángulo 7205" width="7.896" height="2.967" transform="translate(657.903 9200.916) rotate(90)" fill="#161616"/>
    <rect id="Rectángulo_7206" data-name="Rectángulo 7206" width="8.824" height="2.967" transform="translate(554.142 9228.521) rotate(180)" fill="#161616"/>
    <rect id="Rectángulo_7207" data-name="Rectángulo 7207" width="8.824" height="2.967" transform="translate(481.038 9228.521) rotate(180)" fill="#161616"/>
    <rect id="Rectángulo_7208" data-name="Rectángulo 7208" width="36.603" height="2.967" transform="translate(465.093 9228.521) rotate(180)" fill="#161616"/>
    <rect id="Rectángulo_7209" data-name="Rectángulo 7209" width="48.63" height="2.967" transform="translate(537.593 9228.521) rotate(180)" fill="#161616"/>
    <rect id="Rectángulo_7210" data-name="Rectángulo 7210" width="48.348" height="2.967" transform="translate(610.376 9228.521) rotate(180)" fill="#161616"/>
    <rect id="Rectángulo_7211" data-name="Rectángulo 7211" width="23.21" height="2.967" transform="translate(654.937 9192.782) rotate(-90)" fill="#161616"/>
    <rect id="Rectángulo_7212" data-name="Rectángulo 7212" width="11.739" height="2.967" transform="translate(654.937 9228.521) rotate(-90)" fill="#161616"/>
    <rect id="Rectángulo_7213" data-name="Rectángulo 7213" width="48.216" height="2.967" transform="translate(502.556 9168.521)" fill="#161616"/>
    <rect id="Rectángulo_7214" data-name="Rectángulo 7214" width="13.949" height="5.689" transform="translate(164.326 9098.751) rotate(90)" fill="#f7da06"/>
    <rect id="Rectángulo_7215" data-name="Rectángulo 7215" width="13.949" height="5.689" transform="translate(164.326 9112.7) rotate(90)" fill="#027931"/>
    <rect id="Rectángulo_7216" data-name="Rectángulo 7216" width="13.949" height="5.689" transform="translate(164.326 9126.649) rotate(90)" fill="#f7da06"/>
    <rect id="Rectángulo_7217" data-name="Rectángulo 7217" width="13.949" height="5.689" transform="translate(164.326 9140.599) rotate(90)" fill="#027931"/>
    <rect id="Rectángulo_7218" data-name="Rectángulo 7218" width="13.949" height="5.689" transform="translate(164.326 9154.547) rotate(90)" fill="#f7da06"/>
    <rect id="Rectángulo_7219" data-name="Rectángulo 7219" width="13.949" height="5.689" transform="translate(164.326 9168.496) rotate(90)" fill="#027931"/>
    <rect id="Rectángulo_7220" data-name="Rectángulo 7220" width="13.488" height="5.689" transform="translate(164.327 9182.445) rotate(90)" fill="#f7da06"/>
    <rect id="Rectángulo_7221" data-name="Rectángulo 7221" width="14.024" height="5.689" transform="translate(164.327 9209.421) rotate(90)" fill="#f7da06"/>
    <rect id="Rectángulo_7222" data-name="Rectángulo 7222" width="13.488" height="5.689" transform="translate(164.327 9195.934) rotate(90)" fill="#027931"/>
    <rect id="Rectángulo_7223" data-name="Rectángulo 7223" width="26.616" height="5.689" transform="translate(164.327 8989.363) rotate(90)" fill="#027931"/>
    <rect id="Rectángulo_7224" data-name="Rectángulo 7224" width="13.949" height="5.689" transform="translate(164.326 9015.979) rotate(90)" fill="#f7da06"/>
    <rect id="Rectángulo_7225" data-name="Rectángulo 7225" width="13.949" height="5.689" transform="translate(164.326 9029.928) rotate(90)" fill="#027931"/>
    <rect id="Rectángulo_7226" data-name="Rectángulo 7226" width="13.949" height="5.689" transform="translate(164.326 9043.877) rotate(90)" fill="#f7da06"/>
    <rect id="Rectángulo_7227" data-name="Rectángulo 7227" width="13.949" height="5.689" transform="translate(164.327 9057.826) rotate(90)" fill="#027931"/>
    <rect id="Rectángulo_7228" data-name="Rectángulo 7228" width="13.488" height="5.689" transform="translate(164.327 9071.775) rotate(90)" fill="#f7da06"/>
    <rect id="Rectángulo_7229" data-name="Rectángulo 7229" width="13.488" height="5.689" transform="translate(164.327 9085.263) rotate(90)" fill="#027931"/>
    <rect id="Rectángulo_7230" data-name="Rectángulo 7230" width="53.557" height="6.371" transform="translate(134.866 9223.445)" fill="#027931"/>
    <rect id="Rectángulo_7231" data-name="Rectángulo 7231" width="29.694" height="6.803" transform="translate(146.635 9234.675)" fill="#f7da06"/>
    <rect id="Rectángulo_7232" data-name="Rectángulo 7232" width="7.622" height="7.622" transform="translate(157.784 9245.796)" fill="#027931"/>
    <rect id="Rectángulo_7233" data-name="Rectángulo 7233" width="2.483" height="26.731" transform="translate(176.933 9092.007)" fill="#161616"/>
    <rect id="Rectángulo_7234" data-name="Rectángulo 7234" width="48.55" height="2.483" transform="translate(146.858 9140.957) rotate(-51.305)" fill="#161616"/>
    <g id="Grupo_63032" data-name="Grupo 63032">
      <rect id="Rectángulo_7235" data-name="Rectángulo 7235" width="13.949" height="5.689" transform="translate(651.318 9098.751) rotate(90)" fill="#f7da06"/>
      <rect id="Rectángulo_7236" data-name="Rectángulo 7236" width="13.949" height="5.689" transform="translate(651.318 9112.7) rotate(90)" fill="#027931"/>
      <rect id="Rectángulo_7237" data-name="Rectángulo 7237" width="13.949" height="5.689" transform="translate(651.318 9126.649) rotate(90)" fill="#f7da06"/>
      <rect id="Rectángulo_7238" data-name="Rectángulo 7238" width="13.949" height="5.689" transform="translate(651.318 9140.599) rotate(90)" fill="#027931"/>
      <rect id="Rectángulo_7239" data-name="Rectángulo 7239" width="12.67" height="5.689" transform="translate(651.318 9154.547) rotate(90)" fill="#f7da06"/>
      <rect id="Rectángulo_7240" data-name="Rectángulo 7240" width="16.631" height="5.689" transform="translate(651.317 8999.348) rotate(90)" fill="#027931"/>
      <rect id="Rectángulo_7241" data-name="Rectángulo 7241" width="13.949" height="5.689" transform="translate(651.318 9015.979) rotate(90)" fill="#f7da06"/>
      <rect id="Rectángulo_7242" data-name="Rectángulo 7242" width="13.949" height="5.689" transform="translate(651.317 9029.928) rotate(90)" fill="#027931"/>
      <rect id="Rectángulo_7243" data-name="Rectángulo 7243" width="13.949" height="5.689" transform="translate(651.317 9043.877) rotate(90)" fill="#f7da06"/>
      <rect id="Rectángulo_7244" data-name="Rectángulo 7244" width="13.949" height="5.689" transform="translate(651.318 9057.826) rotate(90)" fill="#027931"/>
      <rect id="Rectángulo_7245" data-name="Rectángulo 7245" width="13.488" height="5.689" transform="translate(651.318 9071.775) rotate(90)" fill="#f7da06"/>
      <rect id="Rectángulo_7246" data-name="Rectángulo 7246" width="13.488" height="5.689" transform="translate(651.318 9085.263) rotate(90)" fill="#027931"/>
      <rect id="Rectángulo_7247" data-name="Rectángulo 7247" width="2.088" height="24.584" transform="translate(657.224 9085.263)" fill="#161616"/>
      <path id="Trazado_112579" data-name="Trazado 112579" d="M633.575,9131.711l-1.629-1.427,25.508-34.854,1.629,1.427Z" fill="#161616"/>
    </g>
    <rect id="Rectángulo_7248" data-name="Rectángulo 7248" width="1.242" height="30.848" transform="translate(133.192 8851.152)" fill="#161616"/>
    <rect id="Rectángulo_7249" data-name="Rectángulo 7249" width="1.242" height="7.935" transform="translate(133.192 8835.279)" fill="#161616"/>
    <rect id="Rectángulo_7250" data-name="Rectángulo 7250" width="1.242" height="7.937" transform="translate(133.192 8889.768)" fill="#161616"/>
    <rect id="Rectángulo_7251" data-name="Rectángulo 7251" width="1.242" height="48.696" transform="translate(133.192 8906.087)" fill="#161616"/>
    <rect id="Rectángulo_7252" data-name="Rectángulo 7252" width="1.242" height="7.829" transform="translate(133.192 8962.752)" fill="#161616"/>
    <rect id="Rectángulo_7253" data-name="Rectángulo 7253" width="1.242" height="33.637" transform="translate(133.192 8978.576)" fill="#161616"/>
    <rect id="Rectángulo_7254" data-name="Rectángulo 7254" width="1.242" height="14.415" transform="translate(133.192 8813.738)" fill="#161616"/>
    <rect id="Rectángulo_7255" data-name="Rectángulo 7255" width="19.652" height="1.242" transform="translate(133.192 8813.117)" fill="#161616"/>
    <rect id="Rectángulo_7256" data-name="Rectángulo 7256" width="7.45" height="1.242" transform="translate(164.748 8813.117)" fill="#161616"/>
    <rect id="Rectángulo_7257" data-name="Rectángulo 7257" width="45.918" height="1.242" transform="translate(179.649 8813.117)" fill="#161616"/>
    <rect id="Rectángulo_7258" data-name="Rectángulo 7258" width="8.258" height="1.242" transform="translate(232.857 8813.117)" fill="#161616"/>
    <rect id="Rectángulo_7259" data-name="Rectángulo 7259" width="46.484" height="1.242" transform="translate(247.918 8813.117)" fill="#161616"/>
    <rect id="Rectángulo_7260" data-name="Rectángulo 7260" width="1.242" height="7.504" transform="translate(303.49 8817.464)" fill="#161616"/>
    <rect id="Rectángulo_7261" data-name="Rectángulo 7261" width="1.242" height="45.674" transform="translate(303.49 8833.012)" fill="#161616"/>
    <rect id="Rectángulo_7262" data-name="Rectángulo 7262" width="1.242" height="7.289" transform="translate(303.49 8885.65)" fill="#161616"/>
    <rect id="Rectángulo_7263" data-name="Rectángulo 7263" width="1.242" height="46.944" transform="translate(303.49 8900.093)" fill="#161616"/>
    <rect id="Rectángulo_7264" data-name="Rectángulo 7264" width="1.242" height="7.774" transform="translate(303.49 8954.918)" fill="#161616"/>
    <rect id="Rectángulo_7265" data-name="Rectángulo 7265" width="1.242" height="33.472" transform="translate(303.49 8978.956)" fill="#161616"/>
    <circle id="Elipse_4231" data-name="Elipse 4231" cx="7.153" cy="7.153" r="7.153" transform="translate(156.218 8986.029)" fill="#161616"/>
    <circle id="Elipse_4232" data-name="Elipse 4232" cx="5.858" cy="5.858" r="5.858" transform="translate(211.718 8977.213)" fill="#161616"/>
    <rect id="Rectángulo_7266" data-name="Rectángulo 7266" width="36.413" height="2.485" transform="matrix(0.806, -0.592, 0.592, 0.806, 186.645, 9004.394)" fill="#161616"/>
    <g id="Grupo_63033" data-name="Grupo 63033">
      <path id="Trazado_112580" data-name="Trazado 112580" d="M193.041,8798.391h-6.347v6.295h-3.037v-15.147H194.1v2.342h-7.408v4.171h6.347Z"/>
      <path id="Trazado_112581" data-name="Trazado 112581" d="M202.32,8803.064a3.779,3.779,0,0,1-1.321,1.362,3.9,3.9,0,0,1-4.624-.661,5.255,5.255,0,0,1-1-3.544v-6.793H198.4v6.83a2.921,2.921,0,0,0,.417,1.769,1.456,1.456,0,0,0,1.227.537,3.028,3.028,0,0,0,1.249-.235,2.1,2.1,0,0,0,.852-.694v-8.206h3.038v11.257h-2.59Z"/>
      <path id="Trazado_112582" data-name="Trazado 112582" d="M212.453,8804.9a5.067,5.067,0,0,1-3.89-1.561,5.579,5.579,0,0,1-1.456-3.964v-.416a6.16,6.16,0,0,1,1.377-4.131,5.139,5.139,0,0,1,7.236-.238,5.285,5.285,0,0,1,1.26,3.714v1.654h-6.722l-.02.063a2.92,2.92,0,0,0,.743,1.823,2.326,2.326,0,0,0,1.795.716,5.83,5.83,0,0,0,1.676-.2,7.73,7.73,0,0,0,1.456-.64l.822,1.877a5.6,5.6,0,0,1-1.8.936A7.772,7.772,0,0,1,212.453,8804.9Zm-.27-9.343a1.583,1.583,0,0,0-1.332.646,3.357,3.357,0,0,0-.6,1.7l.03.052H214v-.271a2.439,2.439,0,0,0-.452-1.544A1.631,1.631,0,0,0,212.183,8795.562Z"/>
      <path id="Trazado_112583" data-name="Trazado 112583" d="M221.527,8793.429l.135,1.613a4.1,4.1,0,0,1,1.384-1.342,3.588,3.588,0,0,1,1.842-.479,3.382,3.382,0,0,1,2.662,1.072,4.946,4.946,0,0,1,.957,3.36v7.032H225.46v-7.037a2.289,2.289,0,0,0-.458-1.612,1.842,1.842,0,0,0-1.384-.475,2.341,2.341,0,0,0-1.082.245,2.218,2.218,0,0,0-.8.694v8.185H218.7v-11.257Z"/>
      <path id="Trazado_112584" data-name="Trazado 112584" d="M234.385,8790.672v2.757h1.893v2.133h-1.893v5.732a1.329,1.329,0,0,0,.27.938.966.966,0,0,0,.729.28,2.764,2.764,0,0,0,.411-.026,3.746,3.746,0,0,0,.4-.087l.26,2.194a5.954,5.954,0,0,1-.9.234,5.408,5.408,0,0,1-.946.077,3.235,3.235,0,0,1-2.419-.863,3.789,3.789,0,0,1-.848-2.736v-5.743H229.7v-2.133h1.644v-2.757Z"/>
      <path id="Trazado_112585" data-name="Trazado 112585" d="M243.2,8804.9a5.067,5.067,0,0,1-3.89-1.561,5.579,5.579,0,0,1-1.456-3.964v-.416a6.16,6.16,0,0,1,1.377-4.131,5.139,5.139,0,0,1,7.236-.238,5.285,5.285,0,0,1,1.26,3.714v1.654H241l-.02.063a2.92,2.92,0,0,0,.743,1.823,2.326,2.326,0,0,0,1.795.716,5.83,5.83,0,0,0,1.676-.2,7.73,7.73,0,0,0,1.456-.64l.822,1.877a5.615,5.615,0,0,1-1.8.936A7.772,7.772,0,0,1,243.2,8804.9Zm-.27-9.343a1.583,1.583,0,0,0-1.332.646,3.357,3.357,0,0,0-.6,1.7l.03.052h3.725v-.271a2.439,2.439,0,0,0-.452-1.544A1.631,1.631,0,0,0,242.927,8795.562Z"/>
    </g>
    <g id="Grupo_63034" data-name="Grupo 63034">
      <path id="Trazado_112586" data-name="Trazado 112586" d="M520.244,9244.6h-6.273v4.319h7.336v2.34H510.934v-15.147h10.351v2.341h-7.314v3.808h6.273Z"/>
      <path id="Trazado_112587" data-name="Trazado 112587" d="M522.316,9245.723a7.321,7.321,0,0,1,1.149-4.3,3.733,3.733,0,0,1,3.24-1.633,3.212,3.212,0,0,1,1.645.411,3.7,3.7,0,0,1,1.217,1.181l.28-1.384h2.581v15.585H529.39v-5.379a3.343,3.343,0,0,1-1.17.947,3.519,3.519,0,0,1-1.535.321,3.806,3.806,0,0,1-3.22-1.518,6.485,6.485,0,0,1-1.149-4.016Zm3.026.212a4.68,4.68,0,0,0,.5,2.339,1.733,1.733,0,0,0,1.624.861,2.444,2.444,0,0,0,1.143-.25,2.024,2.024,0,0,0,.781-.726v-4.987a2.116,2.116,0,0,0-.775-.768,2.227,2.227,0,0,0-1.129-.271,1.712,1.712,0,0,0-1.628,1,5.642,5.642,0,0,0-.516,2.587Z"/>
      <path id="Trazado_112588" data-name="Trazado 112588" d="M541.687,9249.635a3.8,3.8,0,0,1-1.321,1.363,3.9,3.9,0,0,1-4.624-.661,5.262,5.262,0,0,1-1-3.544V9240h3.027v6.83a2.915,2.915,0,0,0,.417,1.768,1.456,1.456,0,0,0,1.227.537,3.045,3.045,0,0,0,1.249-.234,2.1,2.1,0,0,0,.852-.694V9240h3.038v11.257h-2.59Z"/>
      <path id="Trazado_112589" data-name="Trazado 112589" d="M550.032,9237.306h-3.038v-2.278h3.038Zm0,13.951h-3.038V9240h3.038Z"/>
      <path id="Trazado_112590" data-name="Trazado 112590" d="M562.682,9245.941a6.461,6.461,0,0,1-1.155,4.016,3.817,3.817,0,0,1-3.224,1.518,3.618,3.618,0,0,1-1.572-.326,3.222,3.222,0,0,1-1.175-.964v5.4h-3.028V9240h2.736l.177,1.332a3.607,3.607,0,0,1,1.2-1.139,3.246,3.246,0,0,1,1.638-.4,3.745,3.745,0,0,1,3.246,1.633,7.293,7.293,0,0,1,1.155,4.3Zm-3.038-.234a5.469,5.469,0,0,0-.53-2.584,1.731,1.731,0,0,0-1.623-.99,2.294,2.294,0,0,0-1.171.281,2.008,2.008,0,0,0-.764.8v4.939a1.866,1.866,0,0,0,.764.729,2.581,2.581,0,0,0,1.191.25,1.75,1.75,0,0,0,1.619-.865,4.573,4.573,0,0,0,.514-2.345Z"/>
      <path id="Trazado_112591" data-name="Trazado 112591" d="M564.087,9245.525a6.035,6.035,0,0,1,1.405-4.125,4.893,4.893,0,0,1,3.891-1.608,4.948,4.948,0,0,1,3.912,1.6,6.014,6.014,0,0,1,1.414,4.131v.218a6.017,6.017,0,0,1-1.409,4.135,5.566,5.566,0,0,1-7.8,0,6.018,6.018,0,0,1-1.409-4.135Zm3.027.212a4.882,4.882,0,0,0,.542,2.468,2.08,2.08,0,0,0,3.469,0,4.854,4.854,0,0,0,.546-2.463v-.218a4.809,4.809,0,0,0-.55-2.441,1.869,1.869,0,0,0-1.738-.945,1.842,1.842,0,0,0-1.722.951,4.842,4.842,0,0,0-.547,2.436Z"/>
    </g>
    <g id="Grupo_63035" data-name="Grupo 63035">
      <path id="Trazado_112592" data-name="Trazado 112592" d="M860.278,8866.366H869.5v3.2H856.121v-20.728h4.157Z"/>
      <path id="Trazado_112593" data-name="Trazado 112593" d="M880.762,8869.568H876.6v-17.055h-4.214v-2.932l8.371-.741Z"/>
    </g>
    <g id="Grupo_63036" data-name="Grupo 63036">
      <path id="Trazado_112594" data-name="Trazado 112594" d="M860.278,8906.209H869.5v3.2H856.121v-20.729h4.157Z"/>
      <path id="Trazado_112595" data-name="Trazado 112595" d="M885.517,8909.412h-14.15v-2.719l6.705-7.19a16.191,16.191,0,0,0,2.064-2.811,4.562,4.562,0,0,0,.613-2.128,3.2,3.2,0,0,0-.706-2.143,2.472,2.472,0,0,0-2-.833,2.583,2.583,0,0,0-2.185.975,4.162,4.162,0,0,0-.747,2.6h-4.043l-.029-.086a6.271,6.271,0,0,1,1.843-4.747,6.918,6.918,0,0,1,5.161-1.943,7.2,7.2,0,0,1,5.033,1.665,5.716,5.716,0,0,1,1.83,4.442,6.231,6.231,0,0,1-1.034,3.467,34.135,34.135,0,0,1-3.408,4.163l-3.688,4.015.029.071h8.712Z"/>
    </g>
    <g id="Grupo_63037" data-name="Grupo 63037">
      <path id="Trazado_112596" data-name="Trazado 112596" d="M860.278,8951.884H869.5v3.2H856.121v-20.728h4.157Z"/>
      <path id="Trazado_112597" data-name="Trazado 112597" d="M875.566,8942.958H877.9a2.832,2.832,0,0,0,2.193-.776,3.068,3.068,0,0,0,.712-2.155,2.814,2.814,0,0,0-.712-2.009,2.708,2.708,0,0,0-2.065-.754,2.913,2.913,0,0,0-1.965.685,2.244,2.244,0,0,0-.8,1.793h-4.029l-.029-.086a4.717,4.717,0,0,1,1.865-4.015,7.439,7.439,0,0,1,4.84-1.58,7.962,7.962,0,0,1,5.133,1.538,5.3,5.3,0,0,1,1.915,4.384,4.393,4.393,0,0,1-.855,2.569,5.678,5.678,0,0,1-2.349,1.9,5.289,5.289,0,0,1,2.626,1.879,4.941,4.941,0,0,1,.9,2.946,5.386,5.386,0,0,1-2.072,4.478,8.313,8.313,0,0,1-5.3,1.63,8.121,8.121,0,0,1-4.961-1.529,4.89,4.89,0,0,1-2-4.32l.028-.087h4.03a2.526,2.526,0,0,0,.853,1.962,3.106,3.106,0,0,0,2.164.771,3.148,3.148,0,0,0,2.271-.8,2.842,2.842,0,0,0,.833-2.158,3.131,3.131,0,0,0-.818-2.394,3.437,3.437,0,0,0-2.414-.759h-2.335Z"/>
    </g>
    <g id="Grupo_63038" data-name="Grupo 63038">
      <path id="Trazado_112598" data-name="Trazado 112598" d="M871.189,9004.561h-4.142l-8.371-14.164-.085.015v14.149h-4.157v-20.727h4.157l8.37,14.15.086-.015v-14.136h4.142Z"/>
    </g>
    <rect id="Rectángulo_7267" data-name="Rectángulo 7267" width="6.728" height="1.242" transform="translate(133.192 9010.972)" fill="#161616"/>
    <rect id="Rectángulo_7268" data-name="Rectángulo 7268" width="45.566" height="1.242" transform="translate(148.174 9010.972)" fill="#161616"/>
    <rect id="Rectángulo_7269" data-name="Rectángulo 7269" width="8.259" height="1.242" transform="translate(201.245 9011.215)" fill="#161616"/>
    <rect id="Rectángulo_7270" data-name="Rectángulo 7270" width="45.567" height="1.242" transform="translate(217.062 9011.215)" fill="#161616"/>
    <rect id="Rectángulo_7271" data-name="Rectángulo 7271" width="7.504" height="1.242" transform="translate(270.08 9011.215)" fill="#161616"/>
    <rect id="Rectángulo_7272" data-name="Rectángulo 7272" width="19.077" height="1.242" transform="translate(285.034 9011.215)" fill="#161616"/>
    <rect id="Rectángulo_7273" data-name="Rectángulo 7273" width="20.217" height="2.967" transform="translate(428.43 9188.739) rotate(-90)" fill="#161616"/>
    <circle id="Elipse_4233" data-name="Elipse 4233" cx="7.153" cy="7.153" r="7.153" transform="translate(592.682 8987.831)" fill="#161616"/>
    <circle id="Elipse_4234" data-name="Elipse 4234" cx="7.153" cy="7.153" r="7.153" transform="translate(641.32 8987.831)" fill="#161616"/>
    <path id="Trazado_112599" data-name="Trazado 112599" d="M599.835,9207.954a9.758,9.758,0,1,1,9.759-9.758A9.77,9.77,0,0,1,599.835,9207.954Zm0-17.033a7.274,7.274,0,1,0,7.276,7.275A7.282,7.282,0,0,0,599.835,9190.921Z" fill="#161616"/>
  </g>
</svg>
