<svg xmlns="http://www.w3.org/2000/svg" width="610" height="375.879" viewBox="0 0 610 375.879">
  <g id="Grupo_63024" data-name="Grupo 63024" transform="translate(-232.093 -8810.488)">
    <circle id="Elipse_4216" data-name="Elipse 4216" cx="6.063" cy="6.063" r="6.063" transform="translate(251.609 8898.127)" fill="#161616"/>
    <circle id="Elipse_4217" data-name="Elipse 4217" cx="6.063" cy="6.063" r="6.063" transform="translate(485.755 8861.782)" fill="#161616"/>
    <path id="Trazado_112529" data-name="Trazado 112529" d="M479.288,9064.464a8.271,8.271,0,1,1,8.271-8.271A8.28,8.28,0,0,1,479.288,9064.464Zm0-14.437a6.166,6.166,0,1,0,6.166,6.166A6.173,6.173,0,0,0,479.288,9050.027Z" transform="translate(12.53 12.452)" fill="#161616"/>
    <path id="Trazado_112530" data-name="Trazado 112530" d="M516.27,9064.464a8.271,8.271,0,1,1,8.271-8.271A8.279,8.279,0,0,1,516.27,9064.464Zm0-14.437a6.166,6.166,0,1,0,6.166,6.166A6.173,6.173,0,0,0,516.27,9050.027Z" transform="translate(14.47 12.452)" fill="#161616"/>
    <path id="Trazado_112531" data-name="Trazado 112531" d="M553.14,9064.464a8.271,8.271,0,1,1,8.271-8.271A8.28,8.28,0,0,1,553.14,9064.464Zm0-14.437a6.166,6.166,0,1,0,6.166,6.166A6.174,6.174,0,0,0,553.14,9050.027Z" transform="translate(16.403 12.452)" fill="#161616"/>
    <path id="Trazado_112532" data-name="Trazado 112532" d="M590.218,9064.464a8.271,8.271,0,1,1,8.272-8.271A8.28,8.28,0,0,1,590.218,9064.464Zm0-14.437a6.166,6.166,0,1,0,6.167,6.166A6.173,6.173,0,0,0,590.218,9050.027Z" transform="translate(18.348 12.452)" fill="#161616"/>
    <circle id="Elipse_4218" data-name="Elipse 4218" cx="6.063" cy="6.063" r="6.063" transform="translate(524.677 8898.081)" fill="#161616"/>
    <circle id="Elipse_4219" data-name="Elipse 4219" cx="6.063" cy="6.063" r="6.063" transform="translate(563.48 8934.871)" fill="#161616"/>
    <circle id="Elipse_4220" data-name="Elipse 4220" cx="6.063" cy="6.063" r="6.063" transform="translate(251.609 8934.55)" fill="#161616"/>
    <rect id="Rectángulo_7092" data-name="Rectángulo 7092" width="15.65" height="3.157" transform="translate(255.819 8866.072)" fill="#161616"/>
    <rect id="Rectángulo_7093" data-name="Rectángulo 7093" width="461.899" height="3.157" transform="translate(343.57 8866.072)" fill="#161616"/>
    <rect id="Rectángulo_7094" data-name="Rectángulo 7094" width="3.157" height="109.386" transform="translate(256.094 8867.651)" fill="#161616"/>
    <path id="Trazado_112533" data-name="Trazado 112533" d="M289.424,8866.892h-3.157c0-4.9-3.634-8.876-8.1-8.876s-8.1,3.98-8.1,8.876h-3.157c0-6.636,5.051-12.033,11.258-12.033S289.424,8860.256,289.424,8866.892Z" transform="translate(1.826 2.327)" fill="#161616"/>
    <path id="Trazado_112534" data-name="Trazado 112534" d="M306.357,8866.892H303.2c0-4.811-3.4-8.876-7.422-8.876s-7.424,4.065-7.424,8.876H285.2c0-6.636,4.747-12.033,10.581-12.033S306.357,8860.256,306.357,8866.892Z" transform="translate(2.785 2.327)" fill="#161616"/>
    <path id="Trazado_112535" data-name="Trazado 112535" d="M323.465,8866.892h-3.157c0-4.811-3.4-8.876-7.424-8.876s-7.423,4.065-7.423,8.876H302.3c0-6.636,4.747-12.033,10.58-12.033S323.465,8860.256,323.465,8866.892Z" transform="translate(3.682 2.327)" fill="#161616"/>
    <path id="Trazado_112536" data-name="Trazado 112536" d="M340.569,8866.892h-3.157c0-4.811-3.4-8.876-7.422-8.876s-7.423,4.065-7.423,8.876H319.41c0-6.636,4.747-12.033,10.58-12.033S340.569,8860.256,340.569,8866.892Z" transform="translate(4.579 2.327)" fill="#161616"/>
    <g id="Grupo_63015" data-name="Grupo 63015" transform="translate(255.819 8894.021)">
      <rect id="Rectángulo_7095" data-name="Rectángulo 7095" width="15.65" height="3.157" transform="translate(0 8.887)" fill="#161616"/>
      <rect id="Rectángulo_7096" data-name="Rectángulo 7096" width="461.899" height="3.157" transform="translate(87.752 8.887)" fill="#161616"/>
      <path id="Trazado_112537" data-name="Trazado 112537" d="M289.424,8901.893h-3.157c0-4.9-3.634-8.876-8.1-8.876s-8.1,3.98-8.1,8.876h-3.157c0-6.636,5.051-12.033,11.258-12.033S289.424,8895.257,289.424,8901.893Z" transform="translate(-253.993 -8889.859)" fill="#161616"/>
      <path id="Trazado_112538" data-name="Trazado 112538" d="M306.357,8901.893H303.2c0-4.812-3.4-8.876-7.422-8.876s-7.424,4.064-7.424,8.876H285.2c0-6.636,4.747-12.033,10.581-12.033S306.357,8895.257,306.357,8901.893Z" transform="translate(-253.034 -8889.859)" fill="#161616"/>
      <path id="Trazado_112539" data-name="Trazado 112539" d="M323.465,8901.893h-3.157c0-4.812-3.4-8.876-7.424-8.876s-7.423,4.064-7.423,8.876H302.3c0-6.636,4.747-12.033,10.58-12.033S323.465,8895.257,323.465,8901.893Z" transform="translate(-252.137 -8889.859)" fill="#161616"/>
      <path id="Trazado_112540" data-name="Trazado 112540" d="M340.569,8901.893h-3.157c0-4.812-3.4-8.876-7.422-8.876s-7.423,4.064-7.423,8.876H319.41c0-6.636,4.747-12.033,10.58-12.033S340.569,8895.257,340.569,8901.893Z" transform="translate(-251.239 -8889.859)" fill="#161616"/>
    </g>
    <g id="Grupo_63016" data-name="Grupo 63016" transform="translate(255.819 8931.039)">
      <rect id="Rectángulo_7097" data-name="Rectángulo 7097" width="15.65" height="3.157" transform="translate(0 8.888)" fill="#161616"/>
      <rect id="Rectángulo_7098" data-name="Rectángulo 7098" width="461.899" height="3.157" transform="translate(87.752 8.888)" fill="#161616"/>
      <path id="Trazado_112541" data-name="Trazado 112541" d="M289.424,8937.066h-3.157c0-4.895-3.634-8.876-8.1-8.876s-8.1,3.981-8.1,8.876h-3.157c0-6.636,5.051-12.034,11.258-12.034S289.424,8930.431,289.424,8937.066Z" transform="translate(-253.993 -8925.032)" fill="#161616"/>
      <path id="Trazado_112542" data-name="Trazado 112542" d="M306.357,8937.066H303.2c0-4.812-3.4-8.876-7.422-8.876s-7.424,4.063-7.424,8.876H285.2c0-6.636,4.747-12.034,10.581-12.034S306.357,8930.431,306.357,8937.066Z" transform="translate(-253.034 -8925.032)" fill="#161616"/>
      <path id="Trazado_112543" data-name="Trazado 112543" d="M323.465,8937.066h-3.157c0-4.812-3.4-8.876-7.424-8.876s-7.423,4.063-7.423,8.876H302.3c0-6.636,4.747-12.034,10.58-12.034S323.465,8930.431,323.465,8937.066Z" transform="translate(-252.137 -8925.032)" fill="#161616"/>
      <path id="Trazado_112544" data-name="Trazado 112544" d="M340.569,8937.066h-3.157c0-4.812-3.4-8.876-7.422-8.876s-7.423,4.063-7.423,8.876H319.41c0-6.636,4.747-12.034,10.58-12.034S340.569,8930.431,340.569,8937.066Z" transform="translate(-251.239 -8925.032)" fill="#161616"/>
    </g>
    <rect id="Rectángulo_7099" data-name="Rectángulo 7099" width="2.105" height="194.382" transform="translate(490.765 8867.651)" fill="#161616"/>
    <rect id="Rectángulo_7100" data-name="Rectángulo 7100" width="2.105" height="157.889" transform="translate(529.687 8904.145)" fill="#161616"/>
    <rect id="Rectángulo_7101" data-name="Rectángulo 7101" width="2.105" height="121.901" transform="translate(568.491 8940.133)" fill="#161616"/>
    <rect id="Rectángulo_7102" data-name="Rectángulo 7102" width="3.157" height="84.494" transform="translate(606.987 8977.54)" fill="#0d9bda"/>
    <g id="Grupo_63017" data-name="Grupo 63017" transform="translate(260.212 8976.318)">
      <rect id="Rectángulo_7103" data-name="Rectángulo 7103" width="545.257" height="3.157" fill="#0d9bda"/>
    </g>
    <circle id="Elipse_4221" data-name="Elipse 4221" cx="5.166" cy="5.166" r="5.166" transform="translate(613.361 9001.476)" fill="#161616"/>
    <rect id="Rectángulo_7104" data-name="Rectángulo 7104" width="32.795" height="2.105" transform="matrix(0.605, -0.796, 0.796, 0.605, 597.801, 9032.108)" fill="#161616"/>
    <rect id="Rectángulo_7105" data-name="Rectángulo 7105" width="38.094" height="2.385" transform="translate(472.783 9044.874)" fill="#161616"/>
    <rect id="Rectángulo_7106" data-name="Rectángulo 7106" width="6.383" height="2.385" transform="translate(517.809 9044.874)" fill="#161616"/>
    <rect id="Rectángulo_7107" data-name="Rectángulo 7107" width="30.118" height="2.385" transform="translate(473.586 9061.521) rotate(90)" fill="#161616"/>
    <rect id="Rectángulo_7108" data-name="Rectángulo 7108" width="38.094" height="2.385" transform="translate(627.053 9047.26) rotate(180)" fill="#161616"/>
    <rect id="Rectángulo_7109" data-name="Rectángulo 7109" width="6.383" height="2.385" transform="translate(582.026 9047.26) rotate(180)" fill="#161616"/>
    <rect id="Rectángulo_7110" data-name="Rectángulo 7110" width="11.644" height="2.385" transform="translate(627.367 9093.104) rotate(180)" fill="#161616"/>
    <rect id="Rectángulo_7111" data-name="Rectángulo 7111" width="6.347" height="2.385" transform="translate(609.474 9093.104) rotate(180)" fill="#161616"/>
    <rect id="Rectángulo_7112" data-name="Rectángulo 7112" width="7.093" height="2.385" transform="translate(551.772 9093.104) rotate(180)" fill="#161616"/>
    <rect id="Rectángulo_7113" data-name="Rectángulo 7113" width="7.093" height="2.385" transform="translate(494.144 9093.104) rotate(180)" fill="#161616"/>
    <rect id="Rectángulo_7114" data-name="Rectángulo 7114" width="9.442" height="2.385" transform="translate(480.691 9093.104) rotate(180)" fill="#161616"/>
    <rect id="Rectángulo_7115" data-name="Rectángulo 7115" width="39.431" height="2.385" transform="translate(539.142 9093.104) rotate(180)" fill="#161616"/>
    <rect id="Rectángulo_7116" data-name="Rectángulo 7116" width="38.712" height="2.385" transform="translate(596.742 9093.104) rotate(180)" fill="#161616"/>
    <rect id="Rectángulo_7117" data-name="Rectángulo 7117" width="6.383" height="2.385" transform="translate(626.711 9058.409) rotate(-90)" fill="#161616"/>
    <rect id="Rectángulo_7118" data-name="Rectángulo 7118" width="11.849" height="5.508" transform="translate(629.096 9066.255)" fill="#f7da06"/>
    <rect id="Rectángulo_7119" data-name="Rectángulo 7119" width="13.499" height="5.508" transform="translate(653.505 9066.255)" fill="#f7da06"/>
    <rect id="Rectángulo_7120" data-name="Rectángulo 7120" width="12.618" height="5.508" transform="translate(685.073 9066.255) rotate(90)" fill="#f7da06"/>
    <rect id="Rectángulo_7121" data-name="Rectángulo 7121" width="12.618" height="5.508" transform="translate(685.073 9078.873) rotate(90)" fill="#027931"/>
    <rect id="Rectángulo_7122" data-name="Rectángulo 7122" width="12.618" height="5.508" transform="translate(685.073 9091.489) rotate(90)" fill="#f7da06"/>
    <rect id="Rectángulo_7123" data-name="Rectángulo 7123" width="12.618" height="5.508" transform="translate(685.073 9104.107) rotate(90)" fill="#027931"/>
    <rect id="Rectángulo_7124" data-name="Rectángulo 7124" width="12.618" height="5.508" transform="translate(685.073 9116.726) rotate(90)" fill="#f7da06"/>
    <rect id="Rectángulo_7125" data-name="Rectángulo 7125" width="12.618" height="5.508" transform="translate(685.073 9129.344) rotate(90)" fill="#027931"/>
    <rect id="Rectángulo_7126" data-name="Rectángulo 7126" width="12.2" height="5.508" transform="translate(685.073 9141.962) rotate(90)" fill="#f7da06"/>
    <rect id="Rectángulo_7127" data-name="Rectángulo 7127" width="12.2" height="5.508" transform="translate(685.073 9154.162) rotate(90)" fill="#027931"/>
    <rect id="Rectángulo_7128" data-name="Rectángulo 7128" width="12.561" height="5.508" transform="translate(640.945 9066.255)" fill="#027931"/>
    <rect id="Rectángulo_7129" data-name="Rectángulo 7129" width="12.561" height="5.508" transform="translate(667.004 9066.255)" fill="#027931"/>
    <rect id="Rectángulo_7130" data-name="Rectángulo 7130" width="28.462" height="2.385" transform="translate(626.711 9093.104) rotate(-90)" fill="#161616"/>
    <rect id="Rectángulo_7131" data-name="Rectángulo 7131" width="38.757" height="2.385" transform="translate(530.786 9044.874)" fill="#161616"/>
    <rect id="Rectángulo_7132" data-name="Rectángulo 7132" width="45.392" height="5.4" transform="translate(660.14 9160.963)" fill="#027931"/>
    <rect id="Rectángulo_7133" data-name="Rectángulo 7133" width="25.167" height="5.766" transform="translate(670.116 9170.48)" fill="#f7da06"/>
    <rect id="Rectángulo_7134" data-name="Rectángulo 7134" width="6.46" height="6.46" transform="translate(679.565 9179.907)" fill="#027931"/>
    <rect id="Rectángulo_7135" data-name="Rectángulo 7135" width="11.823" height="4.822" transform="translate(259.771 9072.563) rotate(90)" fill="#f7da06"/>
    <rect id="Rectángulo_7136" data-name="Rectángulo 7136" width="11.823" height="4.822" transform="translate(259.771 9084.386) rotate(90)" fill="#027931"/>
    <rect id="Rectángulo_7137" data-name="Rectángulo 7137" width="11.823" height="4.822" transform="translate(259.772 9096.208) rotate(90)" fill="#f7da06"/>
    <rect id="Rectángulo_7138" data-name="Rectángulo 7138" width="11.823" height="4.822" transform="translate(259.771 9108.032) rotate(90)" fill="#027931"/>
    <rect id="Rectángulo_7139" data-name="Rectángulo 7139" width="11.823" height="4.822" transform="translate(259.771 9119.854) rotate(90)" fill="#f7da06"/>
    <rect id="Rectángulo_7140" data-name="Rectángulo 7140" width="11.823" height="4.822" transform="translate(259.771 9131.677) rotate(90)" fill="#027931"/>
    <rect id="Rectángulo_7141" data-name="Rectángulo 7141" width="11.431" height="4.822" transform="translate(259.771 9143.499) rotate(90)" fill="#f7da06"/>
    <rect id="Rectángulo_7142" data-name="Rectángulo 7142" width="11.431" height="4.822" transform="translate(259.772 9154.932) rotate(90)" fill="#027931"/>
    <rect id="Rectángulo_7143" data-name="Rectángulo 7143" width="22.559" height="4.822" transform="translate(259.772 8979.852) rotate(90)" fill="#027931"/>
    <rect id="Rectángulo_7144" data-name="Rectángulo 7144" width="11.823" height="4.822" transform="translate(259.772 9002.409) rotate(90)" fill="#f7da06"/>
    <rect id="Rectángulo_7145" data-name="Rectángulo 7145" width="11.823" height="4.822" transform="translate(259.772 9014.232) rotate(90)" fill="#027931"/>
    <rect id="Rectángulo_7146" data-name="Rectángulo 7146" width="11.823" height="4.822" transform="translate(259.771 9026.056) rotate(90)" fill="#f7da06"/>
    <rect id="Rectángulo_7147" data-name="Rectángulo 7147" width="11.823" height="4.822" transform="translate(259.771 9037.878) rotate(90)" fill="#027931"/>
    <rect id="Rectángulo_7148" data-name="Rectángulo 7148" width="11.431" height="4.822" transform="translate(259.771 9049.7) rotate(90)" fill="#f7da06"/>
    <rect id="Rectángulo_7149" data-name="Rectángulo 7149" width="11.431" height="4.822" transform="translate(259.772 9061.132) rotate(90)" fill="#027931"/>
    <rect id="Rectángulo_7150" data-name="Rectángulo 7150" width="45.392" height="5.4" transform="translate(234.839 9160.963)" fill="#027931"/>
    <rect id="Rectángulo_7151" data-name="Rectángulo 7151" width="25.167" height="5.766" transform="translate(244.814 9170.48)" fill="#f7da06"/>
    <rect id="Rectángulo_7152" data-name="Rectángulo 7152" width="6.46" height="6.46" transform="translate(254.263 9179.907)" fill="#027931"/>
    <rect id="Rectángulo_7153" data-name="Rectángulo 7153" width="2.105" height="22.656" transform="translate(694.779 9090.718)" fill="#161616"/>
    <rect id="Rectángulo_7154" data-name="Rectángulo 7154" width="41.148" height="2.104" transform="translate(669.29 9132.205) rotate(-51.305)" fill="#161616"/>
    <rect id="Rectángulo_7155" data-name="Rectángulo 7155" width="2.105" height="22.656" transform="translate(269.166 9071.793)" fill="#161616"/>
    <rect id="Rectángulo_7156" data-name="Rectángulo 7156" width="41.148" height="2.104" transform="translate(243.677 9113.281) rotate(-51.305)" fill="#161616"/>
    <rect id="Rectángulo_7157" data-name="Rectángulo 7157" width="1.052" height="38.117" transform="translate(232.093 8862.71)" fill="#161616"/>
    <rect id="Rectángulo_7158" data-name="Rectángulo 7158" width="1.052" height="6.726" transform="translate(232.093 8849.257)" fill="#161616"/>
    <rect id="Rectángulo_7159" data-name="Rectángulo 7159" width="1.052" height="6.727" transform="translate(232.093 8907.599)" fill="#161616"/>
    <rect id="Rectángulo_7160" data-name="Rectángulo 7160" width="1.052" height="38.299" transform="translate(232.093 8920.915)" fill="#161616"/>
    <rect id="Rectángulo_7161" data-name="Rectángulo 7161" width="1.052" height="6.635" transform="translate(232.093 8966.215)" fill="#161616"/>
    <rect id="Rectángulo_7162" data-name="Rectángulo 7162" width="1.052" height="12.218" transform="translate(232.093 8979.119)" fill="#161616"/>
    <rect id="Rectángulo_7163" data-name="Rectángulo 7163" width="1.052" height="12.217" transform="translate(232.093 8831)" fill="#161616"/>
    <rect id="Rectángulo_7164" data-name="Rectángulo 7164" width="16.656" height="1.052" transform="translate(232.093 8830.474)" fill="#161616"/>
    <rect id="Rectángulo_7165" data-name="Rectángulo 7165" width="6.315" height="1.052" transform="translate(258.839 8830.474)" fill="#161616"/>
    <rect id="Rectángulo_7166" data-name="Rectángulo 7166" width="38.918" height="1.052" transform="translate(271.469 8830.474)" fill="#161616"/>
    <rect id="Rectángulo_7167" data-name="Rectángulo 7167" width="6.999" height="1.052" transform="translate(316.565 8830.474)" fill="#161616"/>
    <rect id="Rectángulo_7168" data-name="Rectángulo 7168" width="39.398" height="1.052" transform="translate(329.33 8830.474)" fill="#161616"/>
    <rect id="Rectángulo_7169" data-name="Rectángulo 7169" width="1.052" height="6.36" transform="translate(371.29 8834.157)" fill="#161616"/>
    <rect id="Rectángulo_7170" data-name="Rectángulo 7170" width="1.052" height="38.711" transform="translate(371.29 8847.335)" fill="#161616"/>
    <rect id="Rectángulo_7171" data-name="Rectángulo 7171" width="1.052" height="6.178" transform="translate(371.29 8891.949)" fill="#161616"/>
    <rect id="Rectángulo_7172" data-name="Rectángulo 7172" width="1.052" height="39.787" transform="translate(371.29 8904.189)" fill="#161616"/>
    <rect id="Rectángulo_7173" data-name="Rectángulo 7173" width="1.052" height="6.589" transform="translate(371.29 8950.657)" fill="#161616"/>
    <rect id="Rectángulo_7174" data-name="Rectángulo 7174" width="1.052" height="28.37" transform="translate(371.29 8963.47)" fill="#161616"/>
    <circle id="Elipse_4222" data-name="Elipse 4222" cx="6.063" cy="6.063" r="6.063" transform="translate(251.609 8970.974)" fill="#161616"/>
    <circle id="Elipse_4223" data-name="Elipse 4223" cx="4.965" cy="4.965" r="4.965" transform="translate(298.649 8962.921)" fill="#161616"/>
    <rect id="Rectángulo_7175" data-name="Rectángulo 7175" width="30.862" height="2.106" transform="matrix(0.806, -0.592, 0.592, 0.806, 277.398, 8985.956)" fill="#161616"/>
    <g id="Grupo_63018" data-name="Grupo 63018" transform="translate(274.865 8810.488)">
      <path id="Trazado_112545" data-name="Trazado 112545" d="M280.688,8817.992h-5.38v5.334h-2.574v-12.838h8.853v1.984h-6.279v3.536h5.38Z" transform="translate(-272.734 -8810.488)"/>
      <path id="Trazado_112546" data-name="Trazado 112546" d="M288.057,8821.788a3.189,3.189,0,0,1-1.12,1.154,3.3,3.3,0,0,1-3.919-.559,4.458,4.458,0,0,1-.85-3v-5.757h2.565v5.788a2.471,2.471,0,0,0,.354,1.5,1.234,1.234,0,0,0,1.04.455,2.558,2.558,0,0,0,1.059-.2,1.772,1.772,0,0,0,.723-.588v-6.954h2.574v9.539h-2.2Z" transform="translate(-272.239 -8810.325)"/>
      <path id="Trazado_112547" data-name="Trazado 112547" d="M296.15,8823.357a4.292,4.292,0,0,1-3.3-1.323,4.725,4.725,0,0,1-1.235-3.359v-.353a5.221,5.221,0,0,1,1.167-3.5,4.355,4.355,0,0,1,6.133-.2,4.484,4.484,0,0,1,1.068,3.149v1.4h-5.7l-.018.052a2.478,2.478,0,0,0,.63,1.547,1.973,1.973,0,0,0,1.521.605,4.942,4.942,0,0,0,1.421-.172,6.516,6.516,0,0,0,1.235-.542l.7,1.59a4.743,4.743,0,0,1-1.526.794A6.631,6.631,0,0,1,296.15,8823.357Zm-.228-7.918a1.341,1.341,0,0,0-1.129.547,2.853,2.853,0,0,0-.51,1.436l.026.044h3.157v-.228a2.07,2.07,0,0,0-.384-1.31A1.38,1.38,0,0,0,295.921,8815.439Z" transform="translate(-271.744 -8810.333)"/>
      <path id="Trazado_112548" data-name="Trazado 112548" d="M303.352,8813.632l.114,1.366a3.486,3.486,0,0,1,1.173-1.138,3.041,3.041,0,0,1,1.561-.406,2.872,2.872,0,0,1,2.258.909,4.2,4.2,0,0,1,.81,2.848v5.96h-2.583v-5.965a1.936,1.936,0,0,0-.388-1.365,1.561,1.561,0,0,0-1.172-.4,1.972,1.972,0,0,0-.917.207,1.875,1.875,0,0,0-.68.588v6.937h-2.574v-9.539Z" transform="translate(-271.254 -8810.333)"/>
      <path id="Trazado_112549" data-name="Trazado 112549" d="M313.785,8811.4v2.338h1.6v1.808h-1.6v4.858a1.127,1.127,0,0,0,.228.793.817.817,0,0,0,.618.237,2.254,2.254,0,0,0,.348-.021,3.07,3.07,0,0,0,.34-.074l.22,1.86a5.062,5.062,0,0,1-.759.2,4.477,4.477,0,0,1-.8.066,2.742,2.742,0,0,1-2.05-.732,3.208,3.208,0,0,1-.719-2.318v-4.867h-1.393v-1.808h1.393V8811.4Z" transform="translate(-270.789 -8810.44)"/>
      <path id="Trazado_112550" data-name="Trazado 112550" d="M320.909,8823.357a4.3,4.3,0,0,1-3.3-1.323,4.729,4.729,0,0,1-1.233-3.359v-.353a5.221,5.221,0,0,1,1.167-3.5,4.355,4.355,0,0,1,6.133-.2,4.484,4.484,0,0,1,1.068,3.149v1.4h-5.7l-.018.052a2.478,2.478,0,0,0,.63,1.547,1.973,1.973,0,0,0,1.521.605,4.943,4.943,0,0,0,1.421-.172,6.481,6.481,0,0,0,1.233-.542l.7,1.59a4.75,4.75,0,0,1-1.527.794A6.619,6.619,0,0,1,320.909,8823.357Zm-.229-7.918a1.339,1.339,0,0,0-1.128.547,2.843,2.843,0,0,0-.51,1.436l.025.044h3.157v-.228a2.069,2.069,0,0,0-.383-1.31A1.381,1.381,0,0,0,320.679,8815.439Z" transform="translate(-270.445 -8810.333)"/>
    </g>
    <g id="Grupo_63019" data-name="Grupo 63019" transform="translate(517.788 9099.618)">
      <path id="Trazado_112551" data-name="Trazado 112551" d="M511.443,9093.277h-5.316v3.66h6.217v1.983h-8.792v-12.839h8.773v1.985h-6.2v3.227h5.316Z" transform="translate(-503.552 -9085.165)"/>
      <path id="Trazado_112552" data-name="Trazado 112552" d="M512.718,9094.075a6.2,6.2,0,0,1,.975-3.643,3.165,3.165,0,0,1,2.747-1.384,2.722,2.722,0,0,1,1.393.348,3.121,3.121,0,0,1,1.031,1l.238-1.172h2.187v13.207h-2.574v-4.559a2.831,2.831,0,0,1-.992.8,2.974,2.974,0,0,1-1.3.273,3.226,3.226,0,0,1-2.729-1.287,5.5,5.5,0,0,1-.975-3.4Zm2.566.18a3.966,3.966,0,0,0,.423,1.981,1.47,1.47,0,0,0,1.377.731,2.076,2.076,0,0,0,.969-.212,1.708,1.708,0,0,0,.662-.616v-4.227a1.807,1.807,0,0,0-.657-.651,1.908,1.908,0,0,0-.958-.229,1.452,1.452,0,0,0-1.38.846,4.785,4.785,0,0,0-.437,2.192Z" transform="translate(-503.071 -9085.011)"/>
      <path id="Trazado_112553" data-name="Trazado 112553" d="M528.612,9097.381a3.2,3.2,0,0,1-1.12,1.156,3.3,3.3,0,0,1-3.919-.56,4.461,4.461,0,0,1-.851-3v-5.756h2.566V9095a2.473,2.473,0,0,0,.354,1.5,1.233,1.233,0,0,0,1.04.456,2.558,2.558,0,0,0,1.059-.2,1.761,1.761,0,0,0,.722-.588v-6.954h2.575v9.54h-2.2Z" transform="translate(-502.547 -9085.002)"/>
      <path id="Trazado_112554" data-name="Trazado 112554" d="M535.167,9087.143h-2.575v-1.932h2.575Zm0,11.824h-2.575v-9.54h2.575Z" transform="translate(-502.029 -9085.211)"/>
      <path id="Trazado_112555" data-name="Trazado 112555" d="M545.655,9094.26a5.481,5.481,0,0,1-.978,3.4,3.239,3.239,0,0,1-2.733,1.287,3.065,3.065,0,0,1-1.332-.277,2.751,2.751,0,0,1-1-.816v4.575h-2.567v-13.207h2.32l.149,1.128a3.052,3.052,0,0,1,1.019-.965,2.752,2.752,0,0,1,1.388-.34,3.177,3.177,0,0,1,2.752,1.384,6.18,6.18,0,0,1,.978,3.643Zm-2.574-.2a4.635,4.635,0,0,0-.449-2.188,1.468,1.468,0,0,0-1.376-.84,1.941,1.941,0,0,0-.992.239,1.688,1.688,0,0,0-.647.68v4.186a1.571,1.571,0,0,0,.647.619,2.188,2.188,0,0,0,1.009.212,1.483,1.483,0,0,0,1.372-.733,3.883,3.883,0,0,0,.436-1.987Z" transform="translate(-501.795 -9085.011)"/>
      <path id="Trazado_112556" data-name="Trazado 112556" d="M546.358,9093.907a5.121,5.121,0,0,1,1.19-3.5,4.147,4.147,0,0,1,3.3-1.362,4.19,4.19,0,0,1,3.315,1.358,5.094,5.094,0,0,1,1.2,3.5v.186a5.1,5.1,0,0,1-1.195,3.5,4.716,4.716,0,0,1-6.614,0,5.1,5.1,0,0,1-1.195-3.5Zm2.566.181a4.129,4.129,0,0,0,.459,2.091,1.762,1.762,0,0,0,2.941,0,4.115,4.115,0,0,0,.462-2.087v-.185a4.07,4.07,0,0,0-.466-2.069,1.582,1.582,0,0,0-1.472-.8,1.561,1.561,0,0,0-1.46.807,4.1,4.1,0,0,0-.463,2.064Z" transform="translate(-501.307 -9085.011)"/>
    </g>
    <g id="Grupo_63020" data-name="Grupo 63020" transform="translate(817.179 8860.751)">
      <path id="Trazado_112557" data-name="Trazado 112557" d="M791.548,8873.1h7.818v2.714H788.024v-17.567h3.524Z" transform="translate(-788.024 -8858.246)"/>
      <path id="Trazado_112558" data-name="Trazado 112558" d="M808.222,8875.813H804.7v-14.454h-3.571v-2.485l7.095-.628Z" transform="translate(-787.337 -8858.246)"/>
    </g>
    <g id="Grupo_63021" data-name="Grupo 63021" transform="translate(817.179 8894.268)">
      <path id="Trazado_112559" data-name="Trazado 112559" d="M791.548,8905.187h7.818v2.714H788.024v-17.567h3.524Z" transform="translate(-788.024 -8890.08)"/>
      <path id="Trazado_112560" data-name="Trazado 112560" d="M812.309,8907.913H800.315v-2.3l5.684-6.094a13.773,13.773,0,0,0,1.749-2.383,3.87,3.87,0,0,0,.519-1.8,2.711,2.711,0,0,0-.6-1.815,2.094,2.094,0,0,0-1.7-.706,2.186,2.186,0,0,0-1.851.826,3.521,3.521,0,0,0-.634,2.2h-3.427l-.024-.073a5.314,5.314,0,0,1,1.562-4.023,5.864,5.864,0,0,1,4.374-1.646,6.1,6.1,0,0,1,4.266,1.41,4.844,4.844,0,0,1,1.551,3.766,5.29,5.29,0,0,1-.876,2.938,28.992,28.992,0,0,1-2.889,3.528l-3.126,3.4.024.061h7.384Z" transform="translate(-787.394 -8890.093)"/>
    </g>
    <g id="Grupo_63022" data-name="Grupo 63022" transform="translate(817.179 8932.979)">
      <path id="Trazado_112561" data-name="Trazado 112561" d="M791.548,8941.969h7.818v2.715H788.024v-17.567h3.524Z" transform="translate(-788.024 -8926.863)"/>
      <path id="Trazado_112562" data-name="Trazado 112562" d="M803.878,8934.417h1.98a2.4,2.4,0,0,0,1.859-.657,2.6,2.6,0,0,0,.6-1.828,2.381,2.381,0,0,0-.6-1.7,2.3,2.3,0,0,0-1.75-.639,2.466,2.466,0,0,0-1.665.58,1.9,1.9,0,0,0-.676,1.52h-3.414l-.025-.073a4,4,0,0,1,1.581-3.4,6.3,6.3,0,0,1,4.1-1.339,6.75,6.75,0,0,1,4.351,1.3,4.492,4.492,0,0,1,1.623,3.715,3.729,3.729,0,0,1-.725,2.179,4.819,4.819,0,0,1-1.99,1.611,4.49,4.49,0,0,1,2.226,1.592,4.192,4.192,0,0,1,.766,2.5,4.56,4.56,0,0,1-1.756,3.794,7.04,7.04,0,0,1-4.494,1.383,6.882,6.882,0,0,1-4.2-1.3,4.144,4.144,0,0,1-1.7-3.662l.024-.074h3.415a2.144,2.144,0,0,0,.723,1.664,2.636,2.636,0,0,0,1.834.653,2.669,2.669,0,0,0,1.925-.674,2.41,2.41,0,0,0,.706-1.83,2.65,2.65,0,0,0-.695-2.028,2.91,2.91,0,0,0-2.045-.644h-1.98Z" transform="translate(-787.398 -8926.877)"/>
    </g>
    <g id="Grupo_63023" data-name="Grupo 63023" transform="translate(817.179 8967.642)">
      <path id="Trazado_112563" data-name="Trazado 112563" d="M802.225,8977.38h-3.511l-7.095-12.006-.072.013v11.993h-3.524v-17.569h3.524l7.093,11.994.073-.011v-11.983h3.511Z" transform="translate(-788.024 -8959.811)"/>
    </g>
    <rect id="Rectángulo_7176" data-name="Rectángulo 7176" width="10.913" height="1.052" transform="translate(232.093 8990.604)" fill="#161616"/>
    <rect id="Rectángulo_7177" data-name="Rectángulo 7177" width="38.62" height="1.052" transform="translate(244.792 8990.604)" fill="#161616"/>
    <rect id="Rectángulo_7178" data-name="Rectángulo 7178" width="7" height="1.052" transform="translate(289.772 8990.811)" fill="#161616"/>
    <rect id="Rectángulo_7179" data-name="Rectángulo 7179" width="38.621" height="1.052" transform="translate(303.179 8990.811)" fill="#161616"/>
    <rect id="Rectángulo_7180" data-name="Rectángulo 7180" width="6.36" height="1.052" transform="translate(348.114 8990.811)" fill="#161616"/>
    <rect id="Rectángulo_7181" data-name="Rectángulo 7181" width="11.554" height="1.052" transform="translate(360.789 8990.811)" fill="#161616"/>
    <rect id="Rectángulo_7182" data-name="Rectángulo 7182" width="6.383" height="2.385" transform="translate(471.201 9057.539) rotate(-90)" fill="#161616"/>
    <circle id="Elipse_4224" data-name="Elipse 4224" cx="6.063" cy="6.063" r="6.063" transform="translate(602.283 8971.478)" fill="#161616"/>
  </g>
</svg>
