<svg xmlns="http://www.w3.org/2000/svg" width="820" height="505.28" viewBox="0 0 820 505.28">
  <g id="Grupo_63071" data-name="Grupo 63071" transform="translate(-341.337 -113.772)">
    <circle id="Elipse_4247" data-name="Elipse 4247" cx="8.15" cy="8.15" r="8.15" transform="translate(367.571 231.582)" fill="#161616"/>
    <circle id="Elipse_4248" data-name="Elipse 4248" cx="8.15" cy="8.15" r="8.15" transform="translate(682.325 182.726)" fill="#161616"/>
    <path id="Trazado_112639" data-name="Trazado 112639" d="M591.378,373.443a11.118,11.118,0,1,1,11.12-11.119A11.131,11.131,0,0,1,591.378,373.443Zm0-19.406a8.288,8.288,0,1,0,8.29,8.288A8.3,8.3,0,0,0,591.378,354.036Z" transform="translate(99.096 98.478)" fill="#161616"/>
    <path id="Trazado_112640" data-name="Trazado 112640" d="M628.361,373.443a11.118,11.118,0,1,1,11.119-11.119A11.132,11.132,0,0,1,628.361,373.443Zm0-19.406a8.288,8.288,0,1,0,8.289,8.288A8.3,8.3,0,0,0,628.361,354.036Z" transform="translate(114.435 98.478)" fill="#161616"/>
    <path id="Trazado_112641" data-name="Trazado 112641" d="M665.232,373.443a11.118,11.118,0,1,1,11.117-11.119A11.132,11.132,0,0,1,665.232,373.443Zm0-19.406a8.288,8.288,0,1,0,8.288,8.288A8.3,8.3,0,0,0,665.232,354.036Z" transform="translate(129.726 98.478)" fill="#161616"/>
    <path id="Trazado_112642" data-name="Trazado 112642" d="M702.309,373.443a11.118,11.118,0,1,1,11.119-11.119A11.131,11.131,0,0,1,702.309,373.443Zm0-19.406a8.288,8.288,0,1,0,8.289,8.288A8.3,8.3,0,0,0,702.309,354.036Z" transform="translate(145.106 98.478)" fill="#161616"/>
    <circle id="Elipse_4249" data-name="Elipse 4249" cx="8.15" cy="8.15" r="8.15" transform="translate(734.646 231.52)" fill="#161616"/>
    <circle id="Elipse_4250" data-name="Elipse 4250" cx="8.15" cy="8.15" r="8.15" transform="translate(786.807 280.975)" fill="#161616"/>
    <circle id="Elipse_4251" data-name="Elipse 4251" cx="8.15" cy="8.15" r="8.15" transform="translate(367.571 280.544)" fill="#161616"/>
    <rect id="Rectángulo_7417" data-name="Rectángulo 7417" width="21.038" height="4.244" transform="translate(373.23 188.492)" fill="#161616"/>
    <rect id="Rectángulo_7418" data-name="Rectángulo 7418" width="620.913" height="4.244" transform="translate(491.191 188.492)" fill="#161616"/>
    <rect id="Rectángulo_7419" data-name="Rectángulo 7419" width="4.244" height="147.044" transform="translate(373.6 190.614)" fill="#161616"/>
    <path id="Trazado_112643" data-name="Trazado 112643" d="M406.42,174.318h-4.244c0-6.579-4.885-11.931-10.891-11.931s-10.891,5.352-10.891,11.931H376.15c0-8.92,6.789-16.175,15.135-16.175S406.42,165.4,406.42,174.318Z" transform="translate(14.439 18.403)" fill="#161616"/>
    <path id="Trazado_112644" data-name="Trazado 112644" d="M422.886,174.318h-4.244c0-6.467-4.57-11.931-9.978-11.931s-9.978,5.464-9.978,11.931h-4.244c0-8.92,6.379-16.175,14.223-16.175S422.886,165.4,422.886,174.318Z" transform="translate(22.025 18.403)" fill="#161616"/>
    <path id="Trazado_112645" data-name="Trazado 112645" d="M439.992,174.318h-4.244c0-6.467-4.57-11.931-9.978-11.931s-9.978,5.464-9.978,11.931h-4.244c0-8.92,6.381-16.175,14.223-16.175S439.992,165.4,439.992,174.318Z" transform="translate(29.12 18.403)" fill="#161616"/>
    <path id="Trazado_112646" data-name="Trazado 112646" d="M457.1,174.318h-4.244c0-6.467-4.57-11.931-9.978-11.931s-9.978,5.464-9.978,11.931h-4.244c0-8.92,6.381-16.175,14.223-16.175S457.1,165.4,457.1,174.318Z" transform="translate(36.215 18.403)" fill="#161616"/>
    <g id="Grupo_63062" data-name="Grupo 63062" transform="translate(373.23 226.063)">
      <rect id="Rectángulo_7420" data-name="Rectángulo 7420" width="21.038" height="4.244" transform="translate(0 11.946)" fill="#161616"/>
      <rect id="Rectángulo_7421" data-name="Rectángulo 7421" width="620.913" height="4.244" transform="translate(117.961 11.946)" fill="#161616"/>
      <path id="Trazado_112647" data-name="Trazado 112647" d="M406.42,209.318h-4.244c0-6.579-4.885-11.931-10.891-11.931s-10.891,5.352-10.891,11.931H376.15c0-8.92,6.789-16.175,15.135-16.175S406.42,200.4,406.42,209.318Z" transform="translate(-358.791 -193.143)" fill="#161616"/>
      <path id="Trazado_112648" data-name="Trazado 112648" d="M422.886,209.318h-4.244c0-6.467-4.57-11.931-9.978-11.931s-9.978,5.464-9.978,11.931h-4.244c0-8.92,6.379-16.175,14.223-16.175S422.886,200.4,422.886,209.318Z" transform="translate(-351.204 -193.143)" fill="#161616"/>
      <path id="Trazado_112649" data-name="Trazado 112649" d="M439.992,209.318h-4.244c0-6.467-4.57-11.931-9.978-11.931s-9.978,5.464-9.978,11.931h-4.244c0-8.92,6.381-16.175,14.223-16.175S439.992,200.4,439.992,209.318Z" transform="translate(-344.11 -193.143)" fill="#161616"/>
      <path id="Trazado_112650" data-name="Trazado 112650" d="M457.1,209.318h-4.244c0-6.467-4.57-11.931-9.978-11.931s-9.978,5.464-9.978,11.931h-4.244c0-8.92,6.381-16.175,14.223-16.175S457.1,200.4,457.1,209.318Z" transform="translate(-337.015 -193.143)" fill="#161616"/>
    </g>
    <g id="Grupo_63063" data-name="Grupo 63063" transform="translate(373.23 275.824)">
      <rect id="Rectángulo_7422" data-name="Rectángulo 7422" width="21.038" height="4.244" transform="translate(0 11.949)" fill="#161616"/>
      <rect id="Rectángulo_7423" data-name="Rectángulo 7423" width="620.913" height="4.244" transform="translate(117.961 11.949)" fill="#161616"/>
      <path id="Trazado_112651" data-name="Trazado 112651" d="M406.42,244.492h-4.244c0-6.579-4.885-11.932-10.891-11.932s-10.891,5.353-10.891,11.932H376.15c0-8.92,6.789-16.176,15.135-16.176S406.42,235.572,406.42,244.492Z" transform="translate(-358.791 -228.316)" fill="#161616"/>
      <path id="Trazado_112652" data-name="Trazado 112652" d="M422.886,244.492h-4.244c0-6.467-4.57-11.932-9.978-11.932s-9.978,5.465-9.978,11.932h-4.244c0-8.92,6.379-16.176,14.223-16.176S422.886,235.572,422.886,244.492Z" transform="translate(-351.204 -228.316)" fill="#161616"/>
      <path id="Trazado_112653" data-name="Trazado 112653" d="M439.992,244.492h-4.244c0-6.467-4.57-11.932-9.978-11.932s-9.978,5.465-9.978,11.932h-4.244c0-8.92,6.381-16.176,14.223-16.176S439.992,235.572,439.992,244.492Z" transform="translate(-344.11 -228.316)" fill="#161616"/>
      <path id="Trazado_112654" data-name="Trazado 112654" d="M457.1,244.492h-4.244c0-6.467-4.57-11.932-9.978-11.932s-9.978,5.465-9.978,11.932h-4.244c0-8.92,6.381-16.176,14.223-16.176S457.1,235.572,457.1,244.492Z" transform="translate(-337.015 -228.316)" fill="#161616"/>
    </g>
    <rect id="Rectángulo_7424" data-name="Rectángulo 7424" width="2.83" height="261.301" transform="translate(689.06 190.614)" fill="#161616"/>
    <rect id="Rectángulo_7425" data-name="Rectángulo 7425" width="2.83" height="212.244" transform="translate(741.381 239.671)" fill="#161616"/>
    <rect id="Rectángulo_7426" data-name="Rectángulo 7426" width="2.83" height="163.866" transform="translate(793.543 288.049)" fill="#161616"/>
    <rect id="Rectángulo_7427" data-name="Rectángulo 7427" width="4.244" height="113.581" transform="translate(845.292 338.334)" fill="#0d9bda"/>
    <g id="Grupo_63064" data-name="Grupo 63064" transform="translate(379.136 336.691)">
      <rect id="Rectángulo_7428" data-name="Rectángulo 7428" width="732.968" height="4.244" fill="#0d9bda"/>
    </g>
    <circle id="Elipse_4252" data-name="Elipse 4252" cx="6.945" cy="6.945" r="6.945" transform="translate(853.86 370.511)" fill="#161616"/>
    <rect id="Rectángulo_7429" data-name="Rectángulo 7429" width="44.086" height="2.83" transform="matrix(0.605, -0.796, 0.796, 0.605, 832.943, 411.688)" fill="#161616"/>
    <rect id="Rectángulo_7430" data-name="Rectángulo 7430" width="51.208" height="3.206" transform="translate(664.886 428.848)" fill="#161616"/>
    <rect id="Rectángulo_7431" data-name="Rectángulo 7431" width="8.581" height="3.206" transform="translate(725.413 428.848)" fill="#161616"/>
    <rect id="Rectángulo_7432" data-name="Rectángulo 7432" width="40.486" height="3.206" transform="translate(665.966 451.227) rotate(90)" fill="#161616"/>
    <rect id="Rectángulo_7433" data-name="Rectángulo 7433" width="51.208" height="3.206" transform="translate(872.266 432.054) rotate(180)" fill="#161616"/>
    <rect id="Rectángulo_7434" data-name="Rectángulo 7434" width="8.581" height="3.206" transform="translate(811.739 432.054) rotate(180)" fill="#161616"/>
    <rect id="Rectángulo_7435" data-name="Rectángulo 7435" width="15.652" height="3.206" transform="translate(872.687 493.681) rotate(180)" fill="#161616"/>
    <rect id="Rectángulo_7436" data-name="Rectángulo 7436" width="8.532" height="3.206" transform="translate(848.636 493.681) rotate(180)" fill="#161616"/>
    <rect id="Rectángulo_7437" data-name="Rectángulo 7437" width="9.535" height="3.206" transform="translate(771.068 493.681) rotate(180)" fill="#161616"/>
    <rect id="Rectángulo_7438" data-name="Rectángulo 7438" width="9.535" height="3.206" transform="translate(693.602 493.681) rotate(180)" fill="#161616"/>
    <rect id="Rectángulo_7439" data-name="Rectángulo 7439" width="12.692" height="3.206" transform="translate(675.518 493.681) rotate(180)" fill="#161616"/>
    <rect id="Rectángulo_7440" data-name="Rectángulo 7440" width="53.005" height="3.206" transform="translate(754.091 493.681) rotate(180)" fill="#161616"/>
    <rect id="Rectángulo_7441" data-name="Rectángulo 7441" width="52.039" height="3.206" transform="translate(831.52 493.681) rotate(180)" fill="#161616"/>
    <rect id="Rectángulo_7442" data-name="Rectángulo 7442" width="8.581" height="3.206" transform="translate(871.806 447.044) rotate(-90)" fill="#161616"/>
    <rect id="Rectángulo_7443" data-name="Rectángulo 7443" width="15.928" height="7.404" transform="translate(875.012 457.589)" fill="#f7da06"/>
    <rect id="Rectángulo_7444" data-name="Rectángulo 7444" width="18.146" height="7.404" transform="translate(907.825 457.589)" fill="#f7da06"/>
    <rect id="Rectángulo_7445" data-name="Rectángulo 7445" width="16.962" height="7.404" transform="translate(950.26 457.589) rotate(90)" fill="#f7da06"/>
    <rect id="Rectángulo_7446" data-name="Rectángulo 7446" width="16.962" height="7.404" transform="translate(950.26 474.551) rotate(90)" fill="#027931"/>
    <rect id="Rectángulo_7447" data-name="Rectángulo 7447" width="16.962" height="7.404" transform="translate(950.26 491.513) rotate(90)" fill="#f7da06"/>
    <rect id="Rectángulo_7448" data-name="Rectángulo 7448" width="16.962" height="7.404" transform="translate(950.26 508.474) rotate(90)" fill="#027931"/>
    <rect id="Rectángulo_7449" data-name="Rectángulo 7449" width="16.962" height="7.404" transform="translate(950.26 525.436) rotate(90)" fill="#f7da06"/>
    <rect id="Rectángulo_7450" data-name="Rectángulo 7450" width="16.962" height="7.404" transform="translate(950.26 542.398) rotate(90)" fill="#027931"/>
    <rect id="Rectángulo_7451" data-name="Rectángulo 7451" width="16.4" height="7.404" transform="translate(950.26 559.36) rotate(90)" fill="#f7da06"/>
    <rect id="Rectángulo_7452" data-name="Rectángulo 7452" width="16.4" height="7.404" transform="translate(950.26 575.76) rotate(90)" fill="#027931"/>
    <rect id="Rectángulo_7453" data-name="Rectángulo 7453" width="16.885" height="7.404" transform="translate(890.94 457.589)" fill="#027931"/>
    <rect id="Rectángulo_7454" data-name="Rectángulo 7454" width="16.885" height="7.404" transform="translate(925.971 457.589)" fill="#027931"/>
    <rect id="Rectángulo_7455" data-name="Rectángulo 7455" width="38.26" height="3.206" transform="translate(871.806 493.681) rotate(-90)" fill="#161616"/>
    <rect id="Rectángulo_7456" data-name="Rectángulo 7456" width="52.1" height="3.206" transform="translate(742.858 428.848)" fill="#161616"/>
    <rect id="Rectángulo_7457" data-name="Rectángulo 7457" width="61.019" height="7.258" transform="translate(916.744 584.902)" fill="#027931"/>
    <rect id="Rectángulo_7458" data-name="Rectángulo 7458" width="33.831" height="7.75" transform="translate(930.154 597.697)" fill="#f7da06"/>
    <rect id="Rectángulo_7459" data-name="Rectángulo 7459" width="8.684" height="8.684" transform="translate(942.856 610.368)" fill="#027931"/>
    <rect id="Rectángulo_7460" data-name="Rectángulo 7460" width="2.83" height="30.456" transform="translate(963.307 490.474)" fill="#161616"/>
    <rect id="Rectángulo_7461" data-name="Rectángulo 7461" width="55.313" height="2.829" transform="translate(929.044 546.245) rotate(-51.305)" fill="#161616"/>
    <rect id="Rectángulo_7462" data-name="Rectángulo 7462" width="1.415" height="51.239" transform="translate(341.337 183.972)" fill="#161616"/>
    <rect id="Rectángulo_7463" data-name="Rectángulo 7463" width="1.415" height="9.041" transform="translate(341.337 165.888)" fill="#161616"/>
    <rect id="Rectángulo_7464" data-name="Rectángulo 7464" width="1.415" height="9.043" transform="translate(341.337 244.315)" fill="#161616"/>
    <rect id="Rectángulo_7465" data-name="Rectángulo 7465" width="1.415" height="51.484" transform="translate(341.337 262.215)" fill="#161616"/>
    <rect id="Rectángulo_7466" data-name="Rectángulo 7466" width="1.415" height="8.92" transform="translate(341.337 323.11)" fill="#161616"/>
    <rect id="Rectángulo_7467" data-name="Rectángulo 7467" width="1.415" height="16.424" transform="translate(341.337 340.456)" fill="#161616"/>
    <rect id="Rectángulo_7468" data-name="Rectángulo 7468" width="1.415" height="16.423" transform="translate(341.337 141.345)" fill="#161616"/>
    <rect id="Rectángulo_7469" data-name="Rectángulo 7469" width="22.39" height="1.415" transform="translate(341.337 140.638)" fill="#161616"/>
    <rect id="Rectángulo_7470" data-name="Rectángulo 7470" width="8.489" height="1.415" transform="translate(377.29 140.638)" fill="#161616"/>
    <rect id="Rectángulo_7471" data-name="Rectángulo 7471" width="52.316" height="1.415" transform="translate(394.267 140.638)" fill="#161616"/>
    <rect id="Rectángulo_7472" data-name="Rectángulo 7472" width="9.409" height="1.415" transform="translate(454.889 140.638)" fill="#161616"/>
    <rect id="Rectángulo_7473" data-name="Rectángulo 7473" width="52.961" height="1.415" transform="translate(472.049 140.638)" fill="#161616"/>
    <rect id="Rectángulo_7474" data-name="Rectángulo 7474" width="1.415" height="8.549" transform="translate(528.454 145.589)" fill="#161616"/>
    <rect id="Rectángulo_7475" data-name="Rectángulo 7475" width="1.415" height="52.038" transform="translate(528.454 163.304)" fill="#161616"/>
    <rect id="Rectángulo_7476" data-name="Rectángulo 7476" width="1.415" height="8.305" transform="translate(528.454 223.277)" fill="#161616"/>
    <rect id="Rectángulo_7477" data-name="Rectángulo 7477" width="1.415" height="53.485" transform="translate(528.454 239.732)" fill="#161616"/>
    <rect id="Rectángulo_7478" data-name="Rectángulo 7478" width="1.415" height="8.857" transform="translate(528.454 302.197)" fill="#161616"/>
    <rect id="Rectángulo_7479" data-name="Rectángulo 7479" width="1.415" height="38.136" transform="translate(528.454 319.42)" fill="#161616"/>
    <circle id="Elipse_4253" data-name="Elipse 4253" cx="8.15" cy="8.15" r="8.15" transform="translate(367.571 329.507)" fill="#161616"/>
    <circle id="Elipse_4254" data-name="Elipse 4254" cx="6.674" cy="6.674" r="6.674" transform="translate(430.805 318.681)" fill="#161616"/>
    <rect id="Rectángulo_7480" data-name="Rectángulo 7480" width="41.487" height="2.831" transform="matrix(0.806, -0.592, 0.592, 0.806, 402.239, 349.648)" fill="#161616"/>
    <g id="Grupo_63065" data-name="Grupo 63065" transform="translate(398.834 113.772)">
      <path id="Trazado_112655" data-name="Trazado 112655" d="M392.669,123.859h-7.231v7.173h-3.461v-17.26h11.9v2.668h-8.44v4.754h7.231Z" transform="translate(-381.978 -113.772)"/>
      <path id="Trazado_112656" data-name="Trazado 112656" d="M399.329,127.883a4.307,4.307,0,0,1-1.507,1.553,4.443,4.443,0,0,1-5.267-.754,5.989,5.989,0,0,1-1.145-4.036v-7.74h3.449v7.781a3.324,3.324,0,0,0,.475,2.015,1.658,1.658,0,0,0,1.4.613,3.443,3.443,0,0,0,1.423-.269,2.382,2.382,0,0,0,.971-.789v-9.35h3.462v12.826h-2.951Z" transform="translate(-378.066 -112.472)"/>
      <path id="Trazado_112657" data-name="Trazado 112657" d="M406.954,130.049a5.776,5.776,0,0,1-4.432-1.777,6.359,6.359,0,0,1-1.66-4.517v-.474a7.018,7.018,0,0,1,1.57-4.705,5.853,5.853,0,0,1,8.244-.272,6.019,6.019,0,0,1,1.436,4.232v1.884h-7.659l-.023.071a3.322,3.322,0,0,0,.847,2.077,2.647,2.647,0,0,0,2.044.816,6.649,6.649,0,0,0,1.909-.232,8.829,8.829,0,0,0,1.66-.729l.936,2.139a6.439,6.439,0,0,1-2.051,1.065A8.888,8.888,0,0,1,406.954,130.049Zm-.308-10.643a1.8,1.8,0,0,0-1.517.736,3.8,3.8,0,0,0-.686,1.931l.034.059h4.244v-.308a2.78,2.78,0,0,0-.515-1.76A1.857,1.857,0,0,0,406.646,119.406Z" transform="translate(-374.146 -112.542)"/>
      <path id="Trazado_112658" data-name="Trazado 112658" d="M413.422,116.976l.153,1.838a4.694,4.694,0,0,1,1.576-1.529,4.1,4.1,0,0,1,2.1-.546,3.852,3.852,0,0,1,3.033,1.222,5.634,5.634,0,0,1,1.091,3.828V129.8H417.9v-8.019a2.6,2.6,0,0,0-.522-1.836,2.1,2.1,0,0,0-1.577-.54,2.656,2.656,0,0,0-1.232.279,2.538,2.538,0,0,0-.913.791V129.8H410.2V116.976Z" transform="translate(-370.274 -112.542)"/>
      <path id="Trazado_112659" data-name="Trazado 112659" d="M424.394,114.686v3.141h2.158v2.431h-2.158v6.531a1.5,1.5,0,0,0,.308,1.067,1.1,1.1,0,0,0,.83.321,2.99,2.99,0,0,0,.468-.031,3.933,3.933,0,0,0,.456-.1l.3,2.5a6.839,6.839,0,0,1-1.02.267,6.11,6.11,0,0,1-1.077.088,3.685,3.685,0,0,1-2.756-.983,4.309,4.309,0,0,1-.966-3.117v-6.543H419.06v-2.431h1.873v-3.141Z" transform="translate(-366.598 -113.393)"/>
      <path id="Trazado_112660" data-name="Trazado 112660" d="M431.713,130.049a5.774,5.774,0,0,1-4.432-1.777,6.359,6.359,0,0,1-1.66-4.517v-.474a7.01,7.01,0,0,1,1.57-4.705,5.853,5.853,0,0,1,8.244-.272,6.018,6.018,0,0,1,1.435,4.232v1.884h-7.658l-.023.071a3.329,3.329,0,0,0,.846,2.077,2.653,2.653,0,0,0,2.046.816,6.649,6.649,0,0,0,1.909-.232,8.83,8.83,0,0,0,1.659-.729l.937,2.139a6.44,6.44,0,0,1-2.051,1.065A8.893,8.893,0,0,1,431.713,130.049Zm-.308-10.643a1.8,1.8,0,0,0-1.517.736,3.818,3.818,0,0,0-.688,1.931l.035.059h4.244v-.308a2.78,2.78,0,0,0-.515-1.76A1.859,1.859,0,0,0,431.4,119.406Z" transform="translate(-363.877 -112.542)"/>
    </g>
    <g id="Grupo_63066" data-name="Grupo 63066" transform="translate(725.386 502.439)">
      <path id="Trazado_112661" data-name="Trazado 112661" d="M623.4,399.039h-7.147v4.921h8.359v2.665H612.8V389.366h11.793v2.668h-8.333v4.338H623.4Z" transform="translate(-612.796 -388.134)"/>
      <path id="Trazado_112662" data-name="Trazado 112662" d="M621.962,399.089a8.343,8.343,0,0,1,1.31-4.9,4.251,4.251,0,0,1,3.691-1.86,3.652,3.652,0,0,1,1.873.468,4.224,4.224,0,0,1,1.388,1.345l.318-1.576h2.941v17.757h-3.462V404.2a3.783,3.783,0,0,1-1.333,1.078,3.994,3.994,0,0,1-1.749.368,4.336,4.336,0,0,1-3.668-1.729,7.4,7.4,0,0,1-1.31-4.577Zm3.449.242a5.317,5.317,0,0,0,.569,2.664,1.972,1.972,0,0,0,1.849.982,2.777,2.777,0,0,0,1.3-.284,2.3,2.3,0,0,0,.89-.828v-5.68a2.412,2.412,0,0,0-.883-.876,2.541,2.541,0,0,0-1.286-.308A1.949,1.949,0,0,0,626,396.135a6.419,6.419,0,0,0-.587,2.947Z" transform="translate(-608.994 -386.904)"/>
      <path id="Trazado_112663" data-name="Trazado 112663" d="M639.884,403.477a4.313,4.313,0,0,1-1.507,1.552,4.439,4.439,0,0,1-5.267-.753,5.981,5.981,0,0,1-1.145-4.036V392.5h3.448v7.781a3.334,3.334,0,0,0,.475,2.015,1.661,1.661,0,0,0,1.4.611,3.455,3.455,0,0,0,1.423-.267,2.394,2.394,0,0,0,.97-.791V392.5h3.461v12.825h-2.951Z" transform="translate(-604.845 -386.834)"/>
      <path id="Trazado_112664" data-name="Trazado 112664" d="M645.3,391.091h-3.46v-2.6h3.46Zm0,15.895h-3.46V394.161h3.46Z" transform="translate(-600.751 -388.495)"/>
      <path id="Trazado_112665" data-name="Trazado 112665" d="M657.861,399.338a7.37,7.37,0,0,1-1.316,4.577,4.352,4.352,0,0,1-3.674,1.729,4.1,4.1,0,0,1-1.79-.374,3.646,3.646,0,0,1-1.338-1.1v6.153h-3.451V392.57h3.117l.2,1.517a4.114,4.114,0,0,1,1.37-1.3,3.7,3.7,0,0,1,1.866-.457,4.267,4.267,0,0,1,3.7,1.86,8.312,8.312,0,0,1,1.316,4.9Zm-3.461-.266a6.235,6.235,0,0,0-.6-2.944,1.971,1.971,0,0,0-1.85-1.128,2.612,2.612,0,0,0-1.333.32,2.288,2.288,0,0,0-.87.914v5.626a2.114,2.114,0,0,0,.87.832,2.935,2.935,0,0,0,1.357.284,1.99,1.99,0,0,0,1.843-.985,5.206,5.206,0,0,0,.587-2.673Z" transform="translate(-598.903 -386.904)"/>
      <path id="Trazado_112666" data-name="Trazado 112666" d="M655.6,398.864a6.885,6.885,0,0,1,1.6-4.7,5.575,5.575,0,0,1,4.432-1.832,5.641,5.641,0,0,1,4.458,1.826,6.856,6.856,0,0,1,1.61,4.706v.249a6.858,6.858,0,0,1-1.6,4.711,6.341,6.341,0,0,1-8.892,0,6.858,6.858,0,0,1-1.6-4.711Zm3.448.242a5.554,5.554,0,0,0,.618,2.811,2.369,2.369,0,0,0,3.953-.006,5.529,5.529,0,0,0,.621-2.805v-.248a5.479,5.479,0,0,0-.627-2.783A2.131,2.131,0,0,0,661.635,395a2.1,2.1,0,0,0-1.961,1.082,5.523,5.523,0,0,0-.624,2.776Z" transform="translate(-595.042 -386.904)"/>
    </g>
    <g id="Grupo_63067" data-name="Grupo 63067" transform="translate(1127.845 181.338)">
      <path id="Trazado_112667" data-name="Trazado 112667" d="M902,181.5h10.51v3.649H897.268V161.53H902Z" transform="translate(-897.268 -161.53)"/>
      <path id="Trazado_112668" data-name="Trazado 112668" d="M919.907,185.147h-4.735V165.715h-4.8v-3.34l9.537-.845Z" transform="translate(-891.834 -161.53)"/>
    </g>
    <g id="Grupo_63068" data-name="Grupo 63068" transform="translate(1127.845 226.394)">
      <path id="Trazado_112669" data-name="Trazado 112669" d="M902,213.583h10.51v3.65H897.268V193.617H902Z" transform="translate(-897.268 -193.277)"/>
      <path id="Trazado_112670" data-name="Trazado 112670" d="M925.778,217.333H909.655v-3.1l7.64-8.191a18.519,18.519,0,0,0,2.353-3.2,5.2,5.2,0,0,0,.7-2.425,3.643,3.643,0,0,0-.805-2.44,2.819,2.819,0,0,0-2.278-.949,2.948,2.948,0,0,0-2.49,1.111,4.747,4.747,0,0,0-.85,2.961h-4.606l-.034-.1a7.144,7.144,0,0,1,2.1-5.41,7.883,7.883,0,0,1,5.88-2.213,8.2,8.2,0,0,1,5.734,1.9,6.512,6.512,0,0,1,2.084,5.061,7.1,7.1,0,0,1-1.177,3.95,38.707,38.707,0,0,1-3.884,4.742l-4.2,4.575.034.081h9.926Z" transform="translate(-892.286 -193.377)"/>
    </g>
    <g id="Grupo_63069" data-name="Grupo 63069" transform="translate(1127.845 278.433)">
      <path id="Trazado_112671" data-name="Trazado 112671" d="M902,250.368h10.51v3.649H897.268V230.4H902Z" transform="translate(-897.268 -230.06)"/>
      <path id="Trazado_112672" data-name="Trazado 112672" d="M914.468,240.3h2.661a3.227,3.227,0,0,0,2.5-.884,3.5,3.5,0,0,0,.812-2.456,3.2,3.2,0,0,0-.812-2.288,3.08,3.08,0,0,0-2.353-.86,3.321,3.321,0,0,0-2.238.78,2.557,2.557,0,0,0-.907,2.043h-4.591l-.033-.1a5.369,5.369,0,0,1,2.125-4.573,8.472,8.472,0,0,1,5.513-1.8,9.068,9.068,0,0,1,5.849,1.751,6.037,6.037,0,0,1,2.182,5,5.008,5.008,0,0,1-.973,2.927A6.472,6.472,0,0,1,921.524,242a6.014,6.014,0,0,1,2.992,2.141,5.63,5.63,0,0,1,1.031,3.357,6.134,6.134,0,0,1-2.361,5.1,9.465,9.465,0,0,1-6.042,1.859,9.258,9.258,0,0,1-5.652-1.743,5.574,5.574,0,0,1-2.278-4.923l.031-.1h4.592a2.88,2.88,0,0,0,.972,2.235,3.538,3.538,0,0,0,2.464.879,3.584,3.584,0,0,0,2.588-.907,3.234,3.234,0,0,0,.949-2.459,3.564,3.564,0,0,0-.932-2.728,3.915,3.915,0,0,0-2.749-.864h-2.661Z" transform="translate(-892.314 -230.16)"/>
    </g>
    <g id="Grupo_63070" data-name="Grupo 63070" transform="translate(1127.845 325.03)">
      <path id="Trazado_112673" data-name="Trazado 112673" d="M916.357,286.711h-4.72L902.1,270.573l-.1.017v16.121h-4.735V263.1H902l9.537,16.121.1-.016V263.1h4.72Z" transform="translate(-897.268 -263.096)"/>
    </g>
    <rect id="Rectángulo_7481" data-name="Rectángulo 7481" width="14.67" height="1.415" transform="translate(341.337 355.895)" fill="#161616"/>
    <rect id="Rectángulo_7482" data-name="Rectángulo 7482" width="51.915" height="1.415" transform="translate(358.407 355.895)" fill="#161616"/>
    <rect id="Rectángulo_7483" data-name="Rectángulo 7483" width="9.41" height="1.415" transform="translate(418.872 356.173)" fill="#161616"/>
    <rect id="Rectángulo_7484" data-name="Rectángulo 7484" width="51.916" height="1.415" transform="translate(436.894 356.173)" fill="#161616"/>
    <rect id="Rectángulo_7485" data-name="Rectángulo 7485" width="8.549" height="1.415" transform="translate(497.299 356.173)" fill="#161616"/>
    <rect id="Rectángulo_7486" data-name="Rectángulo 7486" width="15.532" height="1.415" transform="translate(514.337 356.173)" fill="#161616"/>
    <rect id="Rectángulo_7487" data-name="Rectángulo 7487" width="8.581" height="3.206" transform="translate(662.76 445.873) rotate(-90)" fill="#161616"/>
    <circle id="Elipse_4255" data-name="Elipse 4255" cx="8.15" cy="8.15" r="8.15" transform="translate(838.969 330.184)" fill="#161616"/>
  </g>
</svg>
